<svg width="15" height="15" viewBox="0 0 15 15" fill="none" xmlns="http://www.w3.org/2000/svg">
<path fill-rule="evenodd" clip-rule="evenodd" d="M11.4303 9.94889C11.5396 10.2537 11.8263 10.4442 12.1329 10.4442V10.4447C12.216 10.4447 12.3013 10.4307 12.3835 10.4009C13.4541 10.0184 14.1733 9.00024 14.1733 7.86736V2.68792C14.1733 1.20602 12.9678 0 11.4854 0H6.30597C5.17265 0 4.15401 0.71973 3.77247 1.78984C3.63475 2.17815 3.83659 2.60439 4.2249 2.74256C4.61321 2.87982 5.039 2.67799 5.17852 2.29058C5.34829 1.81287 5.80207 1.49184 6.30597 1.49184H11.4854C12.1446 1.49184 12.6815 2.0287 12.6815 2.68792V7.86736C12.6815 8.37126 12.36 8.82505 11.8823 8.99527C11.494 9.13434 11.2913 9.56058 11.4303 9.94889ZM7.77977 14.1734H2.66399C1.19564 14.1734 0 12.9786 0 11.5098V6.39404C0 4.92523 1.19564 3.73049 2.66399 3.73049H7.77977C9.24812 3.73049 10.4433 4.92523 10.4433 6.39404V11.5098C10.4433 12.9786 9.24767 14.1734 7.77977 14.1734ZM2.66404 5.22188C2.01791 5.22188 1.49188 5.74791 1.49188 6.39404V11.5098C1.49188 12.1559 2.01791 12.682 2.66404 12.682H7.77981C8.42594 12.682 8.95197 12.1559 8.95197 11.5098V6.39404C8.95197 5.74791 8.42594 5.22188 7.77981 5.22188H2.66404Z" fill="#00579E"/>
</svg>
