<svg width="34" height="22" viewBox="0 0 34 22" fill="none" xmlns="http://www.w3.org/2000/svg">
<g clip-path="url(#clip0_4408_16108)">
<path d="M1.14869 21.1669C0.664232 21.1669 0.27002 20.7727 0.27002 20.2883V1.14886C0.27002 0.664399 0.664096 0.270187 1.14869 0.270187H32.7806C33.2651 0.270187 33.6593 0.664399 33.6593 1.14886V20.2883C33.6593 20.7727 33.2651 21.1669 32.7806 21.1669H1.14869Z" fill="white"/>
<path d="M32.7807 0.540387C33.1162 0.540387 33.3891 0.813282 33.3891 1.14886V20.2883C33.3891 20.6239 33.1162 20.8968 32.7807 20.8968H1.14886C0.813282 20.8968 0.540387 20.6239 0.540387 20.2883V1.14886C0.540387 0.813282 0.813282 0.540387 1.14886 0.540387H32.7807ZM32.7807 0H1.14886C0.517015 0 0 0.517015 0 1.14886V20.2883C0 20.9201 0.517015 21.4371 1.14886 21.4371H32.7807C33.4125 21.4371 33.9295 20.9201 33.9295 20.2883V1.14886C33.9295 0.517015 33.4125 0 32.7807 0Z" fill="#004A97"/>
<path d="M5.67965 15.4055C5.67965 15.8109 5.96943 15.8581 6.22719 15.8581C7.36444 15.8581 7.73757 15.0003 7.73757 14.2161C7.73757 13.2318 7.10613 12.5214 6.09048 12.5214C5.87419 12.5214 5.77462 12.5368 5.67965 12.5425V15.4055ZM5.16371 12.937C5.16371 12.4636 4.91649 12.4948 4.67993 12.4898V12.3531C4.88501 12.3631 5.09535 12.3631 5.30097 12.3631C5.52185 12.3631 5.8219 12.3531 6.21166 12.3531C7.57451 12.3531 8.317 13.2631 8.317 14.1951C8.317 14.7166 8.01169 16.0269 6.1483 16.0269C5.88013 16.0269 5.6325 16.0165 5.38527 16.0165C5.14858 16.0165 4.91662 16.0214 4.68007 16.0269V15.8901C4.99552 15.8582 5.14858 15.8478 5.16385 15.49L5.16371 12.937Z" fill="#231F20"/>
<path d="M9.06441 12.8109C8.92729 12.8109 8.80651 12.6846 8.80651 12.5479C8.80651 12.4161 8.93296 12.2947 9.06441 12.2947C9.201 12.2947 9.32245 12.4055 9.32245 12.5479C9.32245 12.6902 9.2064 12.8109 9.06441 12.8109ZM8.50146 15.8899H8.60117C8.74842 15.8899 8.85393 15.8899 8.85393 15.7158V14.2897C8.85393 14.0584 8.77517 14.0264 8.58009 13.9214V13.8374C8.82745 13.7631 9.1225 13.6638 9.14331 13.6479C9.18033 13.6268 9.21153 13.6213 9.23828 13.6213C9.26409 13.6213 9.27489 13.6529 9.27489 13.6954V15.7159C9.27489 15.8901 9.39094 15.8901 9.53847 15.8901H9.6275V16.0269C9.44849 16.0269 9.26395 16.0165 9.07522 16.0165C8.88568 16.0165 8.69614 16.0214 8.50146 16.0269V15.8899Z" fill="#231F20"/>
<path d="M10.1277 14.3213C10.1277 14.1268 10.0697 14.0744 9.82269 13.9741V13.8742C10.0486 13.8005 10.2642 13.7318 10.5171 13.6211C10.533 13.6211 10.5483 13.6317 10.5483 13.6737V14.0159C10.8488 13.8004 11.1068 13.6211 11.4599 13.6211C11.9067 13.6211 12.0645 13.9475 12.0645 14.3581V15.7157C12.0645 15.8898 12.1805 15.8898 12.3278 15.8898H12.4228V16.0266C12.238 16.0266 12.054 16.0162 11.8647 16.0162C11.6751 16.0162 11.4855 16.0211 11.2959 16.0266V15.8898H11.3909C11.5384 15.8898 11.6431 15.8898 11.6431 15.7157V14.3531C11.6431 14.0526 11.4598 13.9055 11.1595 13.9055C10.9909 13.9055 10.7224 14.0421 10.5483 14.1583V15.7155C10.5483 15.8897 10.6646 15.8897 10.812 15.8897H10.9066V16.0265C10.7224 16.0265 10.5382 16.0161 10.3484 16.0161C10.1592 16.0161 9.96954 16.021 9.78027 16.0265V15.8897H9.87525C10.0225 15.8897 10.1276 15.8897 10.1276 15.7155L10.1277 14.3213Z" fill="#231F20"/>
<path d="M13.7549 14.4058C13.8862 14.4058 13.9016 14.3373 13.9016 14.2739C13.9016 14.006 13.7385 13.7901 13.4436 13.7901C13.1229 13.7901 12.9017 14.0265 12.8386 14.4059L13.7549 14.4058ZM12.823 14.5744C12.8122 14.6216 12.8122 14.7004 12.823 14.8795C12.8539 15.3794 13.1757 15.7898 13.5963 15.7898C13.8862 15.7898 14.1127 15.6319 14.307 15.4375L14.3804 15.5111C14.1381 15.8321 13.8384 16.106 13.4071 16.106C12.5701 16.106 12.4016 15.295 12.4016 14.9583C12.4016 13.9266 13.0963 13.6211 13.4643 13.6211C13.8911 13.6211 14.3492 13.8896 14.3542 14.4475C14.3542 14.4795 14.3542 14.5107 14.3492 14.5425L14.3016 14.5742L12.823 14.5744Z" fill="#231F20"/>
<path d="M14.4756 15.8899H14.6178C14.7647 15.8899 14.8701 15.8899 14.8701 15.7158V14.2372C14.8701 14.0744 14.6755 14.0422 14.5965 14.0001V13.9214C14.9807 13.7582 15.1913 13.6213 15.2394 13.6213C15.2702 13.6213 15.286 13.6371 15.286 13.69V14.1638H15.2971C15.4283 13.9586 15.6497 13.6214 15.9707 13.6214C16.1022 13.6214 16.2705 13.7107 16.2705 13.9004C16.2705 14.0425 16.1709 14.1693 16.0237 14.1693C15.8599 14.1693 15.8599 14.0424 15.6755 14.0424C15.5861 14.0424 15.2913 14.1638 15.2913 14.4798V15.7159C15.2913 15.8901 15.3965 15.8901 15.5439 15.8901H15.8384V16.0269C15.5489 16.0214 15.3286 16.0165 15.1022 16.0165C14.8863 16.0165 14.6651 16.0214 14.4757 16.0269L14.4756 15.8899Z" fill="#231F20"/>
<path d="M16.5017 15.295C16.5704 15.6423 16.7805 15.9375 17.1654 15.9375C17.4755 15.9375 17.5912 15.7478 17.5912 15.5638C17.5912 14.9424 16.4441 15.1426 16.4441 14.2953C16.4441 14.0001 16.6811 13.6213 17.2601 13.6213C17.4283 13.6213 17.6546 13.6689 17.8597 13.7742L17.8966 14.3107H17.7755C17.723 13.9793 17.539 13.7899 17.2018 13.7899C16.9913 13.7899 16.7915 13.9108 16.7915 14.1371C16.7915 14.7532 18.0122 14.5634 18.0122 15.3898C18.0122 15.737 17.7335 16.106 17.1069 16.106C16.8966 16.106 16.6489 16.0321 16.4652 15.9268L16.407 15.3214L16.5017 15.295Z" fill="#231F20"/>
<path d="M22.7649 13.3054H22.6336C22.5335 12.69 22.0966 12.4425 21.5074 12.4425C20.9014 12.4425 20.0227 12.8474 20.0227 14.1107C20.0227 15.1742 20.7809 15.9375 21.5912 15.9375C22.1119 15.9375 22.5443 15.5795 22.6494 15.0265L22.7705 15.058L22.6494 15.8267C22.4284 15.9637 21.8334 16.1061 21.4856 16.1061C20.2544 16.1061 19.4756 15.3112 19.4756 14.1269C19.4756 13.0478 20.4388 12.2737 21.4704 12.2737C21.8965 12.2737 22.3069 12.4109 22.7122 12.5532L22.7649 13.3054Z" fill="#231F20"/>
<path d="M22.9549 15.8899H23.0544C23.2024 15.8899 23.3073 15.8899 23.3073 15.7158V12.7849C23.3073 12.4425 23.2286 12.432 23.0282 12.374V12.2897C23.2387 12.2215 23.46 12.127 23.5706 12.0633C23.6278 12.0322 23.6703 12.0054 23.6859 12.0054C23.718 12.0054 23.7284 12.0374 23.7284 12.0795V15.7159C23.7284 15.8901 23.8443 15.8901 23.9916 15.8901H24.0806V16.0269C23.9023 16.0269 23.718 16.0165 23.5283 16.0165C23.3389 16.0165 23.1497 16.0214 22.9546 16.0269V15.8899H22.9549Z" fill="#231F20"/>
<path d="M26.3344 15.7371C26.3344 15.8322 26.3919 15.8372 26.4812 15.8372C26.5447 15.8372 26.6234 15.8322 26.6923 15.8322V15.9432C26.4658 15.964 26.0341 16.0745 25.934 16.1062L25.9078 16.0901V15.6638C25.5923 15.9215 25.3498 16.1062 24.9756 16.1062C24.6916 16.1062 24.397 15.9215 24.397 15.48V14.1322C24.397 13.9951 24.3762 13.8635 24.0818 13.8375V13.7373C24.2713 13.7322 24.6916 13.7007 24.7602 13.7007C24.8187 13.7007 24.8187 13.7373 24.8187 13.8533V15.2111C24.8187 15.3691 24.8187 15.8214 25.2766 15.8214C25.4553 15.8214 25.6921 15.6849 25.913 15.501V14.0846C25.913 13.9795 25.6605 13.9216 25.4714 13.8692V13.7745C25.9446 13.7424 26.2397 13.7006 26.2922 13.7006C26.3347 13.7006 26.3347 13.7372 26.3347 13.7953V15.7371H26.3344Z" fill="#231F20"/>
<path d="M27.3815 15.432C27.3815 15.6319 27.571 15.969 27.9236 15.969C28.4867 15.969 28.7234 15.4163 28.7234 14.9475C28.7234 14.3791 28.2923 13.9056 27.8819 13.9056C27.6864 13.9056 27.5235 14.0321 27.3815 14.1533V15.432ZM27.3815 14.0002C27.5919 13.8217 27.8763 13.6213 28.1657 13.6213C28.7763 13.6213 29.1448 14.1534 29.1448 14.7269C29.1448 15.4162 28.6394 16.1061 27.8863 16.1061C27.4972 16.1061 27.2919 15.9794 27.1548 15.9214L26.9974 16.0425L26.887 15.9848C26.934 15.6743 26.9606 15.369 26.9606 15.0477V12.7849C26.9606 12.4425 26.8813 12.432 26.6814 12.374V12.2897C26.8921 12.2215 27.113 12.127 27.2234 12.0633C27.2815 12.0322 27.3235 12.0054 27.3396 12.0054C27.3709 12.0054 27.3815 12.0374 27.3815 12.0795V14.0002Z" fill="#231F20"/>
<path d="M4.67432 19.0873H4.71458C4.81752 19.0873 4.92641 19.0732 4.92641 18.9241V17.4237C4.92641 17.2744 4.81752 17.2602 4.71458 17.2602H4.67432V17.1742C4.78591 17.1742 4.95788 17.1856 5.09852 17.1856C5.24159 17.1856 5.41316 17.1742 5.54785 17.1742V17.2602H5.50746C5.40492 17.2602 5.29576 17.2744 5.29576 17.4237V18.9241C5.29576 19.0732 5.40478 19.0873 5.50746 19.0873H5.54785V19.1733C5.41046 19.1733 5.23821 19.1622 5.09555 19.1622C4.95491 19.1622 4.78591 19.1733 4.67432 19.1733V19.0873Z" fill="#231F20"/>
<path d="M5.53529 19.161L5.53543 19.1001H5.50787C5.40546 19.1001 5.28374 19.0823 5.28293 18.9241V17.4237C5.28361 17.2654 5.40533 17.2477 5.50787 17.2477H5.53543V17.1866C5.4033 17.1867 5.23727 17.1981 5.09839 17.1981C4.96235 17.1981 4.79766 17.1874 4.68675 17.1866V17.2477H4.71417C4.81631 17.2477 4.9383 17.2654 4.9383 17.4237V18.9241C4.9383 19.0823 4.81631 19.1001 4.71417 19.1001H4.68675V19.161C4.79766 19.1601 4.95937 19.1495 5.09528 19.1495C5.2347 19.1495 5.40019 19.1604 5.53529 19.161ZM5.54772 19.1856C5.40911 19.1856 5.23767 19.1741 5.09515 19.1741C4.95492 19.1741 4.78659 19.1856 4.67405 19.1856H4.66162V19.1735V19.0875V19.075H4.67418H4.71417C4.81806 19.0724 4.91263 19.064 4.91358 18.9241V17.4237C4.91263 17.2835 4.8182 17.2744 4.71417 17.2726H4.66162V17.2602V17.1617H4.67418C4.78659 17.1617 4.95829 17.1729 5.09839 17.1729C5.24078 17.1729 5.41235 17.1617 5.54772 17.1617H5.56042V17.1746V17.2726H5.54772H5.50787C5.40384 17.2744 5.30873 17.2836 5.30819 17.4237V18.9241C5.30873 19.064 5.40384 19.0724 5.50787 19.075H5.56055V19.0875V19.1856H5.54772Z" fill="#231F20"/>
<path d="M7.51532 18.6089L7.52099 18.6032V17.5296C7.52099 17.2945 7.35752 17.2602 7.27174 17.2602H7.20865V17.1743C7.34347 17.1743 7.47519 17.1858 7.60961 17.1858C7.72701 17.1858 7.84509 17.1743 7.96195 17.1743V17.2602H7.91939C7.79875 17.2602 7.66406 17.2831 7.66406 17.624V18.927C7.66406 19.0274 7.66689 19.1277 7.68094 19.2164H7.57206L6.09734 17.5722V18.7525C6.09734 19.0018 6.14571 19.0874 6.36632 19.0874H6.41509V19.1735C6.29188 19.1735 6.16894 19.1622 6.04573 19.1622C5.91712 19.1622 5.78527 19.1735 5.65625 19.1735V19.0874H5.69637C5.89402 19.0874 5.954 18.9527 5.954 18.7243V17.5176C5.954 17.3574 5.82188 17.2602 5.69354 17.2602H5.65639V17.1743C5.765 17.1743 5.87686 17.1858 5.98548 17.1858C6.07167 17.1858 6.15476 17.1743 6.24068 17.1743L7.51532 18.6089Z" fill="#231F20"/>
<path d="M7.50856 18.6032V18.6021L7.50627 18.6004L7.50856 18.6032ZM7.57219 19.2035H7.6669C7.65406 19.1173 7.65177 19.0222 7.65177 18.9269V17.6239C7.65177 17.2802 7.79591 17.2477 7.91926 17.2474H7.94938V17.1865C7.83658 17.1873 7.7235 17.1977 7.60962 17.1977C7.47844 17.1977 7.35091 17.1873 7.22148 17.1865L7.22121 17.2474H7.27187C7.35996 17.2477 7.53342 17.2868 7.53342 17.5295L7.52964 18.6121L7.52397 18.6177L7.51424 18.6269L6.24055 17.1865C6.15544 17.1865 6.07262 17.1977 5.98521 17.1977C5.88024 17.1977 5.77271 17.1873 5.66882 17.1865L5.66828 17.2474H5.69368C5.82796 17.2477 5.9663 17.3502 5.9663 17.5179V18.724C5.9663 18.9533 5.9024 19.0996 5.69651 19.1004L5.66882 19.0996V19.161C5.79284 19.1601 5.92064 19.1495 6.04574 19.1495C6.16516 19.1495 6.28445 19.1601 6.40266 19.161V19.1004H6.36646C6.14112 19.0996 6.08532 19.0013 6.08505 18.7524V17.54L7.57219 19.2035ZM7.68095 19.2284L7.56301 19.2244L6.1095 17.6044V18.7525C6.11302 19.0015 6.15084 19.0723 6.36646 19.075H6.42779V19.0874V19.1856H6.41509C6.29121 19.1856 6.16786 19.1741 6.04574 19.1741C5.91753 19.1741 5.78595 19.1856 5.65612 19.1856H5.64355V19.1735V19.075H5.65612H5.69651C5.88578 19.0739 5.93982 18.9523 5.94198 18.7241V17.518C5.94144 17.3655 5.81634 17.2726 5.69381 17.2726H5.64369V17.2597V17.1617H5.65625C5.76568 17.1617 5.87781 17.1729 5.98521 17.1729C6.0706 17.1729 6.15341 17.1617 6.25 17.1662L7.50856 18.5831V17.5297C7.50708 17.3022 7.35523 17.2745 7.27174 17.2728H7.19595V17.2598V17.1619H7.20865C7.34402 17.1619 7.47574 17.1731 7.60962 17.1731C7.72607 17.1731 7.84347 17.1619 7.96195 17.1619H7.97451V17.1743V17.2728H7.96195H7.91926C7.80091 17.2759 7.67973 17.2863 7.67622 17.624V18.927C7.67622 19.0273 7.67946 19.1273 7.69311 19.2143L7.69567 19.2286H7.68095V19.2284Z" fill="#231F20"/>
<path d="M8.39115 17.3174C8.17608 17.3174 8.16784 17.3691 8.12474 17.578H8.03882C8.05003 17.4979 8.06435 17.4176 8.07327 17.3347C8.08475 17.2541 8.09043 17.1742 8.09043 17.0913H8.15919C8.18216 17.1773 8.25389 17.1742 8.33144 17.1742H9.80858C9.88626 17.1742 9.95773 17.1713 9.96368 17.0854L10.032 17.0972C10.021 17.1742 10.0092 17.2516 10.001 17.3291C9.99542 17.4064 9.99542 17.4835 9.99542 17.5608L9.90923 17.5927C9.90342 17.4868 9.88924 17.3174 9.6974 17.3174H9.22767V18.841C9.22767 19.0619 9.32805 19.0873 9.46517 19.0873H9.51975V19.1733C9.40802 19.1733 9.2074 19.1622 9.05299 19.1622C8.88101 19.1622 8.68026 19.1733 8.56853 19.1733V19.0873H8.62311C8.7809 19.0873 8.86075 19.0732 8.86075 18.8469V17.3174H8.39115Z" fill="#231F20"/>
<path d="M9.52004 19.1856C9.40724 19.1856 9.20689 19.1743 9.05315 19.1743C8.88131 19.1743 8.68109 19.1856 8.56869 19.1856H8.55653V19.1735V19.075H8.56869H8.62327C8.78107 19.0713 8.84456 19.0693 8.84821 18.8471V17.3298H8.39118V17.3175V17.3047H8.87307V18.8471C8.87307 19.077 8.78039 19.1002 8.62327 19.1005H8.58085V19.1609C8.69379 19.1602 8.88685 19.1495 9.05301 19.1495C9.20216 19.1495 9.39346 19.1601 9.50694 19.1609V19.1005H9.46506C9.32658 19.1002 9.215 19.0662 9.215 18.8411V17.3045H9.69716C9.88926 17.3052 9.91466 17.4685 9.92074 17.5751L9.98261 17.5523C9.98261 17.4775 9.98288 17.4026 9.98815 17.3274C9.99653 17.2533 10.0069 17.1806 10.0177 17.1072L9.97424 17.1C9.96086 17.1833 9.88021 17.1878 9.80834 17.1867H8.33146H8.31647C8.24919 17.1869 8.1757 17.1835 8.14989 17.1036H8.10261C8.10207 17.1828 8.09667 17.2597 8.08586 17.336C8.07735 17.4146 8.06424 17.4903 8.05384 17.5662H8.11504C8.15273 17.3664 8.17705 17.3018 8.39118 17.3047V17.3175V17.3298C8.17907 17.334 8.1838 17.3694 8.13706 17.5811L8.13503 17.5908H8.1249H8.02466L8.02628 17.5759C8.0379 17.496 8.05249 17.4157 8.06073 17.3325C8.07262 17.2531 8.07816 17.1736 8.07816 17.0915V17.0788H8.09045H8.16908L8.17124 17.0878C8.19056 17.16 8.24352 17.1605 8.3166 17.1619H8.3316H9.80861C9.88832 17.1607 9.94654 17.1596 9.95141 17.0846L9.95249 17.0711L9.96546 17.0738L10.0464 17.0866L10.0444 17.0992C10.033 17.1761 10.0218 17.2532 10.0133 17.3299C10.0079 17.4065 10.0079 17.4837 10.0079 17.5611V17.5697L9.9995 17.573L9.89831 17.6101L9.8975 17.5935C9.88967 17.4857 9.87859 17.3299 9.69756 17.3299H9.24026V18.8413C9.24323 19.0573 9.32888 19.0724 9.46533 19.0751H9.53234V19.0875V19.1858L9.52004 19.1856Z" fill="#231F20"/>
<path d="M10.1232 19.0873H10.1636C10.2664 19.0873 10.3755 19.0732 10.3755 18.9241V17.4237C10.3755 17.2744 10.2664 17.2602 10.1636 17.2602H10.1232V17.1742C10.2975 17.1742 10.5959 17.1856 10.836 17.1856C11.077 17.1856 11.3744 17.1742 11.5693 17.1742C11.5643 17.2972 11.567 17.4868 11.5753 17.6126L11.489 17.6352C11.4752 17.4491 11.4409 17.3005 11.1401 17.3005H10.7425V18.0504H11.0826C11.2545 18.0504 11.2919 17.9534 11.3089 17.7986H11.3948C11.3892 17.9104 11.3862 18.0222 11.3862 18.1338C11.3862 18.2428 11.3892 18.3515 11.3948 18.4601L11.3089 18.4773C11.292 18.3057 11.2834 18.194 11.0856 18.194H10.7425V18.861C10.7425 19.0474 10.908 19.0474 11.0913 19.0474C11.435 19.0474 11.5867 19.0243 11.6727 18.6983L11.7526 18.718C11.7153 18.8702 11.6811 19.0215 11.6556 19.1735C11.4721 19.1735 11.1428 19.1624 10.8854 19.1624C10.6271 19.1624 10.2865 19.1735 10.123 19.1735L10.1232 19.0873Z" fill="#231F20"/>
<path d="M11.6449 19.1609C11.6699 19.0161 11.7026 18.8715 11.7378 18.7272L11.6814 18.7131C11.5956 19.0334 11.4295 19.062 11.0915 19.0598C10.911 19.0598 10.7306 19.0598 10.7295 18.8608V18.1814H11.0856C11.2857 18.1794 11.3059 18.2999 11.3202 18.4629L11.382 18.4503C11.3765 18.3446 11.3737 18.2387 11.3737 18.1338C11.3737 18.0262 11.3765 17.9188 11.382 17.8107H11.3202C11.3041 17.9603 11.2572 18.0647 11.0828 18.063H10.7297V17.2876H11.1404C11.4382 17.2853 11.4876 17.4395 11.5005 17.6197L11.5621 17.6028C11.5571 17.522 11.5539 17.4181 11.5539 17.3226C11.5539 17.2736 11.5551 17.2271 11.5569 17.1866C11.3623 17.1874 11.0719 17.1978 10.8364 17.1978C10.6011 17.1978 10.3114 17.1874 10.1361 17.1866V17.2475H10.1637C10.2656 17.2478 10.3875 17.2654 10.3881 17.4238V18.9242C10.3875 19.0824 10.2656 19.0997 10.1637 19.1006H10.1361V19.161C10.3028 19.1605 10.6339 19.1497 10.8854 19.1497C11.1382 19.1495 11.4604 19.1604 11.6449 19.1609ZM11.6556 19.1856C11.4719 19.1856 11.1423 19.1737 10.8854 19.1737C10.6274 19.1737 10.287 19.1856 10.1234 19.1856H10.1113V19.1735V19.0874V19.075H10.1234H10.1637C10.2674 19.0732 10.3617 19.064 10.363 18.9241V17.4237C10.3618 17.2837 10.2674 17.2744 10.1637 17.2726H10.1115V17.2602V17.1617H10.1235C10.2984 17.1617 10.5965 17.1729 10.8364 17.1729C11.0771 17.1729 11.3745 17.1617 11.5696 17.1617H11.5823L11.5819 17.175C11.58 17.2178 11.5789 17.2687 11.5789 17.3226C11.5789 17.4217 11.5819 17.5301 11.5875 17.6116L11.5881 17.6217L11.5783 17.6247L11.4777 17.6511L11.4773 17.6362C11.4604 17.4504 11.4354 17.3152 11.1405 17.3125H10.7545L10.7543 18.0378H11.0829C11.248 18.0361 11.2775 17.9518 11.2971 17.7974L11.2977 17.7859H11.3091H11.4079L11.4076 17.7989C11.402 17.9107 11.3987 18.0222 11.3987 18.1338C11.3987 18.2421 11.402 18.3509 11.4076 18.4596L11.4079 18.47L11.3974 18.4723L11.2977 18.4922L11.2971 18.4787C11.2772 18.3037 11.276 18.2079 11.0859 18.2059H10.7545V18.8608C10.7549 19.0349 10.905 19.0339 11.0916 19.0349C11.4365 19.0328 11.5746 19.0159 11.6609 18.6947L11.6639 18.6831L11.6759 18.6851L11.7676 18.7089L11.765 18.7206C11.7279 18.8722 11.6937 19.0238 11.6678 19.1752L11.6656 19.1853H11.6556V19.1856Z" fill="#231F20"/>
<path d="M12.5063 18.1419H12.6462C12.9331 18.1419 13.0873 18.0334 13.0873 17.6952C13.0873 17.4406 12.9241 17.2774 12.6689 17.2774C12.583 17.2774 12.5464 17.2862 12.5063 17.2889V18.1419ZM12.1398 17.4775C12.1398 17.2687 12.0251 17.2601 11.9362 17.2601H11.8844V17.1742C11.9762 17.1742 12.1537 17.1856 12.3285 17.1856C12.4999 17.1856 12.6377 17.1742 12.7895 17.1742C13.1499 17.1742 13.4713 17.2714 13.4713 17.6785C13.4713 17.9361 13.2993 18.0934 13.0732 18.1827L13.5626 18.9154C13.643 19.0365 13.6999 19.0705 13.8405 19.0874V19.1735C13.7458 19.1735 13.6541 19.1624 13.5599 19.1624C13.4711 19.1624 13.379 19.1735 13.2907 19.1735C13.07 18.8844 12.8808 18.5751 12.6947 18.2452H12.506V18.8585C12.506 19.079 12.609 19.0874 12.7401 19.0874H12.792V19.1735C12.6284 19.1735 12.4629 19.1624 12.2993 19.1624C12.1619 19.1624 12.0272 19.1735 11.884 19.1735V19.0874H11.9358C12.0421 19.0874 12.1394 19.0389 12.1394 18.933V17.4775H12.1398Z" fill="#231F20"/>
<path d="M12.6462 18.1298C12.9296 18.127 13.0726 18.0286 13.0754 17.696C13.0736 17.4457 12.9183 17.2906 12.6689 17.2895C12.5916 17.2895 12.5551 17.2966 12.5185 17.3002V18.1298H12.6462ZM12.5061 18.1542H12.4934V17.2772L12.5043 17.2764C12.5435 17.2732 12.5822 17.2654 12.6688 17.2654C12.9296 17.2654 13.0995 17.4349 13.0997 17.696C13.0989 18.0378 12.935 18.1542 12.6461 18.1543H12.5061V18.1542ZM12.5061 18.2328H12.7019L12.7054 18.2393C12.8918 18.5684 13.08 18.8776 13.2909 19.1612C13.378 19.1612 13.4702 19.1497 13.5593 19.1497C13.6508 19.1497 13.7391 19.1597 13.828 19.161V19.0982C13.6939 19.0819 13.6308 19.0412 13.5526 18.9226L13.0539 18.1771L13.0681 18.1714C13.2924 18.0831 13.4587 17.93 13.4587 17.6783C13.4585 17.281 13.1494 17.1888 12.7894 17.1869C12.6386 17.1869 12.501 17.1983 12.3285 17.1983C12.1603 17.1983 11.9903 17.1877 11.8965 17.1869V17.2478H11.936C12.0249 17.2481 12.1513 17.2628 12.1513 17.4779V18.9334C12.1513 19.0484 12.0437 19.1005 11.936 19.1009H11.8965V19.1613C12.0342 19.1608 12.165 19.15 12.2995 19.15C12.4595 19.15 12.6212 19.1608 12.7795 19.1613V19.1009H12.7404C12.61 19.1006 12.4934 19.0846 12.4934 18.8584V18.2333H12.5061V18.2328ZM13.8406 19.1856C13.7445 19.1856 13.6535 19.1741 13.5592 19.1741C13.4719 19.1741 13.3803 19.1856 13.2806 19.1808C13.0609 18.8923 12.8725 18.585 12.6875 18.258H12.5183V18.8579C12.5215 19.0735 12.6078 19.0719 12.7402 19.0748H12.8045V19.0873V19.1855H12.7918C12.6281 19.1855 12.4618 19.174 12.2994 19.174C12.1627 19.174 12.028 19.1855 11.8843 19.1855H11.8718V19.1733V19.0748H11.8843H11.936C12.0389 19.0742 12.1261 19.0292 12.1265 18.9329V17.4775C12.1243 17.2744 12.0249 17.2755 11.936 17.2726H11.8718V17.2602V17.1616H11.8843C11.9769 17.1616 12.1538 17.1728 12.3283 17.1728C12.4993 17.1728 12.6366 17.1616 12.7893 17.1616C13.1504 17.1624 13.4826 17.2618 13.4835 17.6779C13.4835 17.9364 13.3126 18.098 13.0919 18.1881L13.5728 18.9085C13.6529 19.0273 13.7028 19.057 13.8422 19.075L13.8526 19.0766V19.0874V19.1856H13.8406Z" fill="#231F20"/>
<path d="M15.785 18.6089L15.79 18.6032V17.5296C15.79 17.2945 15.6273 17.2602 15.5412 17.2602H15.4784V17.1743C15.6131 17.1743 15.7443 17.1858 15.8794 17.1858C15.9971 17.1858 16.1136 17.1743 16.2319 17.1743V17.2602H16.1888C16.0684 17.2602 15.9338 17.2831 15.9338 17.624V18.927C15.9338 19.0274 15.9367 19.1277 15.9507 19.2164H15.8424L14.3675 17.5722V18.7525C14.3675 19.0018 14.4159 19.0874 14.6364 19.0874H14.6851V19.1735C14.5621 19.1735 14.4387 19.1622 14.3156 19.1622C14.1862 19.1622 14.0548 19.1735 13.926 19.1735V19.0874H13.9659C14.1637 19.0874 14.224 18.9527 14.224 18.7243V17.5176C14.224 17.3574 14.0922 17.2602 13.9633 17.2602H13.926V17.1743C14.0344 17.1743 14.1469 17.1858 14.2555 17.1858C14.3406 17.1858 14.4241 17.1743 14.5102 17.1743L15.785 18.6089Z" fill="#231F20"/>
<path d="M15.7777 18.6032V18.6024L15.7757 18.6002L15.7777 18.6032ZM15.8423 19.2034H15.936C15.9235 19.1178 15.9209 19.0222 15.9209 18.9269V17.6239C15.9212 17.2802 16.066 17.2483 16.1885 17.2474H16.2186V17.1865C16.1058 17.1873 15.9928 17.1977 15.8791 17.1977C15.7476 17.1977 15.6199 17.1873 15.4903 17.1865V17.2474H15.541C15.6292 17.2482 15.8027 17.2868 15.8027 17.5295L15.7985 18.6121L15.7934 18.6177L15.7843 18.6271L14.5101 17.1865C14.4248 17.1865 14.3417 17.1977 14.2553 17.1977C14.1491 17.1977 14.0421 17.1873 13.9379 17.1865V17.2474H13.9631C14.0978 17.2482 14.2356 17.3498 14.2356 17.5174V18.7235C14.2356 18.9533 14.1709 19.0996 13.9655 19.1005L13.9378 19.1002V19.1612C14.0616 19.1604 14.1891 19.1497 14.3147 19.1497C14.4348 19.1497 14.5538 19.1602 14.6723 19.1612V19.1006H14.636C14.4106 19.1004 14.3544 19.002 14.3538 18.7525V17.5407L15.8423 19.2034ZM15.9506 19.2284L15.8329 19.2244L14.3793 17.6046V18.7522C14.3827 19.0018 14.4204 19.0721 14.6364 19.075H14.6971V19.0874V19.1856H14.6846C14.5609 19.1856 14.4379 19.1737 14.3151 19.1737C14.1873 19.1737 14.0549 19.1856 13.9259 19.1856H13.9131V19.1735V19.075H13.9259H13.9658C14.1549 19.0743 14.2091 18.9523 14.211 18.7235V17.5174C14.2107 17.3648 14.0857 17.2725 13.9633 17.2725H13.9131V17.2601V17.1616H13.9259C14.0353 17.1616 14.1473 17.1728 14.2554 17.1728C14.3396 17.1728 14.4225 17.1616 14.5186 17.1652L15.7776 18.5828V17.5295C15.7769 17.302 15.6242 17.2739 15.541 17.2725H15.4655V17.2601V17.1616H15.4779C15.6131 17.1616 15.7453 17.1728 15.8791 17.1728C15.9959 17.1728 16.113 17.1616 16.2312 17.1616H16.2439V17.1744V17.2725H16.2312H16.1887C16.0704 17.2753 15.9487 17.286 15.9459 17.6238V18.9268C15.9459 19.027 15.9485 19.1263 15.963 19.2143L15.9645 19.2283L15.9506 19.2284Z" fill="#231F20"/>
<path d="M17.1103 17.495H17.1044L16.8382 18.3056H17.3733L17.1103 17.495ZM16.6922 18.7638C16.6633 18.861 16.6288 18.9361 16.6288 18.9869C16.6288 19.0732 16.7495 19.0874 16.8436 19.0874H16.8756V19.1733C16.7607 19.1671 16.6437 19.1622 16.5284 19.1622C16.4254 19.1622 16.3228 19.1671 16.2195 19.1733V19.0874H16.2369C16.3484 19.0874 16.4432 19.0213 16.4858 18.901L16.944 17.5869C16.9814 17.4807 17.033 17.3376 17.0505 17.2314C17.1415 17.2001 17.2566 17.1431 17.3108 17.1084C17.3197 17.1055 17.325 17.1026 17.3336 17.1026C17.3423 17.1026 17.3475 17.1026 17.3539 17.1116C17.3624 17.1343 17.3708 17.1601 17.3796 17.1829L17.9068 18.681C17.9412 18.781 17.9752 18.8868 18.0118 18.9732C18.0468 19.0536 18.1069 19.0875 18.2018 19.0875H18.2189V19.1735C18.0899 19.1672 17.9607 19.1624 17.8238 19.1624C17.6834 19.1624 17.5396 19.1672 17.3937 19.1735V19.0875H17.4254C17.4907 19.0875 17.6031 19.0761 17.6031 19.0045C17.6031 18.9676 17.5773 18.8902 17.5453 18.7982L17.4337 18.4661H16.7836L16.6922 18.7638Z" fill="#231F20"/>
<path d="M16.8552 18.293H17.3567L17.1074 17.5256L16.8552 18.293ZM16.821 18.3179L17.0951 17.4823H17.1047H17.1105H17.1192L17.3912 18.3179H16.821ZM17.4065 19.1601C17.5481 19.1551 17.6872 19.1495 17.8241 19.1495C17.9569 19.1495 18.0817 19.1552 18.2063 19.1601V19.1001H18.2021C18.1039 19.1008 18.0363 19.0621 18.0012 18.9777C17.9639 18.8912 17.9291 18.7849 17.8953 18.6845L17.368 17.1866C17.3594 17.1638 17.3511 17.1381 17.3437 17.1178C17.3408 17.115 17.3415 17.115 17.3392 17.115H17.3338C17.328 17.115 17.3246 17.1168 17.3172 17.1186C17.2622 17.1544 17.1473 17.2109 17.0621 17.2332C17.0447 17.3417 16.993 17.4849 16.9558 17.5909L16.4977 18.9052C16.4541 19.0297 16.3534 19.1005 16.2371 19.1002H16.2324V19.1602C16.3307 19.1552 16.4298 19.1497 16.5292 19.1497C16.64 19.1497 16.7529 19.1554 16.8625 19.1602V19.1002H16.8441C16.7506 19.099 16.6202 19.0888 16.617 18.9873C16.6173 18.9306 16.6524 18.8573 16.6804 18.7605L16.6927 18.7641L16.6804 18.7602L16.7747 18.4541H17.4426L17.5573 18.7942C17.5894 18.8864 17.6155 18.9627 17.6155 19.0045C17.6113 19.0923 17.4907 19.0986 17.4258 19.1002H17.4068V19.1601H17.4065ZM18.2182 19.1856C18.0896 19.1801 17.9604 19.1737 17.8241 19.1737C17.6837 19.1737 17.5409 19.1801 17.3947 19.1856L17.3815 19.1863V19.1733V19.0743H17.3941H17.4257C17.492 19.0743 17.5904 19.0594 17.5906 19.0042C17.5913 18.9716 17.5656 18.8931 17.5342 18.8019L17.4251 18.478H16.7934L16.7044 18.7674C16.6755 18.8646 16.6408 18.9403 16.6413 18.9869C16.6423 19.0569 16.7493 19.0742 16.8442 19.0742H16.8883V19.0871V19.186L16.8753 19.1854C16.7607 19.1798 16.6439 19.1735 16.5293 19.1735C16.4271 19.1735 16.3234 19.1798 16.2209 19.1854L16.2075 19.186V19.1731V19.074H16.2198H16.2372C16.3437 19.0738 16.4327 19.013 16.4741 18.8966L16.9327 17.582C16.9697 17.4761 17.0217 17.3336 17.0465 17.2192C17.1363 17.1886 17.2515 17.1309 17.3067 17.0964C17.3146 17.0935 17.3226 17.0897 17.3341 17.0897C17.3411 17.0893 17.3565 17.0912 17.3658 17.1061C17.3739 17.1296 17.383 17.1553 17.3916 17.1784L17.9189 18.6763C17.9527 18.7765 17.9869 18.8823 18.0244 18.9672C18.0577 19.0435 18.1102 19.0736 18.2022 19.0739H18.2311V19.0869V19.1858L18.2182 19.1856Z" fill="#231F20"/>
<path d="M18.3449 17.3174C18.1301 17.3174 18.1215 17.3691 18.0784 17.578H17.9922C18.0035 17.4979 18.0181 17.4176 18.027 17.3347C18.0383 17.2541 18.0438 17.1742 18.0438 17.0913H18.1131C18.1355 17.1773 18.2073 17.1742 18.2845 17.1742H19.7625C19.8395 17.1742 19.911 17.1713 19.9168 17.0854L19.9853 17.0972C19.9746 17.1742 19.9632 17.2516 19.9542 17.3291C19.9478 17.4064 19.9478 17.4835 19.9478 17.5608L19.8623 17.5927C19.8572 17.4868 19.8429 17.3174 19.6506 17.3174H19.181V18.841C19.181 19.0619 19.2814 19.0873 19.4185 19.0873H19.4733V19.1733C19.3615 19.1733 19.1613 19.1622 19.0062 19.1622C18.8348 19.1622 18.6336 19.1733 18.522 19.1733V19.0873H18.5766C18.7344 19.0873 18.8143 19.0732 18.8143 18.8469V17.3174H18.3449Z" fill="#231F20"/>
<path d="M19.4734 19.1856C19.3609 19.1856 19.1601 19.1743 19.0062 19.1743C18.8352 19.1743 18.6346 19.1856 18.5225 19.1856H18.5098V19.1735V19.075H18.5225H18.5769C18.7348 19.0713 18.7982 19.0693 18.802 18.8471L18.8017 17.3298H18.3451V17.3175V17.3047H18.8268V18.8471C18.8268 19.077 18.7342 19.0997 18.5768 19.1002H18.5345V19.1612C18.6477 19.1602 18.8401 19.1497 19.0061 19.1497C19.1558 19.1497 19.3474 19.1602 19.4606 19.1612V19.1002H19.4184C19.2805 19.0997 19.1689 19.0666 19.1686 18.8411V17.3045H19.6505C19.8429 17.3052 19.868 17.4685 19.8734 17.5751L19.9357 17.5523C19.9357 17.4775 19.9361 17.4026 19.9419 17.3276C19.9496 17.2539 19.9604 17.1805 19.971 17.1074L19.9277 17.0999C19.9146 17.1832 19.8337 17.1878 19.7625 17.1866H18.2846H18.27C18.2024 17.1873 18.1293 17.1833 18.1034 17.1032H18.0567C18.056 17.1825 18.0503 17.2595 18.0391 17.3359C18.0313 17.4149 18.0175 17.4907 18.0065 17.5661H18.068C18.1057 17.3663 18.1304 17.3014 18.3451 17.3045V17.3174V17.3298C18.1327 17.3334 18.1374 17.3692 18.0906 17.5809L18.0885 17.5907H18.0785H17.978L17.9798 17.5765C17.9918 17.496 18.0059 17.4156 18.0142 17.333C18.026 17.2531 18.0313 17.1735 18.0313 17.0915V17.0788H18.044H18.1222L18.1246 17.0878C18.1446 17.16 18.1969 17.1605 18.2701 17.1619H18.2847H19.7627C19.842 17.1607 19.8998 17.1596 19.9048 17.0849L19.9052 17.0711L19.9186 17.0738L19.9999 17.0866L19.9979 17.0992C19.9861 17.1761 19.9752 17.2532 19.9667 17.3299C19.9607 17.4065 19.9607 17.4838 19.9607 17.5611V17.5697L19.9523 17.573L19.851 17.6101L19.8506 17.5935C19.843 17.4857 19.8318 17.3299 19.6508 17.3299H19.1935V18.8413C19.1965 19.0573 19.2823 19.0724 19.4187 19.0751H19.4854V19.0875V19.1858L19.4734 19.1856Z" fill="#231F20"/>
<path d="M20.0911 19.0873H20.1312C20.2344 19.0873 20.3429 19.0732 20.3429 18.9241V17.4237C20.3429 17.2744 20.2345 17.2602 20.1312 17.2602H20.0911V17.1742C20.2029 17.1742 20.3744 17.1856 20.5146 17.1856C20.6582 17.1856 20.83 17.1742 20.965 17.1742V17.2602H20.9247C20.8213 17.2602 20.7124 17.2744 20.7124 17.4237V18.9241C20.7124 19.0732 20.8213 19.0873 20.9247 19.0873H20.965V19.1733C20.8273 19.1733 20.6554 19.1622 20.5123 19.1622C20.3717 19.1622 20.2029 19.1733 20.0912 19.1733L20.0911 19.0873Z" fill="#231F20"/>
<path d="M20.952 19.1609V19.1001H20.9248C20.822 19.1001 20.7004 19.0823 20.7004 18.9241V17.4237C20.7004 17.2654 20.822 17.2477 20.9248 17.2474H20.952V17.1865C20.8199 17.1873 20.6541 17.1977 20.5147 17.1977C20.3788 17.1977 20.2148 17.1873 20.1037 17.1865V17.2474H20.1314C20.2331 17.2477 20.3553 17.2652 20.3555 17.4237V18.9241C20.3553 19.0823 20.2331 19.1001 20.1314 19.1001H20.1037V19.1609C20.214 19.1597 20.3761 19.1495 20.5124 19.1495C20.6511 19.1495 20.8169 19.1601 20.952 19.1609ZM20.965 19.1856C20.8265 19.1856 20.6552 19.1737 20.5122 19.1737C20.372 19.1737 20.203 19.1856 20.0912 19.1856H20.0789V19.1735V19.0874V19.075H20.0912H20.1314C20.2346 19.0732 20.3299 19.0642 20.3304 18.9241V17.4237C20.3297 17.2837 20.2346 17.2744 20.1314 17.2726H20.0789V17.2602V17.1617H20.0912C20.203 17.1617 20.3753 17.1729 20.5147 17.1729C20.6575 17.1729 20.8293 17.1617 20.9651 17.1617H20.977V17.1742V17.2726H20.9651H20.925C20.82 17.2744 20.726 17.2837 20.7249 17.4237V18.9241C20.726 19.0642 20.82 19.0732 20.925 19.075H20.977V19.0874V19.1856H20.965Z" fill="#231F20"/>
<path d="M22.1502 19.0902C22.706 19.0902 22.8029 18.6002 22.8029 18.1825C22.8029 17.764 22.5771 17.2573 22.1015 17.2573C21.6004 17.2573 21.4514 17.7042 21.4514 18.0876C21.4514 18.6002 21.6864 19.0902 22.1502 19.0902ZM22.1069 17.1313C22.7175 17.1313 23.2041 17.5097 23.2041 18.1197C23.2041 18.7786 22.7315 19.2164 22.1217 19.2164C21.5142 19.2164 21.0505 18.804 21.0505 18.1882C21.0505 17.5927 21.5115 17.1313 22.1069 17.1313Z" fill="#231F20"/>
<path d="M21.4387 18.0876C21.4396 17.7023 21.59 17.2446 22.1014 17.2446C22.5877 17.2456 22.8145 17.7617 22.8155 18.1825C22.8145 18.6001 22.7163 19.102 22.1503 19.102V19.0902V19.0778C22.6948 19.0773 22.7894 18.6002 22.7903 18.1827C22.7903 17.7678 22.5669 17.2706 22.1014 17.2698C21.61 17.2704 21.4649 17.7062 21.4636 18.0877C21.4638 18.5978 21.6967 19.077 22.1503 19.0778V19.0902V19.102C21.6748 19.1016 21.4396 18.6032 21.4387 18.0876ZM21.0376 18.1881C21.0388 17.5857 21.505 17.1197 22.1066 17.1188V17.1312V17.1438C21.5179 17.1438 21.0625 17.5989 21.0618 18.1881C21.063 18.7969 21.52 19.2032 22.1216 19.2035C22.7252 19.2032 23.191 18.7717 23.1918 18.1193C23.1913 17.5169 22.7123 17.1442 22.1066 17.1438V17.1312V17.1189C22.7216 17.1196 23.2152 17.5018 23.2162 18.1193C23.2155 18.7851 22.7372 19.2274 22.1216 19.2284C21.5091 19.2274 21.0388 18.8107 21.0376 18.1881Z" fill="#231F20"/>
<path d="M25.1341 18.6089L25.14 18.6032V17.5296C25.14 17.2945 24.9763 17.2602 24.8904 17.2602H24.8279V17.1743C24.9622 17.1743 25.0942 17.1858 25.2284 17.1858C25.3462 17.1858 25.4636 17.1743 25.5811 17.1743V17.2602H25.538C25.4179 17.2602 25.2828 17.2831 25.2828 17.624V18.927C25.2828 19.0274 25.2858 19.1277 25.3002 19.2164H25.1914L23.7162 17.5722V18.7525C23.7162 19.0018 23.765 19.0874 23.9851 19.0874H24.0343V19.1735C23.911 19.1735 23.7881 19.1622 23.6649 19.1622C23.536 19.1622 23.4042 19.1735 23.2751 19.1735V19.0874H23.3154C23.5133 19.0874 23.573 18.9527 23.573 18.7243V17.5176C23.573 17.3574 23.4417 17.2602 23.3122 17.2602H23.2751V17.1743C23.384 17.1743 23.4956 17.1858 23.6046 17.1858C23.6904 17.1858 23.773 17.1743 23.8593 17.1743L25.1341 18.6089Z" fill="#231F20"/>
<path d="M25.1274 18.6032V18.6024L25.1252 18.6002L25.1274 18.6032ZM25.1916 19.2034H25.2854C25.2733 19.1173 25.2706 19.0221 25.2706 18.9269V17.6239C25.2706 17.2795 25.4151 17.2483 25.5381 17.2474H25.5691V17.1865C25.4554 17.1873 25.3429 17.1977 25.2283 17.1977C25.0979 17.1977 24.9699 17.1873 24.8402 17.1865V17.2474H24.8906C24.9789 17.2482 25.1518 17.2872 25.1518 17.5295L25.1489 18.6121L25.1433 18.6177L25.1343 18.6271L23.8596 17.1865C23.7749 17.1865 23.6916 17.1977 23.6048 17.1977C23.4993 17.1977 23.3918 17.1873 23.2875 17.1865V17.2474H23.3126C23.4473 17.2482 23.5857 17.3498 23.5857 17.5174V18.724C23.5857 18.9532 23.5218 19.0996 23.3156 19.1004L23.2875 19.1001V19.161C23.4118 19.1602 23.5393 19.1495 23.6651 19.1495C23.7847 19.1495 23.9033 19.1601 24.022 19.161V19.1005H23.9851C23.7603 19.1002 23.704 19.0019 23.704 18.7525V17.5401L25.1916 19.2034ZM25.3006 19.2284L25.1821 19.2244L23.7286 17.6046V18.7524C23.732 19.0016 23.7699 19.0717 23.9849 19.0743H24.0466V19.0873V19.1853H24.0345C23.9104 19.1853 23.7875 19.1739 23.665 19.1739C23.5366 19.1739 23.4049 19.1853 23.2749 19.1853H23.2632V19.1732V19.0742H23.2749H23.3153C23.5041 19.0736 23.5585 18.952 23.5607 18.7239V17.5173C23.5605 17.3646 23.4354 17.2724 23.3124 17.2724H23.2632V17.2599V17.1615H23.2749C23.3848 17.1615 23.4964 17.1727 23.6046 17.1727C23.6895 17.1727 23.7718 17.1615 23.869 17.1659L25.1274 18.5828V17.5295C25.1264 17.302 24.9739 17.2743 24.8903 17.2725H24.8148V17.2601V17.1616H24.8279C24.9624 17.1616 25.0946 17.1728 25.2279 17.1728C25.345 17.1728 25.462 17.1616 25.581 17.1616H25.5931V17.174V17.2725H25.581H25.5378C25.4197 17.2756 25.2979 17.2864 25.2954 17.6238V18.9268C25.2954 19.027 25.2977 19.127 25.3117 19.2143L25.3141 19.2283L25.3006 19.2284Z" fill="#231F20"/>
<path d="M26.4599 17.495H26.4542L26.1873 18.3056H26.7236L26.4599 17.495ZM26.0411 18.7638C26.013 18.861 25.9784 18.9361 25.9784 18.9869C25.9784 19.0732 26.099 19.0874 26.1929 19.0874H26.225V19.1733C26.1103 19.1671 25.9927 19.1622 25.878 19.1622C25.775 19.1622 25.672 19.1671 25.5693 19.1733V19.0874H25.5857C25.6979 19.0874 25.7928 19.0213 25.8347 18.901L26.2939 17.5869C26.3309 17.4807 26.3828 17.3376 26.3992 17.2314C26.4912 17.2001 26.6055 17.1431 26.6608 17.1084C26.6688 17.1055 26.6746 17.1026 26.6835 17.1026C26.6917 17.1026 26.6973 17.1026 26.7031 17.1116C26.7117 17.1343 26.7204 17.1601 26.729 17.1829L27.2559 18.681C27.2901 18.781 27.3246 18.8868 27.3621 18.9732C27.3964 19.0536 27.4565 19.0875 27.5509 19.0875H27.5685V19.1735C27.4395 19.1672 27.3103 19.1624 27.1729 19.1624C27.0328 19.1624 26.8894 19.1672 26.7432 19.1735V19.0875H26.7749C26.8403 19.0875 26.9527 19.0761 26.9527 19.0045C26.9527 18.9676 26.9271 18.8902 26.895 18.7982L26.7834 18.4661H26.1334L26.0411 18.7638Z" fill="#231F20"/>
<path d="M26.2047 18.293H26.7056L26.4565 17.526L26.2047 18.293ZM26.1701 18.3179L26.4451 17.4824H26.4537H26.4599H26.4685L26.7394 18.3179H26.1701ZM26.7552 19.1604C26.8969 19.1552 27.0363 19.1495 27.1728 19.1495C27.3058 19.1495 27.4304 19.1552 27.5555 19.1601L27.5552 19.1001H27.5504C27.4534 19.1004 27.3858 19.0621 27.35 18.9777C27.3123 18.8912 27.2783 18.7849 27.244 18.6849L26.717 17.1866C26.7084 17.1638 26.6994 17.1381 26.6926 17.1184C26.6902 17.115 26.6905 17.115 26.6887 17.115H26.6831C26.6768 17.115 26.6736 17.1169 26.6668 17.1189C26.6108 17.1539 26.4962 17.2113 26.4116 17.2332C26.3938 17.3417 26.3419 17.4846 26.3051 17.5909L25.8464 18.9052C25.8029 19.0297 25.7028 19.1005 25.5857 19.1002H25.5815V19.1602C25.6801 19.1552 25.7784 19.1497 25.8781 19.1497C25.9891 19.1497 26.1024 19.1554 26.2124 19.1602V19.1002H26.1931C26.0998 19.099 25.9693 19.0892 25.9658 18.987C25.9665 18.9306 26.0018 18.8575 26.0299 18.7603L26.0413 18.764L26.0299 18.7601L26.124 18.4539H26.7915L26.9066 18.7941C26.9383 18.8862 26.9643 18.9626 26.9643 19.0043C26.9603 19.0921 26.8398 19.0985 26.7748 19.1001H26.7555V19.1604H26.7552ZM27.5671 19.1856C27.4381 19.1805 27.3095 19.1741 27.1729 19.1741C27.0332 19.1741 26.8896 19.1805 26.7437 19.1856L26.731 19.1863V19.1733V19.0748H26.7433H26.7746C26.8411 19.0748 26.9399 19.0594 26.9399 19.0042C26.9407 18.9716 26.9147 18.8934 26.8826 18.8019L26.774 18.478H26.1417L26.0532 18.7674C26.0245 18.8654 25.9905 18.9403 25.9908 18.9868C25.9908 19.057 26.0982 19.0747 26.1929 19.0747H26.2367V19.0871V19.1862L26.2237 19.1855C26.1094 19.1803 25.992 19.174 25.878 19.174C25.7755 19.174 25.6727 19.1803 25.5693 19.1855L25.5569 19.1862V19.1732V19.0747H25.5693H25.5857C25.6924 19.0742 25.7817 19.013 25.8237 18.8969L26.2818 17.5823C26.3186 17.4764 26.3702 17.3338 26.3954 17.2198C26.4854 17.1886 26.6004 17.1312 26.656 17.0966C26.6635 17.0938 26.6714 17.0904 26.6832 17.0904C26.6905 17.0896 26.7055 17.0916 26.7143 17.1072C26.7229 17.1297 26.7314 17.1558 26.7407 17.1789L27.2675 18.6768C27.3019 18.7771 27.3361 18.8829 27.3733 18.9682C27.407 19.044 27.4588 19.0742 27.5504 19.075H27.58V19.0874V19.1864L27.5671 19.1856Z" fill="#231F20"/>
<path d="M28.2899 18.8925C28.2899 19.0077 28.3695 19.0415 28.4613 19.0535C28.5786 19.062 28.7076 19.062 28.8397 19.0474C28.9598 19.033 29.0629 18.9646 29.1144 18.8925C29.1599 18.8296 29.1857 18.7494 29.2033 18.6866H29.2862C29.2546 18.8498 29.2146 19.0104 29.1803 19.1735C28.9289 19.1735 28.676 19.1624 28.4245 19.1624C28.1722 19.1624 27.9203 19.1735 27.6685 19.1735V19.0874H27.708C27.8114 19.0874 27.9235 19.0734 27.9235 18.8957V17.4238C27.9235 17.2745 27.8114 17.2602 27.708 17.2602H27.6685V17.1743C27.8199 17.1743 27.9692 17.1858 28.1208 17.1858C28.2671 17.1858 28.41 17.1743 28.5564 17.1743V17.2602H28.4844C28.3756 17.2602 28.2902 17.2633 28.2902 17.415V18.8925H28.2899Z" fill="#231F20"/>
<path d="M29.1698 19.1609C29.2029 19.0053 29.2405 18.8533 29.2713 18.6987H29.2122C29.1947 18.761 29.1691 18.8379 29.1243 18.9002C29.0707 18.9743 28.9647 19.0443 28.8405 19.0598C28.7655 19.0674 28.691 19.0713 28.6209 19.0713C28.5654 19.0713 28.5119 19.0689 28.4597 19.0652C28.3665 19.055 28.2766 19.0151 28.2766 18.8925V17.4149C28.2766 17.2556 28.3773 17.2474 28.4842 17.2474H28.5431V17.1865C28.4021 17.1873 28.2628 17.1979 28.1203 17.1979C27.9722 17.1979 27.8271 17.1873 27.6805 17.1865V17.2474H27.7078C27.8099 17.2474 27.935 17.2652 27.935 17.4231V18.8956C27.935 19.0809 27.8105 19.1001 27.7078 19.1001H27.6805V19.1609C27.9279 19.1603 28.1755 19.1495 28.4242 19.1495C28.6732 19.1495 28.9218 19.1603 29.1698 19.1609ZM29.1802 19.1856C28.9276 19.1856 28.6755 19.1741 28.4242 19.1741C28.1723 19.1741 27.9202 19.1856 27.6675 19.1856H27.6555V19.1735V19.075H27.6675H27.7078C27.8113 19.0724 27.9096 19.0652 27.9109 18.8957V17.4233C27.9096 17.2839 27.8117 17.2745 27.7078 17.2728H27.6557V17.2604V17.1619H27.6677C27.8202 17.1619 27.9693 17.1731 28.1204 17.1731C28.2662 17.1731 28.4088 17.1619 28.5562 17.1619H28.5677V17.1743V17.2728H28.5562H28.4842C28.3732 17.2756 28.3041 17.2706 28.3017 17.415V18.8926C28.3024 18.9997 28.3725 19.0284 28.462 19.0411C28.5124 19.0446 28.5658 19.0465 28.6208 19.0465C28.6909 19.0465 28.7636 19.0432 28.8376 19.0354C28.9543 19.0215 29.0547 18.9541 29.1042 18.8858C29.1485 18.8245 29.1735 18.7461 29.1908 18.6837L29.1931 18.6743H29.2028H29.301L29.2984 18.6893C29.266 18.853 29.2267 19.0128 29.192 19.176L29.1897 19.1856H29.1802Z" fill="#231F20"/>
<path d="M29.2028 17.3952H29.2383C29.2772 17.3952 29.2953 17.3659 29.2953 17.3182C29.2953 17.2702 29.2676 17.2533 29.2364 17.2533H29.2028V17.3952ZM29.1012 17.5542V17.5396C29.1381 17.5343 29.1449 17.5353 29.1449 17.5127V17.2893C29.1449 17.2578 29.1418 17.2468 29.1024 17.2487V17.2333H29.2568C29.3099 17.2333 29.3588 17.2587 29.3588 17.3136C29.3588 17.3583 29.3292 17.3917 29.2875 17.4045L29.3372 17.4737C29.3603 17.5049 29.3866 17.5345 29.4035 17.5449V17.5545H29.3449C29.3167 17.5545 29.2918 17.4953 29.2365 17.4159H29.203V17.5158C29.203 17.5355 29.2101 17.5346 29.2471 17.5399V17.5545H29.1012V17.5542ZM29.251 17.6398C29.3862 17.6398 29.4896 17.5249 29.4896 17.3952C29.4896 17.2654 29.3874 17.1494 29.251 17.1494C29.1152 17.1494 29.012 17.2652 29.012 17.3952C29.012 17.5249 29.1152 17.6398 29.251 17.6398ZM29.251 17.093C29.4238 17.093 29.5527 17.2256 29.5527 17.3952C29.5527 17.5647 29.4237 17.6959 29.251 17.6959C29.0786 17.6959 28.9495 17.5646 28.9495 17.3952C28.9495 17.2256 29.0786 17.093 29.251 17.093Z" fill="#231F20"/>
<path d="M16.2133 11.9138C18.8922 11.9138 21.0638 9.74212 21.0638 7.06326C21.0638 4.38439 18.8922 2.21275 16.2133 2.21275C13.5344 2.21275 11.3628 4.38439 11.3628 7.06326C11.3628 9.74212 13.5344 11.9138 16.2133 11.9138Z" fill="white"/>
<path d="M16.2202 12.0004C13.4405 12.0136 11.1526 9.76154 11.1526 7.02029C11.1526 4.02439 13.4405 1.95214 16.2202 1.95268H17.5228C20.2696 1.95214 22.7766 4.02344 22.7766 7.02029C22.7766 9.76073 20.2696 12.0004 17.5228 12.0004H16.2202ZM16.2314 2.3681C13.6912 2.36905 11.6331 4.42752 11.6327 6.96774C11.6331 9.50769 13.6912 11.5658 16.2314 11.5663C18.7716 11.5658 20.8301 9.50769 20.8308 6.96774C20.8302 4.42752 18.7716 2.36905 16.2314 2.3681ZM15.1874 9.68751V4.24716C14.0943 4.66813 13.319 5.72593 13.3162 6.96761C13.319 8.20915 14.0943 9.26709 15.1874 9.68751ZM19.1469 6.96774C19.145 5.72566 18.3686 4.66623 17.2745 4.24676V9.68872C18.3685 9.26844 19.145 8.21009 19.1469 6.96774Z" fill="#004A97"/>
</g>
<defs>
<clipPath id="clip0_4408_16108">
<rect width="33.9295" height="21.4371" fill="white"/>
</clipPath>
</defs>
</svg>
