<svg width="143" height="20" viewBox="0 0 143 20" fill="none" xmlns="http://www.w3.org/2000/svg">
<path d="M1.90909 14V5.27273H4.72585C5.34517 5.27273 5.86222 5.39205 6.27699 5.63068C6.6946 5.86648 7.00852 6.1875 7.21875 6.59375C7.43182 7 7.53835 7.45739 7.53835 7.96591C7.53835 8.47443 7.43324 8.93324 7.22301 9.34233C7.01278 9.74858 6.70028 10.071 6.28551 10.3097C5.87074 10.5455 5.35511 10.6634 4.73864 10.6634H2.52273V9.94744H4.71733C5.17472 9.94744 5.55398 9.86222 5.85511 9.69176C6.15625 9.51847 6.38068 9.28267 6.52841 8.98438C6.67898 8.68608 6.75426 8.34659 6.75426 7.96591C6.75426 7.58523 6.67898 7.24574 6.52841 6.94744C6.38068 6.64915 6.15483 6.41477 5.85085 6.24432C5.54972 6.07386 5.16761 5.98864 4.70455 5.98864H2.70597V14H1.90909ZM11.7251 14.1364C11.1598 14.1364 10.6598 13.9929 10.2251 13.706C9.79332 13.419 9.45526 13.0227 9.21094 12.517C8.96662 12.0085 8.84446 11.4219 8.84446 10.7571C8.84446 10.0866 8.96662 9.49716 9.21094 8.98864C9.45526 8.47727 9.79332 8.07955 10.2251 7.79545C10.6598 7.50852 11.1598 7.36506 11.7251 7.36506C12.2905 7.36506 12.7891 7.50852 13.2209 7.79545C13.6527 8.08239 13.9908 8.48011 14.2351 8.98864C14.4822 9.49716 14.6058 10.0866 14.6058 10.7571C14.6058 11.4219 14.4837 12.0085 14.2393 12.517C13.995 13.0227 13.6555 13.419 13.2209 13.706C12.7891 13.9929 12.2905 14.1364 11.7251 14.1364ZM11.7251 13.4418C12.1797 13.4418 12.5646 13.3196 12.88 13.0753C13.1953 12.831 13.4339 12.5057 13.5959 12.0994C13.7607 11.6932 13.843 11.2457 13.843 10.7571C13.843 10.2685 13.7607 9.8196 13.5959 9.41051C13.4339 9.00142 13.1953 8.6733 12.88 8.42614C12.5646 8.17898 12.1797 8.0554 11.7251 8.0554C11.2734 8.0554 10.8885 8.17898 10.5703 8.42614C10.255 8.6733 10.0149 9.00142 9.85014 9.41051C9.68821 9.8196 9.60724 10.2685 9.60724 10.7571C9.60724 11.2457 9.68821 11.6932 9.85014 12.0994C10.0149 12.5057 10.255 12.831 10.5703 13.0753C10.8857 13.3196 11.2706 13.4418 11.7251 13.4418ZM17.5014 14L15.5241 7.45455H16.3253L17.8764 12.8537H17.9318L19.4787 7.45455H20.2841L21.8182 12.8409H21.8778L23.429 7.45455H24.2301L22.2528 14H21.4688L19.9176 8.63494H19.8366L18.2855 14H17.5014ZM28.1282 14.1364C27.5174 14.1364 26.989 13.9943 26.543 13.7102C26.0969 13.4233 25.7518 13.027 25.5075 12.5213C25.266 12.0128 25.1452 11.4276 25.1452 10.7656C25.1452 10.1065 25.266 9.52131 25.5075 9.00994C25.7518 8.49574 26.0884 8.09375 26.5174 7.80398C26.9492 7.51136 27.4478 7.36506 28.0131 7.36506C28.3683 7.36506 28.7106 7.4304 29.0401 7.56108C29.3697 7.68892 29.6651 7.88636 29.9265 8.15341C30.1907 8.41761 30.3995 8.75142 30.5529 9.15483C30.7063 9.5554 30.783 10.0298 30.783 10.5781V10.9531H25.6694V10.2841H30.0075C30.0075 9.86364 29.9222 9.4858 29.7518 9.15057C29.5842 8.8125 29.3498 8.54545 29.0487 8.34943C28.7504 8.15341 28.4052 8.0554 28.0131 8.0554C27.5984 8.0554 27.2333 8.16619 26.918 8.38778C26.6026 8.60937 26.3555 8.90199 26.1765 9.26562C26.0004 9.62926 25.9109 10.027 25.908 10.4588V10.8594C25.908 11.3793 25.9975 11.8338 26.1765 12.223C26.3583 12.6094 26.6154 12.9091 26.9478 13.1222C27.2802 13.3352 27.6737 13.4418 28.1282 13.4418C28.4379 13.4418 28.7092 13.3935 28.9421 13.2969C29.1779 13.2003 29.3754 13.071 29.5344 12.9091C29.6964 12.7443 29.8185 12.5639 29.9009 12.3679L30.6211 12.6023C30.5217 12.8778 30.3583 13.1321 30.131 13.3651C29.9066 13.598 29.6254 13.7855 29.2873 13.9276C28.9521 14.0668 28.5657 14.1364 28.1282 14.1364ZM32.4545 14V7.45455H33.1918V8.46023H33.2472C33.3778 8.13068 33.6051 7.86506 33.929 7.66335C34.2557 7.45881 34.625 7.35653 35.0369 7.35653C35.0994 7.35653 35.169 7.35795 35.2457 7.3608C35.3224 7.36364 35.3864 7.36648 35.4375 7.36932V8.14062C35.4034 8.13494 35.3438 8.12642 35.2585 8.11506C35.1733 8.10369 35.081 8.09801 34.9815 8.09801C34.6406 8.09801 34.3366 8.17045 34.0696 8.31534C33.8054 8.45739 33.5966 8.65483 33.4432 8.90767C33.2898 9.16051 33.2131 9.44886 33.2131 9.77273V14H32.4545ZM39.179 14.1364C38.5682 14.1364 38.0398 13.9943 37.5938 13.7102C37.1477 13.4233 36.8026 13.027 36.5582 12.5213C36.3168 12.0128 36.196 11.4276 36.196 10.7656C36.196 10.1065 36.3168 9.52131 36.5582 9.00994C36.8026 8.49574 37.1392 8.09375 37.5682 7.80398C38 7.51136 38.4986 7.36506 39.0639 7.36506C39.419 7.36506 39.7614 7.4304 40.0909 7.56108C40.4205 7.68892 40.7159 7.88636 40.9773 8.15341C41.2415 8.41761 41.4503 8.75142 41.6037 9.15483C41.7571 9.5554 41.8338 10.0298 41.8338 10.5781V10.9531H36.7202V10.2841H41.0582C41.0582 9.86364 40.973 9.4858 40.8026 9.15057C40.6349 8.8125 40.4006 8.54545 40.0994 8.34943C39.8011 8.15341 39.456 8.0554 39.0639 8.0554C38.6491 8.0554 38.2841 8.16619 37.9688 8.38778C37.6534 8.60937 37.4063 8.90199 37.2273 9.26562C37.0511 9.62926 36.9616 10.027 36.9588 10.4588V10.8594C36.9588 11.3793 37.0483 11.8338 37.2273 12.223C37.4091 12.6094 37.6662 12.9091 37.9986 13.1222C38.331 13.3352 38.7244 13.4418 39.179 13.4418C39.4886 13.4418 39.7599 13.3935 39.9929 13.2969C40.2287 13.2003 40.4261 13.071 40.5852 12.9091C40.7472 12.7443 40.8693 12.5639 40.9517 12.3679L41.6719 12.6023C41.5724 12.8778 41.4091 13.1321 41.1818 13.3651C40.9574 13.598 40.6761 13.7855 40.3381 13.9276C40.0028 14.0668 39.6165 14.1364 39.179 14.1364ZM45.8619 14.1364C45.3249 14.1364 44.8548 13.9943 44.4513 13.7102C44.0479 13.4261 43.7326 13.0298 43.5053 12.5213C43.2809 12.0128 43.1687 11.4205 43.1687 10.7443C43.1687 10.071 43.2809 9.48153 43.5053 8.97585C43.7326 8.46733 44.0494 8.07244 44.4556 7.79119C44.8619 7.5071 45.3349 7.36506 45.8746 7.36506C46.2724 7.36506 46.6033 7.43608 46.8675 7.57812C47.1317 7.71733 47.3434 7.89062 47.5025 8.09801C47.6616 8.3054 47.7852 8.5071 47.8732 8.70312H47.9414V5.27273H48.7042V14H47.9627V12.7855H47.8732C47.7852 12.9844 47.6602 13.1889 47.4982 13.3991C47.3363 13.6065 47.1218 13.7812 46.8548 13.9233C46.5906 14.0653 46.2596 14.1364 45.8619 14.1364ZM45.9513 13.4418C46.3746 13.4418 46.7354 13.3267 47.0337 13.0966C47.332 12.8636 47.5593 12.544 47.7156 12.1378C47.8746 11.7287 47.9542 11.2599 47.9542 10.7315C47.9542 10.2088 47.8761 9.74716 47.7198 9.34659C47.5636 8.94318 47.3363 8.62784 47.038 8.40057C46.7397 8.17045 46.3775 8.0554 45.9513 8.0554C45.5138 8.0554 45.1445 8.17472 44.8434 8.41335C44.5451 8.64915 44.3178 8.96875 44.1616 9.37216C44.0082 9.77557 43.9315 10.2287 43.9315 10.7315C43.9315 11.2401 44.0096 11.6989 44.1658 12.108C44.3221 12.517 44.5494 12.8423 44.8477 13.0838C45.1488 13.3224 45.5167 13.4418 45.9513 13.4418ZM54.3974 14V5.27273H55.1602V8.70312H55.2283C55.3136 8.5071 55.4357 8.3054 55.5948 8.09801C55.7567 7.89062 55.9684 7.71733 56.2298 7.57812C56.494 7.43608 56.8263 7.36506 57.2269 7.36506C57.7638 7.36506 58.2354 7.5071 58.6417 7.79119C59.0479 8.07244 59.3647 8.46733 59.592 8.97585C59.8192 9.48153 59.9329 10.071 59.9329 10.7443C59.9329 11.4205 59.8192 12.0128 59.592 12.5213C59.3675 13.0298 59.0522 13.4261 58.646 13.7102C58.2425 13.9943 57.7738 14.1364 57.2397 14.1364C56.842 14.1364 56.5096 14.0653 56.2425 13.9233C55.9783 13.7812 55.7653 13.6065 55.6033 13.3991C55.4414 13.1889 55.3164 12.9844 55.2283 12.7855H55.1346V14H54.3974ZM55.1474 10.7315C55.1474 11.2599 55.2255 11.7287 55.3817 12.1378C55.5408 12.544 55.7681 12.8636 56.0636 13.0966C56.3619 13.3267 56.7227 13.4418 57.146 13.4418C57.5806 13.4418 57.9485 13.3224 58.2496 13.0838C58.5508 12.8423 58.7795 12.517 58.9357 12.108C59.092 11.6989 59.1701 11.2401 59.1701 10.7315C59.1701 10.2287 59.092 9.77557 58.9357 9.37216C58.7823 8.96875 58.555 8.64915 58.2539 8.41335C57.9528 8.17472 57.5835 8.0554 57.146 8.0554C56.7198 8.0554 56.3576 8.17045 56.0593 8.40057C55.7638 8.62784 55.538 8.94318 55.3817 9.34659C55.2255 9.74716 55.1474 10.2088 55.1474 10.7315ZM61.8931 16.4545C61.7425 16.4545 61.6019 16.4403 61.4712 16.4119C61.3406 16.3835 61.2369 16.3523 61.1602 16.3182L61.3647 15.6491C61.6232 15.7287 61.8533 15.7571 62.055 15.7344C62.2567 15.7145 62.4357 15.6236 62.592 15.4616C62.7482 15.3026 62.8874 15.0582 63.0096 14.7287L63.2482 14.0639L60.8406 7.45455H61.663L63.6062 12.9986H63.6658L65.609 7.45455H66.4315L63.6616 15.0355C63.5451 15.3509 63.4016 15.6136 63.2312 15.8239C63.0607 16.0369 62.8633 16.1946 62.6388 16.2969C62.4173 16.402 62.1687 16.4545 61.8931 16.4545Z" fill="#BCBDBE"/>
<g clip-path="url(#clip0_913_4498)">
<path fill-rule="evenodd" clip-rule="evenodd" d="M72.4591 3.23071H82.5793C83.5233 3.23071 84.2885 3.99592 84.2885 4.93985V15.06C84.2885 16.004 83.5233 16.7692 82.5793 16.7692H72.4591C71.5152 16.7692 70.75 16.004 70.75 15.06V4.93985C70.75 3.99592 71.5152 3.23071 72.4591 3.23071ZM73.8671 7.8943C72.9607 7.8943 72.2873 7.21542 72.2873 6.29675C72.2873 5.4289 72.9957 4.72222 73.8636 4.72222H81.1447C82.0143 4.72222 82.7227 5.42713 82.7227 6.29675C82.7227 7.16637 82.0143 7.87482 81.1429 7.87482L78.047 7.8943H73.8671ZM80.2821 8.40969C81.1518 8.40969 81.8584 9.11814 81.8584 9.98776C81.8584 10.8556 81.1518 11.5623 80.2821 11.5623H77.5351C76.6655 11.5623 75.9588 10.8574 75.9588 9.98776C75.9588 9.11814 76.6655 8.40969 77.5351 8.40969H80.2821ZM75.4859 10.1313V9.99497C75.4859 9.10409 74.7633 8.38324 73.8742 8.38324C72.9833 8.38324 72.2625 9.10586 72.2625 9.99497V13.6594C72.2625 14.5538 72.9869 15.2782 73.8813 15.2782H81.1641C82.055 15.2782 82.7759 14.5556 82.7759 13.6665C82.7759 12.7756 82.0532 12.0548 81.1641 12.0548H77.4076C76.3566 12.0548 75.4859 11.1764 75.4859 10.1313Z" fill="#BCBDBE"/>
<g clip-path="url(#clip1_913_4498)">
<path d="M98.8885 10.9093H100.41C100.205 12.2088 99.2491 13.023 97.8086 13.023C96.133 13.023 95.115 11.9561 95.115 10.2422C95.115 8.56102 96.1843 7.46143 97.8598 7.46143C99.2986 7.46143 100.193 8.26477 100.4 9.5552H98.8885C98.7648 9.0154 98.406 8.67734 97.8404 8.67734C97.0804 8.67734 96.5961 9.32256 96.5961 10.2422C96.5961 11.1728 97.0786 11.8071 97.8404 11.8071C98.406 11.8071 98.786 11.4581 98.8885 10.9074V10.9093ZM106.393 10.244C106.393 11.9252 105.294 13.0248 103.608 13.0248C101.921 13.0248 100.82 11.9143 100.82 10.244C100.82 8.57374 101.92 7.46324 103.606 7.46324C105.292 7.46324 106.391 8.57374 106.393 10.244ZM104.923 10.244C104.923 9.32438 104.419 8.67916 103.606 8.67916C102.793 8.67916 102.3 9.32438 102.3 10.244C102.3 11.1637 102.793 11.8089 103.606 11.8089C104.419 11.8089 104.923 11.1637 104.923 10.244ZM113.157 7.46324C112.355 7.46324 111.738 7.8013 111.369 8.38291C111.04 7.69589 110.434 7.45234 109.785 7.46324C109.014 7.47415 108.551 7.78131 108.233 8.20297L108.099 7.52686H106.833V12.9612H108.284V10.0005C108.284 9.18625 108.694 8.69007 109.322 8.69007C109.949 8.69007 110.248 9.11355 110.248 9.92779V12.9612H111.697V9.98959C111.697 9.16444 112.118 8.69007 112.746 8.69007C113.373 8.69007 113.661 9.11355 113.661 9.92779V12.9612H115.11V9.84237C115.11 8.09756 114.246 7.46324 113.156 7.46324H113.157ZM122.136 7.46324C121.334 7.46324 120.717 7.8013 120.347 8.38291C120.019 7.69589 119.412 7.45234 118.764 7.46324C117.993 7.47415 117.53 7.78131 117.212 8.20297L117.078 7.52686H115.812V12.9612H117.263V10.0005C117.263 9.18625 117.673 8.69007 118.301 8.69007C118.928 8.69007 119.227 9.11355 119.227 9.92779V12.9612H120.676V9.98959C120.676 9.16444 121.097 8.69007 121.724 8.69007C122.352 8.69007 122.64 9.11355 122.64 9.92779V12.9612H124.089V9.84237C124.089 8.09756 123.225 7.46324 122.134 7.46324H122.136ZM130.284 10.2549C130.284 11.9471 129.255 13.0248 127.838 13.0248C127.108 13.0248 126.583 12.7177 126.244 12.2742V15.075H124.794V7.52686H126.058L126.201 8.27749C126.541 7.81221 127.074 7.46324 127.826 7.46324C129.255 7.45234 130.282 8.54103 130.284 10.2549ZM128.814 10.2331C128.814 9.31347 128.299 8.67916 127.507 8.67916C126.716 8.67916 126.223 9.31347 126.223 10.2331C126.223 11.1637 126.716 11.8089 127.507 11.8089C128.299 11.8089 128.814 11.1637 128.814 10.2331ZM134.943 7.52686H136.209V12.9612H134.758V12.2742C134.418 12.7177 133.895 13.0248 133.165 13.0248C131.746 13.0248 130.719 11.9471 130.719 10.2549C130.719 8.54285 131.748 7.45416 133.178 7.46324C133.929 7.46324 134.462 7.81221 134.802 8.27749L134.943 7.52686ZM134.779 10.2331C134.779 9.31347 134.286 8.67916 133.494 8.67916C132.702 8.67916 132.188 9.31347 132.188 10.2331C132.188 11.1637 132.702 11.8089 133.494 11.8089C134.286 11.8089 134.779 11.1637 134.779 10.2331ZM140.7 7.52686L139.445 11.3963L138.16 7.52686H136.617L138.653 12.9939L138.519 13.3538C138.376 13.7246 138.252 13.8191 137.881 13.8191H137.078V15.0768H138.487C139.309 15.0768 139.578 14.6333 139.906 13.7337L142.25 7.52686H140.7ZM92.1102 7.46324C90.4347 7.46324 89.3654 8.56284 89.3654 10.244C89.3654 11.9561 90.3834 13.0248 92.059 13.0248C93.4164 13.0248 94.3355 12.2942 94.6095 11.1219H93.0664C92.9127 11.5417 92.5751 11.8089 92.0908 11.8089C91.3308 11.8089 90.8465 11.1746 90.8465 10.244C90.8465 9.32438 91.329 8.67916 92.0908 8.67916C92.6334 8.67916 93.0382 8.94088 93.2078 9.49341C93.2185 9.53339 93.2361 9.56611 93.2432 9.60973H91.5447C91.2831 9.60973 91.071 9.82783 91.071 10.0968C91.071 10.3658 91.2831 10.5839 91.5447 10.5839H94.6625C94.7049 9.76603 94.6148 9.40435 94.6024 9.35891C94.3373 8.19025 93.4712 7.46324 92.1102 7.46324Z" fill="#BCBDBE"/>
</g>
</g>
<defs>
<clipPath id="clip0_913_4498">
<rect width="71.5" height="13.5385" fill="white" transform="translate(70.75 3.23071)"/>
</clipPath>
<clipPath id="clip1_913_4498">
<rect width="52.8846" height="10.1538" fill="white" transform="translate(89.3654 4.9231)"/>
</clipPath>
</defs>
</svg>
