<?xml version="1.0" encoding="UTF-8" standalone="no"?>
<svg
   width="135"
   height="15"
   viewBox="0 0 135 15"
   fill="none"
   version="1.1"
   id="svg27"
   sodipodi:docname="Footer.svg"
   inkscape:version="1.1.2 (b8e25be8, 2022-02-05)"
   xmlns:inkscape="http://www.inkscape.org/namespaces/inkscape"
   xmlns:sodipodi="http://sodipodi.sourceforge.net/DTD/sodipodi-0.dtd"
   xmlns="http://www.w3.org/2000/svg"
   xmlns:svg="http://www.w3.org/2000/svg">
  <sodipodi:namedview
     id="namedview29"
     pagecolor="#ffffff"
     bordercolor="#111111"
     borderopacity="1"
     inkscape:pageshadow="0"
     inkscape:pageopacity="0"
     inkscape:pagecheckerboard="1"
     showgrid="false"
     width="135px"
     inkscape:zoom="4"
     inkscape:rotation="-11"
     inkscape:cx="83.15886"
     inkscape:cy="16.988811"
     inkscape:window-width="1512"
     inkscape:window-height="916"
     inkscape:window-x="1920"
     inkscape:window-y="258"
     inkscape:window-maximized="1"
     inkscape:current-layer="svg27" />
  <g
     clip-path="url(#clip0_417_13266)"
     id="g20"
     transform="translate(-97.348,-5.1999508)">
    <mask
       id="mask0_417_13266"
       maskUnits="userSpaceOnUse"
       x="163"
       y="10"
       width="69"
       height="9">
      <path
         fill-rule="evenodd"
         clip-rule="evenodd"
         d="m 163,10.3413 h 69 v 8.507 h -69 z"
         fill="#ffffff"
         id="path9" />
    </mask>
    <g
       mask="url(#mask0_417_13266)"
       id="g14">
      <path
         fill-rule="evenodd"
         clip-rule="evenodd"
         d="m 180.044,10.4641 c 0.315,0.2168 0.393,0.6462 0.173,0.9587 l -4.37,6.2273 c -0.416,0.5924 -1.098,0.9456 -1.827,0.9454 H 163 l 5.144,-7.3285 1.188,1.6887 -2.605,3.7101 h 6.956 c 0.09,0 0.176,-0.0442 0.228,-0.1179 l 4.357,-6.2071 h 1.38 c 0.141,0 0.279,0.0428 0.396,0.1233 z m 6.515,0.8164 c 1.582,0 1.429,1.2892 1.328,1.8191 -0.103,0.5306 -0.358,1.2141 -0.358,1.2141 h -2.959 c 0,0 -0.331,1.0607 0.408,1.2372 0.741,0.1775 1.684,-0.4044 1.684,-0.4044 l 0.102,1.0361 c 0,0 -0.561,0.5057 -2.041,0.5057 -1.479,0 -2.066,-0.8852 -1.429,-2.7293 0.639,-1.8445 1.684,-2.6785 3.265,-2.6785 z m -0.178,2.0975 c 0,0 0.332,-1.0107 -0.382,-1.0107 -0.714,0 -0.996,1.0113 -0.996,1.0113 h 1.378 z m 6.538,-1.7 -0.843,0.8915 c 0,0 -0.641,-0.4378 -1.272,0.002 -0.318,0.2202 -0.592,0.7911 -0.866,1.5004 -0.804,2.0886 1.266,1.0572 1.266,1.0572 l 0.26,1.1129 c 0,0 -0.85,0.4455 -2.143,0.4455 -1.293,0 -1.685,-0.9462 -1.038,-2.9218 0.623,-1.9098 2.133,-2.4778 3.259,-2.4778 1.123,0 1.377,0.3901 1.377,0.3901 z m 2.947,-0.3985 c 1.258,0 2.126,0.9505 1.442,2.6761 -0.682,1.7253 -1.862,2.7256 -3.593,2.7256 -1.73,0 -2.151,-0.8492 -1.389,-2.9023 0.759,-2.0489 2.282,-2.5 3.539,-2.5 z m -1.015,3.9068 c 0.5,-0.5791 0.929,-1.7366 0.859,-2.3151 -0.07,-0.5791 -0.639,-0.5791 -1.139,0 -0.499,0.5785 -0.929,1.736 -0.859,2.3151 0.07,0.5785 0.639,0.5785 1.139,0 z m 10.692,-3.8976 c 0.727,0 0.963,0.345 0.707,1.0351 l -1.466,3.9505 c -0.09,0.2428 -0.324,0.4042 -0.585,0.4044 h -1.312 l 1.332,-3.591 c 0.06,-0.1595 -0.022,-0.337 -0.183,-0.3964 -0.035,-0.0127 -0.073,-0.0194 -0.11,-0.0192 h -0.058 c -0.392,0 -0.743,0.2424 -0.878,0.6069 l -1.112,2.9953 c -0.09,0.2428 -0.324,0.4042 -0.585,0.4044 h -1.312 l 1.333,-3.591 c 0.06,-0.1601 -0.023,-0.3376 -0.185,-0.3966 -0.035,-0.0125 -0.071,-0.019 -0.108,-0.019 h -0.103 c -0.392,0 -0.743,0.2424 -0.879,0.6069 l -1.112,2.9953 c -0.09,0.2426 -0.323,0.404 -0.584,0.4044 h -1.312 l 2,-5.3906 h 1.747 l 0.006,0.0028 -0.18,0.4829 c 0.566,-0.3385 1.219,-0.507 1.88,-0.4851 0.575,0 0.878,0.1615 0.909,0.4851 0.663,-0.3428 1.403,-0.5099 2.15,-0.4851 z m 8.488,0 c 0.727,0 0.964,0.345 0.708,1.0351 l -1.467,3.9505 c -0.09,0.2428 -0.324,0.4042 -0.585,0.4044 h -1.312 l 1.333,-3.591 c 0.059,-0.1601 -0.023,-0.3376 -0.185,-0.3966 -0.035,-0.0127 -0.072,-0.019 -0.109,-0.019 h -0.057 c -0.393,0 -0.743,0.2424 -0.879,0.6069 l -1.111,2.9953 c -0.09,0.2428 -0.324,0.4044 -0.586,0.4044 h -1.312 l 1.333,-3.591 c 0.06,-0.1601 -0.023,-0.3376 -0.185,-0.3966 -0.034,-0.0125 -0.071,-0.019 -0.107,-0.019 h -0.104 c -0.392,0 -0.743,0.2424 -0.879,0.6069 l -1.111,2.9953 c -0.09,0.2426 -0.324,0.404 -0.585,0.4044 h -1.312 l 2,-5.3906 h 1.748 l 0.005,0.0028 -0.179,0.4829 c 0.566,-0.3387 1.219,-0.5072 1.88,-0.4851 0.574,0 0.877,0.1615 0.908,0.4851 0.663,-0.3428 1.403,-0.5099 2.15,-0.4851 z m 4.335,-0.0021 c 1.452,0 2.223,0.8076 1.673,2.389 -1.165,3.3436 -4.112,3.0299 -4.112,3.0299 l -0.466,1.2828 c -0.33,0.9059 -2.288,0.8521 -2.288,0.8521 l 2.659,-7.1639 c 0,0 1.082,-0.3893 2.534,-0.3893 z m -0.197,2.5347 c 0.688,-1.9993 -0.911,-1.2179 -0.911,-1.2179 l -0.91,2.6322 c 0,0 1.2,0.3811 1.821,-1.4143 z m 6.032,-2.5382 c 2.026,0.0649 1.685,1.0189 1.685,1.0189 l -1.636,4.3895 h -1.405 l 0.039,-0.4945 c 0,0 -0.678,0.4945 -1.783,0.4945 -1.103,0 -1.452,-0.5713 -1.103,-1.5302 0.762,-2.1009 3.933,-1.7706 3.933,-1.7706 0.051,-0.1716 0.076,-0.2957 0.091,-0.3878 0.016,-0.0922 0.021,-0.1532 0.023,-0.2015 0.002,-0.0403 -0.003,-0.0809 -0.016,-0.1192 -0.015,-0.0366 -0.038,-0.0694 -0.067,-0.0956 -0.039,-0.036 -0.082,-0.0663 -0.129,-0.0901 -0.056,-0.0281 -0.115,-0.0504 -0.175,-0.0663 -0.107,-0.0289 -0.218,-0.0441 -0.329,-0.0451 -0.097,-0.0022 -0.193,0.001 -0.288,0.0096 -0.188,0.016 -0.374,0.0396 -0.559,0.0707 -0.226,0.0374 -0.485,0.0901 -0.761,0.1628 l -0.057,-0.8826 c 0,0 0.697,-0.4625 2.538,-0.4625 z m -0.778,3.5278 0.198,-0.5512 c 0,0 -0.7,-0.0575 -1.338,0.3643 -0.64,0.4224 -0.311,1.0369 0.484,0.8639 0.406,-0.0881 0.538,-0.3831 0.656,-0.677 z m 8.577,-3.5124 -3.542,5.2692 c -0.472,0.7032 -1.051,1.2421 -1.858,1.6558 -1.228,0.6331 -2.588,0.6247 -2.588,0.6247 l 0.83,-1.3273 c 0,0 0.569,-0.1364 1.286,-0.6352 0.772,-0.5375 0.832,-0.9851 0.832,-0.9851 l -0.566,-0.2826 0.022,-4.3361 c 0,0 1.318,0.0963 1.433,1.089 l 0.229,1.9878 2.302,-2.7139 c 0.452,-0.5318 1.619,-0.3463 1.619,-0.3463 z"
         fill="#bcbdbe"
         id="path12" />
    </g>
    <path
       fill-rule="evenodd"
       clip-rule="evenodd"
       d="m 179.798,5.31788 c 0.019,0.04157 0.011,0.09706 0,0.1503 -0.048,0.20783 -0.163,0.36714 -0.278,0.52645 -0.307,0.42734 -0.609,0.86595 -0.91,1.30497 l -5.328,7.6267 c -0.2,0.2877 -0.598,0.3597 -0.889,0.1611 -0.067,-0.046 -0.125,-0.1044 -0.17,-0.1722 -1.703,-2.552 -2.051,-3.0743 -2.304,-3.4482 -0.251,-0.3741 -0.407,-0.6006 -0.437,-0.7863 -0.03,-0.1864 0.068,-0.3311 0.245,-0.4454 0.179,-0.1149 0.437,-0.2002 2.877,0.7918 1.55,-1.39789 3.102,-2.79521 4.594,-4.27955 0.412,-0.41014 0.821,-0.82705 1.308,-1.143 0.165,-0.10668 0.339,-0.20149 0.517,-0.28319 0.173,-0.07904 0.351,-0.14538 0.564,-0.11303 0.088,0.01393 0.181,0.04444 0.211,0.10955 z"
       fill="#bcbdbe"
       id="path16" />
    <path
       d="m 97.348,17 h 0.684 l 0.744,-3.324 h 2.28 c 2.124,0 2.964,-1.44 2.964,-2.676 0,-1.068 -0.84,-2.004 -2.1,-2.004 h -2.808 z m 3.792,-3.948 H 98.908 L 99.664,9.62 h 2.148 c 0.852,0 1.476,0.672 1.476,1.428 0,1.056 -0.72,2.004 -2.148,2.004 z m 3.115,1.548 c 0,1.536 0.996,2.544 2.556,2.544 1.836,0 3.192,-1.704 3.192,-3.54 0,-1.536 -0.996,-2.544 -2.556,-2.544 -1.836,0 -3.192,1.704 -3.192,3.54 z m 5.064,-0.972 c 0,1.5 -1.044,2.952 -2.496,2.952 -1.188,0 -1.884,-0.792 -1.884,-2.004 0,-1.5 1.044,-2.952 2.496,-2.952 1.188,0 1.884,0.792 1.884,2.004 z M 115.862,17 h 0.6 l 3.168,-5.796 h -0.696 l -2.64,4.92 -0.54,-4.92 h -0.528 l -2.736,4.92 -0.444,-4.92 h -0.636 l 0.6,5.796 h 0.6 l 2.724,-4.956 z m 3.885,-2.412 c 0,1.512 1.02,2.556 2.76,2.556 0.756,0 1.5,-0.312 2.016,-0.708 l -0.24,-0.456 c -0.504,0.42 -1.164,0.624 -1.752,0.624 -1.416,0 -2.124,-0.9 -2.124,-1.968 0,-0.108 0.012,-0.264 0.024,-0.336 h 4.896 c 0.036,-0.144 0.096,-0.48 0.096,-0.732 0,-1.416 -0.912,-2.508 -2.46,-2.508 -1.8,0 -3.216,1.596 -3.216,3.528 z m 5.064,-0.78 h -4.32 c 0.204,-1.188 1.236,-2.208 2.4,-2.208 1.248,0 1.932,0.816 1.932,1.944 0,0.072 0,0.204 -0.012,0.264 z M 126.328,17 h 0.624 l 0.936,-4.224 c 0.372,-0.528 1.056,-1.056 1.764,-1.056 0.204,0 0.348,0.024 0.42,0.036 l 0.144,-0.672 c -1.032,0 -1.596,0.36 -2.196,1.056 l 0.216,-0.936 h -0.624 z m 4.037,-2.412 c 0,1.512 1.02,2.556 2.76,2.556 0.756,0 1.5,-0.312 2.016,-0.708 l -0.24,-0.456 c -0.504,0.42 -1.164,0.624 -1.752,0.624 -1.416,0 -2.124,-0.9 -2.124,-1.968 0,-0.108 0.012,-0.264 0.024,-0.336 h 4.896 c 0.035,-0.144 0.096,-0.48 0.096,-0.732 0,-1.416 -0.912,-2.508 -2.46,-2.508 -1.8,0 -3.216,1.596 -3.216,3.528 z m 5.064,-0.78 h -4.32 c 0.203,-1.188 1.236,-2.208 2.4,-2.208 1.248,0 1.932,0.816 1.932,1.944 0,0.072 0,0.204 -0.012,0.264 z m 6.868,-1.62 c -0.396,-0.66 -1.14,-1.128 -2.088,-1.128 -1.836,0 -3.048,1.752 -3.048,3.708 0,1.5 0.936,2.376 2.268,2.376 0.828,0 1.512,-0.408 1.992,-1.02 L 141.217,17 h 0.636 l 1.776,-8.004 h -0.636 z m -4.452,2.472 c 0,-1.536 0.96,-3.036 2.412,-3.036 0.936,0 1.632,0.48 1.92,1.056 l -0.612,2.784 c -0.396,0.6 -1.152,1.116 -1.968,1.116 -1.056,0 -1.752,-0.732 -1.752,-1.92 z m 9.901,1.356 c 0.396,0.66 1.128,1.128 2.088,1.128 1.824,0 3.036,-1.764 3.036,-3.696 0,-1.5 -0.936,-2.388 -2.256,-2.388 -0.828,0 -1.524,0.408 -1.992,1.02 l 0.672,-3.084 H 148.67 L 146.906,17 h 0.624 z m 4.44,-2.46 c 0,1.524 -0.948,3.024 -2.412,3.024 -0.936,0 -1.632,-0.48 -1.92,-1.056 l 0.612,-2.784 c 0.408,-0.6 1.152,-1.116 1.968,-1.116 1.056,0 1.752,0.744 1.752,1.932 z m 0.939,5.076 -0.24,0.6 c 0.18,0.072 0.444,0.12 0.685,0.12 0.659,0 1.164,-0.36 1.62,-1.08 l 4.572,-7.068 h -0.732 l -3.228,5.064 -0.972,-5.064 h -0.672 l 1.128,5.832 -0.684,1.044 c -0.348,0.516 -0.6,0.66 -0.912,0.66 -0.228,0 -0.445,-0.048 -0.565,-0.108 z"
       fill="#bcbdbe"
       id="path18" />
  </g>
  <defs
     id="defs25">
    <clipPath
       id="clip0_417_13266">
      <rect
         width="324"
         height="21"
         fill="#ffffff"
         id="rect22"
         x="0"
         y="0" />
    </clipPath>
  </defs>
</svg>
