<svg width="46" height="24" viewBox="0 0 46 24" fill="none" xmlns="http://www.w3.org/2000/svg">
<path d="M33.164 0H12.016C5.40718 0 0 5.4 0 12C0 18.6 5.40718 24 12.016 24H33.164C39.7728 24 45.18 18.6 45.18 12C45.18 5.4 39.7728 0 33.164 0Z" fill="white"/>
<path d="M33.164 0.972C34.648 0.972 36.0899 1.266 37.4477 1.842C38.7635 2.4 39.941 3.198 40.9624 4.212C41.9777 5.226 42.7768 6.408 43.3355 7.722C43.9123 9.078 44.2067 10.518 44.2067 12C44.2067 13.482 43.9123 14.922 43.3355 16.278C42.7768 17.592 41.9777 18.768 40.9624 19.788C39.947 20.802 38.7635 21.6 37.4477 22.158C36.0899 22.734 34.648 23.028 33.164 23.028H12.016C10.532 23.028 9.09007 22.734 7.73227 22.158C6.41652 21.6 5.23896 20.802 4.2176 19.788C3.20225 18.774 2.40319 17.592 1.84445 16.278C1.26768 14.922 0.973293 13.482 0.973293 12C0.973293 10.518 1.26768 9.078 1.84445 7.722C2.40319 6.408 3.20225 5.232 4.2176 4.212C5.23295 3.198 6.41652 2.4 7.73227 1.842C9.09007 1.266 10.532 0.972 12.016 0.972H33.164ZM33.164 0H12.016C5.40718 0 0 5.4 0 12C0 18.6 5.40718 24 12.016 24H33.164C39.7728 24 45.18 18.6 45.18 12C45.18 5.4 39.7728 0 33.164 0Z" fill="#3C4043"/>
<path d="M21.5446 12.8518V16.4818H20.3911V7.51782H23.4491C24.2241 7.51782 24.885 7.77582 25.4257 8.29182C25.9785 8.80782 26.2548 9.43782 26.2548 10.1818C26.2548 10.9438 25.9785 11.5738 25.4257 12.0838C24.891 12.5938 24.2302 12.8458 23.4491 12.8458H21.5446V12.8518ZM21.5446 8.62182V11.7478H23.4731C23.9298 11.7478 24.3143 11.5918 24.6147 11.2858C24.9211 10.9798 25.0773 10.6078 25.0773 10.1878C25.0773 9.77382 24.9211 9.40782 24.6147 9.10182C24.3143 8.78382 23.9358 8.62782 23.4731 8.62782H21.5446V8.62182Z" fill="#3C4043"/>
<path d="M29.2707 10.146C30.1238 10.146 30.7967 10.374 31.2894 10.83C31.782 11.286 32.0283 11.91 32.0283 12.702V16.482H30.9289V15.63H30.8808C30.4062 16.332 29.7693 16.68 28.9763 16.68C28.2974 16.68 27.7326 16.482 27.276 16.08C26.8194 15.678 26.5911 15.18 26.5911 14.58C26.5911 13.944 26.8314 13.44 27.3121 13.068C27.7927 12.69 28.4356 12.504 29.2346 12.504C29.9195 12.504 30.4843 12.63 30.9229 12.882V12.618C30.9229 12.216 30.7667 11.88 30.4482 11.598C30.1298 11.316 29.7573 11.178 29.3308 11.178C28.6879 11.178 28.1772 11.448 27.8047 11.994L26.7894 11.358C27.3481 10.548 28.1772 10.146 29.2707 10.146ZM27.7807 14.598C27.7807 14.898 27.9069 15.15 28.1652 15.348C28.4176 15.546 28.718 15.648 29.0604 15.648C29.5471 15.648 29.9796 15.468 30.3581 15.108C30.7366 14.748 30.9289 14.328 30.9289 13.842C30.5684 13.56 30.0697 13.416 29.4269 13.416C28.9583 13.416 28.5678 13.53 28.2553 13.752C27.9369 13.986 27.7807 14.268 27.7807 14.598Z" fill="#3C4043"/>
<path d="M38.3013 10.3436L34.4562 19.1756H33.2666L34.6965 16.0856L32.1611 10.3436H33.4168L35.2432 14.7476H35.2673L37.0456 10.3436H38.3013Z" fill="#3C4043"/>
<path d="M16.9561 12.1202C16.9561 11.7446 16.9225 11.3852 16.86 11.0396H12.0248V13.0196L14.8095 13.0202C14.6965 13.679 14.333 14.2406 13.7761 14.615V15.8996H15.4337C16.4016 15.005 16.9561 13.6826 16.9561 12.1202Z" fill="#4285F4"/>
<path d="M13.7769 14.615C13.3155 14.9258 12.7213 15.1076 12.0262 15.1076C10.6834 15.1076 9.54433 14.204 9.13638 12.986H7.42651V14.3108C8.27364 15.9896 10.0148 17.1416 12.0262 17.1416C13.4165 17.1416 14.5844 16.685 15.4345 15.899L13.7769 14.615Z" fill="#34A853"/>
<path d="M8.97509 12.0032C8.97509 11.6612 9.03217 11.3306 9.1361 11.0198V9.69504H7.42623C7.07597 10.3892 6.87891 11.1728 6.87891 12.0032C6.87891 12.8336 7.07657 13.6172 7.42623 14.3114L9.1361 12.9866C9.03217 12.6758 8.97509 12.3452 8.97509 12.0032Z" fill="#FABB05"/>
<path d="M12.0262 8.89807C12.785 8.89807 13.4645 9.15907 14.001 9.66907L15.47 8.20327C14.5778 7.37347 13.4147 6.86407 12.0262 6.86407C10.0154 6.86407 8.27364 8.01607 7.42651 9.69487L9.13638 11.0197C9.54433 9.80167 10.6834 8.89807 12.0262 8.89807Z" fill="#E94235"/>
</svg>
