<svg width="41" height="25" viewBox="0 0 41 25" fill="none" xmlns="http://www.w3.org/2000/svg">
<path d="M32.1368 12.9404H28.8722C28.5094 12.9404 28.2139 12.6649 28.2139 12.3201C28.2139 11.9751 28.5094 11.6715 28.8722 11.6715H33.842V9.33665H28.8722C27.1379 9.33665 25.7266 10.6833 25.7266 12.3314C25.7266 13.9791 27.138 15.3259 28.8722 15.3259H32.0925C32.4556 15.3259 32.7511 15.6003 32.7511 15.9451C32.7511 16.2902 32.4556 16.5441 32.0925 16.5441H25.1876C24.6015 17.61 24.0314 18.5237 22.8743 18.9804H32.1368C33.842 18.957 35.2373 17.5826 35.2373 15.9491C35.2373 14.316 33.842 12.9638 32.1368 12.9404Z" fill="#71706F"/>
<path d="M19.6224 16.5441H17.1072V14.1398C17.1072 12.7965 18.23 11.7036 19.6224 11.7036C21.0147 11.7036 22.1474 12.7966 22.1474 14.1398C22.1475 15.4835 21.0149 16.5441 19.6224 16.5441ZM19.6224 9.33665C16.8557 9.33665 14.6021 11.4956 14.6021 14.1483V14.2498V24.1576H17.107V18.9804H19.6171C22.3836 18.9804 24.6291 16.7929 24.6291 14.1398C24.6292 11.4872 22.3889 9.33665 19.6224 9.33665Z" fill="#71706F"/>
<path d="M6.67255 18.9813C4.3042 18.9813 2.31295 17.374 1.77425 15.2744C1.77425 15.2744 1.61855 14.5799 1.61855 14.1228C1.61855 13.6657 1.76605 12.9641 1.76605 12.9641C2.30871 10.8695 4.29737 9.3098 6.66177 9.3098C9.44272 9.3098 11.7246 11.4628 11.7246 14.1114V15.2763H4.33637C4.77265 16.0882 5.65492 16.545 6.6727 16.545H13.3146L13.3237 9.67675C13.3237 8.65279 12.444 7.81497 11.3689 7.81497H1.95498C0.879839 7.81497 0 8.62749 0 9.65146V18.6171C0 19.6411 0.879688 20.5043 1.95498 20.5043H11.3686C12.3335 20.5043 13.1384 19.8446 13.294 18.9816H6.67255V18.9813Z" fill="#C8036F"/>
<path d="M6.66083 11.5884C5.6473 11.5884 4.76564 12.1795 4.3277 12.9407H8.99428C8.55618 12.1795 7.67452 11.5884 6.66083 11.5884Z" fill="#C8036F"/>
<mask id="mask0_650_14568" style="mask-type:alpha" maskUnits="userSpaceOnUse" x="2" y="0" width="9" height="7">
<path d="M2.39569 0.937256H10.9231V6.2922H2.39569V0.937256Z" fill="white"/>
</mask>
<g mask="url(#mask0_650_14568)">
<path d="M10.923 4.89928C10.923 2.71102 9.01358 0.937256 6.65828 0.937256C4.34199 0.937256 2.45803 2.65321 2.39627 4.79118C2.3952 4.80028 2.39612 4.80895 2.39612 4.81835V6.0091C2.39612 6.15145 2.51782 6.29222 2.67124 6.29222H4.24017C4.39343 6.29222 4.52788 6.15145 4.52788 6.0091V4.89943C4.52788 3.80667 5.48344 2.91784 6.65965 2.91784C7.8357 2.91784 8.79142 3.80667 8.79142 4.89943V6.0091C8.79142 6.15145 8.9157 6.29222 9.06912 6.29222H10.6382C10.7915 6.29222 10.9232 6.15145 10.9232 6.0091V4.89928H10.923Z" fill="#C8036F"/>
</g>
<path d="M21.8155 21.6909C21.8155 21.7959 21.9006 21.8441 21.9918 21.8441C22.0897 21.8441 22.2185 21.7688 22.2185 21.6309C22.2185 21.5317 22.143 21.4778 22.058 21.4778C21.9448 21.4778 21.8155 21.5468 21.8155 21.6909ZM21.0595 21.6939C21.0595 21.7959 21.1414 21.8441 21.2296 21.8441C21.3398 21.8441 21.4597 21.7688 21.4597 21.6278C21.4597 21.5288 21.3902 21.478 21.2989 21.478C21.1856 21.4778 21.0595 21.5468 21.0595 21.6939ZM22.4328 22.0767L22.2061 23.3C22.0927 23.9181 21.6674 24.2013 21.0911 24.2013C20.6026 24.2013 20.2247 23.8981 20.3347 23.3009L20.5616 22.0767H20.9115L20.6845 23.3C20.6155 23.6811 20.795 23.8983 21.1352 23.8983C21.4848 23.8983 21.7839 23.7002 21.8566 23.3009L22.0835 22.0767H22.4328Z" fill="#71706F"/>
<path d="M23.0326 23.5034C23.0202 23.7497 23.187 23.9087 23.4295 23.9087C23.7351 23.9087 24.0311 23.6835 24.0501 23.3416C24.0627 23.0924 23.8928 22.9456 23.6563 22.9456C23.3539 22.9456 23.0515 23.1765 23.0326 23.5034ZM23.2783 22.0772L23.121 22.9224C23.2565 22.7486 23.5272 22.6565 23.7163 22.6565C24.1069 22.6565 24.3777 22.8746 24.3777 23.2795C24.3777 23.8527 23.9586 24.1973 23.4232 24.1973C23.2153 24.1973 23.0389 24.1237 22.9319 23.9379L22.8718 24.1583H22.5662L22.9536 22.0774H23.2783V22.0772Z" fill="#71706F"/>
<path d="M26.01 23.2956C26.0352 23.0417 25.878 22.9385 25.6164 22.9385C25.3801 22.9385 25.1626 23.0417 25.0682 23.2956H26.01ZM25.0144 23.5493C25.0018 23.7523 25.1689 23.9182 25.4526 23.9182C25.6098 23.9182 25.8176 23.8596 25.9311 23.7575L26.1077 23.9518C25.9155 24.1197 25.632 24.2032 25.3927 24.2032C24.9452 24.2032 24.6837 23.9481 24.6837 23.5579C24.6837 23.0389 25.1121 22.652 25.6602 22.652C26.1614 22.652 26.4449 22.9401 26.2748 23.5493H25.0144Z" fill="#71706F"/>
<path d="M27.1418 22.6863L27.1261 22.882C27.2773 22.6927 27.4599 22.6541 27.6268 22.6541C27.7781 22.6541 27.9138 22.7053 27.986 22.7803L27.7906 23.0504C27.7215 22.9906 27.652 22.9605 27.5326 22.9605C27.3088 22.9605 27.0881 23.0883 27.0377 23.3614L26.8898 24.1583H26.5652L26.8392 22.6863H27.1418Z" fill="#71706F"/>
<path d="M29.5478 22.6857L29.7116 23.8499L30.3039 22.6857H30.6661L29.8538 24.1577H29.4723L29.3178 23.1867L29.0691 23.6692L28.7982 24.1577H28.4201L28.146 22.6857H28.5113L28.6721 23.8499L29.2674 22.6857H29.5478Z" fill="#71706F"/>
<path d="M32.0811 23.2956C32.1061 23.0417 31.9488 22.9385 31.687 22.9385C31.4509 22.9385 31.2336 23.0417 31.139 23.2956H32.0811ZM31.0853 23.5493C31.0727 23.7523 31.2399 23.9182 31.5234 23.9182C31.6808 23.9182 31.8887 23.8596 32.002 23.7575L32.1785 23.9518C31.9864 24.1197 31.7028 24.2032 31.4635 24.2032C31.016 24.2032 30.7546 23.9481 30.7546 23.5579C30.7546 23.0389 31.183 22.652 31.7311 22.652C32.2322 22.652 32.5157 22.9401 32.3457 23.5493H31.0853Z" fill="#71706F"/>
<path d="M32.9464 22.2853C32.9464 22.3902 33.0284 22.4444 33.1165 22.4444C33.2426 22.4444 33.3592 22.3662 33.3592 22.2193C33.3592 22.12 33.2803 22.0632 33.1953 22.0632C33.0789 22.0632 32.9464 22.1353 32.9464 22.2853ZM33.2329 22.6862L32.9589 24.1582H32.6343L32.9085 22.6862H33.2329Z" fill="#71706F"/>
<path d="M34.6738 23.0502C34.573 22.9422 34.4439 22.9121 34.2895 22.9121C34.0753 22.9121 33.9241 22.9811 33.9241 23.1103C33.9241 23.2182 34.0471 23.2633 34.2298 23.2782C34.5131 23.3022 34.8756 23.3923 34.8 23.7734C34.7463 24.0494 34.4566 24.2114 34.0533 24.2114C33.8014 24.2114 33.5587 24.1575 33.3948 23.9383L33.6059 23.7193C33.7225 23.8721 33.9273 23.9354 34.11 23.9383C34.2644 23.9383 34.4472 23.8842 34.4756 23.7462C34.504 23.6142 34.3811 23.5632 34.154 23.5421C33.8894 23.5183 33.5998 23.4254 33.5998 23.1464C33.5998 22.777 34.0187 22.6482 34.3339 22.6482C34.5732 22.6482 34.7495 22.6991 34.8944 22.8464L34.6738 23.0502Z" fill="#71706F"/>
<path d="M35.698 22.6859L35.5499 23.4785C35.5026 23.7306 35.6225 23.9049 35.8933 23.9049C36.1486 23.9049 36.3659 23.7033 36.4098 23.4572L36.5518 22.6857H36.8764L36.6023 24.1577H36.3093L36.3313 23.9443C36.1486 24.1095 35.9689 24.1874 35.7518 24.1874C35.3704 24.1874 35.1437 23.9269 35.2255 23.4798L35.3736 22.6857H35.698V22.6859Z" fill="#71706F"/>
<path d="M38.3022 24.158L38.4503 23.3702C38.4974 23.1151 38.4063 22.946 38.1099 22.946C37.8517 22.946 37.6342 23.1439 37.5902 23.3871L37.4483 24.158H37.1237L37.3981 22.686H37.694L37.672 22.9011C37.8517 22.7421 38.0374 22.6638 38.2391 22.6638C38.6169 22.6638 38.8628 22.9141 38.7779 23.3672L38.6297 24.1579H38.3022V24.158Z" fill="#71706F"/>
<path d="M39.4924 23.513C39.4924 23.7646 39.6658 23.918 39.9147 23.918C40.5856 23.918 40.7651 22.9368 40.0941 22.9368C39.7757 22.9366 39.4924 23.1615 39.4924 23.513ZM39.4007 24.3614C39.3789 24.5644 39.5426 24.6468 39.8168 24.6468C40.0563 24.6468 40.3147 24.5193 40.3745 24.1953L40.4219 23.9427C40.2797 24.1316 40.0217 24.2063 39.8297 24.2063C39.4325 24.2063 39.1555 23.981 39.1555 23.5728C39.1555 22.9911 39.6091 22.6547 40.1226 22.6547C40.3401 22.6547 40.5354 22.7528 40.6047 22.9209L40.6583 22.6865H40.9733L40.7023 24.2023C40.6017 24.7633 40.1636 24.9373 39.7636 24.9373C39.2847 24.9373 39.0202 24.7169 39.086 24.3615H39.4007V24.3614Z" fill="#71706F"/>
</svg>
