<svg width="28" height="24" viewBox="0 0 28 24" fill="none" xmlns="http://www.w3.org/2000/svg">
<path d="M0 0.937012V23.7586H14.123C23.4394 23.7586 27.4795 18.8434 27.4795 12.3255C27.4795 5.83291 23.4394 0.937012 14.123 0.937012H0Z" fill="white"/>
<path d="M1.52734 2.37671H14.1258C22.6768 2.37671 25.9544 6.77592 25.9544 12.3254C25.9544 18.9798 21.3774 22.3188 14.1258 22.3188H1.52734V2.37671ZM2.74869 3.52734V21.1688H14.1258C20.9947 21.1688 24.7319 18.1535 24.7319 12.3254C24.7319 6.33585 20.6806 3.52699 14.1258 3.52699H2.74869V3.52734Z" fill="black"/>
<path d="M4.27441 13.6223H7.91644V19.729H4.27441V13.6223Z" fill="black"/>
<path d="M6.09649 12.6777C7.34657 12.6777 8.35996 11.723 8.35996 10.5453C8.35996 9.36756 7.34657 8.41284 6.09649 8.41284C4.8464 8.41284 3.83301 9.36756 3.83301 10.5453C3.83301 11.723 4.8464 12.6777 6.09649 12.6777Z" fill="black"/>
<path d="M15.5543 11.5427V12.5315H12.9593V8.56355H15.4714V9.55201H14.0085V10.0114H15.3919V11.0002H14.0085V11.543L15.5543 11.5427ZM16.0084 12.5322L17.2782 8.56214H18.771L20.0406 12.5322H18.9484L18.7102 11.7643H17.3376L17.099 12.5322H16.0084ZM17.6453 10.7765H18.4048L18.0564 9.65508H17.9929L17.6453 10.7765ZM20.5682 8.56249H21.6181V11.543H23.1722C22.7458 6.13494 18.2308 4.96637 14.1257 4.96637H9.75075V8.5646H10.3982C11.5789 8.5646 12.3118 9.31879 12.3118 10.5324C12.3118 11.7847 11.5964 12.5322 10.3982 12.5322H9.75075V19.7315H14.1261C20.7971 19.7315 23.1203 16.8125 23.2024 12.5315H20.5682V8.56249ZM9.75 9.55307V11.543H10.3982C10.8474 11.543 11.2626 11.4206 11.2626 10.532C11.2626 9.66423 10.8007 9.55307 10.3982 9.55307H9.75Z" fill="#D50072"/>
</svg>
