<svg width="56" height="21" viewBox="0 0 56 21" fill="none" xmlns="http://www.w3.org/2000/svg">
<g clip-path="url(#clip0_650_14590)">
<path d="M27.3163 2.63366C27.2089 2.72313 27.1952 2.80103 27.1826 3.41313L27.1689 4.09313L25.171 4.10735L23.1731 4.12156V4.8584L25.171 4.87261L27.1689 4.88682L27.1857 5.49629L27.2026 6.10524L25.5142 6.11945L23.8247 6.13419V6.87103L27.1579 6.88524L30.49 6.89892L30.4531 7.02366C30.3673 7.30892 29.9247 8.08945 29.6231 8.48577C29.3704 8.80339 29.0998 9.10634 28.8126 9.39313C28.2515 9.94787 28.3479 9.95734 27.5431 9.26261C27.0784 8.8605 26.2126 7.90629 26.1394 7.71524C26.1157 7.65313 25.9163 7.63629 25.2026 7.63629H24.2952L24.4236 7.85156C24.8815 8.61682 26.0994 9.93471 26.8173 10.4405C26.9931 10.5642 27.1405 10.6837 27.1405 10.7026C27.1405 10.7552 26.4657 11.1468 25.8084 11.4742C25.1978 11.7795 24.1821 12.191 23.5242 12.4026L23.1163 12.5331V12.9752C23.1163 13.3663 23.1284 13.4173 23.2189 13.4173C23.3752 13.4173 24.6526 13.0563 25.31 12.8252C26.0694 12.5589 27.1542 12.0831 27.7926 11.7368L28.3084 11.4568L28.8694 11.7547C29.6379 12.1593 30.4333 12.5105 31.25 12.8058C31.9473 13.0568 33.1742 13.4168 33.33 13.4168C33.4189 13.4168 33.4321 13.3637 33.4321 13.001V12.5837L32.6784 12.2837C31.8563 11.9573 30.5221 11.311 29.8784 10.9273L29.47 10.6842L29.8784 10.3595C30.7257 9.68419 31.5647 8.71208 32.0594 7.83313C32.2789 7.44208 32.6478 6.57103 32.7242 6.26313L32.7631 6.10524H29.2894L29.3057 5.49577L29.3231 4.88629L31.3205 4.87208L33.3184 4.85787V4.12103H29.2947V2.53471H28.3657C27.5605 2.53524 27.4194 2.5484 27.3163 2.63471V2.63366ZM49.6973 3.04471V3.55471H45.9573V5.42524H47.9405V4.29208H53.5457L53.5626 4.84471L53.5794 5.39735L54.5915 5.41156L55.6026 5.42577L55.5831 4.62682C55.5631 3.83313 55.5621 3.82682 55.4042 3.69156L55.2452 3.55471H51.7931V2.53577H49.6968V3.04524H49.6973V3.04471ZM35.7384 2.66261C35.7226 2.70103 35.2721 3.76471 34.7352 5.02892L33.7315 7.39208C33.7105 7.44366 33.8984 7.46471 34.4889 7.47734L35.2731 7.49419L35.2868 10.3989L35.3015 13.3031H37.0021V5.60156L36.6957 5.58471L36.39 5.56735L37.0363 4.09366C37.391 3.28313 37.6815 2.61419 37.6815 2.60577C37.6815 2.59787 37.251 2.59156 36.7236 2.59156C36.0105 2.59156 35.7594 2.60945 35.7384 2.66261V2.66261ZM42.1594 3.63998V4.57524H37.7384V5.31208H42.1594V8.7584C42.1594 11.3652 42.1431 12.2216 42.0915 12.2721C42.0484 12.3152 41.8315 12.34 41.4968 12.34H40.9694V13.1384L42.2731 13.1226L43.5773 13.1052L43.7615 12.921L43.9457 12.7368L43.96 9.02471L43.9742 5.31208H44.711V4.57524H43.9742V2.70471H42.1605V3.63998H42.1594ZM45.9573 6.47419V6.84261H49.81V8.37261H45.9573V9.10945H49.81V12.2837H45.9573V13.02H50.8942C54.8778 13.02 55.8247 13.0058 55.8015 12.9468C55.7863 12.9058 55.6373 12.4137 55.4731 11.8584C55.3084 11.3031 55.1268 10.7979 55.0705 10.7421C54.981 10.6526 54.8605 10.6405 54.09 10.6405C53.6084 10.6405 53.2115 10.6542 53.2115 10.671C53.2115 10.6884 53.3136 11.0395 53.4384 11.4537C53.5631 11.8673 53.6647 12.2221 53.6647 12.2442C53.6647 12.2658 53.2347 12.2837 52.7015 12.2837H51.7384V9.10945H55.591V8.37261H51.7384V6.84261H55.591V6.10577H45.9573V6.47419Z" fill="#3A3A3A"/>
<path d="M38.3624 6.42905C38.3624 6.45011 38.5814 7.15695 38.8493 8.00169C39.1177 8.8459 39.3735 9.6559 39.4193 9.80379L39.5014 10.0722H40.3772C40.8593 10.0722 41.253 10.0522 41.253 10.0269C41.253 9.86905 40.174 6.59326 40.0909 6.50221C39.9982 6.39958 39.9119 6.38905 39.1751 6.38905C38.7277 6.38905 38.3624 6.40642 38.3624 6.42905V6.42905ZM30.8809 17.1006V19.368L32.2272 19.3533L33.573 19.3385L33.5898 19.0417L33.6066 18.7443H31.6745V14.8338H30.8809V17.1006ZM36.5487 17.1006V19.3733L36.9309 19.3559L37.3135 19.3385V14.8622L36.9309 14.8448L36.5487 14.828V17.1006ZM53.9345 15.3585C53.8019 15.6469 53.6003 16.0727 53.4872 16.3069L53.2798 16.7322L52.9003 15.9385C52.7523 15.6336 52.6088 15.3266 52.4698 15.0175C52.4224 14.9006 52.3845 14.8901 51.994 14.8901C51.7614 14.8901 51.5687 14.9059 51.5687 14.9243C51.5687 14.9422 51.863 15.528 52.2203 16.2191L52.8719 17.4801V19.3112H53.6651V17.5254L54.3451 16.1938C54.5756 15.7471 54.8025 15.2985 55.0256 14.848C55.0256 14.8401 54.8324 14.8338 54.6003 14.8338H54.1751L53.9345 15.358V15.3585ZM25.9277 14.9359C25.893 14.9927 24.3066 19.3122 24.3066 19.3506C24.3066 19.3633 24.4877 19.3659 24.714 19.3559L25.1224 19.3385L25.2893 18.8975L25.4566 18.4554L26.2782 18.4722L27.1003 18.4891L27.2477 18.9143L27.3951 19.3385L27.8119 19.3559C28.1519 19.3701 28.2245 19.3585 28.2087 19.2917C28.1977 19.2459 27.8324 18.2401 27.3951 17.0496L26.6019 14.8906H26.2787C26.1035 14.8906 25.943 14.9112 25.9277 14.9359V14.9359ZM26.5961 16.9596C26.7393 17.3954 26.8566 17.7848 26.8566 17.8233C26.8566 17.8759 26.6982 17.8943 26.2619 17.8943C25.933 17.8943 25.6661 17.8759 25.6656 17.8543C25.664 17.7412 26.2687 16.0922 26.2993 16.1259C26.3193 16.148 26.453 16.5227 26.5961 16.9596V16.9596ZM40.5872 17.1154L40.6009 19.3385H41.394L41.4109 18.4754L41.4277 17.6106H42.0119C42.9524 17.6106 43.3787 17.4159 43.6551 16.8627C44.004 16.1659 43.7309 15.3459 43.0435 15.0248C42.7714 14.8985 42.6887 14.8906 41.6635 14.8906H40.573L40.5877 17.1154H40.5872ZM42.5961 15.5512C42.8077 15.6501 43.0098 15.9785 43.0098 16.2227C43.0098 16.4438 42.8714 16.7275 42.6977 16.8627C42.5593 16.9717 42.4677 16.9875 41.9809 16.9875H41.423V15.4585H41.9098C42.2445 15.4575 42.4603 15.4875 42.5961 15.5517V15.5512ZM47.3219 15.0491C47.0982 15.6106 45.7872 19.2364 45.7872 19.2943C45.7872 19.3459 45.903 19.368 46.1809 19.368H46.5751L46.7335 18.9148L46.8924 18.4617H48.5535L48.7061 18.9143L48.8587 19.368H49.2503C49.5114 19.368 49.6419 19.3459 49.6419 19.3027C49.6419 19.2669 49.3077 18.3301 48.8993 17.2196C48.4898 16.1091 48.1314 15.1322 48.0998 15.0464C48.0472 14.9012 48.0209 14.8912 47.7145 14.8912C47.4077 14.8912 47.3803 14.9006 47.3219 15.0491V15.0491ZM48.0287 16.9254C48.1745 17.3727 48.304 17.7712 48.3198 17.8148C48.3435 17.8791 48.2293 17.8938 47.7193 17.8938C47.3735 17.8938 47.0903 17.8864 47.0903 17.878C47.0903 17.8612 47.4993 16.6701 47.6856 16.1427C47.7014 16.098 47.7245 16.0743 47.7393 16.0896C47.7535 16.1033 47.883 16.4769 48.0287 16.9254V16.9254Z" fill="#3A3A3A"/>
<path d="M4.58313 11.9678C3.81207 12.1388 3.16207 12.4799 2.86734 12.8672C2.53418 13.3041 2.45734 13.5304 2.45734 14.0688C2.45734 14.5167 2.47734 14.6162 2.61839 14.8846C2.93049 15.4794 3.58523 15.9499 4.41786 16.1767C4.97944 16.3294 6.17471 16.3146 6.76418 16.1472C7.39365 15.9683 8.15892 15.5872 8.72576 15.1683C9.21313 14.8083 10.0273 14.0262 10.3552 13.6041L10.5394 13.3662L10.2621 13.2251C9.17892 12.6772 7.63944 12.1188 6.79892 11.9704C6.23734 11.8715 5.02313 11.8694 4.58313 11.9678V11.9678Z" fill="#2CA6E0"/>
<path d="M19.9589 17.5772L18.2358 16.8482C16.5695 16.1414 13.3731 14.7393 12.6358 14.3914L12.2789 14.223L11.5047 14.9998C10.621 15.8856 9.93841 16.3945 9.03157 16.8466C7.97736 17.3698 7.00209 17.6124 5.94841 17.6124C4.57104 17.6124 3.50736 17.223 2.71209 16.4282C2.02788 15.744 1.74841 15.0851 1.74841 14.1551C1.74841 13.3735 1.99683 12.6635 2.4863 12.0472C3.11893 11.2503 4.25367 10.7114 5.50578 10.6103C6.65525 10.5182 8.93473 10.9393 11.06 11.6366C11.2984 11.7151 11.5274 11.7614 11.5653 11.7382C11.6953 11.6577 12.4995 9.75664 12.6042 9.28085L12.641 9.11085H4.97946V8.31717H8.94578V6.95717L6.55104 6.94296L4.15683 6.92875L4.13946 6.54611L4.12262 6.16348H8.94578V5.09506C8.94578 4.13138 8.95578 4.01717 9.05051 3.93348C9.13999 3.85348 9.30578 3.8398 10.1837 3.8398H11.2126V6.16401H15.9789L15.9616 6.54664L15.9442 6.92927L13.5779 6.94348L11.2116 6.95769V8.31769H13.1389C14.561 8.31769 15.0653 8.33506 15.0653 8.38612C15.0653 8.51243 14.6631 9.80243 14.4631 10.3182C14.3516 10.6066 14.0837 11.2024 13.8642 11.6509C13.6447 12.0982 13.4763 12.4677 13.4868 12.4782C13.4979 12.4866 13.66 12.5466 13.8468 12.6109C14.0342 12.6745 14.6974 12.9109 15.3205 13.1356C17.0495 13.7587 18.7853 14.2982 19.7868 14.5224L19.9453 14.5572L19.9284 9.12822L19.9116 3.96559C19.79 3.20505 19.4014 2.51271 18.8156 2.01271C18.2297 1.51271 17.4849 1.23777 16.7147 1.23717H3.50525C2.64557 1.23731 1.82115 1.57887 1.21326 2.18676C0.605379 2.79464 0.263811 3.61907 0.263672 4.47875V17.6093C0.263951 18.469 0.605652 19.2933 1.21363 19.9011C1.82162 20.5089 2.6461 20.8503 3.50578 20.8503H16.7174C17.5555 20.8498 18.3609 20.5245 18.9643 19.9427C19.5677 19.3609 19.9221 18.5679 19.9531 17.7303H19.9458L19.9589 17.5777V17.5772Z" fill="#2CA6E0"/>
</g>
<defs>
<clipPath id="clip0_650_14590">
<rect width="55.7895" height="20" fill="white" transform="translate(0 0.937256)"/>
</clipPath>
</defs>
</svg>
