<svg width="36" height="12" viewBox="0 0 36 12" fill="none" xmlns="http://www.w3.org/2000/svg">
<path d="M13.6686 0.212102L8.95547 11.8185H5.8805L3.56115 2.55606C3.42034 1.98555 3.2979 1.77655 2.86966 1.53619C2.17048 1.14469 1.01586 0.777384 0 0.549413L0.0689991 0.212102H5.01876C5.64969 0.212102 6.21687 0.645594 6.36012 1.3955L7.58505 8.11153L10.6124 0.211908L13.6686 0.212102ZM25.717 8.02909C25.7294 4.96581 21.6131 4.79706 21.6414 3.42865C21.6502 3.01219 22.0344 2.56941 22.8753 2.45639C23.2921 2.40008 24.4406 2.35712 25.7431 2.97581L26.254 0.514578C25.5541 0.252354 24.6536 0 23.5331 0C20.6578 0 18.6343 1.5776 18.6172 3.8366C18.5987 5.50748 20.0615 6.43988 21.1637 6.9951C22.2975 7.56367 22.6779 7.92904 22.6736 8.43762C22.6655 9.21617 21.7693 9.55986 20.9317 9.57341C19.4696 9.59663 18.6212 9.16508 17.9449 8.84054L17.4176 11.3832C18.0973 11.7051 19.3519 11.9859 20.6525 12C23.7086 12 25.7077 10.4419 25.717 8.02909ZM33.3096 11.8187H36L33.6516 0.212295H31.1684C30.61 0.212295 30.139 0.547864 29.9305 1.0638L25.5654 11.8187H28.6199L29.2264 10.0849H32.9586L33.3096 11.8187ZM30.0638 7.7061L31.5949 3.34834L32.4762 7.7061H30.0638ZM17.8251 0.212102L15.4197 11.8185H12.5108L14.9172 0.212102H17.8251Z" fill="white"/>
</svg>
