<svg width="49" height="17" viewBox="0 0 49 17" fill="none" xmlns="http://www.w3.org/2000/svg">
<mask id="mask0_650_14671" style="mask-type:alpha" maskUnits="userSpaceOnUse" x="0" y="0" width="49" height="17">
<path d="M38.4329 2.45367L42.3546 1.7712V16.4821H38.4329V2.45367ZM44.7076 2.45367V16.4821H48.6293V1.7712L44.7076 2.45367ZM32.9424 16.4821H36.8642V5.866H32.9424V16.4821ZM6.11781 7.30675C5.56888 7.30675 4.39236 7.23085 4.39236 6.16928C4.39236 4.9559 6.11781 4.9559 6.74539 4.9559C7.84344 4.9559 9.33366 5.25935 10.3533 5.56272C10.3533 5.56272 11.0592 5.79009 11.5298 5.94173H11.6867V2.5294L11.5298 2.45367C10.2749 2.07448 8.78463 1.61948 6.19628 1.61948C1.64716 1.7712 0 4.34934 0 6.54838C0 7.83757 0.549024 10.7948 5.8042 11.174C6.27475 11.174 7.45127 11.2498 7.45127 12.3116C7.45127 13.2214 6.35313 13.6764 4.70598 13.6764C2.90206 13.6764 1.56869 13.2214 0 12.8422V16.3304C1.56869 16.7095 3.45108 16.937 5.56888 16.937C10.0395 16.937 12.0789 14.5105 12.0789 12.084C12.0789 9.35415 9.88268 7.61003 6.11781 7.30675ZM30.5109 5.63845C26.7461 5.71427 25.0989 7.38257 25.0989 10.5674V16.4821H29.0208V11.7047C29.0208 9.80915 29.0208 8.97505 31.3738 8.89914V5.71427C31.3738 5.56272 30.5109 5.63845 30.5109 5.63845ZM19.6086 5.86591C19.5301 5.86591 18.8242 7.76167 17.2555 9.58161V1.7712L13.3338 2.60531V16.4821H17.2555V12.3872C18.8242 14.1313 19.138 16.4821 19.138 16.4821H24.1577C23.6873 14.9654 21.491 11.0223 21.491 11.0223C23.4519 8.67168 24.3147 5.86591 24.393 5.86591H19.6086ZM34.9033 4.72853C36.0013 4.72853 36.8642 3.89442 36.8642 2.83277C36.8642 1.7712 36.0013 0.937012 34.9033 0.937012C33.8053 0.937012 32.9424 1.7712 32.9424 2.83277C32.9424 3.89442 33.8053 4.72853 34.9033 4.72853Z" fill="white"/>
</mask>
<g mask="url(#mask0_650_14671)">
<path d="M-4.13324 20.9474H52.7627V-3.07513H-4.13324V20.9474Z" fill="#B73091"/>
</g>
</svg>
