<svg width="58" height="21" viewBox="0 0 58 21" fill="none" xmlns="http://www.w3.org/2000/svg">
<path d="M12.2306 12.055L16.6999 12.0483L16.537 13.2421L12.7992 17.4305L15.9369 17.4238L15.754 18.7115L11.1332 18.7148L11.3276 17.3835L14.911 13.3561H12.0505L12.2306 12.055Z" fill="#D13239"/>
<path d="M7.40297 10.3393C7.2915 10.2231 7.13085 10.1327 6.95381 10.0617C6.76693 9.99069 6.56038 9.93905 6.35711 9.90354C6.10138 9.85836 5.85221 9.83899 5.67517 9.83254C5.51125 9.82608 5.40633 9.82608 5.40633 9.82608H3.1638H1.49502L0 18.7148H1.39666L1.94746 15.4227L4.65554 15.4356C4.65554 15.4356 5.71124 15.4776 6.45875 15.087C7.20626 14.6965 7.40625 13.8089 7.40625 13.8089C7.40625 13.8089 7.48821 13.4797 7.55706 13.0795C7.63247 12.6373 7.70788 12.108 7.74722 11.8272C7.76361 11.7045 7.77345 11.6271 7.77345 11.6271C7.77345 11.6271 7.79312 11.5367 7.79312 11.3947C7.7964 11.1978 7.76689 10.9009 7.60952 10.6168C7.55378 10.5168 7.48821 10.4264 7.40297 10.3393ZM6.32761 11.9079C6.32761 11.924 6.20302 12.6373 6.03909 13.4829C5.9768 13.8057 5.72435 13.98 5.43584 14.0413C4.95717 14.1414 4.44244 14.122 4.44244 14.122L2.18024 14.1155L2.67858 11.1623L4.72767 11.1688C4.72767 11.1688 4.86537 11.1655 5.05881 11.1688C5.27847 11.172 5.57026 11.1817 5.80959 11.2139C6.01614 11.2398 6.18007 11.2817 6.23253 11.3463C6.30138 11.4302 6.3276 11.5399 6.33744 11.6368C6.35055 11.7788 6.32761 11.8982 6.32761 11.9079Z" fill="#D13239"/>
<path d="M23.445 9.82608H24.4943L23.3196 18.7148L22.2676 18.7116L23.445 9.82608Z" fill="#D13239"/>
<path d="M30.06 12.0583L31.3205 12.055L31.7663 16.7407L33.7067 12.0483L35.2622 12.0516L35.7209 16.7574L37.6581 12.055H38.9667L36.1892 18.7081H34.6368L34.1878 14.0493L32.2281 18.7081L30.7015 18.7148L30.06 12.0583Z" fill="#D13239"/>
<path d="M21.2173 12.1948C20.8785 12.0745 20.2924 12.0485 19.7947 12.055C19.3146 12.0615 19.0937 12.0875 18.914 12.1298C18.914 12.1298 18.0599 12.2663 17.5739 12.9298C17.0879 13.5932 16.9436 15.0435 16.9436 15.0435C16.9436 15.0435 16.6549 16.6468 16.7404 17.1833C16.8258 17.7167 16.976 18.2142 17.5238 18.4451C18.0716 18.6793 18.537 18.6663 18.537 18.6663C18.537 18.6663 19.5149 18.7508 20.2512 18.5589C20.9875 18.3671 21.3763 17.7947 21.3763 17.7947C21.3763 17.7947 21.5501 17.5476 21.6738 17.2549C21.7975 16.9622 21.8358 16.7573 21.8417 16.7313L21.9182 16.3834L20.6665 16.3866C20.6665 16.3866 20.5987 17.3004 19.9213 17.385C19.2468 17.4695 18.8846 17.437 18.752 17.4305C18.6224 17.424 17.8979 17.4598 17.9568 16.7899C17.9568 16.7801 17.9568 16.7671 17.9597 16.7476C17.9921 15.9866 18.0687 15.7882 18.0687 15.7882L22.0007 15.7752L22.1686 14.7021C22.363 13.4858 22.2246 12.559 21.2173 12.1948ZM20.9551 14.5492L18.2601 14.546L18.3662 14.0744C18.3662 14.0744 18.4604 13.7037 18.646 13.5476C18.8345 13.3915 19.0731 13.3623 19.2969 13.3395C19.5207 13.3167 20.1187 13.268 20.6046 13.3785C20.7666 13.4143 20.9198 13.5151 20.961 13.6647C21.0553 14.0159 20.9551 14.5492 20.9551 14.5492Z" fill="#D13239"/>
<path d="M17.9903 16.7609C17.9903 16.8077 17.9682 16.8545 17.9682 16.9013C17.9462 17.1509 17.9903 16.7453 17.9903 16.7609Z" fill="#D13239"/>
<path d="M25.7735 16.7633C25.7735 16.8101 25.7515 16.8569 25.7515 16.9037C25.7515 17.1533 25.7735 16.7477 25.7735 16.7633Z" fill="#D13239"/>
<path d="M29.0088 12.1972C28.6701 12.0769 28.084 12.0508 27.5862 12.0573C27.1061 12.0639 26.8852 12.0899 26.7056 12.1321C26.7056 12.1321 25.8514 12.2687 25.3654 12.9321C24.8795 13.5955 24.7351 15.0459 24.7351 15.0459C24.7351 15.0459 24.4465 16.6491 24.5319 17.1857C24.6173 17.7191 24.7675 18.2166 25.3154 18.4475C25.8632 18.6816 26.3286 18.6686 26.3286 18.6686C26.3286 18.6686 27.3064 18.7532 28.0428 18.5613C28.7791 18.3694 29.1679 17.7971 29.1679 17.7971C29.1679 17.7971 29.3417 17.5499 29.4654 17.2573C29.5891 16.9646 29.6273 16.7597 29.6332 16.7337L29.7098 16.3857L28.458 16.389C28.458 16.389 28.3903 17.3028 27.7129 17.3874C27.0384 17.4719 26.6761 17.4394 26.5436 17.4361C26.414 17.4296 25.6894 17.4621 25.7483 16.7955C25.7483 16.7857 25.7483 16.7727 25.7513 16.7532C25.7837 15.9922 25.8603 15.7939 25.8603 15.7939L29.7923 15.7809L29.9602 14.7077C30.1546 13.4882 30.0161 12.5582 29.0088 12.1972ZM28.7349 14.5484L26.0399 14.5451L26.146 14.0736C26.146 14.0736 26.2402 13.7029 26.4258 13.5468C26.6113 13.3907 26.8528 13.3614 27.0767 13.3386C27.3005 13.3159 27.8984 13.2671 28.3844 13.3777C28.5464 13.4134 28.6996 13.5142 28.7408 13.6638C28.8351 14.0118 28.7349 14.5484 28.7349 14.5484Z" fill="#D13239"/>
<path d="M39.7986 12.0516L40.6731 16.8171L43.1436 12.0483L44.5335 12.0614L40.9723 18.8717C40.9723 18.8717 40.3273 20.1057 39.9283 20.4175C39.5293 20.7293 39.2832 20.8704 38.9574 20.9033C38.6315 20.9361 38.4985 20.9591 38.186 20.9033L37.8535 20.8442L38.0596 19.6265C38.0596 19.6265 38.6116 19.7283 38.9374 19.6003C39.2666 19.4723 39.5293 18.9209 39.5293 18.9209L39.6955 18.6452L38.4087 12.0483L39.7986 12.0516Z" fill="#D13239"/>
<path d="M44.3836 13.0101L45.7775 13.0133L45.8616 12.4808C45.8616 12.4808 46.0104 11.5178 46.3435 11.3328C46.4503 11.2722 46.6217 11.218 46.819 11.1829C47.1844 11.1192 47.6469 11.1128 48.0253 11.1255C48.6042 11.1447 48.8242 11.1511 49.4128 11.218C50.0014 11.285 49.8526 11.8462 49.8526 11.8462L49.7362 12.6849C49.7362 12.6849 49.6845 13.0611 49.5486 13.2939C49.429 13.5012 49.0991 13.6415 48.9083 13.7021C48.449 13.8488 46.8772 14.2442 46.8772 14.2442L45.6417 14.5949C45.6417 14.5949 44.8817 14.8118 44.458 15.2741C44.0311 15.7397 43.8629 16.2659 43.8047 16.5401C43.7465 16.8143 43.4198 18.7116 43.4198 18.7116L50.0887 18.7148L50.3119 17.4011L45.0369 17.4074L45.1307 16.8717C45.1307 16.8717 45.1921 16.3201 45.4185 16.1383C45.4897 16.0809 45.5253 16.0044 45.9457 15.8577C46.198 15.7684 47.0583 15.542 47.0583 15.542L49.0473 15.0063C49.0473 15.0063 50.134 14.7321 50.5609 14.1453C50.9878 13.5618 51.1528 12.4425 51.1528 12.4425C51.1528 12.4425 51.2692 11.3551 51.1787 11.0139C51.0913 10.6727 50.7647 10.2646 50.3669 10.0892C49.9691 9.91381 49.5551 9.81177 48.3552 9.82771C47.1553 9.84365 46.5602 9.89786 45.9522 10.1211C45.3442 10.3411 44.9916 10.7429 44.7685 11.3105C44.5259 11.8494 44.3836 13.0101 44.3836 13.0101Z" fill="#B3B2B1"/>
<path d="M56.7313 15.4142L57.5754 9.82608H56.08L51.4241 15.3497L51.2138 16.75H55.2855L54.9876 18.7116L56.2377 18.7148L56.5327 16.75L57.6864 16.7532L57.8938 15.4142H56.7313ZM55.487 15.4174L52.8553 15.4142L56.0595 11.6425L55.487 15.4174Z" fill="#B3B2B1"/>
<path d="M10.02 10.9377H14.2748C14.2748 10.9377 15.2275 10.2369 15.9047 9.78635C16.582 9.33582 17.8134 8.62618 17.8134 8.62618L15.4089 7.6044C15.4089 7.6044 13.3772 8.7469 12.5152 9.28576C11.6791 9.7834 10.02 10.9377 10.02 10.9377Z" fill="#B3B2B1"/>
<path d="M18.5749 7.60383L16.6996 6.32868C16.6996 6.32868 18.3963 5.35521 20.6533 4.44705C22.9072 3.53889 24.1112 3.15945 24.1112 3.15945L24.493 4.96644C24.493 4.96644 22.3222 5.70043 21.0782 6.29447C19.7911 6.84807 18.5749 7.60383 18.5749 7.60383Z" fill="#B3B2B1"/>
<path d="M25.9167 4.27054L25.6063 2.48699C25.6063 2.48699 27.8081 1.88748 29.8225 1.50379C31.8398 1.12011 34.513 0.937256 34.513 0.937256L33.6288 3.69201C33.6288 3.69201 31.2777 3.36228 29.07 3.67103C27.3514 3.88086 25.9167 4.27054 25.9167 4.27054Z" fill="#B3B2B1"/>
<path d="M34.5131 4.11467L36.0554 0.94081C36.0554 0.94081 39.4347 0.872422 42.3494 1.3356C45.2641 1.79567 47.9299 2.50442 47.8722 2.53551L40.4822 6.49273C40.4822 6.49273 38.7546 5.37364 36.6111 4.68665C35.3966 4.31983 34.5131 4.11467 34.5131 4.11467Z" fill="#B3B2B1"/>
<path d="M42.3071 7.5738L43.9978 8.7144H57.8938C57.8938 8.7144 57.8653 8.31547 57.4956 7.74798C57.2649 7.39401 56.8445 7.01756 56.4053 6.62706C56.2441 6.48659 55.6057 6.04271 55.1253 5.76459C53.8991 5.05663 53.2133 4.78413 51.9397 4.27002L42.3071 7.5738Z" fill="#B3B2B1"/>
<path d="M10.4056 12.0483C9.9009 12.0483 9.42375 12.2675 9.01696 12.5136L9.08731 12.0483H7.75069L6.68018 18.7148H8.01985L8.61322 15.0224C8.73556 14.2738 9.2433 13.3465 10.2343 13.3465L10.9255 13.3432L11.1335 12.0483H10.4056Z" fill="#D13239"/>
</svg>
