<svg width="46" height="46" viewBox="0 0 46 46" fill="none" xmlns="http://www.w3.org/2000/svg">
<circle cx="23" cy="23" r="23" fill="#4F1B21"/>
<g clip-path="url(#clip0_19_10483)">
<path fill-rule="evenodd" clip-rule="evenodd" d="M15.4207 29.548C14.8598 30.1089 14.8598 31.0184 15.4207 31.5793C15.9816 32.1402 16.891 32.1402 17.452 31.5793L23.5 25.5312L29.548 31.5793C30.109 32.1402 31.0184 32.1402 31.5793 31.5793C32.1402 31.0184 32.1402 30.1089 31.5793 29.548L25.5313 23.5L31.5793 17.452C32.1402 16.891 32.1402 15.9816 31.5793 15.4207C31.0184 14.8598 30.1089 14.8598 29.548 15.4207L23.5 21.4687L17.452 15.4207C16.891 14.8598 15.9816 14.8598 15.4207 15.4207C14.8598 15.9816 14.8598 16.891 15.4207 17.452L21.4687 23.5L15.4207 29.548Z" fill="#DB1F35"/>
</g>
<defs>
<clipPath id="clip0_19_10483">
<rect width="17" height="17" fill="white" transform="translate(15 15)"/>
</clipPath>
</defs>
</svg>
