<svg width="46" height="46" viewBox="0 0 46 46" fill="none" xmlns="http://www.w3.org/2000/svg">
<circle cx="23" cy="23" r="23" fill="#EBFBEE"/>
<g clip-path="url(#clip0_1750_40849)">
<path fill-rule="evenodd" clip-rule="evenodd" d="M31.6834 15.9749C32.0489 16.2695 32.1064 16.8046 31.8119 17.1701L22.0284 29.3098L22.0263 29.3123C21.7934 29.599 21.4999 29.8306 21.1669 29.9903C20.8339 30.1501 20.4696 30.2341 20.1002 30.2363C19.7309 30.2386 19.3656 30.1589 19.0307 30.0032C18.6958 29.8474 18.3995 29.6194 18.1632 29.3355L18.1565 29.3274L15.19 25.6724C14.8942 25.3079 14.9499 24.7726 15.3144 24.4767C15.6789 24.1809 16.2142 24.2366 16.51 24.6011L19.4726 28.2512C19.5478 28.3406 19.6417 28.4124 19.7476 28.4617C19.8548 28.5116 19.9718 28.5371 20.09 28.5364C20.2083 28.5357 20.3249 28.5088 20.4316 28.4576C20.5378 28.4066 20.6315 28.3329 20.7059 28.2416C20.7062 28.2412 20.7065 28.2409 20.7067 28.2405L30.4882 16.1033C30.7828 15.7378 31.3179 15.6803 31.6834 15.9749Z" fill="#00CC24"/>
</g>
<defs>
<clipPath id="clip0_1750_40849">
<rect width="17" height="17" fill="white" transform="translate(15 14.5117)"/>
</clipPath>
</defs>
</svg>
