<svg width="40" height="27" viewBox="0 0 40 27" fill="none" xmlns="http://www.w3.org/2000/svg">
<path d="M37.0372 26.937H2.01481C0.900679 26.9266 0 26.0218 0 24.9038V2.97021C0 1.84701 0.911092 0.937012 2.03564 0.937012H37.0164C38.1409 0.937012 39.052 1.84701 39.052 2.97021V24.909C39.0468 26.0218 38.1513 26.9266 37.0372 26.937Z" fill="#EF809F"/>
<path d="M11.7192 24.1762C12.6042 24.1762 13.281 23.5834 13.281 22.715C13.281 21.909 12.7084 21.5606 12.0055 21.3526C11.5578 21.2226 11.2766 21.1238 11.2766 20.8066C11.2766 20.5414 11.4693 20.3334 11.7764 20.3334C12.0368 20.3334 12.2294 20.4842 12.37 20.713L13.104 20.2502C12.875 19.7458 12.3595 19.4858 11.8025 19.4858C10.9174 19.4858 10.3551 20.1202 10.3551 20.8586C10.3551 21.4462 10.7092 21.8986 11.5786 22.1534C12.0524 22.2886 12.3543 22.3822 12.3543 22.7566C12.3543 23.1102 12.0992 23.3286 11.7296 23.3286C11.3339 23.3286 11.0319 23.0738 10.8497 22.8398L10.2406 23.4482C10.5686 23.8954 11.0996 24.1762 11.7192 24.1762ZM15.2959 24.1762C14.3587 24.1762 13.5986 23.4274 13.5986 22.5174C13.5986 21.6074 14.3587 20.8586 15.2959 20.8586C16.233 20.8586 16.9931 21.6074 16.9931 22.5174C16.9931 23.4274 16.233 24.1762 15.2959 24.1762ZM15.2959 23.3442C15.7488 23.3442 16.108 22.9854 16.108 22.5174C16.108 22.0494 15.7488 21.6906 15.2959 21.6906C14.8377 21.6906 14.4837 22.0494 14.4837 22.5174C14.4837 22.9906 14.8429 23.3442 15.2959 23.3442ZM19.1849 20.375V19.543H19.0548C17.9771 19.543 17.446 20.2606 17.446 21.103V24.093H18.3311V22.7826C18.3311 22.3458 18.6695 22.0338 19.1589 22.0234V21.181C18.8101 21.181 18.5289 21.285 18.3311 21.493V21.155C18.3311 20.6038 18.6903 20.3542 19.1849 20.375ZM21.1164 24.1762C20.1793 24.1762 19.4192 23.4274 19.4192 22.5174C19.4192 21.6074 20.1793 20.8586 21.1164 20.8586C22.0536 20.8586 22.8137 21.6074 22.8137 22.5174C22.8137 23.4274 22.0536 24.1762 21.1164 24.1762ZM21.1164 23.3442C21.5746 23.3442 21.9286 22.9854 21.9286 22.5174C21.9286 22.0494 21.5694 21.6906 21.1164 21.6906C20.6635 21.6906 20.3043 22.0494 20.3043 22.5174C20.3043 22.9906 20.6635 23.3442 21.1164 23.3442ZM24.1517 21.3058V20.947H23.2926V24.093H24.1777V22.6578C24.1777 22.1378 24.4849 21.8466 25.0159 21.8466V20.9002C24.615 20.8846 24.3287 21.0198 24.1517 21.3058ZM26.4112 22.4862V21.7166C26.609 21.9246 26.8849 22.0286 27.239 22.0286V21.1914C26.76 21.181 26.4112 20.8586 26.4112 20.4322V19.9382H25.5261V22.5382C25.5261 23.3806 26.052 24.0982 27.1348 24.0982H27.265V23.2662C26.7704 23.2818 26.4112 23.0374 26.4112 22.4862ZM28.3219 24.145C28.6447 24.145 28.9154 23.8798 28.9154 23.5522C28.9154 23.2298 28.6499 22.9594 28.3219 22.9594C27.9939 22.9594 27.7284 23.2246 27.7284 23.5522C27.7284 23.8798 27.9939 24.145 28.3219 24.145Z" fill="white"/>
<path d="M18.123 13.0221C18.399 13.2925 18.4042 13.7345 18.1334 14.0101L18.0814 14.0673C17.8107 14.3429 17.3681 14.3481 17.0922 14.0777L15.5303 12.5333C15.0982 12.1017 15.0409 11.5713 15.3117 11.2905L15.3637 11.2333C15.5876 10.9993 15.9572 10.9785 16.2123 11.1761C16.3321 11.2697 16.5091 11.2489 16.608 11.1293C16.7017 11.0097 16.6809 10.8329 16.5612 10.7341C16.077 10.3545 15.3845 10.4013 14.9576 10.8381L14.9056 10.8953C14.4006 11.4153 14.4995 12.2941 15.1294 12.9233L16.6965 14.4833C17.2015 14.9669 17.9981 14.9565 18.4875 14.4573L18.5447 14.4001C19.0237 13.9009 19.0133 13.1105 18.5187 12.6217C18.4094 12.5125 18.2324 12.5125 18.123 12.6269C18.0085 12.7361 18.0085 12.9129 18.123 13.0221ZM17.1859 4.64485L17.8263 9.89685C17.8419 10.0477 17.9825 10.1621 18.1386 10.1413C18.2896 10.1257 18.4042 9.98525 18.3833 9.82925L17.743 4.55645L17.7378 4.52525C17.6284 4.08845 17.8992 3.59965 18.2636 3.52165C18.4666 3.48005 18.6801 3.51645 18.8519 3.63085C19.0237 3.74525 19.1434 3.92205 19.1851 4.12485L20.2992 8.87765C20.3357 9.02845 20.4867 9.12205 20.6376 9.08565C20.7886 9.04925 20.8823 8.89845 20.8459 8.74765L19.737 4.01045C19.6693 3.66725 19.461 3.36045 19.1643 3.16285C18.8675 2.96525 18.4979 2.89765 18.1491 2.97045C17.4618 3.11605 17.0141 3.91685 17.1859 4.64485Z" fill="white"/>
<path d="M23.0587 10.8116L24.3238 4.51965C24.4696 3.84365 24.0687 3.16245 23.3971 2.96485C22.6474 2.77765 21.8925 3.21445 21.6998 3.95285L20.2994 8.74205C20.2577 8.89285 20.341 9.04885 20.492 9.09045C20.643 9.13205 20.7992 9.04885 20.8408 8.89805L22.2413 4.10365C22.361 3.66165 22.8088 3.39645 23.2461 3.50565C23.6209 3.62005 23.8552 4.01005 23.7719 4.40525L22.5068 10.7024C22.4756 10.8532 22.5745 11.004 22.7255 11.0352C22.8816 11.0612 23.0326 10.9624 23.0587 10.8116ZM19.8776 16.8748C17.8732 16.8748 16.202 15.4084 16.202 13.3232C16.202 13.1672 16.0771 13.0424 15.9209 13.0424C15.7647 13.0424 15.6398 13.1672 15.6398 13.3232C15.6398 15.736 17.5817 17.4364 19.8776 17.4364C20.0338 17.4364 20.1588 17.3116 20.1588 17.1556C20.1588 16.9996 20.0338 16.8748 19.8776 16.8748ZM18.8885 11.9712C18.8468 12.1272 18.7479 12.2676 18.6125 12.356L18.5501 12.3924C18.2273 12.6108 17.7899 12.5276 17.5713 12.2052L16.3426 10.38C16.0094 9.87045 16.0511 9.34005 16.3738 9.11645L16.4311 9.07485C16.8476 8.83565 17.1964 9.01765 17.5557 9.54285L18.5813 11.0716C18.6698 11.2016 18.8416 11.2328 18.9718 11.1496C19.1019 11.0664 19.1332 10.8896 19.0499 10.7596L18.0242 9.23085C17.514 8.49245 16.8893 8.16485 16.1344 8.60165L16.0563 8.65365C15.4523 9.06445 15.3795 9.94845 15.874 10.692L17.1027 12.5224C17.4984 13.0996 18.2793 13.2504 18.8572 12.8604L18.9197 12.8188C19.1644 12.6524 19.3414 12.4028 19.4247 12.1168C19.4664 11.966 19.3778 11.8152 19.2269 11.7736C19.0811 11.732 18.9301 11.8204 18.8885 11.9712Z" fill="white"/>
<path d="M20.7465 12.8967C20.1634 13.2243 19.799 13.8327 19.7573 14.7635C19.7469 14.9195 19.8667 15.0495 20.0228 15.0599C20.179 15.0651 20.3092 14.9507 20.3196 14.7947C20.3612 13.9523 20.6892 13.4999 21.2151 13.3023C21.4962 13.1983 21.8034 13.1775 22.0741 13.2035L22.1418 13.2139C22.501 13.2815 22.6155 12.7459 22.2563 12.6627L20.0957 12.1791C19.0857 11.9035 18.9295 11.5291 19.117 10.9051C19.2003 10.6347 19.3616 10.4943 19.6168 10.4371C19.7834 10.4007 19.9656 10.4059 20.1426 10.4371C20.1946 10.4475 20.2311 10.4527 20.2467 10.4579L23.5266 11.2223L23.5891 11.2431C23.6412 11.2639 23.6984 11.3055 23.7557 11.3627C23.9744 11.5967 24.0993 12.0387 24.0369 12.7667C23.8234 15.3147 22.6364 16.8955 19.8146 16.8695C19.6584 16.8695 19.5335 16.9943 19.5335 17.1451C19.5335 17.3011 19.6584 17.4259 19.8094 17.4259C22.9748 17.4519 24.3596 15.6163 24.5939 12.8083C24.6668 11.9347 24.5054 11.3367 24.167 10.9779C23.9796 10.7803 23.7817 10.6867 23.6308 10.6659L20.3873 9.91191C20.3665 9.90671 20.3144 9.89111 20.2415 9.88071C19.9968 9.83911 19.7417 9.83391 19.4918 9.88591C19.0545 9.98471 18.7213 10.2603 18.5807 10.7387C18.31 11.6383 18.5963 12.3455 19.9604 12.7147L20.7465 12.8967Z" fill="white"/>
</svg>
