<svg width="34" height="21" viewBox="0 0 34 21" fill="none" xmlns="http://www.w3.org/2000/svg">
<mask id="mask0_650_14340" style="mask-type:alpha" maskUnits="userSpaceOnUse" x="0" y="-1" width="34" height="22">
<path d="M34.0001 -0.000244141H0V20.9372H34.0001V-0.000244141Z" fill="white"/>
</mask>
<g mask="url(#mask0_650_14340)">
<mask id="mask1_650_14340" style="mask-type:alpha" maskUnits="userSpaceOnUse" x="-33" y="-25" width="100" height="71">
<path d="M66.8737 -24.6351H-32.7841V45.6744H66.8737V-24.6351Z" fill="white"/>
</mask>
<g mask="url(#mask1_650_14340)">
<path d="M6.66231 -0.00156593H15.1476C16.3307 -0.00156593 17.0674 0.947499 16.7923 2.11842L12.842 18.8169C12.5663 19.9823 11.3772 20.9356 10.1918 20.9356H1.70162C0.519837 20.9356 -0.215851 19.9823 0.0608966 18.8169L4.00949 2.11842C4.29184 0.947174 5.47559 -0.00156593 6.66231 -0.00156593Z" fill="#D43D3E"/>
</g>
<mask id="mask2_650_14340" style="mask-type:alpha" maskUnits="userSpaceOnUse" x="-33" y="-25" width="100" height="71">
<path d="M66.8737 -24.6351H-32.7841V45.6744H66.8737V-24.6351Z" fill="white"/>
</mask>
<g mask="url(#mask2_650_14340)">
<path d="M14.4421 -0.00156593H24.1995C25.3878 -0.00156593 24.8515 0.947499 24.5711 2.11842L20.6225 18.8169C20.3451 19.9823 20.4304 20.9356 19.2454 20.9356H9.48703C8.29768 20.9356 7.5643 19.9823 7.8417 18.8169L11.7936 2.11842C12.0746 0.947174 13.2544 -0.00156593 14.4421 -0.00156593Z" fill="#084C7F"/>
</g>
<mask id="mask3_650_14340" style="mask-type:alpha" maskUnits="userSpaceOnUse" x="-33" y="-25" width="100" height="71">
<path d="M66.8737 -24.6351H-32.7841V45.6744H66.8737V-24.6351Z" fill="white"/>
</mask>
<g mask="url(#mask3_650_14340)">
<path d="M23.8142 -0.00156593H32.2985C33.4868 -0.00156593 34.2258 0.947499 33.9438 2.11842L29.9926 18.8169C29.7158 19.9823 28.5304 20.9356 27.343 20.9356H18.8594C17.6724 20.9356 16.9364 19.9823 17.2171 18.8169L21.167 2.11842C21.4444 0.947174 22.6278 -0.00156593 23.8142 -0.00156593Z" fill="#107C80"/>
</g>
<mask id="mask4_650_14340" style="mask-type:alpha" maskUnits="userSpaceOnUse" x="-33" y="-25" width="100" height="71">
<path d="M66.8737 -24.6351H-32.7841V45.6744H66.8737V-24.6351Z" fill="white"/>
</mask>
<g mask="url(#mask4_650_14340)">
<path d="M25.2064 12.3256L24.1729 15.6937H24.447L24.2352 16.3914H23.9548L23.8899 16.6093H22.9078L22.972 16.3914H20.9742L21.1761 15.7479H21.3788L22.4251 12.3256L22.6363 11.6383H23.6408L23.5344 11.9857C23.5344 11.9857 23.8033 11.7953 24.0576 11.7281C24.308 11.6668 25.7632 11.6402 25.7632 11.6402L25.5484 12.3256H25.2064ZM23.4303 12.3256L23.1684 13.1897C23.1684 13.1897 23.4682 13.0557 23.628 13.0129C23.7927 12.9694 24.0401 12.9532 24.0401 12.9532L24.2355 12.3253H23.4303V12.3256ZM23.0379 13.6146L22.7638 14.5134C22.7638 14.5134 23.0636 14.3596 23.2307 14.311C23.3937 14.2743 23.6435 14.2396 23.6435 14.2396L23.8382 13.6142H23.0379V13.6146ZM22.3965 15.706H23.1957L23.4303 14.9493H22.6271L22.3965 15.706Z" fill="white"/>
</g>
<mask id="mask5_650_14340" style="mask-type:alpha" maskUnits="userSpaceOnUse" x="-33" y="-25" width="100" height="71">
<path d="M66.8737 -24.6351H-32.7841V45.6744H66.8737V-24.6351Z" fill="white"/>
</mask>
<g mask="url(#mask5_650_14340)">
<path d="M25.6434 11.6401H26.7191L26.7326 12.0326C26.7233 12.1033 26.7807 12.1299 26.9046 12.1299H27.1263L26.9217 12.7831H26.3461C25.8424 12.8155 25.6546 12.6076 25.6651 12.366L25.6434 11.6401Z" fill="white"/>
</g>
<mask id="mask6_650_14340" style="mask-type:alpha" maskUnits="userSpaceOnUse" x="-33" y="-25" width="100" height="71">
<path d="M66.8737 -24.6351H-32.7841V45.6744H66.8737V-24.6351Z" fill="white"/>
</mask>
<g mask="url(#mask6_650_14340)">
<path d="M25.7882 14.7202H24.7655L24.9434 14.1402H26.1081L26.2758 13.6119H25.122L25.321 12.9638H28.5299L28.3296 13.6119H27.2523L27.0853 14.1402H28.1649L27.985 14.7202H26.8177L26.6115 14.9625H27.0853L27.2002 15.6903C27.2121 15.7646 27.2134 15.81 27.2371 15.8418C27.2589 15.8694 27.4015 15.8798 27.4832 15.8798H27.6276L27.4141 16.5904H27.047C26.9904 16.5904 26.907 16.5862 26.7914 16.583C26.6853 16.5716 26.6049 16.5074 26.5295 16.474C26.4619 16.4393 26.3627 16.3611 26.3413 16.2255L26.2273 15.4983L25.6976 16.2129C25.5309 16.4389 25.3012 16.6138 24.9177 16.6138H24.1741L24.3659 15.9813H24.6505C24.7336 15.9813 24.8044 15.9501 24.8607 15.9226C24.9154 15.9005 24.9619 15.8733 25.0156 15.7935L25.7882 14.7202Z" fill="white"/>
</g>
<mask id="mask7_650_14340" style="mask-type:alpha" maskUnits="userSpaceOnUse" x="-33" y="-25" width="100" height="71">
<path d="M66.8737 -24.6351H-32.7841V45.6744H66.8737V-24.6351Z" fill="white"/>
</mask>
<g mask="url(#mask7_650_14340)">
<path d="M14.6034 13.1407H17.3089L17.1099 13.7752H16.024L15.857 14.3165H16.9643L16.7623 14.9717H15.6563L15.3901 15.8514C15.3555 15.9493 15.6494 15.9668 15.7562 15.9668L16.31 15.8857L16.0876 16.6133H14.8386C14.7427 16.6133 14.6647 16.6032 14.5559 16.5743C14.4518 16.5526 14.406 16.5014 14.3592 16.43C14.3128 16.3612 14.2439 16.3032 14.2924 16.1478L14.6502 14.9811H14.0357L14.2357 14.3165H14.8587L15.0198 13.7752H14.4063L14.6034 13.1407Z" fill="white"/>
</g>
<mask id="mask8_650_14340" style="mask-type:alpha" maskUnits="userSpaceOnUse" x="-33" y="-25" width="100" height="71">
<path d="M66.8737 -24.6351H-32.7841V45.6744H66.8737V-24.6351Z" fill="white"/>
</mask>
<g mask="url(#mask8_650_14340)">
<path d="M16.4226 11.9965H17.5266L17.3306 12.6604H15.8118L15.6484 12.8002C15.5798 12.87 15.5558 12.8431 15.4649 12.8894C15.3762 12.929 15.1947 13.0166 14.9637 13.0166H14.4752L14.6718 12.3783H14.8204C14.9423 12.3783 15.028 12.3663 15.0688 12.3393C15.1163 12.3075 15.1723 12.242 15.2342 12.1301L15.5103 11.6326H16.6117L16.4226 11.9965Z" fill="white"/>
</g>
<mask id="mask9_650_14340" style="mask-type:alpha" maskUnits="userSpaceOnUse" x="-33" y="-25" width="100" height="71">
<path d="M66.8737 -24.6351H-32.7841V45.6744H66.8737V-24.6351Z" fill="white"/>
</mask>
<g mask="url(#mask9_650_14340)">
<path d="M18.0061 11.6413H18.9503L18.8172 12.1097C18.8172 12.1097 19.1128 11.8736 19.3193 11.7908C19.5282 11.7143 20.001 11.6442 20.001 11.6442L21.5294 11.6377L21.0111 13.3468C20.9192 13.6384 20.8194 13.8307 20.7528 13.9128C20.6965 14.0023 20.6316 14.0782 20.4945 14.1509C20.371 14.2161 20.2524 14.2553 20.1413 14.2647C20.0428 14.2741 19.8837 14.2741 19.6732 14.278H18.1998L17.7817 15.6276C17.7432 15.7642 17.7238 15.8258 17.7491 15.8654C17.7702 15.8956 17.8219 15.9329 17.8931 15.9329L18.5398 15.8729L18.3194 16.613H17.5907C17.3623 16.613 17.19 16.6095 17.076 16.603C16.9614 16.59 16.8438 16.603 16.7673 16.5397C16.6985 16.4839 16.596 16.4025 16.596 16.3247C16.6013 16.2527 16.6365 16.1288 16.6817 15.9659L18.0061 11.6413ZM20.0135 13.3662H18.4657L18.3705 13.675H19.7091C19.8659 13.6536 19.9038 13.676 19.9134 13.6689L20.0135 13.3662ZM18.5507 13.0909C18.5507 13.0909 18.8528 12.8155 19.3707 12.7263C19.4874 12.7071 20.2254 12.7123 20.2254 12.7123L20.3357 12.3487H18.7737L18.5507 13.0909Z" fill="white"/>
</g>
<mask id="mask10_650_14340" style="mask-type:alpha" maskUnits="userSpaceOnUse" x="-33" y="-25" width="100" height="71">
<path d="M66.8737 -24.6351H-32.7841V45.6744H66.8737V-24.6351Z" fill="white"/>
</mask>
<g mask="url(#mask10_650_14340)">
<path d="M20.7619 14.4004L20.6769 14.8107C20.6403 14.9362 20.6064 15.0338 20.5052 15.1169C20.4044 15.2035 20.2815 15.2904 19.9979 15.2904L19.4724 15.3147L19.4674 15.7808C19.4622 15.9067 19.4987 15.8956 19.5178 15.9154C19.5429 15.9388 19.564 15.9511 19.5883 15.9566L19.7537 15.9511L20.2529 15.9226L20.0499 16.6018H19.4724C19.0721 16.6018 18.77 16.5904 18.6761 16.5119C18.5785 16.4548 18.5654 16.378 18.5654 16.2476L18.6039 14.4425H19.5188L19.5119 14.811H19.7317C19.8032 14.811 19.8526 14.8039 19.8888 14.7834C19.9152 14.7623 19.9369 14.7328 19.9494 14.69L20.0433 14.4007H20.7619V14.4004Z" fill="white"/>
</g>
<mask id="mask11_650_14340" style="mask-type:alpha" maskUnits="userSpaceOnUse" x="-33" y="-25" width="100" height="71">
<path d="M66.8737 -24.6351H-32.7841V45.6744H66.8737V-24.6351Z" fill="white"/>
</mask>
<g mask="url(#mask11_650_14340)">
<path d="M7.66436 5.33119C7.63339 5.47845 7.04234 8.15309 7.04234 8.15309C6.91385 8.69606 6.82456 9.08399 6.51059 9.32985C6.33202 9.47516 6.12215 9.54587 5.88197 9.54587C5.49485 9.54587 5.27049 9.35644 5.22997 8.99544L5.22338 8.8751C5.22338 8.8751 5.34133 8.14822 5.34133 8.14433C5.34133 8.14433 5.9617 5.70647 6.0724 5.38568C6.07603 5.36655 6.0813 5.35941 6.0813 5.34741C4.87909 5.35941 4.66494 5.34741 4.64979 5.33119C4.64221 5.35584 4.61058 5.50926 4.61058 5.50926L3.98065 8.25039L3.92629 8.48912L3.82416 9.24876C3.82416 9.47516 3.86468 9.66296 3.95429 9.81541C4.24686 10.3117 5.06425 10.385 5.52978 10.385C6.12347 10.385 6.68454 10.2604 7.06309 10.0318C7.72234 9.65096 7.89498 9.04798 8.04719 8.52058L8.11934 8.2465C8.11934 8.2465 8.75487 5.71588 8.8659 5.38601C8.86656 5.36687 8.87019 5.35974 8.87315 5.34774C8.00403 5.35941 7.74672 5.34741 7.66436 5.33119Z" fill="white"/>
</g>
<mask id="mask12_650_14340" style="mask-type:alpha" maskUnits="userSpaceOnUse" x="-33" y="-25" width="100" height="71">
<path d="M66.8737 -24.6351H-32.7841V45.6744H66.8737V-24.6351Z" fill="white"/>
</mask>
<g mask="url(#mask12_650_14340)">
<path d="M11.1862 10.3566C10.7599 10.3531 10.6093 10.3531 10.1082 10.3758L10.0888 10.3411C10.1355 10.1536 10.1794 9.96902 10.2268 9.7783L10.2871 9.52238C10.378 9.12699 10.468 8.66349 10.4795 8.52337C10.491 8.43579 10.5174 8.22237 10.2749 8.22237C10.1665 8.22237 10.0568 8.27653 9.94841 8.32681C9.89174 8.53699 9.76951 9.12894 9.71152 9.40237C9.58929 9.97356 9.5771 10.0384 9.52274 10.3226L9.49111 10.3566C9.04799 10.3531 8.89545 10.3531 8.38808 10.3758L8.36469 10.3372C8.45232 9.99562 8.53337 9.65505 8.61837 9.31642C8.83219 8.39622 8.87733 8.04462 8.94157 7.57495L8.97518 7.54998C9.47102 7.48251 9.59028 7.46954 10.1266 7.35893L10.1698 7.40856L10.0884 7.69951C10.178 7.64891 10.2657 7.59636 10.354 7.54998C10.609 7.4264 10.892 7.39039 11.0455 7.39039C11.2755 7.39039 11.5331 7.45591 11.6402 7.72189C11.7446 7.95899 11.6748 8.25059 11.5404 8.82956L11.4722 9.12278C11.3371 9.76014 11.314 9.88339 11.2373 10.3219L11.1862 10.3566Z" fill="white"/>
</g>
<mask id="mask13_650_14340" style="mask-type:alpha" maskUnits="userSpaceOnUse" x="-33" y="-25" width="100" height="71">
<path d="M66.8737 -24.6351H-32.7841V45.6744H66.8737V-24.6351Z" fill="white"/>
</mask>
<g mask="url(#mask13_650_14340)">
<path d="M12.9211 10.3568C12.6622 10.3568 12.4991 10.3532 12.3357 10.3568C12.1749 10.3568 12.0197 10.3665 11.7802 10.3759L11.7677 10.3568L11.7499 10.337C11.8151 10.0918 11.8523 10.0059 11.8836 9.92185C11.9172 9.83687 11.9469 9.74767 12.0059 9.50213C12.0807 9.17907 12.1294 8.95429 12.1607 8.76001C12.1943 8.56961 12.2111 8.40808 12.2385 8.2193L12.2592 8.20373L12.2777 8.18395C12.5347 8.14924 12.6954 8.12492 12.8621 8.09832C13.0279 8.07594 13.1959 8.04415 13.4624 7.9929L13.4743 8.01593L13.4789 8.04026C13.4275 8.24136 13.3807 8.43565 13.3323 8.6387C13.2862 8.84304 13.2348 9.04284 13.1919 9.23875C13.0921 9.66496 13.0542 9.82162 13.0348 9.93417C13.0114 10.0419 13.0074 10.0999 12.9679 10.3224L12.9445 10.3409L12.9211 10.3568Z" fill="white"/>
</g>
<mask id="mask14_650_14340" style="mask-type:alpha" maskUnits="userSpaceOnUse" x="-33" y="-25" width="100" height="71">
<path d="M66.8737 -24.6351H-32.7841V45.6744H66.8737V-24.6351Z" fill="white"/>
</mask>
<g mask="url(#mask14_650_14340)">
<path d="M16.7581 8.91063C16.9064 8.26971 16.7914 7.96416 16.6434 7.7796C16.4234 7.49839 16.029 7.40952 15.6195 7.40952C15.3777 7.40952 14.7942 7.43319 14.3359 7.84804C14.0117 8.14483 13.8585 8.55092 13.7663 8.93691C13.6786 9.33197 13.5702 10.0468 14.2344 10.3122C14.4397 10.3959 14.7336 10.4254 14.9253 10.4254C15.4113 10.4254 15.9137 10.2882 16.287 9.89927C16.5762 9.57718 16.713 9.10557 16.7581 8.91063ZM15.6406 8.86684C15.6172 8.97615 15.521 9.37868 15.3882 9.54929C15.2986 9.67741 15.1895 9.75525 15.0693 9.75525C15.0317 9.75525 14.8261 9.75525 14.8202 9.44971C14.8172 9.29434 14.8485 9.13768 14.8828 8.96966C14.9994 8.47859 15.1332 8.06861 15.4739 8.06861C15.7374 8.06861 15.7549 8.37447 15.6406 8.86684Z" fill="white"/>
</g>
<mask id="mask15_650_14340" style="mask-type:alpha" maskUnits="userSpaceOnUse" x="-33" y="-25" width="100" height="71">
<path d="M66.8737 -24.6351H-32.7841V45.6744H66.8737V-24.6351Z" fill="white"/>
</mask>
<g mask="url(#mask15_650_14340)">
<path d="M27.1885 10.401C26.6742 10.3949 26.5226 10.3949 26.0492 10.4156L26.0195 10.3796C26.1464 9.89926 26.2782 9.41824 26.3938 8.92911C26.544 8.29662 26.5757 8.02935 26.6254 7.65796L26.6663 7.62974C27.1759 7.55417 27.3183 7.5373 27.8513 7.43935L27.8655 7.48216C27.7683 7.87788 27.6741 8.27683 27.5795 8.67222C27.3842 9.50646 27.3104 9.9304 27.2379 10.366L27.1885 10.401Z" fill="white"/>
</g>
<mask id="mask16_650_14340" style="mask-type:alpha" maskUnits="userSpaceOnUse" x="-33" y="-25" width="100" height="71">
<path d="M66.8737 -24.6351H-32.7841V45.6744H66.8737V-24.6351Z" fill="white"/>
</mask>
<g mask="url(#mask16_650_14340)">
<path d="M27.4332 8.9691C27.5851 8.32655 26.9838 8.91168 26.8889 8.69923C26.7354 8.37066 26.8296 7.69795 26.2396 7.47511C26.0096 7.38754 25.4736 7.49814 25.0156 7.91137C24.6957 8.20686 24.5379 8.61101 24.447 8.99472C24.3577 9.38427 24.2496 10.0962 24.9122 10.3525C25.122 10.4407 25.3144 10.4644 25.5039 10.4569C26.1671 10.4251 26.6761 9.43033 27.051 9.04208C27.3436 8.73102 27.3927 9.1582 27.4332 8.9691ZM26.4165 8.92174C26.3905 9.02294 26.2933 9.43325 26.1628 9.60483C26.0735 9.72549 25.8669 9.80204 25.747 9.80204C25.7154 9.80204 25.5072 9.80204 25.4976 9.49845C25.4976 9.34859 25.5309 9.19128 25.5668 9.01807C25.6792 8.54062 25.8146 8.12934 26.1532 8.12934C26.4165 8.12966 26.5295 8.42807 26.4165 8.92174Z" fill="white"/>
</g>
<mask id="mask17_650_14340" style="mask-type:alpha" maskUnits="userSpaceOnUse" x="-33" y="-25" width="100" height="71">
<path d="M66.8737 -24.6351H-32.7841V45.6744H66.8737V-24.6351Z" fill="white"/>
</mask>
<g mask="url(#mask17_650_14340)">
<path d="M19.67 10.3566C19.2414 10.3531 19.0941 10.3531 18.5966 10.3758L18.5736 10.3411C18.6164 10.1536 18.6642 9.96902 18.7106 9.7783L18.7703 9.52238C18.8655 9.12699 18.9538 8.66349 18.96 8.52337C18.9729 8.43579 19.0019 8.22237 18.7561 8.22237C18.6513 8.22237 18.5446 8.27653 18.4345 8.32681C18.3729 8.53699 18.251 9.12894 18.1957 9.40237C18.0728 9.97356 18.0659 10.0384 18.0099 10.3226L17.9746 10.3566C17.5315 10.3531 17.3829 10.3531 16.8742 10.3758L16.8528 10.3372C16.9391 9.99562 17.0182 9.65505 17.0999 9.31642C17.3167 8.39622 17.3621 8.04462 17.4234 7.57495L17.4626 7.54998C17.9538 7.48251 18.0748 7.46954 18.6091 7.35893L18.6513 7.40856L18.5739 7.69951C18.6612 7.64891 18.7538 7.59636 18.8404 7.54998C19.0944 7.4264 19.3748 7.39039 19.5267 7.39039C19.7567 7.39039 20.0153 7.45591 20.1263 7.72189C20.2255 7.95899 20.1589 8.25059 20.0252 8.82956L19.956 9.12278C19.8189 9.76014 19.7932 9.88339 19.7211 10.3219L19.67 10.3566Z" fill="white"/>
</g>
<mask id="mask18_650_14340" style="mask-type:alpha" maskUnits="userSpaceOnUse" x="-33" y="-25" width="100" height="71">
<path d="M66.8737 -24.6351H-32.7841V45.6744H66.8737V-24.6351Z" fill="white"/>
</mask>
<g mask="url(#mask18_650_14340)">
<path d="M23.8339 6.89719C23.7552 7.23127 23.5367 7.51184 23.2511 7.64839C23.0155 7.76613 22.7295 7.77327 22.435 7.77327H22.2469L22.2587 7.69672C22.2587 7.69672 22.6132 6.19496 22.61 6.19755L22.6202 6.12263L22.6271 6.06132L22.7671 6.07722C22.7671 6.07722 23.4916 6.13917 23.5058 6.14079C23.7967 6.24685 23.913 6.52969 23.8339 6.89719ZM23.3671 5.32568L23.0132 5.33023C22.093 5.34093 21.7227 5.33768 21.5702 5.32082C21.5573 5.38569 21.5303 5.50408 21.5303 5.50408L21.2012 7.01428C21.2012 7.01428 20.4118 10.2228 20.3739 10.372C21.1755 10.3613 21.5109 10.3613 21.6466 10.3762C21.6809 10.2267 21.8667 9.32953 21.8667 9.32953C21.8667 9.32953 22.0275 8.67238 22.038 8.64903C22.038 8.64903 22.0868 8.57994 22.1388 8.5527H22.2083C22.9071 8.5527 23.6922 8.5527 24.307 8.10963C24.7225 7.80246 25.0104 7.35193 25.1369 6.80539C25.1712 6.67403 25.1952 6.50991 25.1952 6.35162C25.1952 6.14176 25.1517 5.9332 25.0282 5.76973C24.7152 5.33768 24.0925 5.33023 23.3671 5.32568Z" fill="white"/>
</g>
<mask id="mask19_650_14340" style="mask-type:alpha" maskUnits="userSpaceOnUse" x="-33" y="-25" width="100" height="71">
<path d="M66.8737 -24.6351H-32.7841V45.6744H66.8737V-24.6351Z" fill="white"/>
</mask>
<g mask="url(#mask19_650_14340)">
<path d="M31.4065 7.43314L31.362 7.38902C30.8365 7.49379 30.7427 7.51001 30.2574 7.57358L30.2221 7.60569C30.2181 7.6138 30.2182 7.62386 30.2155 7.62872L30.2112 7.62386C29.8557 8.44415 29.8646 8.26932 29.5741 8.90928C29.5671 8.87911 29.5671 8.85933 29.5661 8.83208L29.4953 7.43314L29.4485 7.38902C28.8964 7.49379 28.8815 7.51001 28.3748 7.57358L28.3353 7.60569C28.327 7.62613 28.327 7.64202 28.3228 7.66116L28.327 7.66797C28.3926 7.99005 28.3768 7.9187 28.4394 8.42501C28.4684 8.67347 28.5076 8.92517 28.5382 9.17006C28.588 9.5768 28.6189 9.78212 28.6773 10.4046C28.3356 10.965 28.2513 11.1785 27.9261 11.6715L27.9435 11.7143C28.4397 11.6965 28.555 11.6965 28.9227 11.6965L29.0038 11.6063C29.2838 11.0173 31.4065 7.43314 31.4065 7.43314Z" fill="white"/>
</g>
<mask id="mask20_650_14340" style="mask-type:alpha" maskUnits="userSpaceOnUse" x="-33" y="-25" width="100" height="71">
<path d="M66.8737 -24.6351H-32.7841V45.6744H66.8737V-24.6351Z" fill="white"/>
</mask>
<g mask="url(#mask20_650_14340)">
<path d="M13.3913 7.77932C13.6743 7.586 13.7056 7.31743 13.472 7.18445C13.2292 7.04076 12.8062 7.08422 12.5248 7.27851C12.2402 7.46956 12.2042 7.73747 12.4438 7.87727C12.6866 8.01253 13.1063 7.97328 13.3913 7.77932Z" fill="white"/>
</g>
<mask id="mask21_650_14340" style="mask-type:alpha" maskUnits="userSpaceOnUse" x="-33" y="-25" width="100" height="71">
<path d="M66.8737 -24.6351H-32.7841V45.6744H66.8737V-24.6351Z" fill="white"/>
</mask>
<g mask="url(#mask21_650_14340)">
<path d="M28.9712 11.6546L28.5525 12.3539C28.422 12.5949 28.1812 12.7704 27.7954 12.7733L27.1318 12.7652L27.3282 12.1337H27.454C27.5206 12.1337 27.57 12.1301 27.6099 12.1132C27.6441 12.1009 27.6662 12.0747 27.6929 12.038L27.9354 11.6546H28.9712Z" fill="white"/>
</g>
<mask id="mask22_650_14340" style="mask-type:alpha" maskUnits="userSpaceOnUse" x="-33" y="-25" width="100" height="71">
<path d="M66.8737 -24.6351H-32.7841V45.6744H66.8737V-24.6351Z" fill="white"/>
</mask>
<g mask="url(#mask22_650_14340)">
<path d="M6.66231 -0.00156593H15.1489C16.3304 -0.00156593 17.067 0.947499 16.7923 2.11842L12.842 18.8169C12.5663 19.9823 11.3772 20.9356 10.1918 20.9356H1.70162C0.519837 20.9356 -0.215851 19.9823 0.0608966 18.8169L4.01048 2.11842C4.29184 0.947174 5.47559 -0.00156593 6.66231 -0.00156593Z" fill="#D43D3D"/>
</g>
<mask id="mask23_650_14340" style="mask-type:alpha" maskUnits="userSpaceOnUse" x="-33" y="-25" width="100" height="71">
<path d="M66.8737 -24.6351H-32.7841V45.6744H66.8737V-24.6351Z" fill="white"/>
</mask>
<g mask="url(#mask23_650_14340)">
<path d="M14.4421 -0.00156593H24.2008C25.3882 -0.00156593 24.8518 0.947499 24.5711 2.11842L20.6225 18.8169C20.3451 19.9823 20.4304 20.9356 19.2453 20.9356H9.48703C8.29768 20.9356 7.5643 19.9823 7.8417 18.8169L11.7936 2.11842C12.0746 0.947174 13.2544 -0.00156593 14.4421 -0.00156593Z" fill="#0F4A7E"/>
</g>
<mask id="mask24_650_14340" style="mask-type:alpha" maskUnits="userSpaceOnUse" x="-33" y="-25" width="100" height="71">
<path d="M66.8737 -24.6351H-32.7841V45.6744H66.8737V-24.6351Z" fill="white"/>
</mask>
<g mask="url(#mask24_650_14340)">
<path d="M23.8145 -0.00156593H32.2965C33.4861 -0.00156593 34.2251 0.947499 33.9431 2.11842L29.9925 18.8169C29.7158 19.9823 28.5304 20.9356 27.344 20.9356H18.8594C17.673 20.9356 16.9363 19.9823 17.217 18.8169L21.1659 2.11842C21.4443 0.947174 22.6278 -0.00156593 23.8145 -0.00156593Z" fill="#0D7D80"/>
</g>
<mask id="mask25_650_14340" style="mask-type:alpha" maskUnits="userSpaceOnUse" x="-33" y="-25" width="100" height="71">
<path d="M66.8737 -24.6351H-32.7841V45.6744H66.8737V-24.6351Z" fill="white"/>
</mask>
<g mask="url(#mask25_650_14340)">
<path d="M25.2064 12.3256L24.1729 15.6937H24.447L24.2352 16.3914H23.9548L23.8899 16.6093H22.9078L22.972 16.3914H20.9742L21.1761 15.7479H21.3788L22.4251 12.3256L22.6363 11.6383H23.6408L23.5344 11.9857C23.5344 11.9857 23.8033 11.7953 24.0576 11.7281C24.308 11.6668 25.7632 11.6402 25.7632 11.6402L25.5484 12.3256H25.2064ZM23.4303 12.3256L23.1684 13.1897C23.1684 13.1897 23.4682 13.0557 23.628 13.0129C23.7927 12.9694 24.0401 12.9532 24.0401 12.9532L24.2355 12.3253H23.4303V12.3256ZM23.0379 13.6146L22.7638 14.5134C22.7638 14.5134 23.0636 14.3596 23.2317 14.311C23.3937 14.2743 23.6448 14.2396 23.6448 14.2396L23.8382 13.6142H23.0379V13.6146ZM22.3965 15.706H23.1957L23.4303 14.9493H22.6271L22.3965 15.706Z" fill="white"/>
</g>
<mask id="mask26_650_14340" style="mask-type:alpha" maskUnits="userSpaceOnUse" x="-33" y="-25" width="100" height="71">
<path d="M66.8737 -24.6351H-32.7841V45.6744H66.8737V-24.6351Z" fill="white"/>
</mask>
<g mask="url(#mask26_650_14340)">
<path d="M25.6434 11.6401H26.7191L26.7326 12.0326C26.7233 12.1033 26.7807 12.1299 26.9046 12.1299H27.1263L26.9217 12.7831H26.3461C25.8424 12.8155 25.6546 12.6076 25.6651 12.366L25.6434 11.6401Z" fill="white"/>
</g>
<mask id="mask27_650_14340" style="mask-type:alpha" maskUnits="userSpaceOnUse" x="-33" y="-25" width="100" height="71">
<path d="M66.8737 -24.6351H-32.7841V45.6744H66.8737V-24.6351Z" fill="white"/>
</mask>
<g mask="url(#mask27_650_14340)">
<path d="M25.7882 14.7202H24.7655L24.9434 14.1402H26.1081L26.2758 13.6119H25.122L25.321 12.9638H28.5299L28.3296 13.6119H27.2523L27.0853 14.1402H28.1649L27.985 14.7202H26.8177L26.6115 14.9625H27.0853L27.2002 15.6903C27.2121 15.7646 27.2134 15.81 27.2371 15.8418C27.2589 15.8694 27.4015 15.8798 27.4832 15.8798H27.6276L27.4141 16.5904H27.047C26.9904 16.5904 26.907 16.5862 26.7914 16.583C26.6853 16.5716 26.6049 16.5074 26.5295 16.474C26.4619 16.4393 26.3627 16.3611 26.3413 16.2255L26.2273 15.4983L25.6976 16.2129C25.5309 16.4389 25.3012 16.6138 24.9177 16.6138H24.1741L24.3659 15.9813H24.6505C24.7336 15.9813 24.8044 15.9501 24.8607 15.9226C24.9154 15.9005 24.9619 15.8733 25.0156 15.7935L25.7882 14.7202Z" fill="white"/>
</g>
<mask id="mask28_650_14340" style="mask-type:alpha" maskUnits="userSpaceOnUse" x="-33" y="-25" width="100" height="71">
<path d="M66.8737 -24.6351H-32.7841V45.6744H66.8737V-24.6351Z" fill="white"/>
</mask>
<g mask="url(#mask28_650_14340)">
<path d="M14.6034 13.1407H17.3089L17.1099 13.7752H16.024L15.857 14.3165H16.9643L16.7623 14.9717H15.6563L15.3901 15.8514C15.3555 15.9493 15.6494 15.9668 15.7562 15.9668L16.31 15.8857L16.0876 16.6133H14.8386C14.7427 16.6133 14.6647 16.6032 14.5559 16.5743C14.4518 16.5526 14.406 16.5014 14.3592 16.43C14.3128 16.3612 14.2439 16.3032 14.2924 16.1478L14.6502 14.9811H14.0357L14.2357 14.3165H14.8603L15.0198 13.7752H14.4063L14.6034 13.1407Z" fill="white"/>
</g>
<mask id="mask29_650_14340" style="mask-type:alpha" maskUnits="userSpaceOnUse" x="-33" y="-25" width="100" height="71">
<path d="M66.8737 -24.6351H-32.7841V45.6744H66.8737V-24.6351Z" fill="white"/>
</mask>
<g mask="url(#mask29_650_14340)">
<path d="M16.4226 11.9965H17.5266L17.3306 12.6604H15.8118L15.6484 12.8002C15.5798 12.87 15.5558 12.8431 15.4649 12.8894C15.3762 12.929 15.1947 13.0166 14.9637 13.0166H14.4752L14.6718 12.3783H14.8204C14.9423 12.3783 15.028 12.3663 15.0688 12.3393C15.1163 12.3075 15.1723 12.242 15.2342 12.1301L15.5103 11.6326H16.6117L16.4226 11.9965Z" fill="white"/>
</g>
<mask id="mask30_650_14340" style="mask-type:alpha" maskUnits="userSpaceOnUse" x="-33" y="-25" width="100" height="71">
<path d="M66.8737 -24.6351H-32.7841V45.6744H66.8737V-24.6351Z" fill="white"/>
</mask>
<g mask="url(#mask30_650_14340)">
<path d="M18.0061 11.6413H18.9503L18.8172 12.1097C18.8172 12.1097 19.1128 11.8736 19.3193 11.7908C19.5282 11.7143 20.001 11.6442 20.001 11.6442L21.5303 11.6377L21.0111 13.3468C20.9192 13.6384 20.8194 13.8307 20.7538 13.9128C20.6965 14.0023 20.6316 14.0782 20.4945 14.1509C20.371 14.2161 20.2524 14.2553 20.1413 14.2647C20.0428 14.2741 19.8837 14.2741 19.6732 14.278H18.1998L17.7817 15.6276C17.7432 15.7642 17.7238 15.8258 17.7491 15.8654C17.7702 15.8956 17.8219 15.9329 17.8931 15.9329L18.5398 15.8729L18.3194 16.613H17.5907C17.3623 16.613 17.19 16.6095 17.076 16.603C16.9614 16.59 16.8438 16.603 16.7673 16.5397C16.6985 16.4839 16.596 16.4025 16.596 16.3247C16.6013 16.2527 16.6365 16.1288 16.6817 15.9659L18.0061 11.6413ZM20.0135 13.3662H18.4657L18.3705 13.675H19.7104C19.8659 13.6536 19.9038 13.676 19.9134 13.6689L20.0135 13.3662ZM18.5507 13.0909C18.5507 13.0909 18.8528 12.8155 19.3707 12.7263C19.4874 12.7071 20.2254 12.7123 20.2254 12.7123L20.3357 12.3487H18.7737L18.5507 13.0909Z" fill="white"/>
</g>
<mask id="mask31_650_14340" style="mask-type:alpha" maskUnits="userSpaceOnUse" x="-33" y="-25" width="100" height="71">
<path d="M66.8737 -24.6351H-32.7841V45.6744H66.8737V-24.6351Z" fill="white"/>
</mask>
<g mask="url(#mask31_650_14340)">
<path d="M20.7619 14.4004L20.6769 14.8107C20.6403 14.9362 20.6064 15.0338 20.5052 15.1169C20.4044 15.2035 20.2815 15.2904 19.9979 15.2904L19.4724 15.3147L19.4674 15.7808C19.4622 15.9067 19.4987 15.8956 19.5178 15.9154C19.5429 15.9388 19.5646 15.9511 19.5883 15.9566L19.7537 15.9511L20.2529 15.9226L20.0499 16.6018H19.4724C19.0721 16.6018 18.77 16.5904 18.6761 16.5119C18.5785 16.4548 18.5654 16.378 18.5654 16.2476L18.6039 14.4425H19.5188L19.5119 14.811H19.7317C19.8032 14.811 19.8555 14.8039 19.8888 14.7834C19.9152 14.7623 19.9369 14.7328 19.9494 14.69L20.0433 14.4007H20.7619V14.4004Z" fill="white"/>
</g>
<mask id="mask32_650_14340" style="mask-type:alpha" maskUnits="userSpaceOnUse" x="-33" y="-25" width="100" height="71">
<path d="M66.8737 -24.6351H-32.7841V45.6744H66.8737V-24.6351Z" fill="white"/>
</mask>
<g mask="url(#mask32_650_14340)">
<path d="M7.66436 5.33119C7.63339 5.47845 7.04464 8.15309 7.04464 8.15309C6.91384 8.69606 6.82456 9.08399 6.51059 9.32985C6.33202 9.47516 6.12347 9.54587 5.88197 9.54587C5.49485 9.54587 5.27049 9.35644 5.22997 8.99544L5.22338 8.8751C5.22338 8.8751 5.34133 8.14822 5.34133 8.14433C5.34133 8.14433 5.9617 5.70647 6.0724 5.38568C6.07603 5.36655 6.0813 5.35941 6.0813 5.34741C4.87909 5.35941 4.66494 5.34741 4.64979 5.33119C4.64221 5.35584 4.61058 5.50926 4.61058 5.50926L3.98065 8.25039L3.92629 8.48912L3.82416 9.24876C3.82416 9.47516 3.86468 9.66296 3.95429 9.81541C4.24686 10.3117 5.06425 10.385 5.52978 10.385C6.12347 10.385 6.68454 10.2604 7.06309 10.0318C7.72234 9.65096 7.89498 9.04798 8.04719 8.52058L8.11934 8.2465C8.11934 8.2465 8.75487 5.71588 8.8659 5.38601C8.86656 5.36687 8.87019 5.35974 8.87315 5.34774C8.00403 5.35941 7.74672 5.34741 7.66436 5.33119Z" fill="white"/>
</g>
<mask id="mask33_650_14340" style="mask-type:alpha" maskUnits="userSpaceOnUse" x="-33" y="-25" width="100" height="71">
<path d="M66.8737 -24.6351H-32.7841V45.6744H66.8737V-24.6351Z" fill="white"/>
</mask>
<g mask="url(#mask33_650_14340)">
<path d="M11.1862 10.3566C10.7599 10.3531 10.6093 10.3531 10.1082 10.3758L10.0888 10.3411C10.1355 10.1536 10.1794 9.96902 10.2268 9.7783L10.2871 9.52238C10.378 9.12699 10.468 8.66349 10.4795 8.52337C10.491 8.43579 10.5174 8.22237 10.2749 8.22237C10.1665 8.22237 10.0568 8.27653 9.94841 8.32681C9.89174 8.53699 9.76951 9.12894 9.71152 9.40237C9.58929 9.97356 9.5771 10.0384 9.52274 10.3226L9.49111 10.3566C9.04799 10.3531 8.89545 10.3531 8.38808 10.3758L8.36469 10.3372C8.45232 9.99562 8.53337 9.65505 8.61837 9.31642C8.83219 8.39622 8.87733 8.04462 8.94157 7.57495L8.97518 7.54998C9.472 7.48251 9.59061 7.46954 10.1273 7.35893L10.1698 7.40856L10.0884 7.69951C10.178 7.64891 10.2657 7.59636 10.354 7.54998C10.609 7.4264 10.892 7.39039 11.0455 7.39039C11.2755 7.39039 11.5331 7.45591 11.6402 7.72189C11.7446 7.95899 11.6748 8.25059 11.5404 8.82956L11.4722 9.12278C11.3381 9.76014 11.314 9.88339 11.2373 10.3219L11.1862 10.3566Z" fill="white"/>
</g>
<mask id="mask34_650_14340" style="mask-type:alpha" maskUnits="userSpaceOnUse" x="-33" y="-25" width="100" height="71">
<path d="M66.8737 -24.6351H-32.7841V45.6744H66.8737V-24.6351Z" fill="white"/>
</mask>
<g mask="url(#mask34_650_14340)">
<path d="M12.9211 10.3568C12.6622 10.3568 12.4991 10.3532 12.3357 10.3568C12.1749 10.3568 12.0197 10.3665 11.7802 10.3759L11.7677 10.3568L11.7499 10.337C11.8151 10.0918 11.8523 10.0059 11.8836 9.92185C11.9172 9.83687 11.9476 9.74767 12.0059 9.50213C12.0807 9.17907 12.1294 8.95429 12.1607 8.76001C12.1943 8.56961 12.2111 8.40808 12.2385 8.2193L12.2592 8.20373L12.2777 8.18395C12.5347 8.14924 12.6954 8.12492 12.8621 8.09832C13.0279 8.07594 13.1959 8.04415 13.4624 7.9929L13.4749 8.01593L13.4792 8.04026C13.4278 8.24136 13.381 8.43565 13.3326 8.6387C13.2865 8.84304 13.2351 9.04284 13.1923 9.23875C13.0924 9.66496 13.0545 9.82162 13.0351 9.93417C13.0117 10.0419 13.0078 10.0999 12.9682 10.3224L12.9448 10.3409L12.9211 10.3568Z" fill="white"/>
</g>
<mask id="mask35_650_14340" style="mask-type:alpha" maskUnits="userSpaceOnUse" x="-33" y="-25" width="100" height="71">
<path d="M66.8737 -24.6351H-32.7841V45.6744H66.8737V-24.6351Z" fill="white"/>
</mask>
<g mask="url(#mask35_650_14340)">
<path d="M16.7578 8.91063C16.906 8.26971 16.791 7.96416 16.6431 7.7796C16.423 7.49839 16.0287 7.40952 15.6191 7.40952C15.3773 7.40952 14.7938 7.43319 14.3356 7.84804C14.0114 8.14483 13.8582 8.55092 13.7672 8.93691C13.6783 9.33197 13.5699 10.0468 14.2341 10.3122C14.4393 10.3959 14.7332 10.4254 14.925 10.4254C15.4109 10.4254 15.9133 10.2882 16.2866 9.89927C16.5759 9.57718 16.7126 9.10557 16.7578 8.91063ZM15.6402 8.86684C15.6168 8.97615 15.5206 9.37868 15.3879 9.54929C15.2982 9.67741 15.1892 9.75525 15.0689 9.75525C15.0314 9.75525 14.8258 9.75525 14.8199 9.44971C14.8169 9.29434 14.8482 9.13768 14.8825 8.96966C14.9991 8.47859 15.1329 8.06861 15.4735 8.06861C15.7371 8.06861 15.7545 8.37447 15.6402 8.86684Z" fill="white"/>
</g>
<mask id="mask36_650_14340" style="mask-type:alpha" maskUnits="userSpaceOnUse" x="-33" y="-25" width="100" height="71">
<path d="M66.8737 -24.6351H-32.7841V45.6744H66.8737V-24.6351Z" fill="white"/>
</mask>
<g mask="url(#mask36_650_14340)">
<path d="M27.1885 10.401C26.6742 10.3949 26.5226 10.3949 26.0492 10.4156L26.0195 10.3796C26.1464 9.89926 26.2782 9.41824 26.3938 8.92911C26.544 8.29662 26.5757 8.02935 26.6254 7.65796L26.6663 7.62974C27.1759 7.55417 27.3183 7.5373 27.8513 7.43935L27.8655 7.48216C27.7696 7.87788 27.6741 8.27683 27.5795 8.67222C27.3842 9.50646 27.3104 9.9304 27.2379 10.366L27.1885 10.401Z" fill="white"/>
</g>
<mask id="mask37_650_14340" style="mask-type:alpha" maskUnits="userSpaceOnUse" x="-33" y="-25" width="100" height="71">
<path d="M66.8737 -24.6351H-32.7841V45.6744H66.8737V-24.6351Z" fill="white"/>
</mask>
<g mask="url(#mask37_650_14340)">
<path d="M27.4332 8.9691C27.5851 8.32655 26.9838 8.91168 26.8889 8.69923C26.7354 8.37066 26.8296 7.69795 26.2396 7.47511C26.0096 7.38754 25.4736 7.49814 25.0156 7.91137C24.6957 8.20686 24.5379 8.61101 24.447 8.99472C24.3577 9.38427 24.2496 10.0962 24.9122 10.3525C25.122 10.4407 25.3144 10.4644 25.5039 10.4569C26.1671 10.4251 26.6761 9.43033 27.051 9.04208C27.3436 8.73102 27.3927 9.1582 27.4332 8.9691ZM26.4165 8.92174C26.3905 9.02294 26.2933 9.43325 26.1628 9.60483C26.0735 9.72549 25.8669 9.80204 25.747 9.80204C25.7154 9.80204 25.5072 9.80204 25.4976 9.49845C25.4976 9.34859 25.5309 9.19128 25.5668 9.01807C25.6792 8.54062 25.8146 8.12934 26.1532 8.12934C26.4165 8.12966 26.5295 8.42807 26.4165 8.92174Z" fill="white"/>
</g>
<mask id="mask38_650_14340" style="mask-type:alpha" maskUnits="userSpaceOnUse" x="-33" y="-25" width="100" height="71">
<path d="M66.8737 -24.6351H-32.7841V45.6744H66.8737V-24.6351Z" fill="white"/>
</mask>
<g mask="url(#mask38_650_14340)">
<path d="M19.67 10.3566C19.2414 10.3531 19.0941 10.3531 18.5966 10.3758L18.5736 10.3411C18.6177 10.1536 18.6642 9.96902 18.7106 9.7783L18.7703 9.52238C18.8655 9.12699 18.9538 8.66349 18.96 8.52337C18.9729 8.43579 19.0019 8.22237 18.7561 8.22237C18.6513 8.22237 18.5449 8.27653 18.4345 8.32681C18.3729 8.53699 18.251 9.12894 18.1957 9.40237C18.0728 9.97356 18.0659 10.0384 18.0099 10.3226L17.9746 10.3566C17.5315 10.3531 17.3829 10.3531 16.8742 10.3758L16.8528 10.3372C16.9391 9.99562 17.0182 9.65505 17.0999 9.31642C17.3167 8.39622 17.3621 8.04462 17.4234 7.57495L17.4626 7.54998C17.9538 7.48251 18.0748 7.46954 18.6091 7.35893L18.6513 7.40856L18.5739 7.69951C18.6612 7.64891 18.7538 7.59636 18.8404 7.54998C19.0944 7.4264 19.3748 7.39039 19.5267 7.39039C19.7567 7.39039 20.0153 7.45591 20.1263 7.72189C20.2255 7.95899 20.1589 8.25059 20.0252 8.82956L19.956 9.12278C19.8189 9.76014 19.7932 9.88339 19.7211 10.3219L19.67 10.3566Z" fill="white"/>
</g>
<mask id="mask39_650_14340" style="mask-type:alpha" maskUnits="userSpaceOnUse" x="-33" y="-25" width="100" height="71">
<path d="M66.8737 -24.6351H-32.7841V45.6744H66.8737V-24.6351Z" fill="white"/>
</mask>
<g mask="url(#mask39_650_14340)">
<path d="M23.8339 6.89719C23.7552 7.23127 23.5367 7.51184 23.2511 7.64839C23.0155 7.76613 22.7295 7.77327 22.435 7.77327H22.2469L22.2607 7.69672C22.2607 7.69672 22.6132 6.19496 22.6103 6.19755L22.6205 6.12263L22.6274 6.06132L22.7674 6.07722C22.7674 6.07722 23.4919 6.13917 23.5061 6.14079C23.7967 6.24685 23.913 6.52969 23.8339 6.89719ZM23.3671 5.32568L23.0132 5.33023C22.093 5.34093 21.7227 5.33768 21.5702 5.32082C21.5573 5.38569 21.5303 5.50408 21.5303 5.50408L21.2012 7.01428C21.2012 7.01428 20.4118 10.2228 20.3739 10.372C21.1755 10.3613 21.5109 10.3613 21.6466 10.3762C21.6809 10.2267 21.8667 9.32953 21.8667 9.32953C21.8667 9.32953 22.0275 8.67238 22.038 8.64903C22.038 8.64903 22.0868 8.57994 22.1388 8.5527H22.2083C22.9071 8.5527 23.6922 8.5527 24.307 8.10963C24.7225 7.80246 25.0104 7.35193 25.1369 6.80539C25.1712 6.67403 25.1952 6.50991 25.1952 6.35162C25.1952 6.14176 25.1517 5.9332 25.0282 5.76973C24.7152 5.33768 24.0925 5.33023 23.3671 5.32568Z" fill="white"/>
</g>
<mask id="mask40_650_14340" style="mask-type:alpha" maskUnits="userSpaceOnUse" x="-33" y="-25" width="100" height="71">
<path d="M66.8737 -24.6351H-32.7841V45.6744H66.8737V-24.6351Z" fill="white"/>
</mask>
<g mask="url(#mask40_650_14340)">
<path d="M31.4065 7.43314L31.362 7.38902C30.8365 7.49379 30.7427 7.51001 30.2574 7.57358L30.2221 7.60569C30.2191 7.6138 30.2191 7.62386 30.2155 7.62872L30.2112 7.62386C29.8557 8.44415 29.8646 8.26932 29.5741 8.90928C29.5671 8.87911 29.5671 8.85933 29.5661 8.83208L29.4953 7.43314L29.4485 7.38902C28.8964 7.49379 28.8835 7.51001 28.3748 7.57358L28.3353 7.60569C28.327 7.62613 28.327 7.64202 28.3228 7.66116L28.327 7.66797C28.3926 7.99005 28.3768 7.9187 28.4394 8.42501C28.4684 8.67347 28.5076 8.92517 28.5382 9.17006C28.588 9.5768 28.6189 9.78212 28.6773 10.4046C28.3356 10.965 28.2536 11.1785 27.9261 11.6715L27.9435 11.7143C28.4397 11.6965 28.555 11.6965 28.9227 11.6965L29.0038 11.6063C29.2838 11.0173 31.4065 7.43314 31.4065 7.43314Z" fill="white"/>
</g>
<mask id="mask41_650_14340" style="mask-type:alpha" maskUnits="userSpaceOnUse" x="-33" y="-25" width="100" height="71">
<path d="M66.8737 -24.6351H-32.7841V45.6744H66.8737V-24.6351Z" fill="white"/>
</mask>
<g mask="url(#mask41_650_14340)">
<path d="M13.3913 7.77932C13.6743 7.586 13.7056 7.31743 13.472 7.18445C13.2292 7.04076 12.8062 7.08422 12.5248 7.27851C12.2402 7.46956 12.2042 7.73747 12.4438 7.87727C12.6866 8.01253 13.1063 7.97328 13.3913 7.77932Z" fill="white"/>
</g>
<mask id="mask42_650_14340" style="mask-type:alpha" maskUnits="userSpaceOnUse" x="-33" y="-25" width="100" height="71">
<path d="M66.8737 -24.6351H-32.7841V45.6744H66.8737V-24.6351Z" fill="white"/>
</mask>
<g mask="url(#mask42_650_14340)">
<path d="M28.9712 11.6546L28.5525 12.3539C28.4237 12.5949 28.1812 12.7704 27.7954 12.7733L27.1318 12.7652L27.3282 12.1337H27.454C27.5206 12.1337 27.57 12.1301 27.6099 12.1132C27.6441 12.1009 27.6662 12.0747 27.6929 12.038L27.938 11.6546H28.9712Z" fill="white"/>
</g>
</g>
</svg>
