<svg width="14" height="14" viewBox="0 0 14 14" fill="none" xmlns="http://www.w3.org/2000/svg">
<path fill-rule="evenodd" clip-rule="evenodd" d="M1.97555 1.132C1.73994 0.942463 1.39443 0.957042 1.17574 1.17574C0.941421 1.41005 0.941421 1.78995 1.17574 2.02426L6.15147 7L1.17574 11.9757L1.132 12.0245C0.942463 12.2601 0.957042 12.6056 1.17574 12.8243C1.41005 13.0586 1.78995 13.0586 2.02426 12.8243L7 7.84853L11.9757 12.8243L12.0245 12.868C12.2601 13.0575 12.6056 13.043 12.8243 12.8243C13.0586 12.59 13.0586 12.2101 12.8243 11.9757L7.84853 7L12.8243 2.02426L12.868 1.97555C13.0575 1.73994 13.043 1.39443 12.8243 1.17574C12.59 0.941421 12.2101 0.941421 11.9757 1.17574L7 6.15147L2.02426 1.17574L1.97555 1.132Z" fill="#0065B8"/>
<path d="M1.17574 1.17574L1.49172 1.49172L1.17574 1.17574ZM1.97555 1.132L2.27408 0.799475L2.26508 0.791392L2.25565 0.783808L1.97555 1.132ZM1.17574 2.02426L0.859749 2.34025H0.859749L1.17574 2.02426ZM6.15147 7L6.46746 7.31599L6.78345 7L6.46746 6.68401L6.15147 7ZM1.17574 11.9757L0.859749 11.6597L0.851246 11.6683L0.843212 11.6772L1.17574 11.9757ZM1.132 12.0245L0.799473 11.7259L0.791391 11.7349L0.783808 11.7443L1.132 12.0245ZM1.17574 12.8243L1.49172 12.5083H1.49172L1.17574 12.8243ZM2.02426 12.8243L1.70828 12.5083H1.70828L2.02426 12.8243ZM7 7.84853L7.31599 7.53254L7 7.21655L6.68401 7.53254L7 7.84853ZM11.9757 12.8243L11.6597 13.1403L11.6683 13.1488L11.6772 13.1568L11.9757 12.8243ZM12.0245 12.868L11.7259 13.2005L11.7349 13.2086L11.7443 13.2162L12.0245 12.868ZM12.8243 12.8243L12.5083 12.5083L12.5083 12.5083L12.8243 12.8243ZM7.84853 7L7.53254 6.68401L7.21655 7L7.53254 7.31599L7.84853 7ZM12.8243 2.02426L13.1403 2.34025L13.1488 2.33175L13.1568 2.3228L12.8243 2.02426ZM12.868 1.97555L13.2005 2.27409L13.2086 2.26508L13.2162 2.25565L12.868 1.97555ZM12.8243 1.17574L12.5083 1.49172L12.5083 1.49172L12.8243 1.17574ZM11.9757 1.17574L11.6597 0.859749V0.859749L11.9757 1.17574ZM7 6.15147L6.68401 6.46746L7 6.78345L7.31599 6.46746L7 6.15147ZM2.02426 1.17574L2.34025 0.859749L2.33175 0.851247L2.3228 0.843214L2.02426 1.17574ZM1.49172 1.49172C1.54733 1.43612 1.63568 1.43211 1.69544 1.48019L2.25565 0.783808C1.8442 0.452811 1.24153 0.477967 0.859749 0.859749L1.49172 1.49172ZM1.49172 1.70828C1.43192 1.64848 1.43192 1.55152 1.49172 1.49172L0.859749 0.859749C0.45092 1.26858 0.45092 1.93142 0.859749 2.34025L1.49172 1.70828ZM6.46746 6.68401L1.49172 1.70828L0.859749 2.34025L5.83549 7.31599L6.46746 6.68401ZM1.49172 12.2917L6.46746 7.31599L5.83549 6.68401L0.859749 11.6597L1.49172 12.2917ZM1.46452 12.323L1.50826 12.2743L0.843212 11.6772L0.799473 11.7259L1.46452 12.323ZM1.49172 12.5083C1.43612 12.4527 1.43212 12.3643 1.48019 12.3046L0.783808 11.7443C0.45281 12.1558 0.477968 12.7585 0.859749 13.1403L1.49172 12.5083ZM1.70828 12.5083C1.64848 12.5681 1.55152 12.5681 1.49172 12.5083L0.859749 13.1403C1.26858 13.5491 1.93142 13.5491 2.34025 13.1403L1.70828 12.5083ZM6.68401 7.53254L1.70828 12.5083L2.34025 13.1403L7.31599 8.16452L6.68401 7.53254ZM12.2917 12.5083L7.31599 7.53254L6.68401 8.16452L11.6597 13.1403L12.2917 12.5083ZM12.323 12.5355L12.2743 12.4917L11.6772 13.1568L11.7259 13.2005L12.323 12.5355ZM12.5083 12.5083C12.4527 12.5639 12.3643 12.5679 12.3046 12.5198L11.7443 13.2162C12.1558 13.5472 12.7585 13.522 13.1403 13.1403L12.5083 12.5083ZM12.5083 12.2917C12.5681 12.3515 12.5681 12.4485 12.5083 12.5083L13.1403 13.1403C13.5491 12.7314 13.5491 12.0686 13.1403 11.6597L12.5083 12.2917ZM7.53254 7.31599L12.5083 12.2917L13.1403 11.6597L8.16452 6.68401L7.53254 7.31599ZM12.5083 1.70828L7.53254 6.68401L8.16452 7.31599L13.1403 2.34025L12.5083 1.70828ZM12.5355 1.67701L12.4917 1.72572L13.1568 2.3228L13.2005 2.27409L12.5355 1.67701ZM12.5083 1.49172C12.5639 1.54733 12.5679 1.63568 12.5198 1.69544L13.2162 2.25565C13.5472 1.8442 13.522 1.24153 13.1403 0.859749L12.5083 1.49172ZM12.2917 1.49172C12.3515 1.43192 12.4485 1.43192 12.5083 1.49172L13.1403 0.85975C12.7314 0.450919 12.0686 0.45092 11.6597 0.859749L12.2917 1.49172ZM7.31599 6.46746L12.2917 1.49172L11.6597 0.859749L6.68401 5.83549L7.31599 6.46746ZM1.70828 1.49172L6.68401 6.46746L7.31599 5.83549L2.34025 0.859749L1.70828 1.49172ZM1.67701 1.46452L1.72573 1.50826L2.3228 0.843214L2.27408 0.799475L1.67701 1.46452Z" fill="#0065B8"/>
</svg>
