<svg width="93" height="32" viewBox="0 0 93 32" fill="none" xmlns="http://www.w3.org/2000/svg">
<g clip-path="url(#clip0_1238_2810)">
<path fill-rule="evenodd" clip-rule="evenodd" d="M3.50485 18.5428C5.76105 12.7608 11.3489 5.34924 20.1398 0.439209L20.8595 1.75968C12.3695 6.5016 7.01842 13.6433 4.89039 19.0969C4.35981 20.4566 4.03639 21.6941 3.90907 22.7493C3.78067 23.8136 3.8577 24.6422 4.07616 25.2181C4.28461 25.7677 4.61128 26.0738 5.04845 26.2023C5.52305 26.3417 6.24735 26.306 7.2833 25.8865C9.39192 25.0327 11.4815 23.4375 13.427 21.5818C15.3665 19.7318 17.1211 17.664 18.5706 15.9049C18.8019 15.6241 19.0266 15.3499 19.2433 15.0855C19.7 14.528 20.1213 14.0138 20.4953 13.5726C21.0372 12.9333 21.5287 12.3873 21.926 12.0648C22.1042 11.9201 22.3755 11.7238 22.693 11.6739C22.8795 11.6446 23.1167 11.661 23.341 11.8025C23.5575 11.9392 23.6732 12.1369 23.734 12.2966C23.8437 12.5845 23.8411 12.9223 23.8178 13.212C23.7924 13.5304 23.7288 13.9194 23.6326 14.377C22.9082 17.8236 23.2958 20.5479 24.5867 22.2059C25.8382 23.8131 28.1253 24.6433 31.7654 23.8874C35.3952 23.1336 38.713 21.1081 42.4706 18.2126C44.169 16.9036 45.9405 15.4309 47.8648 13.8311C48.0667 13.6632 48.2703 13.494 48.4756 13.3234C50.6341 11.5302 52.9801 9.59425 55.5986 7.58649L56.4982 8.78869C53.9044 10.7774 51.5775 12.6974 49.4207 14.4892C49.2149 14.6601 49.0106 14.83 48.8077 14.9986C46.8882 16.5946 45.0947 18.0857 43.3728 19.4126C39.5692 22.3436 36.0324 24.5408 32.0647 25.3647C28.1072 26.1865 25.144 25.3577 23.4168 23.1396C21.7293 20.9722 21.4101 17.7046 22.1755 14.0631C22.1886 14.0006 22.2009 13.9405 22.2123 13.8826C22.039 14.0735 21.8437 14.2976 21.6259 14.5547C21.26 14.9863 20.8521 15.4841 20.4006 16.0354C20.1822 16.302 19.9534 16.581 19.7145 16.8709C18.259 18.6372 16.4569 20.7639 14.4486 22.6794C12.4464 24.5892 10.1971 26.3308 7.83659 27.2867C6.63796 27.772 5.55066 27.9202 4.63333 27.6507C3.67856 27.3703 3.03295 26.6749 2.68545 25.7589C2.34797 24.8691 2.28538 23.7679 2.43035 22.5664C2.57642 21.3557 2.93938 19.9919 3.50485 18.5428Z" fill="url(#paint0_angular_1238_2810)"/>
<path d="M21.5968 11.9738L18.6792 20.0307L15.7404 11.9738C15.6975 11.8217 15.5688 11.7566 15.4186 11.7566H14.0671C13.917 11.7566 13.7882 11.8217 13.7453 11.9738L10.8708 20.2696L7.88894 11.9738C7.84604 11.8217 7.71732 11.7566 7.56716 11.7566H6.08696C5.8939 11.7566 5.80809 11.8869 5.87245 12.0823L9.64801 21.9853C9.71236 22.1373 9.81962 22.2024 9.96979 22.2024H11.5787C11.7289 22.2024 11.8361 22.1373 11.9005 21.9853L14.7321 14.7101L17.5423 21.9853C17.6067 22.1373 17.7139 22.2024 17.8641 22.2024H19.473C19.6231 22.2024 19.7304 22.1373 19.7949 21.9853L23.6133 12.0823C23.6776 11.8869 23.5918 11.7566 23.3988 11.7566H21.9186C21.7684 11.7566 21.6396 11.8217 21.5968 11.9738Z" fill="white"/>
<path d="M33.1887 12.0388V13.2983C32.395 12.1473 31.1722 11.4524 29.6705 11.4524C26.8818 11.4524 24.5649 13.863 24.5649 16.9684C24.5649 20.1174 26.8818 22.5063 29.6705 22.5063C31.1722 22.5063 32.395 21.8114 33.1887 20.6821V21.92C33.1887 22.0937 33.2959 22.2023 33.4675 22.2023H34.8405C35.012 22.2023 35.1193 22.0937 35.1193 21.92V12.0388C35.1193 11.865 35.012 11.7564 34.8405 11.7564H33.4675C33.2959 11.7564 33.1887 11.865 33.1887 12.0388ZM29.8422 20.7038C27.9114 20.7038 26.5171 19.1184 26.5171 16.9684C26.5171 14.8619 27.9114 13.2332 29.8422 13.2332C31.7728 13.2332 33.1671 14.8619 33.1671 16.9684C33.1671 19.1184 31.7728 20.7038 29.8422 20.7038Z" fill="white"/>
<path d="M45.3654 11.9738L42.2548 19.8135L39.1444 11.9738C39.0799 11.8217 38.9727 11.7566 38.8225 11.7566H37.3424C37.1493 11.7566 37.042 11.8869 37.1278 12.0823L41.3109 22.2241L39.9809 25.5686C39.9166 25.7639 40.0024 25.8943 40.1954 25.8943H41.504C41.6542 25.8943 41.7615 25.8292 41.8258 25.6771L47.3605 12.0823C47.4462 11.8869 47.3389 11.7566 47.146 11.7566H45.6872C45.537 11.7566 45.4297 11.8217 45.3654 11.9738Z" fill="white"/>
<path d="M49.6023 6.63132V21.92C49.6023 22.0938 49.7095 22.2023 49.8811 22.2023H51.2541C51.4258 22.2023 51.5331 22.0938 51.5331 21.92V6.63132C51.5331 6.45759 51.4258 6.349 51.2541 6.349H49.8811C49.7095 6.349 49.6023 6.45759 49.6023 6.63132Z" fill="white"/>
<path d="M56.1437 9.32411C56.8086 9.32411 57.3449 8.7812 57.3449 8.08625C57.3449 7.41304 56.8086 6.87012 56.1437 6.87012C55.4572 6.87012 54.9209 7.41304 54.9209 8.08625C54.9209 8.7812 55.4572 9.32411 56.1437 9.32411ZM55.4356 22.2022H56.8086C56.9802 22.2022 57.0874 22.0937 57.0874 21.92V12.0387C57.0874 11.865 56.9802 11.7564 56.8086 11.7564H55.4356C55.2641 11.7564 55.1568 11.865 55.1568 12.0387V21.92C55.1568 22.0937 55.2641 22.2022 55.4356 22.2022Z" fill="white"/>
<path d="M68.256 12.0388V13.2115C67.4623 12.1256 66.2609 11.4524 64.7593 11.4524C61.9491 11.4524 59.6538 13.7761 59.6538 16.7296C59.6538 19.7266 61.9491 22.0068 64.7593 22.0068C66.2609 22.0068 67.4623 21.3553 68.256 20.2695V20.7254C68.256 23.0927 66.8401 24.4608 64.9738 24.4608C63.1719 24.4608 62.185 23.7658 61.327 22.7452C61.1983 22.5931 61.0481 22.6149 60.9409 22.7668L60.1901 23.7658C60.0828 23.9179 60.1042 24.0481 60.2115 24.1785C61.4128 25.438 62.8715 26.1981 64.9738 26.1981C67.8054 26.1981 70.1866 24.0916 70.1866 20.6387V12.0388C70.1866 11.865 70.0794 11.7564 69.9078 11.7564H68.5348C68.3633 11.7564 68.256 11.865 68.256 12.0388ZM64.9095 20.2043C62.9788 20.2043 61.5844 18.7275 61.5844 16.7296C61.5844 14.7534 62.9788 13.2332 64.9095 13.2332C66.8617 13.2332 68.2346 14.7751 68.2346 16.7513C68.2346 18.7493 66.8617 20.2043 64.9095 20.2043Z" fill="white"/>
<path d="M78.3578 11.4525C76.9419 11.4525 75.6333 12.256 75.0327 13.5807V6.63132C75.0327 6.45759 74.9254 6.349 74.7538 6.349H73.3809C73.2093 6.349 73.1021 6.45759 73.1021 6.63132V21.92C73.1021 22.0938 73.2093 22.2023 73.3809 22.2023H74.7538C74.9254 22.2023 75.0327 22.0938 75.0327 21.92V16.1868C75.2258 14.1019 76.5772 13.1681 77.9501 13.1681C79.3445 13.1681 80.1382 13.863 80.1382 15.7741V21.92C80.1382 22.0938 80.2454 22.2023 80.4172 22.2023H81.7901C81.9617 22.2023 82.069 22.0938 82.069 21.92V15.4267C82.069 12.4297 80.2884 11.4525 78.3578 11.4525Z" fill="white"/>
<path d="M91.7571 19.9653C91.1779 20.378 90.4699 20.7472 89.5475 20.7472C88.0889 20.7472 87.7885 19.6614 87.7885 18.2715V13.4503H91.2422C91.4138 13.4503 91.5211 13.3417 91.5211 13.168V12.0387C91.5211 11.865 91.4138 11.7564 91.2422 11.7564H87.7885V8.67258C87.7885 8.49884 87.6812 8.39026 87.5097 8.39026H86.1367C85.965 8.39026 85.8577 8.49884 85.8577 8.67258V11.7564H84.1416C83.9701 11.7564 83.8628 11.865 83.8628 12.0387V13.168C83.8628 13.3417 83.9701 13.4503 84.1416 13.4503H85.8577V18.7275C85.8577 21.1164 87.0377 22.5063 89.376 22.5063C90.6844 22.5063 91.7785 22.0502 92.5509 21.5073C92.6795 21.3987 92.701 21.2684 92.6366 21.1164L92.1432 20.0522C92.0574 19.8567 91.9287 19.8351 91.7571 19.9653Z" fill="white"/>
<g filter="url(#filter0_d_1238_2810)">
<path d="M56.1272 9.30601C56.8012 9.30601 57.3476 8.75284 57.3476 8.07048C57.3476 7.38812 56.8012 6.83496 56.1272 6.83496C55.4532 6.83496 54.9067 7.38812 54.9067 8.07048C54.9067 8.75284 55.4532 9.30601 56.1272 9.30601Z" fill="white"/>
</g>
</g>
<defs>
<filter id="filter0_d_1238_2810" x="52.8718" y="4.79998" width="6.51088" height="6.54103" filterUnits="userSpaceOnUse" color-interpolation-filters="sRGB">
<feFlood flood-opacity="0" result="BackgroundImageFix"/>
<feColorMatrix in="SourceAlpha" type="matrix" values="0 0 0 0 0 0 0 0 0 0 0 0 0 0 0 0 0 0 127 0" result="hardAlpha"/>
<feOffset/>
<feGaussianBlur stdDeviation="1.01749"/>
<feColorMatrix type="matrix" values="0 0 0 0 1 0 0 0 0 1 0 0 0 0 1 0 0 0 1 0"/>
<feBlend mode="normal" in2="BackgroundImageFix" result="effect1_dropShadow_1238_2810"/>
<feBlend mode="normal" in="SourceGraphic" in2="effect1_dropShadow_1238_2810" result="shape"/>
</filter>
<radialGradient id="paint0_angular_1238_2810" cx="0" cy="0" r="1" gradientUnits="userSpaceOnUse" gradientTransform="translate(24.1817 10.7595) rotate(124.851) scale(27.0113 26.0558)">
<stop offset="0.0423857" stop-color="#FBFBFB" stop-opacity="0.23"/>
<stop offset="0.0911598" stop-color="#F6F6F6" stop-opacity="0.2"/>
<stop offset="0.334157" stop-color="#D5D5D5" stop-opacity="0"/>
<stop offset="0.491151" stop-color="#B8B8B8" stop-opacity="0"/>
<stop offset="0.604626" stop-color="#858585" stop-opacity="0.23"/>
<stop offset="0.657984" stop-color="#999999" stop-opacity="0.17"/>
<stop offset="0.745731" stop-color="#C0C0C0" stop-opacity="0.25"/>
<stop offset="0.821043" stop-color="#E0E0E0" stop-opacity="0.19"/>
<stop offset="0.899882" stop-color="#E8E8E8" stop-opacity="0.09"/>
<stop offset="0.973952" stop-color="white" stop-opacity="0"/>
</radialGradient>
<clipPath id="clip0_1238_2810">
<rect width="90.3137" height="27.4722" fill="white" transform="translate(2.35706 0.439209)"/>
</clipPath>
</defs>
</svg>
