<svg width="44" height="29" viewBox="0 0 44 29" fill="none" xmlns="http://www.w3.org/2000/svg">
<path d="M40.1486 25.776H3.85224C1.84386 25.776 0.223572 24.146 0.223572 22.1473V6.53626C0.223572 4.52788 1.85356 2.90759 3.85224 2.90759H40.1486C42.157 2.90759 43.7773 4.53758 43.7773 6.53626V22.1473C43.787 24.1557 42.157 25.776 40.1486 25.776Z" fill="url(#paint0_linear_650_14709)"/>
<path d="M16.1356 8.1469C16.1259 9.50523 15.0878 10.621 13.7585 10.7568C12.0606 10.9315 10.6344 9.4082 10.8964 7.72C11.1195 6.27436 12.536 5.26532 14.0302 5.57579C15.2527 5.82805 16.155 6.90501 16.1356 8.1469Z" fill="url(#paint1_linear_650_14709)"/>
<path d="M16.2423 17.199C16.1356 14.2689 13.71 12.0665 11.1874 11.8336C9.69322 11.6978 8.54835 12.1635 7.97591 12.474V6.3421H5.01671V16.743C4.79356 20.3619 7.25794 22.9913 10.6829 23.0398C13.6615 23.0786 16.349 20.4008 16.2423 17.199ZM10.6149 20.0709C9.1596 20.0709 7.96621 18.8775 7.96621 17.4221C7.96621 15.9668 9.1693 14.7734 10.6149 14.7734C12.0606 14.7734 13.2637 15.9668 13.2637 17.4221C13.2637 18.8775 12.0703 20.0709 10.6149 20.0709Z" fill="white"/>
<path d="M18.1536 6.3421H21.1031V22.8943H18.1536V6.3421Z" fill="white"/>
<path d="M26.5843 11.9308H23.5959L23.6348 22.8944H26.5843V11.9308Z" fill="white"/>
<path d="M29.1168 6.34247L29.0974 22.8946H32.0663V6.34247H29.1168Z" fill="white"/>
<path d="M35.3944 17.0929L39.4693 11.9313H35.9862L32.0665 16.9377V17.2675L35.9862 22.8949H39.8283L35.3944 17.0929Z" fill="white"/>
<defs>
<linearGradient id="paint0_linear_650_14709" x1="21.9256" y1="27.0393" x2="22.0931" y2="-0.612349" gradientUnits="userSpaceOnUse">
<stop stop-color="#3E4142"/>
<stop offset="0.2285" stop-color="#3A3D3E"/>
<stop offset="0.4729" stop-color="#2E3031"/>
<stop offset="0.7238" stop-color="#1A1B1C"/>
<stop offset="0.9631"/>
</linearGradient>
<linearGradient id="paint1_linear_650_14709" x1="12.421" y1="5.85812" x2="14.6862" y2="10.6175" gradientUnits="userSpaceOnUse">
<stop offset="0.00029" stop-color="#EE3231"/>
<stop offset="0.6321" stop-color="#EB3A74"/>
<stop offset="1" stop-color="#E93E96"/>
</linearGradient>
</defs>
</svg>
