<svg width="64" height="21" viewBox="0 0 64 21" fill="none" xmlns="http://www.w3.org/2000/svg">
<g clip-path="url(#clip0_650_14597)">
<path fill-rule="evenodd" clip-rule="evenodd" d="M31.5189 16.9884L31.4021 17.4073C31.3047 17.7563 31.2179 18.0653 31.1434 18.3702C31.049 17.9206 30.9172 17.418 30.7991 16.9746L30.0154 13.9898L30.0017 13.9373H29.4877L28.611 16.9942C28.4545 17.511 28.3148 17.978 28.2173 18.3862C28.1424 18.0635 28.052 17.7038 27.9573 17.3254L27.107 13.9898L27.0933 13.9373H26.5L27.9242 19.3834L27.9379 19.4373H28.443L29.3599 16.3167C29.519 15.7847 29.6394 15.3667 29.7271 15.0012C29.8047 15.3867 29.9127 15.8105 30.0484 16.3127L30.8401 19.3838L30.8542 19.4373H31.3668L32.9722 14.029L33 13.9373H32.4036L31.5189 16.9884Z" fill="#1E1E1E"/>
<path fill-rule="evenodd" clip-rule="evenodd" d="M33.5411 17.0148C33.6707 16.2232 34.1492 15.9399 34.5588 15.9399C34.8195 15.9399 35.0283 16.025 35.1808 16.1931C35.405 16.4412 35.4561 16.8003 35.4648 17.0148H33.5411ZM34.6012 15.4373C33.6433 15.4373 33 16.2697 33 17.5093C33 18.6625 33.6655 19.4373 34.6571 19.4373C35.2802 19.4373 35.6344 19.2635 35.7572 19.1896L35.8332 19.1436L35.609 18.7218L35.5559 18.7476C35.3808 18.8362 35.142 18.926 34.6991 18.926C33.9733 18.926 33.5427 18.4079 33.5138 17.5028H35.9679L35.9842 17.4246C36 17.3455 36 17.2878 36 17.1829C36 17.041 35.9818 16.5444 35.7453 16.1127C35.4997 15.6643 35.115 15.4373 34.6012 15.4373Z" fill="#1E1E1E"/>
<path fill-rule="evenodd" clip-rule="evenodd" d="M40.6926 18.711H40.6921C40.4071 18.8441 40.0065 18.9243 39.6217 18.9243C38.3396 18.9243 37.5748 18.1036 37.5748 16.7293C37.5748 15.303 38.3625 14.4511 39.6819 14.4511C40.0469 14.4511 40.394 14.5202 40.6592 14.6471L40.7163 14.6738L40.9745 14.2209L40.8975 14.1782C40.7951 14.1216 40.4067 13.9373 39.6749 13.9373C38.0749 13.9373 37 15.0559 37 16.7213C37 18.7261 38.3476 19.4373 39.5016 19.4373C40.1516 19.4373 40.6583 19.2979 40.9164 19.1678L41 19.1246L40.7493 18.6847L40.6926 18.711Z" fill="#1E1E1E"/>
<path fill-rule="evenodd" clip-rule="evenodd" d="M43.1667 15.4371C42.8891 15.4371 42.6232 15.5168 42.4 15.6672C42.2717 15.7443 42.1522 15.8499 42.0503 15.977V13.9373H41.5V19.4373H42.0503V17.0701C42.0503 16.9281 42.0566 16.8369 42.0897 16.7326C42.2432 16.2812 42.6471 15.9656 43.0703 15.9656C43.8357 15.9656 43.9493 16.7011 43.9493 17.1398V19.4373H44.5V17.1008C44.5 15.5173 43.389 15.4371 43.1667 15.4371Z" fill="#1E1E1E"/>
<path fill-rule="evenodd" clip-rule="evenodd" d="M50.0628 14.9373H49.5541V15.7468H49V16.1837H49.5541V18.2699C49.5541 18.6857 49.6278 18.9762 49.7786 19.1561C49.9147 19.3401 50.1334 19.4373 50.4102 19.4373C50.6026 19.4373 50.7685 19.4054 50.905 19.343L50.9864 19.3055L50.7728 18.9162L50.729 18.9264C50.6518 18.9436 50.5584 18.9525 50.4517 18.9525C50.1791 18.9525 50.0628 18.7677 50.0628 18.3348V16.1837H51V15.7468H50.0628V14.9373Z" fill="#1E1E1E"/>
<path fill-rule="evenodd" clip-rule="evenodd" d="M46.3227 17.7639C46.5796 17.5261 47.0641 17.4059 47.7608 17.4059L47.8331 17.4064L47.8344 18.0883C47.8344 18.136 47.8281 18.2072 47.7997 18.2759C47.6854 18.5943 47.3545 18.9351 46.7679 18.9351C46.4636 18.9351 46.1078 18.763 46.1078 18.2776C46.1078 18.0682 46.1805 17.8956 46.3227 17.7639ZM48.4259 18.3909V16.9677C48.4259 15.9664 47.9324 15.4373 46.9986 15.4373C46.5864 15.4373 46.1443 15.5591 45.8188 15.763L45.7574 15.7982L46.0148 16.2209L46.0793 16.1797C46.3186 16.0244 46.6315 15.9394 46.9589 15.9394H46.9725C47.2357 15.9394 47.4407 16.0064 47.5811 16.1385C47.7514 16.2986 47.834 16.5493 47.8344 16.9055C46.9192 16.9076 46.259 17.0943 45.8707 17.46C45.6246 17.6918 45.5 17.987 45.5 18.3381C45.5 18.8677 45.8843 19.4373 46.7277 19.4373C47.3165 19.4373 47.6931 19.1669 47.8909 18.969L47.9311 19.3544H48.5L48.4801 19.239C48.4327 18.9587 48.4259 18.6656 48.4259 18.3909Z" fill="#1E1E1E"/>
<path fill-rule="evenodd" clip-rule="evenodd" d="M54.5559 14.4991C54.6648 14.4805 54.8691 14.454 55.1674 14.454C55.9788 14.454 56.4445 14.8545 56.4445 15.5525C56.4445 16.3049 55.9547 16.7368 55.1 16.7368C54.9347 16.7368 54.7254 16.7306 54.5559 16.6846V14.4991ZM55.1826 13.9373C54.8136 13.9373 54.4428 13.9713 54.0814 14.0398L54 14.0548V19.4373H54.5559V17.2182C54.7059 17.2473 54.8716 17.2535 55.0703 17.2535C55.7369 17.2535 56.2886 17.0338 56.6233 16.6355C56.8767 16.3451 57 15.9782 57 15.5132C57 15.0596 56.8555 14.6777 56.5818 14.4103C56.2771 14.1008 55.7936 13.9373 55.1826 13.9373Z" fill="#1E1E1E"/>
<path fill-rule="evenodd" clip-rule="evenodd" d="M63.3906 15.4373L62.4724 17.8519C62.3992 18.0413 62.3342 18.2303 62.2797 18.391C62.2212 18.2149 62.1567 18.0349 62.0947 17.8734L61.1319 15.5002L61.1072 15.4373H60.5L61.9159 18.9378C61.9535 19.0334 61.9544 19.0586 61.9544 19.0599C61.9544 19.0835 61.9345 19.1345 61.9163 19.1799C61.7335 19.6084 61.4949 19.896 61.3272 20.0618C61.0977 20.2808 60.8487 20.393 60.7209 20.4406L60.6178 20.4779L60.8863 20.9373L60.9413 20.9171C61.0375 20.8807 61.2935 20.7706 61.578 20.5336C62.0666 20.1115 62.3754 19.4709 62.8432 18.2805L64 15.4373H63.3906Z" fill="#1E1E1E"/>
<path fill-rule="evenodd" clip-rule="evenodd" d="M59.8336 18.0883C59.8336 18.1364 59.8273 18.2081 59.7998 18.2759C59.6851 18.5943 59.3542 18.9351 58.7682 18.9351C58.4634 18.9351 58.1081 18.763 58.1081 18.2776C58.1081 18.0686 58.1799 17.8956 58.3221 17.7639C58.5808 17.5261 59.0639 17.4059 59.7605 17.4059L59.8327 17.4068L59.8336 18.0883ZM60.426 18.3913V16.9682C60.426 15.9664 59.9325 15.4373 58.9989 15.4373C58.6097 15.4373 58.1862 15.5488 57.8648 15.7373L57.8052 15.7724L58.0594 16.1905L58.1226 16.1531C58.3564 16.0149 58.653 15.9394 58.9591 15.9394H58.9731C59.2354 15.9394 59.4404 16.0064 59.5808 16.1385C59.7506 16.2986 59.8332 16.5497 59.8336 16.9051C58.9199 16.9081 58.2598 17.0948 57.8707 17.46C57.6246 17.6918 57.5 17.987 57.5 18.3381C57.5 18.8677 57.8846 19.4373 58.728 19.4373C59.3163 19.4373 59.6928 19.1673 59.8905 18.969L59.9312 19.3544H60.5L60.4806 19.2385C60.4318 18.9574 60.426 18.6656 60.426 18.3913Z" fill="#1E1E1E"/>
<mask id="mask0_650_14597" style="mask-type:alpha" maskUnits="userSpaceOnUse" x="-1" y="0" width="66" height="21">
<path d="M-0.5 20.9373H64.5V0.937256H-0.5V20.9373Z" fill="white"/>
</mask>
<g mask="url(#mask0_650_14597)">
<path fill-rule="evenodd" clip-rule="evenodd" d="M39.5 5.93726H44.5V5.43726H39.5V5.93726Z" fill="#1E1E1E"/>
<path fill-rule="evenodd" clip-rule="evenodd" d="M39.4654 7.43726H44.4654V6.93726H39.4654V7.43726Z" fill="#1E1E1E"/>
<path fill-rule="evenodd" clip-rule="evenodd" d="M40.0564 10.8946H43.9445V8.97988H40.0564V10.8946ZM39.5 11.4373H44.5V8.43726H39.5V11.4373Z" fill="#1E1E1E"/>
<path fill-rule="evenodd" clip-rule="evenodd" d="M38.2265 11.4373V4.81124C38.5207 4.16312 38.7788 3.47252 38.9945 2.75937L39 2.73899L38.488 2.43726L38.4791 2.46977C38.0189 4.12714 37.3563 5.6059 36.5089 6.86702L36.5 6.88046L36.8061 7.41804L36.829 7.38292C37.1096 6.95893 37.4004 6.47122 37.6725 5.96746V11.4373H38.2265Z" fill="#1E1E1E"/>
<path fill-rule="evenodd" clip-rule="evenodd" d="M42.7048 3.6522L42.6903 3.61461C42.6531 3.52206 42.5607 3.31487 42.4442 3.05318C42.3496 2.84036 42.245 2.6031 42.1955 2.48424L42.1771 2.43726L41.6503 2.76331L41.6695 2.80183C41.8386 3.14433 41.9853 3.46004 42.1184 3.76824C42.128 3.78938 42.1355 3.80817 42.1412 3.82368H39V4.43726H45.5V3.82368H42.4258L42.7048 3.6522Z" fill="#1E1E1E"/>
<path fill-rule="evenodd" clip-rule="evenodd" d="M32 3.16578H31.5213V4.89131H30.7562V2.43726H30.2771V4.89131H29.4783V3.16578H29V5.43726H32V3.16578Z" fill="#1E1E1E"/>
<path fill-rule="evenodd" clip-rule="evenodd" d="M28.9256 6.43726H31.9256V5.93726H28.9256V6.43726Z" fill="#1E1E1E"/>
<path fill-rule="evenodd" clip-rule="evenodd" d="M30.9254 9.72965L30.911 9.75259L31.2102 10.3204L31.2459 10.2889C31.4892 10.0752 31.9033 9.68645 32.4762 9.13304L32.5 9.10964L32.2493 8.63272L31.5766 9.26487V7.43726H29.2124V8.21608C29.2773 9.23202 29.0475 9.95731 28.5287 10.3721L28.5 10.3951L28.7622 10.8932L28.7852 10.9373L28.8209 10.9044C29.4833 10.3069 29.7952 9.46599 29.748 8.40505V7.98617H31.076V9.05835C31.0591 9.43629 31.0419 9.55147 30.9254 9.72965Z" fill="#1E1E1E"/>
<path fill-rule="evenodd" clip-rule="evenodd" d="M26.8094 5.4119C27.4832 4.65345 28.0644 3.73307 28.4901 2.75042L28.5 2.72774L28.0529 2.43726L28.0414 2.4635C27.626 3.41724 27.0978 4.24642 26.5138 4.86208L26.5 4.87676L26.7872 5.43726L26.8094 5.4119Z" fill="#1E1E1E"/>
<path fill-rule="evenodd" clip-rule="evenodd" d="M26.7673 7.88432L26.8001 7.83986C27.033 7.53249 27.261 7.20959 27.4786 6.87891V10.9373H27.9448V6.02416C28.1334 5.64384 28.3163 5.21905 28.4874 4.76189L28.5 4.72822L28.0536 4.43726L28.0372 4.48129C27.6508 5.5739 27.1396 6.53572 26.5172 7.33996L26.5 7.36284L26.7405 7.83425L26.7673 7.88432Z" fill="#1E1E1E"/>
<path fill-rule="evenodd" clip-rule="evenodd" d="M33.1848 5.13874C33.2274 5.00301 33.2811 4.86466 33.345 4.72719H34.5068C34.4147 6.23854 34.1821 7.45748 33.8143 8.35346C33.5309 7.54825 33.3187 6.46766 33.1848 5.13874ZM32.1098 6.18311L32.4247 6.76399L32.6524 6.27694C32.7122 6.16565 32.7634 6.06702 32.8048 5.98454C32.9461 7.23141 33.1873 8.23999 33.5215 8.98366C33.1926 9.5855 32.6889 10.2109 32.0238 10.8424L32 10.8651L32.2941 11.4071L32.3305 11.3718C33.0243 10.6787 33.5108 10.0691 33.777 9.558C34.0772 10.1149 34.572 10.7822 35.1404 11.398L35.1765 11.4373L35.4754 10.8869L35.4529 10.8642C34.8341 10.2349 34.3426 9.582 34.0666 9.02338C34.572 8.03356 34.8881 6.58811 35.0065 4.72719H35.5V4.19475H33.5153C33.6705 3.69635 33.8757 3.02731 33.9437 2.46824L33.947 2.43813L33.4494 2.43726H33.4289L33.4244 2.45864C33.1324 3.92024 32.6925 5.16885 32.118 6.16958L32.1098 6.18311Z" fill="#1E1E1E"/>
<path fill-rule="evenodd" clip-rule="evenodd" d="M52.414 6.41263C52.3232 6.64551 51.7511 7.97698 50.1784 9.12189C49.2388 8.3908 48.4535 7.43115 47.9632 6.41263H52.414ZM50.5135 2.43726H49.9511V3.72198H46V4.28167H49.9511V5.91528H47.389L47.3894 6.40484L47.3911 6.41566C47.3953 6.42475 47.7957 7.33116 48.5848 8.29946C48.9591 8.75916 49.3274 9.13661 49.741 9.4842C48.644 10.1647 47.5181 10.6031 46.2008 10.8629L46.1646 10.8702L46.4771 11.4204L46.4873 11.4373L46.5056 11.4334C46.5244 11.4295 48.3708 11.0204 50.1869 9.83005C50.2129 9.84693 50.2462 9.87074 50.2867 9.89888C50.6993 10.1898 51.7937 10.9607 53.6879 11.4191L53.7232 11.4269L53.9543 10.9806L53.9223 10.9719C53.9168 10.9702 53.366 10.8226 52.5466 10.501C52.0504 10.3071 51.3115 9.97333 50.5911 9.48203C51.7063 8.63753 52.5641 7.50127 53.0714 6.1949L53.0799 6.17326L52.6455 5.91831L52.6391 5.91528H50.5135V4.28167H54.5V3.72198H50.5135V2.43726Z" fill="#1E1E1E"/>
<path fill-rule="evenodd" clip-rule="evenodd" d="M57.4785 2.4702C57.0186 4.12706 56.3558 5.60618 55.5098 6.86681L55.5 6.88025L55.8063 7.41823L55.8293 7.38312C56.1102 6.95915 56.4004 6.47145 56.6728 5.96772V11.4373H57.2265V4.81156C57.5197 4.16521 57.7777 3.47463 57.9936 2.75935L58 2.73898L57.4874 2.43726L57.4785 2.4702Z" fill="#1E1E1E"/>
<path fill-rule="evenodd" clip-rule="evenodd" d="M62.6613 5.05974V2.93726H62.1096V5.05974H58V5.60533H62.1096V10.1832C62.1096 10.6601 61.8241 10.8921 61.2362 10.8921C61.1348 10.8921 61.04 10.8912 60.9482 10.8904L60.9221 10.89V11.4373H60.9482C61.1461 11.4373 61.2889 11.4356 61.3832 11.4356C61.8536 11.4356 62.1383 11.343 62.3661 11.1165C62.5741 10.9093 62.6735 10.5944 62.6613 10.1819V5.60533H64V5.05974H62.6613Z" fill="#1E1E1E"/>
<path fill-rule="evenodd" clip-rule="evenodd" d="M59.4834 6.46215L59.4718 6.43726L59 6.72755L59.0104 6.74991C59.2984 7.34316 59.6232 8.07059 59.9749 8.9111L59.9861 8.93726L60.5 8.62164L60.49 8.60012C60.224 8.02839 59.8756 7.28873 59.4834 6.46215Z" fill="#1E1E1E"/>
<path fill-rule="evenodd" clip-rule="evenodd" d="M8.1826 13.2721C8.08111 13.3226 7.96677 13.3516 7.84515 13.3516C7.56423 13.3516 7.31929 13.1993 7.19125 12.9743L7.14157 12.8691L5.09378 8.45408C5.07151 8.40613 5.05781 8.35187 5.05781 8.29887C5.05781 8.0957 5.22611 7.93081 5.43294 7.93081C5.51687 7.93081 5.59481 7.95815 5.65733 8.004L8.07425 9.69413C8.25069 9.8077 8.46137 9.87416 8.68876 9.87416C8.82408 9.87416 8.95298 9.84934 9.07331 9.80644L20.4389 4.83742C18.4018 2.4789 15.0462 0.937256 11.2496 0.937256C5.03597 0.937256 0 5.06036 0 10.1463C0 12.9213 1.51507 15.419 3.88703 17.1071C4.07717 17.2408 4.20135 17.46 4.20135 17.7073C4.20135 17.7889 4.1838 17.8638 4.16196 17.942C3.97268 18.6357 3.66949 19.7478 3.65536 19.7996C3.63181 19.8866 3.59455 19.9775 3.59455 20.0688C3.59455 20.2724 3.76285 20.4373 3.97011 20.4373C4.05147 20.4373 4.11785 20.4074 4.18637 20.3687L6.64911 18.9717C6.83496 18.867 7.03066 18.8018 7.24649 18.8018C7.36168 18.8018 7.47302 18.8191 7.57751 18.8506C8.72645 19.1753 9.96574 19.3554 11.2496 19.3554C17.4627 19.3554 22.5 15.2323 22.5 10.1463C22.5 8.60593 22.0354 7.15515 21.2179 5.87893L8.26439 13.2254L8.1826 13.2721Z" fill="#22AC38"/>
</g>
</g>
<defs>
<clipPath id="clip0_650_14597">
<rect width="64" height="20" fill="white" transform="translate(0 0.937256)"/>
</clipPath>
</defs>
</svg>
