<svg width="53" height="15" viewBox="0 0 53 15" fill="none" xmlns="http://www.w3.org/2000/svg">
<path d="M6.31916 0.937562H2.22328C1.94295 0.937562 1.7046 1.14077 1.66087 1.41691L0.00430112 11.8954C-0.0286467 12.1021 0.131895 12.2885 0.342077 12.2885H2.29752C2.5778 12.2885 2.81614 12.0854 2.85988 11.8088L3.30665 8.98259C3.3498 8.70588 3.58873 8.50271 3.86842 8.50271H5.16506C7.86312 8.50271 9.42026 7.20013 9.82696 4.61889C10.0102 3.48958 9.83472 2.6023 9.30467 1.9809C8.72254 1.29847 7.69003 0.937562 6.31916 0.937562ZM6.79171 4.7647C6.56771 6.231 5.44475 6.231 4.35893 6.231H3.74088L4.17447 3.49261C4.20025 3.32708 4.34395 3.20519 4.51167 3.20519H4.79492C5.53456 3.20519 6.23232 3.20519 6.59284 3.62579C6.80786 3.87679 6.87375 4.24962 6.79171 4.7647Z" fill="#283B82"/>
<path d="M18.5622 4.71791H16.6009C16.4338 4.71791 16.2895 4.83981 16.2636 5.00533L16.1769 5.55264L16.0397 5.35425C15.6151 4.73939 14.6682 4.53389 13.7231 4.53389C11.5557 4.53389 9.70447 6.17165 9.34394 8.46908C9.15651 9.61509 9.42302 10.7109 10.0746 11.4751C10.6723 12.1778 11.5275 12.4706 12.5451 12.4706C14.2915 12.4706 15.26 11.3503 15.26 11.3503L15.1725 11.894C15.1395 12.1019 15.3001 12.2884 15.5091 12.2884L17.2758 12.2884C17.5567 12.2884 17.7938 12.0852 17.8382 11.8086L18.8982 5.11106C18.9318 4.90491 18.7719 4.71791 18.5622 4.71791ZM15.8283 8.52645C15.6391 9.64435 14.7496 10.3949 13.6154 10.3949C13.0458 10.3949 12.5906 10.2126 12.2983 9.86724C12.0085 9.52427 11.8983 9.03611 11.9905 8.49235C12.1672 7.38399 13.0716 6.60906 14.1884 6.60906C14.7455 6.60906 15.1982 6.79367 15.4965 7.14196C15.7954 7.49389 15.9139 7.98507 15.8283 8.52645Z" fill="#283B82"/>
<path d="M29.0086 4.71772L27.0376 4.71772C26.8495 4.71772 26.6728 4.81093 26.5663 4.96692L23.8478 8.96186L22.6956 5.12285C22.6231 4.88262 22.4009 4.71772 22.1494 4.71772H20.2125C19.9771 4.71772 19.8137 4.94714 19.8885 5.16823L22.0595 11.5245L20.0185 14.3992C19.8579 14.6256 20.0196 14.937 20.297 14.937H22.2656C22.4524 14.937 22.6273 14.8461 22.7333 14.6932L29.2888 5.25253C29.4458 5.02662 29.2847 4.71772 29.0086 4.71772Z" fill="#283B82"/>
<path d="M35.534 0.937562H31.4375C31.1578 0.937562 30.9194 1.14077 30.8757 1.41691L29.2191 11.8954C29.1863 12.1021 29.3467 12.2885 29.5558 12.2885H31.6579C31.8531 12.2885 32.0203 12.1464 32.0508 11.9528L32.5209 8.98259C32.564 8.70588 32.803 8.50271 33.0827 8.50271H34.3788C37.0773 8.50271 38.6339 7.20013 39.0412 4.61889C39.2251 3.48958 39.0484 2.6023 38.5184 1.9809C37.9368 1.29847 36.9049 0.937562 35.534 0.937562ZM36.0066 4.7647C35.7832 6.231 34.6603 6.231 33.5738 6.231H32.9564L33.3906 3.49261C33.4163 3.32708 33.5588 3.20519 33.7271 3.20519H34.0104C34.7495 3.20519 35.4478 3.20519 35.8083 3.62579C36.0233 3.87679 36.0886 4.24962 36.0066 4.7647Z" fill="#469BDB"/>
<path d="M47.7771 4.71791H45.8169C45.6486 4.71791 45.5054 4.83981 45.4803 5.00533L45.3934 5.55264L45.2557 5.35425C44.8311 4.73939 43.8848 4.53389 42.9398 4.53389C40.7722 4.53389 38.9217 6.17165 38.5611 8.46908C38.3743 9.61509 38.6396 10.7109 39.2912 11.4751C39.8902 12.1778 40.7441 12.4706 41.7617 12.4706C43.5081 12.4706 44.4765 11.3503 44.4765 11.3503L44.389 11.894C44.3562 12.1019 44.5166 12.2884 44.7269 12.2884L46.4931 12.2884C46.7727 12.2884 47.0111 12.0852 47.0549 11.8086L48.1155 5.11106C48.1477 4.90491 47.9873 4.71791 47.7771 4.71791ZM45.043 8.52645C44.855 9.64435 43.9644 10.3949 42.8302 10.3949C42.2617 10.3949 41.8054 10.2126 41.5131 9.86724C41.2233 9.52427 41.1143 9.03611 41.2053 8.49235C41.3832 7.38399 42.2864 6.60906 43.4033 6.60906C43.9603 6.60906 44.413 6.79367 44.7113 7.14196C45.0113 7.49389 45.1299 7.98507 45.043 8.52645Z" fill="#469BDB"/>
<path d="M50.0895 1.22505L48.4083 11.8954C48.3754 12.1021 48.5359 12.2885 48.7449 12.2885H50.435C50.7159 12.2885 50.9543 12.0854 50.9974 11.8088L52.6551 1.33089C52.6881 1.12407 52.5276 0.937066 52.3186 0.937066H50.426C50.2589 0.937564 50.1152 1.05961 50.0895 1.22505Z" fill="#469BDB"/>
</svg>
