<svg width="130" height="25" viewBox="0 0 130 25" fill="none" xmlns="http://www.w3.org/2000/svg">
<g clip-path="url(#clip0_913_4400)">
<path fill-rule="evenodd" clip-rule="evenodd" d="M3.10752 0.192383H21.5079C23.2241 0.192383 24.6154 1.58366 24.6154 3.2999V21.7003C24.6154 23.4165 23.2241 24.8078 21.5079 24.8078H3.10752C1.39128 24.8078 0 23.4165 0 21.7003V3.2999C0 1.58366 1.39128 0.192383 3.10752 0.192383ZM5.66747 8.67164C4.0195 8.67164 2.79503 7.4373 2.79503 5.767C2.79503 4.18909 4.08312 2.90422 5.66103 2.90422H18.8994C20.4805 2.90422 21.7686 4.18587 21.7686 5.767C21.7686 7.34813 20.4805 8.63622 18.8962 8.63622L13.2672 8.67164H5.66747ZM17.3312 9.6087C18.9123 9.6087 20.1972 10.8968 20.1972 12.4779C20.1972 14.0558 18.9123 15.3407 17.3312 15.3407H12.3366C10.7555 15.3407 9.47059 14.059 9.47059 12.4779C9.47059 10.8968 10.7555 9.6087 12.3366 9.6087H17.3312ZM8.61077 12.739V12.491C8.61077 10.8713 7.29692 9.56062 5.68037 9.56062C4.06059 9.56062 2.74996 10.8745 2.74996 12.491V19.1537C2.74996 20.7799 4.06703 22.097 5.69325 22.097H18.9348C20.5546 22.097 21.8652 20.7831 21.8652 19.1665C21.8652 17.5468 20.5514 16.2361 18.9348 16.2361H12.1047C10.1938 16.2361 8.61077 14.6391 8.61077 12.739Z" fill="white"/>
<g clip-path="url(#clip1_913_4400)">
<path d="M51.161 14.1535H53.9279C53.5551 16.5163 51.8165 17.9968 49.1975 17.9968C46.151 17.9968 44.2999 16.057 44.2999 12.9408C44.2999 9.88403 46.2442 7.88477 49.2906 7.88477C51.9065 7.88477 53.5326 9.34539 53.9086 11.6916H51.161C50.936 10.7102 50.2836 10.0955 49.2553 10.0955C47.8735 10.0955 46.9929 11.2686 46.9929 12.9408C46.9929 14.6327 47.8702 15.786 49.2553 15.786C50.2836 15.786 50.9746 15.1515 51.161 14.1502V14.1535ZM64.8059 12.9441C64.8059 16.0008 62.807 18.0001 59.7412 18.0001C56.6755 18.0001 54.6734 15.981 54.6734 12.9441C54.6734 9.90716 56.6723 7.88807 59.738 7.88807C62.8038 7.88807 64.8027 9.90716 64.8059 12.9441ZM62.1322 12.9441C62.1322 11.272 61.2163 10.0988 59.738 10.0988C58.2598 10.0988 57.3632 11.272 57.3632 12.9441C57.3632 14.6162 58.2598 15.7893 59.738 15.7893C61.2163 15.7893 62.1322 14.6162 62.1322 12.9441ZM77.1043 7.88807C75.6453 7.88807 74.5238 8.50272 73.8521 9.56018C73.2544 8.31106 72.1521 7.86824 70.9727 7.88807C69.5716 7.9079 68.7297 8.46637 68.1512 9.23303L67.907 8.00373H65.6061V17.8844H68.2444V12.5013C68.2444 11.0208 68.99 10.1187 70.1308 10.1187C71.2716 10.1187 71.8147 10.8886 71.8147 12.3691V17.8844H74.4499V12.4814C74.4499 10.9811 75.2147 10.1187 76.3555 10.1187C77.4963 10.1187 78.0202 10.8886 78.0202 12.3691V17.8844H80.6553V12.2138C80.6553 9.04137 79.0838 7.88807 77.1011 7.88807H77.1043ZM93.4293 7.88807C91.9704 7.88807 90.8488 8.50272 90.1772 9.56018C89.5794 8.31106 88.4772 7.86824 87.2978 7.88807C85.8967 7.9079 85.0547 8.46637 84.4763 9.23303L84.232 8.00373H81.9311V17.8844H84.5695V12.5013C84.5695 11.0208 85.315 10.1187 86.4558 10.1187C87.5967 10.1187 88.1397 10.8886 88.1397 12.3691V17.8844H90.7749V12.4814C90.7749 10.9811 91.5397 10.1187 92.6806 10.1187C93.8214 10.1187 94.3452 10.8886 94.3452 12.3691V17.8844H96.9803V12.2138C96.9803 9.04137 95.4089 7.88807 93.4261 7.88807H93.4293ZM108.244 12.9639C108.244 16.0404 106.374 18.0001 103.796 18.0001C102.469 18.0001 101.515 17.4416 100.898 16.6353V21.7276H98.2626V8.00373H100.56L100.821 9.36852C101.438 8.52255 102.408 7.88807 103.774 7.88807C106.374 7.86824 108.241 9.84768 108.244 12.9639ZM105.57 12.9242C105.57 11.2521 104.635 10.0988 103.195 10.0988C101.756 10.0988 100.859 11.2521 100.859 12.9242C100.859 14.6162 101.756 15.7893 103.195 15.7893C104.635 15.7893 105.57 14.6162 105.57 12.9242ZM116.715 8.00373H119.016V17.8844H116.378V16.6353C115.761 17.4416 114.809 18.0001 113.482 18.0001C110.902 18.0001 109.035 16.0404 109.035 12.9639C109.035 9.85099 110.905 7.87155 113.505 7.88807C114.87 7.88807 115.841 8.52255 116.458 9.36852L116.715 8.00373ZM116.416 12.9242C116.416 11.2521 115.52 10.0988 114.08 10.0988C112.64 10.0988 111.705 11.2521 111.705 12.9242C111.705 14.6162 112.64 15.7893 114.08 15.7893C115.52 15.7893 116.416 14.6162 116.416 12.9242ZM127.182 8.00373L124.9 15.0392L122.564 8.00373H119.758L123.46 17.9439L123.216 18.5982C122.956 19.2723 122.731 19.4442 122.056 19.4442H120.597V21.7309H123.158C124.653 21.7309 125.141 20.9246 125.739 19.2888L130 8.00373H127.182ZM38.8368 7.88807C35.7904 7.88807 33.8461 9.88734 33.8461 12.9441C33.8461 16.057 35.6972 18.0001 38.7436 18.0001C41.2117 18.0001 42.8827 16.6716 43.3809 14.5402H40.5754C40.2958 15.3035 39.682 15.7893 38.8015 15.7893C37.4196 15.7893 36.5391 14.636 36.5391 12.9441C36.5391 11.272 37.4164 10.0988 38.8015 10.0988C39.7881 10.0988 40.524 10.5747 40.8325 11.5793C40.8518 11.652 40.8839 11.7115 40.8967 11.7908H37.8085C37.3329 11.7908 36.9472 12.1873 36.9472 12.6764C36.9472 13.1655 37.3329 13.562 37.8085 13.562H43.4773C43.5544 12.075 43.3905 11.4174 43.368 11.3347C42.886 9.2099 41.3113 7.88807 38.8368 7.88807Z" fill="white"/>
</g>
</g>
<defs>
<clipPath id="clip0_913_4400">
<rect width="130" height="24.6154" fill="white" transform="translate(0 0.192383)"/>
</clipPath>
<clipPath id="clip1_913_4400">
<rect width="96.1539" height="18.4615" fill="white" transform="translate(33.8461 3.26929)"/>
</clipPath>
</defs>
</svg>
