<svg width="68" height="12" viewBox="0 0 68 12" fill="none" xmlns="http://www.w3.org/2000/svg">
<path d="M59.484 5.05821C59.1222 5.32396 58.5972 5.45571 57.8787 5.45571H57.567H57.1662L57.7126 2.34458H57.9891H58.2365C58.8326 2.34458 59.2678 2.44601 59.5685 2.65113C59.8027 2.81207 60.0811 3.13097 60.0811 3.73583C60.0814 4.46533 59.7577 4.85759 59.484 5.05821ZM16.9845 8.96285H11.4708L11.8272 6.92931H15.2852L15.6782 4.639H12.2532L12.5844 2.62642H18.0882L16.9845 8.96285ZM62.4542 0.881089C61.6437 0.295318 60.4169 0 58.8084 0H54.5965L53.031 8.96322H47.513L47.8665 6.92968H51.1907L51.5858 4.64537L48.2641 4.65173L48.6195 2.6268H52.043L52.4985 0H45.5442L44.0582 8.50322H41.5083L43.0053 0H39.3699L37.8835 8.50322H35.3972L36.8959 0H33.264L31.6943 8.96322H26.1376L26.4876 6.92968H29.827L30.22 4.65847L26.8856 4.65547L27.2395 2.6268H30.701L31.1543 0H9.48996L8.25637 7.10336L5.79983 0H2.02948L0 11.5915H3.60102L4.82893 4.29278L7.2134 11.5915H20.1194L21.6885 2.62642H23.7077L22.1383 11.5915H56.0981L57.0817 5.93182L58.676 11.5915H62.2788L60.6281 6.96749L61.0055 6.88177C61.8358 6.69425 62.4858 6.29039 62.9362 5.68553C63.3878 5.07468 63.6175 4.29053 63.6175 3.34844C63.6175 2.25138 63.238 1.44478 62.4542 0.881089Z" fill="#8DC640"/>
<path d="M65.423 10.2205L65.9136 10.1935C66.0173 10.1887 66.0993 10.1718 66.1572 10.146C66.2143 10.1209 66.2576 10.0816 66.2857 10.0292C66.3134 9.97682 66.3268 9.92218 66.3229 9.86379C66.3183 9.77695 66.2857 9.70771 66.2239 9.65456C66.1621 9.60215 66.067 9.58082 65.9385 9.58681L65.3925 9.616L65.423 10.2205ZM65.2413 11.2498L65.1529 9.42661L65.9204 9.38619C66.0737 9.37795 66.1909 9.38768 66.2729 9.4165C66.3549 9.44458 66.4216 9.49922 66.4735 9.5797C66.5253 9.66017 66.5547 9.74925 66.5579 9.84994C66.565 9.97944 66.5299 10.0902 66.455 10.1838C66.3801 10.2763 66.2608 10.3395 66.0961 10.3725C66.1579 10.4005 66.2058 10.4275 66.2381 10.4555C66.308 10.5166 66.3751 10.5944 66.439 10.6884L66.7617 11.1686L66.4763 11.1835L66.2296 10.8167C66.1575 10.7104 66.0982 10.6296 66.0524 10.5742C66.0066 10.5188 65.9655 10.4806 65.9303 10.4589C65.8959 10.4372 65.859 10.423 65.8238 10.4155C65.7976 10.411 65.755 10.4106 65.696 10.414L65.4319 10.4278L65.4699 11.2386L65.2413 11.2498Z" fill="#8DC640"/>
<path d="M64.4924 10.3675C64.475 9.99018 64.5964 9.62861 64.8364 9.34902C65.0767 9.06867 65.4065 8.90323 65.7647 8.88414C66.5023 8.84372 67.1332 9.44446 67.1719 10.223C67.1729 10.2469 67.1743 10.2728 67.1743 10.2956C67.1743 11.0427 66.6163 11.6689 65.9006 11.7082C65.1619 11.7479 64.5311 11.1464 64.4924 10.3675ZM65.749 8.59332C65.3192 8.61765 64.9216 8.81602 64.6326 9.15401C64.3436 9.49162 64.196 9.9288 64.218 10.3836C64.2645 11.3212 65.0252 12.0447 65.9152 11.9979C66.8037 11.9496 67.4913 11.1468 67.4459 10.2091V10.2084C67.4008 9.26967 66.6404 8.54578 65.749 8.59332Z" fill="#8DC640"/>
</svg>
