<svg width="24" height="19" viewBox="0 0 24 19" fill="none" xmlns="http://www.w3.org/2000/svg">
<path fill-rule="evenodd" clip-rule="evenodd" d="M0.000484856 6.60915H23.9995C23.9937 3.63871 23.9186 2.07943 22.9456 1.08145C21.8912 0 20.1941 0 16.8 0H7.2C3.80589 0 2.10883 0 1.05442 1.08145C0.0813852 2.07943 0.00628173 3.63871 0.000484856 6.60915ZM24 8.15992H0V11.0769C0 14.5581 0 16.2986 1.05442 17.3801C2.10883 18.4615 3.80589 18.4615 7.2 18.4615H16.8C20.1941 18.4615 21.8912 18.4615 22.9456 17.3801C24 16.2986 24 14.5581 24 11.0769V8.15992ZM6 12.763C5.57177 12.763 5.22462 13.1101 5.22462 13.5384C5.22462 13.9666 5.57177 14.3138 6 14.3138H6.012C6.44023 14.3138 6.78739 13.9666 6.78739 13.5384C6.78739 13.1101 6.44023 12.763 6.012 12.763H6Z" fill="white"/>
</svg>
