<svg width="46" height="46" viewBox="0 0 46 46" fill="none" xmlns="http://www.w3.org/2000/svg">
<circle cx="23" cy="23" r="23" fill="#003B0A"/>
<path fill-rule="evenodd" clip-rule="evenodd" d="M31.6834 16.4632C32.0489 16.7578 32.1064 17.2929 31.8119 17.6584L22.0284 29.7981L22.0263 29.8007C21.7934 30.0874 21.4999 30.3189 21.1669 30.4787C20.8339 30.6385 20.4696 30.7225 20.1002 30.7247C19.7309 30.7269 19.3656 30.6473 19.0307 30.4915C18.6958 30.3357 18.3995 30.1077 18.1632 29.8238L18.1565 29.8157L15.19 26.1607C14.8942 25.7962 14.9499 25.2609 15.3144 24.9651C15.6789 24.6692 16.2142 24.7249 16.51 25.0894L19.4726 28.7396C19.5478 28.8289 19.6417 28.9008 19.7476 28.9501C19.8548 28.9999 19.9718 29.0254 20.09 29.0247C20.2083 29.024 20.3249 28.9971 20.4316 28.946C20.5378 28.895 20.6315 28.8212 20.7059 28.7299C20.7062 28.7296 20.7065 28.7292 20.7067 28.7289L30.4882 16.5917C30.7828 16.2262 31.3179 16.1687 31.6834 16.4632Z" fill="#00CC24" stroke="#00CC24" stroke-linecap="round" stroke-linejoin="round"/>
</svg>
