<svg width="46" height="20" viewBox="0 0 46 20" fill="none" xmlns="http://www.w3.org/2000/svg">
<path d="M8.8399 4.35876C10.1198 4.35876 11.1002 4.85369 11.7811 5.84354L11.7054 5.89083C11.655 5.92866 11.6014 5.96964 11.5447 6.01377C11.4879 6.0516 11.4154 6.10835 11.3272 6.184C11.2452 6.25336 11.1632 6.33532 11.0813 6.42989C10.9993 6.51816 10.911 6.61904 10.8165 6.73252C10.7282 6.8397 10.6462 6.9658 10.5706 7.11081C10.5012 7.24952 10.435 7.39768 10.372 7.5553C10.3152 7.70662 10.2679 7.88 10.2301 8.07545C10.1986 8.2709 10.1828 8.4695 10.1828 8.67125C10.1828 9.08737 10.2522 9.47512 10.3909 9.83449C10.5296 10.1876 10.6872 10.4713 10.8638 10.6856C11.0403 10.9 11.2357 11.0891 11.4501 11.2531C11.6645 11.417 11.8252 11.5273 11.9324 11.5841C12.0459 11.6408 12.1247 11.6755 12.1688 11.6881C12.1562 11.7385 12.1184 11.8489 12.0554 12.0191C11.9986 12.1893 11.8851 12.451 11.7149 12.8041C11.551 13.1571 11.365 13.4913 11.1569 13.8065C10.9552 14.0965 10.7881 14.3267 10.6557 14.4969C10.5233 14.6608 10.3562 14.8437 10.1545 15.0454C9.9527 15.2472 9.74149 15.3953 9.52082 15.4899C9.30646 15.5845 9.07949 15.6318 8.8399 15.6318C8.51205 15.6318 8.12431 15.534 7.67667 15.3386C7.22902 15.1431 6.8066 15.0454 6.4094 15.0454C6.00589 15.0454 5.56455 15.1463 5.08539 15.3481C4.60622 15.5498 4.22478 15.6507 3.94106 15.6507C3.52495 15.6507 3.14666 15.4962 2.8062 15.1873C2.47204 14.8783 2.08114 14.4055 1.6335 13.7687C1.17955 13.1193 0.804418 12.3501 0.508091 11.4611C0.21807 10.5658 0.0730591 9.68633 0.0730591 8.82257C0.0730591 8.12904 0.180241 7.4954 0.394605 6.92167C0.608968 6.34793 0.892685 5.88137 1.24575 5.522C1.59882 5.16262 1.99603 4.88521 2.43736 4.68976C2.8787 4.49431 3.3358 4.39659 3.80866 4.39659C4.16173 4.39659 4.60622 4.50377 5.14213 4.71813C5.68434 4.9325 6.04372 5.03968 6.22025 5.03968C6.37157 5.03968 6.7404 4.92619 7.32675 4.69922C7.9131 4.47225 8.41748 4.35876 8.8399 4.35876ZM8.31976 3.13878C8.06756 3.44141 7.74917 3.6936 7.36458 3.89536C6.98629 4.09711 6.63007 4.19799 6.29591 4.19799C6.22656 4.19799 6.16036 4.19168 6.09731 4.17907C6.0784 4.10341 6.06894 4.01199 6.06894 3.90481C6.06894 3.54544 6.14775 3.18606 6.30537 2.82669C6.46299 2.46731 6.65529 2.15523 6.88226 1.89042C7.15337 1.57518 7.49067 1.31353 7.89418 1.10547C8.304 0.891111 8.69489 0.777624 9.06688 0.765015C9.08579 0.846977 9.09525 0.944702 9.09525 1.05819C9.09525 1.80846 8.83675 2.50199 8.31976 3.13878Z" fill="white"/>
<path d="M15.8863 1.83368H21.3904C22.7523 1.83368 23.8556 2.25926 24.7005 3.11041C25.5516 3.96156 25.9772 5.07436 25.9772 6.44881C25.9772 7.79804 25.539 8.89507 24.6626 9.73992C23.7926 10.5848 22.6672 11.0072 21.2864 11.0072H18.3263V15.4805H15.8863V1.83368ZM18.3263 3.87644V8.98334H20.7379C21.6143 8.98334 22.292 8.76267 22.7712 8.32134C23.2567 7.88 23.4994 7.25582 23.4994 6.44881C23.4994 5.61657 23.2598 4.97978 22.7806 4.53845C22.3078 4.09711 21.63 3.87644 20.7473 3.87644H18.3263Z" fill="white"/>
<path d="M30.5553 13.8065C31.2614 13.8065 31.8509 13.6048 32.3238 13.2013C32.7966 12.7914 33.0331 12.2871 33.0331 11.6881V10.8653L30.6971 11.0166C29.4109 11.0986 28.7679 11.5652 28.7679 12.4163C28.7679 12.845 28.9318 13.1855 29.2596 13.4377C29.5938 13.6836 30.0257 13.8065 30.5553 13.8065ZM29.8649 15.6507C28.8561 15.6507 28.0333 15.367 27.3966 14.7995C26.7598 14.2321 26.4414 13.4818 26.4414 12.5487C26.4414 11.6156 26.7787 10.8842 27.4533 10.3546C28.1342 9.82503 29.1052 9.5224 30.3661 9.44674L33.0331 9.28597V8.41591C33.0331 7.90522 32.866 7.51432 32.5318 7.24321C32.1977 6.97211 31.7154 6.83655 31.0849 6.83655C30.5427 6.83655 30.095 6.93112 29.7419 7.12027C29.3889 7.30311 29.1588 7.56791 29.0516 7.91467H26.8386C26.9332 7.00048 27.3745 6.27542 28.1626 5.73951C28.957 5.1973 29.9689 4.92619 31.1984 4.92619C32.5224 4.92619 33.5438 5.23198 34.2625 5.84354C34.9876 6.45511 35.3501 7.31256 35.3501 8.41591V15.4805H33.0898V14.0619H32.929C32.639 14.5599 32.2229 14.9508 31.6807 15.2346C31.1448 15.512 30.5395 15.6507 29.8649 15.6507Z" fill="white"/>
<path d="M37.9611 19.235C37.4756 19.235 37.1667 19.2224 37.0343 19.1971V17.2773C37.1541 17.3025 37.3684 17.3152 37.6774 17.3152C38.1754 17.3152 38.5695 17.2111 38.8595 17.0031C39.1558 16.795 39.3797 16.4545 39.531 15.9817L39.6539 15.5277L35.9561 5.13425H38.5285L40.9496 13.2107H41.1103L43.5219 5.13425H45.9997L42.2641 15.8115C41.8291 17.0913 41.2932 17.9803 40.6564 18.4784C40.0259 18.9828 39.1275 19.235 37.9611 19.235Z" fill="white"/>
</svg>
