<svg width="37" height="26" viewBox="0 0 37 26" fill="none" xmlns="http://www.w3.org/2000/svg">
<g clip-path="url(#clip0_650_14331)">
<path d="M36.7835 23.7664C36.7835 24.9959 35.7796 25.9998 34.5501 25.9998H2.23341C1.0039 25.9998 0 24.9959 0 23.7664V2.23316C0 1.00366 1.0039 -0.000244141 2.23341 -0.000244141H34.5388C35.7683 -0.000244141 36.7722 1.00366 36.7722 2.23316V23.7664H36.7835Z" fill="white"/>
<path d="M29.5537 7.26391H28.2226H22.0639H20.7328L19.8304 8.2791L16.9203 11.5615L16.0179 12.5767H14.6868H8.64086H7.30984L8.18967 11.5502L8.60702 11.0652L9.48685 10.0388H8.15583H6.44129H5.48251C4.74932 10.0388 4.15149 10.6591 4.15149 11.4036V14.0431V14.2912C4.15149 15.047 4.74932 15.6561 5.48251 15.6561H5.85474H19.8417H20.8456C21.5788 15.6561 22.5827 15.1936 23.0678 14.6409L25.3914 12.0014L29.5537 7.26391Z" fill="#004E91"/>
<path d="M31.3243 4.18457C32.0575 4.18457 32.6553 4.80496 32.6553 5.54943V8.43707C32.6553 9.19282 32.0575 9.80193 31.3243 9.80193H30.6024H28.651H27.32L28.2111 8.78674L28.651 8.27915L29.5421 7.26396H20.7213L16.0176 12.5655H7.25317L13.536 5.45919L13.7729 5.18848C14.2692 4.63577 15.2731 4.17329 16.0063 4.17329H16.3109H31.3243V4.18457Z" fill="#FFDD00"/>
<path d="M32.6549 21.7022V21.2848C32.6549 21.2284 32.621 21.1946 32.5421 21.1946H32.2714C32.1924 21.1946 32.136 21.1833 32.1247 21.1495C32.1022 21.1156 32.1022 21.048 32.1022 20.9352V19.356H32.5421C32.5759 19.356 32.5985 19.3447 32.621 19.3221C32.6436 19.2996 32.6549 19.277 32.6549 19.2432V18.8033C32.6549 18.7694 32.6436 18.7469 32.621 18.7243C32.5985 18.7017 32.5759 18.6905 32.5421 18.6905H32.1022V18.1152C32.1022 18.0814 32.0909 18.0588 32.0796 18.0475C32.057 18.0362 32.0345 18.025 32.0119 18.025H32.0006L31.3464 18.1378C31.3126 18.149 31.29 18.1603 31.2675 18.1716C31.2449 18.1942 31.2336 18.2167 31.2336 18.2393V18.6792H30.7937C30.7599 18.6792 30.7373 18.6905 30.7147 18.713C30.6922 18.7356 30.6809 18.7581 30.6809 18.792V19.1529C30.6809 19.1868 30.6922 19.2093 30.7147 19.2206C30.7373 19.2432 30.7599 19.2545 30.7937 19.2657L31.2336 19.3334V20.9126C31.2336 21.1044 31.2562 21.2623 31.29 21.3863C31.3351 21.5104 31.3915 21.6007 31.4592 21.6683C31.5382 21.736 31.6284 21.7811 31.7412 21.8037C31.854 21.8263 31.9894 21.8375 32.136 21.8375C32.215 21.8375 32.2826 21.8375 32.3503 21.8263C32.4067 21.815 32.4857 21.8037 32.5646 21.7924C32.621 21.7924 32.6549 21.7586 32.6549 21.7022ZM30.3087 21.6458V21.1608C30.3087 21.1269 30.2974 21.1044 30.2748 21.0931C30.2523 21.0818 30.2297 21.0705 30.2072 21.0705H30.1959C30.0944 21.0818 29.9928 21.0931 29.9026 21.0931C29.8124 21.1044 29.6883 21.1044 29.5304 21.1044C29.474 21.1044 29.4063 21.0931 29.3612 21.0705C29.3048 21.048 29.2596 21.0141 29.2145 20.969C29.1694 20.9239 29.1469 20.8562 29.1243 20.7772C29.1017 20.6983 29.0905 20.5968 29.0905 20.4727V20.0215C29.0905 19.8974 29.1017 19.7959 29.1243 19.7169C29.1469 19.638 29.1807 19.5703 29.2145 19.5252C29.2596 19.4801 29.3048 19.4462 29.3612 19.4237C29.4176 19.4011 29.474 19.3898 29.5304 19.3898C29.6883 19.3898 29.8124 19.3898 29.9026 19.4011C29.9928 19.4124 30.0944 19.4124 30.1959 19.4237H30.2072C30.241 19.4237 30.2636 19.4124 30.2748 19.4011C30.2974 19.3898 30.3087 19.3673 30.3087 19.3334V18.8484C30.3087 18.8033 30.2974 18.7807 30.2861 18.7694C30.2636 18.7581 30.241 18.7356 30.1959 18.7243C30.1169 18.7017 30.0267 18.6905 29.9026 18.6679C29.7785 18.6453 29.6432 18.6453 29.474 18.6453C29.0905 18.6453 28.7859 18.7581 28.549 18.995C28.3234 19.2319 28.1993 19.5703 28.1993 20.0215V20.4727C28.1993 20.9126 28.3121 21.2623 28.549 21.4991C28.7746 21.736 29.0905 21.8488 29.474 21.8488C29.6319 21.8488 29.7785 21.8375 29.9026 21.8263C30.0267 21.8037 30.1282 21.7924 30.1959 21.7699C30.241 21.7586 30.2636 21.7473 30.2861 21.7247C30.3087 21.7135 30.3087 21.6796 30.3087 21.6458ZM26.7781 21.0705C26.7104 21.1044 26.6427 21.1269 26.5638 21.1495C26.4848 21.172 26.4059 21.1833 26.3269 21.1833C26.2141 21.1833 26.1239 21.172 26.0675 21.1382C26.0111 21.1044 25.9885 21.0367 25.9885 20.9126V20.8675C25.9885 20.7998 25.9998 20.7434 26.0111 20.6983C26.0223 20.6532 26.0562 20.608 26.09 20.5742C26.1239 20.5404 26.1803 20.5178 26.2367 20.4952C26.2931 20.484 26.372 20.4727 26.4735 20.4727H26.7781V21.0705V21.0705ZM27.6354 19.7508C27.6354 19.5477 27.6015 19.3785 27.5451 19.2432C27.4887 19.1078 27.3985 18.995 27.297 18.9048C27.1842 18.8145 27.0601 18.7469 26.9022 18.713C26.7442 18.6679 26.5638 18.6453 26.372 18.6453C26.1915 18.6453 26.0111 18.6566 25.8419 18.6792C25.6727 18.7017 25.5373 18.7243 25.4358 18.7581C25.3681 18.7807 25.3343 18.8145 25.3343 18.8822V19.3221C25.3343 19.356 25.3455 19.3785 25.3568 19.4011C25.3794 19.4124 25.4019 19.4237 25.4245 19.4237H25.4471C25.4922 19.4237 25.5486 19.4124 25.605 19.4124C25.6727 19.4124 25.7403 19.4011 25.8193 19.4011C25.8983 19.4011 25.9885 19.3898 26.0787 19.3898C26.169 19.3898 26.2592 19.3898 26.3382 19.3898C26.4623 19.3898 26.5638 19.4124 26.6315 19.4575C26.6991 19.5026 26.7442 19.6041 26.7442 19.7621V19.9538H26.451C25.9885 19.9538 25.6388 20.0215 25.4358 20.1681C25.2215 20.3148 25.12 20.5516 25.12 20.8675V20.9126C25.12 21.0931 25.1425 21.2397 25.1989 21.3525C25.2553 21.4766 25.323 21.5668 25.4132 21.6458C25.5035 21.7135 25.5937 21.7699 25.7065 21.8037C25.8193 21.8375 25.9321 21.8488 26.0562 21.8488C26.2141 21.8488 26.3607 21.8263 26.4735 21.7811C26.5863 21.736 26.6991 21.6796 26.8119 21.6007V21.6909C26.8119 21.7247 26.8232 21.7473 26.8458 21.7699C26.8683 21.7924 26.8909 21.8037 26.9247 21.8037H27.5338C27.5677 21.8037 27.5902 21.7924 27.6128 21.7699C27.6354 21.7473 27.6466 21.7247 27.6466 21.6909V19.7508H27.6354ZM24.7364 21.7022V21.2848C24.7364 21.2284 24.7026 21.1946 24.6236 21.1946H24.3642C24.2852 21.1946 24.2288 21.1833 24.2176 21.1495C24.195 21.1156 24.195 21.048 24.195 20.9352V19.356H24.6349C24.6688 19.356 24.6913 19.3447 24.7139 19.3221C24.7364 19.2996 24.7477 19.277 24.7477 19.2432V18.8033C24.7477 18.7694 24.7364 18.7469 24.7139 18.7243C24.6913 18.7017 24.6688 18.6905 24.6349 18.6905H24.195V18.1152C24.195 18.0814 24.1837 18.0588 24.1724 18.0475C24.1499 18.0362 24.1273 18.025 24.1048 18.025H24.0935L23.4393 18.1378C23.4054 18.149 23.3829 18.1603 23.3603 18.1716C23.3377 18.1942 23.3265 18.2167 23.3265 18.2393V18.6792H22.8865C22.8527 18.6792 22.8301 18.6905 22.8076 18.713C22.785 18.7356 22.7737 18.7581 22.7737 18.792V19.1529C22.7737 19.1868 22.785 19.2093 22.8076 19.2206C22.8301 19.2432 22.8527 19.2545 22.8865 19.2657L23.3265 19.3334V20.9126C23.3265 21.1044 23.349 21.2623 23.3829 21.3863C23.428 21.5104 23.4844 21.6007 23.5521 21.6683C23.6197 21.736 23.7213 21.7811 23.8341 21.8037C23.9469 21.8263 24.0822 21.8375 24.2288 21.8375C24.3078 21.8375 24.3755 21.8375 24.4432 21.8263C24.4996 21.815 24.5785 21.8037 24.6575 21.7924C24.7026 21.7924 24.7364 21.7586 24.7364 21.7022ZM22.3677 21.6909V19.8861C22.3677 19.7169 22.3564 19.559 22.3226 19.4011C22.3 19.2545 22.2436 19.1191 22.1759 19.0063C22.1082 18.8935 22.0067 18.8033 21.8826 18.7469C21.7586 18.6792 21.6006 18.6453 21.3976 18.6453C21.2284 18.6453 21.0705 18.6679 20.9351 18.713C20.7998 18.7581 20.6644 18.8258 20.5065 18.9386V18.8033C20.5065 18.7694 20.4952 18.7469 20.4727 18.7243C20.4501 18.7017 20.4275 18.6905 20.3937 18.6905H19.7846C19.7508 18.6905 19.7282 18.7017 19.7056 18.7243C19.6831 18.7469 19.6718 18.7694 19.6718 18.8033V21.6909C19.6718 21.7247 19.6831 21.7473 19.7056 21.7699C19.7282 21.7924 19.7508 21.8037 19.7846 21.8037H20.4388C20.4727 21.8037 20.4952 21.7924 20.5178 21.7699C20.5403 21.7473 20.5516 21.7247 20.5516 21.6909V19.559C20.6419 19.5139 20.7321 19.4688 20.8223 19.4349C20.9013 19.4011 20.9915 19.3898 21.0705 19.3898C21.1495 19.3898 21.2171 19.4011 21.2735 19.4124C21.3299 19.4237 21.3638 19.4575 21.3976 19.4913C21.4314 19.5365 21.4427 19.5816 21.454 19.6493C21.4653 19.7169 21.4653 19.7959 21.4653 19.8861V21.6909C21.4653 21.7247 21.4766 21.7473 21.4991 21.7699C21.5217 21.7924 21.5442 21.8037 21.5781 21.8037H22.2323C22.2662 21.8037 22.2887 21.7924 22.3113 21.7699C22.3564 21.7473 22.3677 21.7135 22.3677 21.6909ZM18.2618 20.4388C18.2618 20.8788 18.1039 21.1044 17.7768 21.1044C17.6189 21.1044 17.4948 21.048 17.4158 20.9352C17.3369 20.8224 17.2918 20.6532 17.2918 20.4388V20.0553C17.2918 19.8297 17.3369 19.6718 17.4158 19.559C17.4948 19.4462 17.6189 19.3898 17.7768 19.3898C18.0926 19.3898 18.2618 19.6154 18.2618 20.0553V20.4388ZM19.1416 20.0553C19.1416 19.841 19.1078 19.638 19.0514 19.4688C18.995 19.2996 18.9048 19.1529 18.792 19.0289C18.6792 18.9048 18.5325 18.8145 18.3633 18.7469C18.1941 18.6792 18.0024 18.6453 17.7768 18.6453C17.5512 18.6453 17.3594 18.6792 17.1902 18.7469C17.021 18.8145 16.8744 18.9048 16.7616 19.0289C16.6488 19.1529 16.5586 19.2996 16.5022 19.4688C16.4458 19.638 16.4119 19.841 16.4119 20.0553V20.4388C16.4119 20.6532 16.4458 20.8562 16.5022 21.0254C16.5586 21.1946 16.6488 21.3412 16.7616 21.4653C16.8744 21.5894 17.021 21.6796 17.1902 21.7473C17.3594 21.815 17.5512 21.8488 17.7768 21.8488C18.0024 21.8488 18.1941 21.815 18.3633 21.7473C18.5325 21.6796 18.6792 21.5894 18.792 21.4653C18.9048 21.3412 18.995 21.1946 19.0514 21.0254C19.1078 20.8562 19.1416 20.6532 19.1416 20.4388V20.0553ZM16.1187 21.6458V21.1608C16.1187 21.1269 16.1074 21.1044 16.0848 21.0931C16.0623 21.0818 16.0397 21.0705 16.0059 21.0705H15.9946C15.8931 21.0818 15.7915 21.0931 15.7013 21.0931C15.6111 21.0931 15.487 21.1044 15.3291 21.1044C15.2727 21.1044 15.205 21.0931 15.1599 21.0705C15.1035 21.048 15.0583 21.0141 15.0132 20.969C14.9681 20.9239 14.9456 20.8562 14.923 20.7772C14.9004 20.6983 14.8892 20.5968 14.8892 20.4727V20.0215C14.8892 19.8974 14.9004 19.7959 14.923 19.7169C14.9456 19.638 14.9794 19.5703 15.0132 19.5252C15.0583 19.4801 15.1035 19.4462 15.1599 19.4237C15.2163 19.4011 15.2727 19.3898 15.3291 19.3898C15.487 19.3898 15.6111 19.3898 15.7013 19.4011C15.7915 19.4124 15.8931 19.4124 15.9946 19.4237H16.0059C16.0397 19.4237 16.0623 19.4124 16.0848 19.4011C16.1074 19.3898 16.1187 19.3673 16.1187 19.3334V18.8484C16.1187 18.8033 16.1074 18.7807 16.0961 18.7694C16.0735 18.7581 16.051 18.7356 16.0059 18.7243C15.9269 18.7017 15.8367 18.6905 15.7126 18.6679C15.5885 18.6453 15.4531 18.6453 15.2839 18.6453C14.9004 18.6453 14.5959 18.7581 14.359 18.995C14.1334 19.2319 14.0093 19.5703 14.0093 20.0215V20.4727C14.0093 20.9126 14.1221 21.2623 14.359 21.4991C14.5846 21.736 14.9004 21.8488 15.2839 21.8488C15.4419 21.8488 15.5885 21.8375 15.7126 21.8263C15.8367 21.8037 15.9269 21.7924 16.0059 21.7699C16.051 21.7586 16.0735 21.7473 16.0961 21.7247C16.1187 21.7135 16.1187 21.6796 16.1187 21.6458ZM13.4566 21.6909V19.8861C13.4566 19.7169 13.4453 19.559 13.4115 19.4011C13.3889 19.2545 13.3325 19.1191 13.2649 19.0063C13.1972 18.8935 13.0957 18.8033 12.9716 18.7469C12.8475 18.6792 12.6896 18.6453 12.4865 18.6453C12.3174 18.6453 12.1594 18.6679 12.0241 18.713C11.8887 18.7581 11.7534 18.8258 11.5954 18.9386V18.8033C11.5954 18.7694 11.5842 18.7469 11.5616 18.7243C11.539 18.7017 11.5165 18.6905 11.4826 18.6905H10.8735C10.8397 18.6905 10.8171 18.7017 10.7946 18.7243C10.772 18.7469 10.7607 18.7694 10.7607 18.8033V21.6909C10.7607 21.7247 10.772 21.7473 10.7946 21.7699C10.8171 21.7924 10.8397 21.8037 10.8735 21.8037H11.5278C11.5616 21.8037 11.5842 21.7924 11.6067 21.7699C11.6293 21.7473 11.6406 21.7247 11.6406 21.6909V19.559C11.7308 19.5139 11.821 19.4688 11.9113 19.4349C11.9902 19.4011 12.0805 19.3898 12.1594 19.3898C12.2384 19.3898 12.3061 19.4011 12.3625 19.4124C12.4189 19.4237 12.4527 19.4575 12.4865 19.4913C12.5204 19.5365 12.5317 19.5816 12.5429 19.6493C12.5542 19.7169 12.5542 19.7959 12.5542 19.8861V21.6909C12.5542 21.7247 12.5655 21.7473 12.5881 21.7699C12.6106 21.7924 12.6332 21.8037 12.667 21.8037H13.3213C13.3551 21.8037 13.3777 21.7924 13.4002 21.7699C13.4341 21.7473 13.4566 21.7135 13.4566 21.6909ZM9.26052 21.0705C9.19284 21.1044 9.12516 21.1269 9.0462 21.1495C8.96724 21.172 8.88828 21.1833 8.80932 21.1833C8.69653 21.1833 8.60629 21.172 8.54989 21.1382C8.49349 21.1044 8.47093 21.0367 8.47093 20.9126V20.8675C8.47093 20.7998 8.48221 20.7434 8.49349 20.6983C8.50477 20.6532 8.53861 20.608 8.57245 20.5742C8.60629 20.5404 8.66269 20.5178 8.71909 20.4952C8.77549 20.484 8.85444 20.4727 8.95596 20.4727H9.26052V21.0705ZM10.1291 19.7508C10.1291 19.5477 10.0952 19.3785 10.0388 19.2432C9.98243 19.1078 9.89219 18.995 9.79067 18.9048C9.67787 18.8145 9.55379 18.7469 9.39588 18.713C9.23796 18.6679 9.05748 18.6453 8.86572 18.6453C8.68525 18.6453 8.50477 18.6566 8.33557 18.6792C8.16638 18.7017 8.03102 18.7243 7.9295 18.7581C7.86182 18.7807 7.82798 18.8145 7.82798 18.8822V19.3221C7.82798 19.356 7.83926 19.3785 7.85054 19.4011C7.8731 19.4124 7.89566 19.4237 7.91822 19.4237H7.94078C7.9859 19.4237 8.0423 19.4124 8.0987 19.4124C8.16638 19.4124 8.23405 19.4011 8.32429 19.4011C8.40325 19.4011 8.49349 19.3898 8.58373 19.3898C8.67397 19.3898 8.76421 19.3898 8.84316 19.3898C8.96724 19.3898 9.06876 19.4124 9.13644 19.4575C9.20412 19.5026 9.24924 19.6041 9.24924 19.7621V19.9538H8.95596C8.49349 19.9538 8.14382 20.0215 7.94078 20.1681C7.73774 20.3148 7.62494 20.5516 7.62494 20.8675V20.9126C7.62494 21.0931 7.6475 21.2397 7.7039 21.3525C7.7603 21.4766 7.82798 21.5668 7.91822 21.6458C8.00846 21.7135 8.0987 21.7699 8.21149 21.8037C8.32429 21.8375 8.43709 21.8488 8.56117 21.8488C8.71909 21.8488 8.86572 21.8263 8.97852 21.7811C9.09132 21.736 9.20412 21.6796 9.31692 21.6007V21.6909C9.31692 21.7247 9.3282 21.7473 9.35076 21.7699C9.37332 21.7924 9.39588 21.8037 9.42972 21.8037H10.0388C10.0727 21.8037 10.0952 21.7924 10.1178 21.7699C10.1403 21.7473 10.1516 21.7247 10.1516 21.6909V19.7508H10.1291ZM6.2488 20.608C6.2488 20.7547 6.19241 20.8788 6.09089 20.9577C5.98937 21.0367 5.78633 21.0818 5.51562 21.0818H5.42538C5.38026 21.0818 5.33514 21.0818 5.29002 21.0818C5.2449 21.0818 5.19978 21.0818 5.15466 21.0818H5.06442V20.0666H5.67353C5.88785 20.0666 6.04577 20.1117 6.12473 20.2132C6.20369 20.3148 6.2488 20.4276 6.2488 20.5516V20.608ZM6.22624 18.995C6.22624 19.0514 6.21497 19.1078 6.20369 19.1642C6.18113 19.2206 6.15857 19.2657 6.11345 19.2996C6.06833 19.3334 6.01193 19.3673 5.94425 19.3898C5.87657 19.4124 5.78633 19.4237 5.67353 19.4237H5.06442V18.4874C5.08698 18.4874 5.10954 18.4874 5.14338 18.4874C5.17722 18.4874 5.22234 18.4874 5.26746 18.4874H5.39154H5.48178C5.76377 18.4874 5.95553 18.5213 6.06833 18.5889C6.18113 18.6566 6.23752 18.7694 6.23752 18.9161V18.995H6.22624ZM7.15119 20.5516C7.15119 20.3599 7.10607 20.202 7.01583 20.0666C6.92559 19.9312 6.8128 19.8185 6.66616 19.7508C6.8128 19.6831 6.92559 19.5703 7.00455 19.4349C7.08351 19.2883 7.12863 19.1304 7.12863 18.9612V18.8597C7.12863 18.6453 7.08351 18.4649 7.00455 18.3182C6.92559 18.1716 6.80152 18.0588 6.65488 17.9686C6.50824 17.8783 6.32776 17.8219 6.11345 17.7768C5.89913 17.743 5.67353 17.7204 5.4141 17.7204C5.32386 17.7204 5.23362 17.7204 5.14338 17.7204C5.05314 17.7204 4.9629 17.7317 4.87267 17.7317C4.78243 17.7317 4.70347 17.743 4.62451 17.7542C4.54555 17.7655 4.48915 17.7655 4.44403 17.7768C4.34251 17.7994 4.26356 17.8219 4.21844 17.8783C4.17332 17.9234 4.15076 18.0137 4.15076 18.1378V21.4315C4.15076 21.5555 4.17332 21.6345 4.21844 21.6909C4.26356 21.736 4.34251 21.7699 4.44403 21.7924C4.50043 21.8037 4.56811 21.815 4.63579 21.815C4.71475 21.8263 4.79371 21.8263 4.88395 21.8375C4.97418 21.8375 5.06442 21.8488 5.15466 21.8488C5.2449 21.8488 5.34642 21.8488 5.43666 21.8488C5.67353 21.8488 5.89913 21.8263 6.10217 21.7924C6.3052 21.7586 6.49696 21.6909 6.6436 21.6007C6.80152 21.5104 6.91431 21.3863 7.01583 21.2284C7.10607 21.0705 7.15119 20.8675 7.15119 20.6306V20.5516V20.5516Z" fill="#004E91"/>
</g>
<defs>
<clipPath id="clip0_650_14331">
<rect width="36.7835" height="26" fill="white" transform="translate(0 -0.000244141)"/>
</clipPath>
</defs>
</svg>
