<svg width="21" height="21" viewBox="0 0 21 21" fill="none" xmlns="http://www.w3.org/2000/svg">
<path d="M17.0625 15.9688C16.1923 15.9688 15.3577 15.623 14.7423 15.0077C14.127 14.3923 13.7812 13.5577 13.7812 12.6875C13.7812 11.8173 14.127 10.9827 14.7423 10.3673C15.3577 9.75195 16.1923 9.40625 17.0625 9.40625H19.04C19.0965 9.40399 19.1499 9.37995 19.1891 9.33917C19.2282 9.29839 19.25 9.24403 19.25 9.1875V7C19.25 6.41984 19.0195 5.86344 18.6093 5.4532C18.1991 5.04297 17.6427 4.8125 17.0625 4.8125H2.1875C1.60805 4.8148 1.05299 5.04601 0.643249 5.45575C0.233512 5.86549 0.00230401 6.42055 0 7V18.375C0.00230401 18.9545 0.233512 19.5095 0.643249 19.9193C1.05299 20.329 1.60805 20.5602 2.1875 20.5625H17.0625C17.6427 20.5625 18.1991 20.332 18.6093 19.9218C19.0195 19.5116 19.25 18.9552 19.25 18.375V16.1875C19.25 16.131 19.2282 16.0766 19.1891 16.0358C19.1499 15.9951 19.0965 15.971 19.04 15.9688H17.0625Z" fill="#00579E"/>
<path d="M19.6875 10.7188H17.0625C16.5404 10.7188 16.0396 10.9262 15.6704 11.2954C15.3012 11.6646 15.0938 12.1654 15.0938 12.6875C15.0938 13.2096 15.3012 13.7104 15.6704 14.0796C16.0396 14.4488 16.5404 14.6562 17.0625 14.6562H19.6875C19.9973 14.6043 20.2784 14.4436 20.4805 14.203C20.6825 13.9625 20.7923 13.6579 20.79 13.3438V12.0312C20.7923 11.7171 20.6825 11.4125 20.4805 11.172C20.2784 10.9314 19.9973 10.7707 19.6875 10.7188Z" fill="#00579E"/>
<path d="M17.2287 0.8139C17.1957 0.675875 17.1354 0.545881 17.0512 0.431642C16.967 0.317403 16.8607 0.221251 16.7387 0.1489C16.4904 0.00342643 16.1946 -0.0374899 15.9162 0.0351501L4.65492 3.0714C4.60872 3.0833 4.56794 3.11059 4.53931 3.14876C4.51069 3.18693 4.49591 3.23371 4.49742 3.2814C4.50366 3.33328 4.52827 3.38121 4.56679 3.41652C4.60531 3.45183 4.65519 3.47218 4.70742 3.4739H17.6312C17.6638 3.47322 17.6958 3.46497 17.7246 3.44978C17.7535 3.43459 17.7784 3.41289 17.7974 3.3864C17.8218 3.35634 17.837 3.31988 17.8412 3.2814L17.2287 0.8139Z" fill="#00579E"/>
</svg>
