<svg width="53" height="22" viewBox="0 0 53 22" fill="none" xmlns="http://www.w3.org/2000/svg">
<path d="M0.0614624 21.4482V19.5735H1.45136V19.8906H0.439876V20.3062H1.38102V20.6222H0.439876V21.1322H1.48709V21.4482H0.0614624Z" fill="#10298E"/>
<path d="M1.8244 19.5735H2.18363V19.9056H1.8244V19.5735ZM1.8244 20.0903H2.18363V21.4482H1.8244V20.0903Z" fill="#10298E"/>
<path d="M3.80592 21.4488H3.44669V20.7556C3.44669 20.6089 3.43917 20.5141 3.42375 20.4708C3.40833 20.4279 3.3835 20.3948 3.34889 20.3708C3.31429 20.3467 3.27291 20.3347 3.22401 20.3347C3.16157 20.3347 3.1059 20.352 3.05662 20.3862C3.00734 20.42 2.97311 20.4652 2.95468 20.5216C2.93625 20.5777 2.92722 20.6818 2.92722 20.8334V21.4488H2.56799V20.0909H2.90164V20.2903C3.02013 20.1372 3.16947 20.0604 3.34927 20.0604C3.42826 20.0604 3.50086 20.0744 3.56631 20.1033C3.63214 20.1319 3.68142 20.1684 3.71527 20.2128C3.74875 20.2568 3.77245 20.3072 3.78561 20.3636C3.79915 20.4197 3.80555 20.5005 3.80555 20.6055V21.4488H3.80592Z" fill="#10298E"/>
<path d="M4.54569 19.5746V20.2641C4.66155 20.1283 4.80035 20.0606 4.96134 20.0606C5.0441 20.0606 5.11858 20.0761 5.18516 20.1069C5.25174 20.1374 5.30177 20.1769 5.33562 20.2243C5.3691 20.272 5.39204 20.3251 5.40446 20.383C5.41687 20.4409 5.42289 20.5308 5.42289 20.6531V21.4498H5.06366V20.7325C5.06366 20.5899 5.05689 20.5 5.04297 20.4612C5.02943 20.4233 5.00535 20.3928 4.97075 20.3702C4.93614 20.3476 4.89288 20.3364 4.84097 20.3364C4.78154 20.3364 4.72775 20.3507 4.68148 20.3796C4.63446 20.4086 4.60023 20.4526 4.57842 20.5109C4.55698 20.5696 4.54569 20.6557 4.54569 20.7701V21.4505H4.18646V19.5758H4.54569V19.5746Z" fill="#10298E"/>
<path d="M6.59222 21.0164L6.95033 21.0766C6.90443 21.2079 6.83146 21.3076 6.73253 21.3764C6.63323 21.4449 6.50872 21.4791 6.35976 21.4791C6.12353 21.4791 5.94862 21.402 5.8354 21.2474C5.74587 21.124 5.70111 20.9683 5.70111 20.7798C5.70111 20.5549 5.76017 20.3785 5.8779 20.2509C5.99527 20.1234 6.14422 20.0598 6.32403 20.0598C6.52602 20.0598 6.68551 20.1268 6.8025 20.26C6.91948 20.3935 6.97515 20.5977 6.96989 20.8731H6.06937C6.072 20.9795 6.10097 21.0627 6.15626 21.1217C6.21193 21.1812 6.28114 21.2105 6.36352 21.2105C6.41957 21.2105 6.46697 21.1955 6.50533 21.1646C6.5437 21.1341 6.57266 21.0849 6.59222 21.0164ZM6.61291 20.6534C6.61028 20.5492 6.58357 20.4706 6.53242 20.4164C6.48088 20.3623 6.41919 20.3352 6.34584 20.3352C6.26723 20.3352 6.20253 20.3638 6.15137 20.421C6.10021 20.4778 6.07539 20.5556 6.07614 20.6534H6.61291Z" fill="#10298E"/>
<path d="M7.28021 19.5735H7.63944V19.9056H7.28021V19.5735ZM7.28021 20.0903H7.63944V21.4482H7.28021V20.0903Z" fill="#10298E"/>
<path d="M8.64991 20.0908V20.3771H8.40427V20.9244C8.40427 21.035 8.40653 21.0997 8.41142 21.1181L8.44339 21.1636L8.50433 21.1813C8.53743 21.1813 8.58558 21.1696 8.6484 21.1467L8.67925 21.4254C8.59574 21.4611 8.50095 21.4788 8.39525 21.4788C8.33055 21.4788 8.27224 21.4683 8.22033 21.4461C8.16842 21.4247 8.13006 21.3964 8.10598 21.3618C8.08153 21.3272 8.06498 21.2806 8.0552 21.2215C8.04768 21.1802 8.04392 21.0955 8.04392 20.9684V20.3763H7.87878V20.0901H8.04392V19.82L8.40427 19.6105V20.0901H8.64991V20.0908Z" fill="#10298E"/>
<path d="M8.91724 19.5735H9.27647V21.4482H8.91724V19.5735Z" fill="#10298E"/>
<path d="M9.66321 19.5735H10.0224V19.9056H9.66321V19.5735ZM9.66321 20.0903H10.0224V21.4482H9.66321V20.0903Z" fill="#10298E"/>
<path d="M11.5933 20.4928L11.239 20.5567C11.227 20.4857 11.1999 20.4326 11.1578 20.3969C11.1156 20.3611 11.0607 20.3431 10.9937 20.3431C10.9038 20.3431 10.8328 20.3743 10.7793 20.436C10.7263 20.4977 10.6996 20.6011 10.6996 20.746C10.6996 20.9069 10.7267 21.0209 10.7808 21.0875C10.835 21.1541 10.9076 21.1868 10.9986 21.1868C11.0671 21.1868 11.1228 21.1676 11.166 21.1289C11.2097 21.0901 11.2405 21.0232 11.2582 20.9288L11.611 20.9886C11.5745 21.1507 11.5042 21.2729 11.4 21.3553C11.2962 21.4381 11.1566 21.4795 10.9821 21.4795C10.7835 21.4795 10.6251 21.4166 10.507 21.2918C10.3893 21.1665 10.3298 20.9931 10.3298 20.7712C10.3298 20.5466 10.3893 20.3724 10.5078 20.2472C10.6262 20.1223 10.7865 20.0598 10.9889 20.0598C11.154 20.0598 11.2856 20.0956 11.3831 20.1667C11.4805 20.2385 11.5508 20.3469 11.5933 20.4928Z" fill="#10298E"/>
<path d="M12.2419 19.5746V20.2641C12.3577 20.1283 12.4965 20.0606 12.6575 20.0606C12.7403 20.0606 12.8147 20.0761 12.8813 20.1069C12.9479 20.1374 12.9979 20.1769 13.0318 20.2243C13.0653 20.272 13.0882 20.3251 13.1006 20.383C13.113 20.4409 13.1191 20.5308 13.1191 20.6531V21.4498H12.7598V20.7325C12.7598 20.5899 12.7531 20.5 12.7391 20.4612C12.7256 20.4233 12.7015 20.3928 12.6669 20.3702C12.6323 20.3476 12.5891 20.3364 12.5371 20.3364C12.4777 20.3364 12.4239 20.3507 12.3777 20.3796C12.3306 20.4086 12.296 20.4526 12.2746 20.5109C12.2531 20.5696 12.2419 20.6557 12.2419 20.7701V21.4505H11.8826V19.5758H12.2419V19.5746Z" fill="#10298E"/>
<path d="M14.288 21.0164L14.6461 21.0766C14.6002 21.2079 14.5273 21.3076 14.4283 21.3764C14.329 21.4449 14.2045 21.4791 14.0556 21.4791C13.8193 21.4791 13.6444 21.402 13.5312 21.2474C13.4417 21.124 13.3973 20.9683 13.3973 20.7798C13.3973 20.5549 13.456 20.3785 13.5737 20.2509C13.6911 20.1234 13.84 20.0598 14.0198 20.0598C14.2218 20.0598 14.3813 20.1268 14.4983 20.26C14.6153 20.3935 14.6709 20.5977 14.6657 20.8731H13.7652C13.7678 20.9795 13.7968 21.0627 13.8521 21.1217C13.9077 21.1812 13.9769 21.2105 14.0593 21.2105C14.1154 21.2105 14.1628 21.1955 14.2011 21.1646C14.2391 21.1341 14.2685 21.0849 14.288 21.0164ZM14.3083 20.6534C14.3057 20.5492 14.279 20.4706 14.2278 20.4164C14.1763 20.3623 14.1146 20.3352 14.0413 20.3352C13.9626 20.3352 13.8979 20.3638 13.8468 20.421C13.7956 20.4778 13.7708 20.5556 13.7716 20.6534H14.3083Z" fill="#10298E"/>
<path d="M15.3213 21.4488H14.9621V20.0909H15.2957V20.2843C15.3529 20.1932 15.4045 20.1327 15.45 20.1041C15.4955 20.0751 15.5474 20.0604 15.6057 20.0604C15.6877 20.0604 15.7663 20.083 15.8419 20.1278L15.7306 20.4411C15.6704 20.4016 15.6136 20.3821 15.5621 20.3821C15.5117 20.3821 15.4688 20.396 15.4338 20.4238C15.3988 20.4513 15.3714 20.5017 15.3514 20.5739C15.3311 20.6465 15.3213 20.7981 15.3213 21.029V21.4488Z" fill="#10298E"/>
<path d="M16.7632 21.4482V19.5735H18.1531V19.8906H17.1416V20.3062H18.0827V20.6222H17.1416V21.1322H18.1888V21.4482H16.7632Z" fill="#10298E"/>
<path d="M19.4202 21.4488V21.2457C19.3709 21.3179 19.3058 21.3751 19.2253 21.4165C19.1448 21.4582 19.0598 21.4797 18.9699 21.4797C18.8789 21.4797 18.7969 21.4593 18.7247 21.4195C18.6521 21.3792 18.5998 21.3232 18.5674 21.2509C18.5347 21.1783 18.5189 21.0783 18.5189 20.95V20.0909H18.8782V20.7153C18.8782 20.906 18.8845 21.023 18.8977 21.0663C18.9113 21.1095 18.935 21.1434 18.9699 21.1686C19.0049 21.1934 19.0493 21.2062 19.1027 21.2062C19.1644 21.2062 19.2193 21.1893 19.2678 21.1558C19.3164 21.1219 19.3499 21.0802 19.3675 21.0305C19.3852 20.9805 19.3942 20.8586 19.3942 20.6638V20.0909H19.7535V21.4488H19.4202Z" fill="#10298E"/>
<path d="M20.4881 21.4488H20.1285V20.0909H20.4621V20.2843C20.5193 20.1932 20.5708 20.1327 20.6164 20.1041C20.6619 20.0751 20.7138 20.0604 20.7721 20.0604C20.8541 20.0604 20.9327 20.083 21.0083 20.1278L20.897 20.4411C20.8368 20.4016 20.7804 20.3821 20.7284 20.3821C20.678 20.3821 20.6352 20.396 20.6002 20.4238C20.5652 20.4513 20.5377 20.5017 20.5178 20.5739C20.4975 20.6465 20.4877 20.7981 20.4877 21.029V21.4488H20.4881Z" fill="#10298E"/>
<path d="M21.0977 20.7507C21.0977 20.6314 21.127 20.516 21.1861 20.4039C21.2447 20.2925 21.3279 20.2071 21.4358 20.1485C21.5438 20.0898 21.6641 20.0604 21.7973 20.0604C22.0027 20.0604 22.1712 20.127 22.3025 20.2606C22.4338 20.3937 22.4996 20.5622 22.4996 20.7661C22.4996 20.9715 22.433 21.1419 22.3006 21.2769C22.1682 21.412 22.0012 21.4793 21.7999 21.4793C21.6754 21.4793 21.5566 21.4511 21.4441 21.395C21.3309 21.339 21.2451 21.2562 21.1864 21.1475C21.1274 21.0392 21.0977 20.9068 21.0977 20.7507ZM21.4663 20.7699C21.4663 20.9045 21.4983 21.0076 21.5622 21.0791C21.6262 21.1505 21.7051 21.1867 21.7984 21.1867C21.8925 21.1867 21.9707 21.1505 22.0347 21.0791C22.0979 21.0076 22.1298 20.9038 22.1298 20.7669C22.1298 20.6341 22.0979 20.5318 22.0347 20.4603C21.9711 20.3888 21.8925 20.3527 21.7984 20.3527C21.7048 20.3527 21.6262 20.3888 21.5622 20.4603C21.4979 20.5321 21.4663 20.6352 21.4663 20.7699Z" fill="#10298E"/>
<path d="M22.7585 20.5898H23.4642V20.949H22.7585V20.5898Z" fill="#10298E"/>
<path d="M23.5295 21.449V21.1079L24.5143 19.8917H23.6409V19.5746H25.0131V19.8688L23.9862 21.1334H25.0522V21.4494H23.5295V21.449Z" fill="#10298E"/>
<path d="M25.5769 20.5054L25.2507 20.4464C25.2872 20.3151 25.3504 20.2177 25.4403 20.1549C25.5299 20.0917 25.6626 20.0604 25.8391 20.0604C25.9993 20.0604 26.1185 20.0792 26.1972 20.1172C26.2758 20.1552 26.3307 20.2038 26.3627 20.2617C26.395 20.3204 26.4108 20.4276 26.4108 20.5829L26.4071 21.0027C26.4071 21.1223 26.4127 21.21 26.4244 21.2664C26.4356 21.3232 26.4571 21.3838 26.4887 21.4488H26.1332C26.1234 21.4248 26.1121 21.3894 26.0986 21.3428L26.0854 21.3006C26.0241 21.3601 25.9587 21.4052 25.8887 21.4349C25.8187 21.4643 25.7443 21.4793 25.6649 21.4793C25.5246 21.4793 25.4148 21.4417 25.3343 21.3657C25.2538 21.2901 25.2131 21.1942 25.2131 21.0779C25.2131 21.0012 25.2312 20.9331 25.2681 20.8726C25.3045 20.8128 25.3561 20.7665 25.4223 20.7345C25.4885 20.7025 25.5836 20.6747 25.7082 20.651C25.8763 20.619 25.9925 20.5901 26.0572 20.5626V20.5269C26.0572 20.458 26.0403 20.4088 26.0061 20.379C25.9718 20.3501 25.9079 20.335 25.8127 20.335C25.7492 20.335 25.6991 20.3474 25.6634 20.3726C25.6277 20.3979 25.5991 20.4422 25.5769 20.5054ZM26.0572 20.797C26.0113 20.8124 25.9384 20.8308 25.8387 20.8522C25.739 20.8733 25.6739 20.8944 25.6431 20.9147C25.5961 20.9478 25.5727 20.9903 25.5727 21.0415C25.5727 21.0919 25.5915 21.1355 25.6288 21.1716C25.6664 21.2085 25.7142 21.2269 25.7721 21.2269C25.8368 21.2269 25.8989 21.2058 25.9575 21.163C26.0012 21.1306 26.0298 21.0911 26.0433 21.0441C26.0531 21.0132 26.0572 20.9549 26.0572 20.8692V20.797Z" fill="#10298E"/>
<path d="M27.1409 19.5746V20.2641C27.2568 20.1283 27.3952 20.0606 27.5566 20.0606C27.6393 20.0606 27.7138 20.0761 27.7804 20.1069C27.8469 20.1374 27.897 20.1769 27.9308 20.2243C27.9643 20.272 27.9872 20.3251 27.9997 20.383C28.0121 20.4409 28.0181 20.5308 28.0181 20.6531V21.4498H27.6589V20.7325C27.6589 20.5899 27.6521 20.5 27.6386 20.4612C27.625 20.4233 27.6009 20.3928 27.5663 20.3702C27.5317 20.3476 27.4885 20.3364 27.4366 20.3364C27.3771 20.3364 27.3233 20.3507 27.2767 20.3796C27.23 20.4086 27.1954 20.4526 27.174 20.5109C27.1522 20.5696 27.1413 20.6557 27.1413 20.7701V21.4505H26.782V19.5758H27.1409V19.5746Z" fill="#10298E"/>
<path d="M28.4006 19.5735H28.7598V21.4482H28.4006V19.5735Z" fill="#10298E"/>
<path d="M30.0401 21.4488V21.2457C29.9908 21.3179 29.9257 21.3751 29.8452 21.4165C29.7647 21.4582 29.6793 21.4797 29.5898 21.4797C29.4988 21.4797 29.4168 21.4593 29.3446 21.4195C29.272 21.3792 29.2197 21.3232 29.1869 21.2509C29.1546 21.1783 29.1388 21.0783 29.1388 20.95V20.0909H29.498V20.7153C29.498 20.906 29.5048 21.023 29.518 21.0663C29.5311 21.1095 29.5552 21.1434 29.5902 21.1686C29.6252 21.1934 29.6696 21.2062 29.723 21.2062C29.7843 21.2062 29.8396 21.1893 29.8881 21.1558C29.9366 21.1219 29.9697 21.0802 29.9878 21.0305C30.0055 20.9805 30.0145 20.8586 30.0145 20.6638V20.0909H30.3737V21.4488H30.0401Z" fill="#10298E"/>
<path d="M32 21.4488H31.6407V20.7556C31.6407 20.6089 31.6332 20.5141 31.6178 20.4708C31.6024 20.4279 31.5775 20.3948 31.5429 20.3708C31.5087 20.3467 31.4669 20.3347 31.4184 20.3347C31.356 20.3347 31.3003 20.352 31.2507 20.3862C31.2014 20.42 31.1679 20.4652 31.1491 20.5216C31.1307 20.5777 31.1216 20.6818 31.1216 20.8334V21.4488H30.762V20.0909H31.0957V20.2903C31.2142 20.1372 31.3631 20.0604 31.5433 20.0604C31.6227 20.0604 31.6949 20.0744 31.7607 20.1033C31.8262 20.1319 31.8758 20.1684 31.9097 20.2128C31.9432 20.2568 31.9665 20.3072 31.98 20.3636C31.9932 20.4197 32 20.5005 32 20.6055V21.4488Z" fill="#10298E"/>
<path d="M32.3494 21.5384L32.7598 21.5884C32.7665 21.6362 32.7823 21.6689 32.8072 21.6866C32.841 21.7121 32.8948 21.7249 32.9682 21.7249C33.0622 21.7249 33.1322 21.711 33.1792 21.6824C33.2108 21.664 33.2349 21.6339 33.2507 21.5921C33.2616 21.5624 33.2672 21.5071 33.2672 21.427V21.2292C33.16 21.3759 33.0246 21.4492 32.861 21.4492C32.6785 21.4492 32.5337 21.3721 32.4273 21.2175C32.3441 21.096 32.3024 20.944 32.3024 20.7623C32.3024 20.5348 32.3569 20.361 32.4664 20.2406C32.5758 20.1206 32.712 20.0604 32.8753 20.0604C33.043 20.0604 33.1818 20.1345 33.2909 20.2816V20.0913H33.6272V21.31C33.6272 21.4699 33.614 21.5899 33.5877 21.6693C33.561 21.7483 33.5241 21.8107 33.4764 21.8558C33.4286 21.901 33.3646 21.9363 33.2853 21.9619C33.2055 21.9871 33.1047 21.9999 32.9828 21.9999C32.7526 21.9999 32.5894 21.9604 32.4931 21.8818C32.3964 21.8032 32.3486 21.7031 32.3486 21.582L32.3494 21.5384ZM32.6702 20.7417C32.6702 20.8857 32.6981 20.9914 32.7538 21.0588C32.8094 21.1257 32.8786 21.1592 32.9603 21.1592C33.0479 21.1592 33.122 21.1246 33.1826 21.0561C33.2431 20.9877 33.2732 20.8857 33.2732 20.7511C33.2732 20.6104 33.2443 20.5062 33.1863 20.4381C33.1284 20.37 33.0551 20.3358 32.9663 20.3358C32.8801 20.3358 32.8094 20.3693 32.7534 20.4362C32.6981 20.5024 32.6702 20.6044 32.6702 20.7417Z" fill="#10298E"/>
<path d="M33.8737 21.0618L34.2345 21.0065C34.2495 21.0764 34.2807 21.1295 34.3277 21.166C34.3748 21.2024 34.4402 21.2205 34.5248 21.2205C34.6178 21.2205 34.6877 21.2032 34.7344 21.1693C34.766 21.1453 34.7818 21.1133 34.7818 21.0731L34.7562 21.0057C34.7385 20.9884 34.6983 20.973 34.6358 20.9579C34.3462 20.8944 34.1622 20.8361 34.0847 20.783C33.9775 20.7097 33.9234 20.6081 33.9234 20.4776C33.9234 20.3602 33.97 20.2609 34.0629 20.1808C34.1562 20.1007 34.2999 20.0604 34.4951 20.0604C34.6809 20.0604 34.8194 20.0909 34.9093 20.1515C34.9996 20.2117 35.062 20.3012 35.0959 20.4197L34.7569 20.4825C34.7426 20.4298 34.7148 20.3888 34.6742 20.3614C34.6339 20.3328 34.576 20.3189 34.5008 20.3189C34.4067 20.3189 34.3386 20.3324 34.2976 20.3587L34.257 20.4317L34.2928 20.4968C34.3255 20.5209 34.4368 20.5543 34.6287 20.598C34.8197 20.6416 34.9537 20.695 35.0296 20.7575C35.1045 20.8214 35.1425 20.9106 35.1425 21.0245C35.1425 21.1494 35.0906 21.2562 34.9864 21.3454C34.8826 21.4353 34.7283 21.4797 34.5248 21.4797C34.3398 21.4797 34.1934 21.4424 34.0855 21.3672C33.9775 21.2924 33.9068 21.1904 33.8737 21.0618Z" fill="#10298E"/>
<path d="M35.8485 21.4488L35.3012 20.0909H35.6785L35.9339 20.7841L36.0084 21.0158C36.0279 20.9568 36.0404 20.918 36.0452 20.8992C36.0573 20.8609 36.0701 20.8225 36.0836 20.7841L36.342 20.0909H36.7118L36.172 21.4488H35.8485Z" fill="#10298E"/>
<path d="M37.7364 21.0164L38.0945 21.0766C38.0487 21.2079 37.9757 21.3076 37.8767 21.3764C37.7774 21.4449 37.6529 21.4791 37.504 21.4791C37.2678 21.4791 37.0928 21.402 36.9796 21.2474C36.8901 21.124 36.8457 20.9683 36.8457 20.7798C36.8457 20.5549 36.9044 20.3785 37.0217 20.2509C37.1395 20.1234 37.2884 20.0598 37.4682 20.0598C37.6702 20.0598 37.8297 20.1268 37.9467 20.26C38.0637 20.3935 38.1194 20.5977 38.1141 20.8731H37.214C37.2162 20.9795 37.2452 21.0627 37.3005 21.1217C37.3561 21.1812 37.4254 21.2105 37.5077 21.2105C37.5638 21.2105 37.6112 21.1955 37.6496 21.1646C37.6879 21.1341 37.7169 21.0849 37.7364 21.0164ZM37.7571 20.6534C37.7545 20.5492 37.7278 20.4706 37.6763 20.4164C37.6251 20.3623 37.563 20.3352 37.4901 20.3352C37.4114 20.3352 37.3467 20.3638 37.296 20.421C37.2444 20.4778 37.2196 20.5556 37.2204 20.6534H37.7571Z" fill="#10298E"/>
<path d="M38.7691 21.4488H38.4099V20.0909H38.7436V20.2843C38.8007 20.1932 38.8523 20.1327 38.8978 20.1041C38.9433 20.0751 38.9952 20.0604 39.0531 20.0604C39.1351 20.0604 39.2141 20.083 39.2897 20.1278L39.1784 20.4411C39.1182 20.4016 39.0614 20.3821 39.0099 20.3821C38.9595 20.3821 38.9166 20.396 38.8816 20.4238C38.8466 20.4513 38.8192 20.5017 38.7992 20.5739C38.7789 20.6465 38.7691 20.7981 38.7691 21.029V21.4488Z" fill="#10298E"/>
<path d="M39.4501 21.4482V19.5735H39.8093V20.5684L40.2298 20.0899H40.6722L40.2084 20.5861L40.7061 21.4482H40.3186L39.9771 20.8381L39.8097 21.0134V21.4482H39.4501Z" fill="#10298E"/>
<path d="M41.7239 21.0164L42.082 21.0766C42.0361 21.2079 41.9635 21.3076 41.8642 21.3764C41.7646 21.4449 41.6404 21.4791 41.4915 21.4791C41.2552 21.4791 41.0803 21.402 40.9671 21.2474C40.8776 21.124 40.8328 20.9683 40.8328 20.7798C40.8328 20.5549 40.8919 20.3785 41.0096 20.2509C41.127 20.1234 41.2759 20.0598 41.4557 20.0598C41.6577 20.0598 41.8172 20.1268 41.9338 20.26C42.0508 20.3935 42.1065 20.5977 42.1012 20.8731H41.2007C41.2033 20.9795 41.2327 21.0627 41.2876 21.1217C41.3433 21.1812 41.4121 21.2105 41.4949 21.2105C41.5509 21.2105 41.5983 21.1955 41.6367 21.1646C41.675 21.1341 41.7044 21.0849 41.7239 21.0164ZM41.7442 20.6534C41.7416 20.5492 41.7149 20.4706 41.6638 20.4164C41.6126 20.3623 41.5502 20.3352 41.4768 20.3352C41.3982 20.3352 41.3335 20.3638 41.2827 20.421C41.2315 20.4778 41.2067 20.5556 41.2075 20.6534H41.7442Z" fill="#10298E"/>
<path d="M42.7708 19.5746V20.2641C42.8866 20.1283 43.0251 20.0606 43.1864 20.0606C43.2688 20.0606 43.3437 20.0761 43.4102 20.1069C43.4768 20.1374 43.5269 20.1769 43.5607 20.2243C43.5942 20.272 43.6171 20.3251 43.6295 20.383C43.642 20.4409 43.648 20.5308 43.648 20.6531V21.4498H43.2887V20.7325C43.2887 20.5899 43.282 20.5 43.2684 20.4612C43.2549 20.4233 43.2308 20.3928 43.1962 20.3702C43.1616 20.3476 43.1183 20.3364 43.0664 20.3364C43.007 20.3364 42.9532 20.3507 42.9066 20.3796C42.8599 20.4086 42.8253 20.4526 42.8039 20.5109C42.7821 20.5696 42.7712 20.6557 42.7712 20.7701V21.4505H42.4119V19.5758H42.7708V19.5746Z" fill="#10298E"/>
<path d="M44.3747 21.4488H44.0155V20.0909H44.3492V20.2843C44.4063 20.1932 44.4579 20.1327 44.5034 20.1041C44.5489 20.0751 44.6008 20.0604 44.6591 20.0604C44.7407 20.0604 44.8193 20.083 44.8953 20.1278L44.784 20.4411C44.7238 20.4016 44.667 20.3821 44.6155 20.3821C44.5651 20.3821 44.5222 20.396 44.4872 20.4238C44.4522 20.4513 44.4248 20.5017 44.4048 20.5739C44.3845 20.6465 44.3747 20.7981 44.3747 21.029V21.4488Z" fill="#10298E"/>
<path d="M44.9412 21.0618L45.3015 21.0065C45.3169 21.0764 45.3482 21.1295 45.3952 21.166C45.4422 21.2024 45.5077 21.2205 45.5923 21.2205C45.6852 21.2205 45.7552 21.2032 45.8018 21.1693C45.8334 21.1453 45.8492 21.1133 45.8492 21.0731L45.8236 21.0057C45.8059 20.9884 45.7657 20.973 45.7033 20.9579C45.4132 20.8944 45.2297 20.8361 45.1522 20.783C45.045 20.7097 44.9908 20.6081 44.9908 20.4776C44.9908 20.3602 45.0375 20.2609 45.1304 20.1808C45.2237 20.1007 45.3673 20.0604 45.5626 20.0604C45.7484 20.0604 45.8864 20.0909 45.9767 20.1515C46.067 20.2117 46.1294 20.3012 46.1633 20.4197L45.8244 20.4825C45.8101 20.4298 45.7822 20.3888 45.7416 20.3614C45.7014 20.3328 45.6434 20.3189 45.5682 20.3189C45.4742 20.3189 45.4061 20.3324 45.3651 20.3587L45.3245 20.4317L45.3602 20.4968C45.3929 20.5209 45.5043 20.5543 45.6961 20.598C45.8872 20.6416 46.0211 20.695 46.0971 20.7575C46.1719 20.8214 46.2099 20.9106 46.2099 21.0245C46.2099 21.1494 46.158 21.2562 46.0538 21.3454C45.95 21.4353 45.7958 21.4797 45.5923 21.4797C45.4068 21.4797 45.2609 21.4424 45.1529 21.3672C45.045 21.292 44.9743 21.1904 44.9412 21.0618Z" fill="#10298E"/>
<path d="M46.8866 21.4488H46.5274V20.0909H46.8611V20.2843C46.9182 20.1932 46.9698 20.1327 47.0153 20.1041C47.0608 20.0751 47.1127 20.0604 47.171 20.0604C47.253 20.0604 47.3316 20.083 47.4072 20.1278L47.2959 20.4411C47.2357 20.4016 47.1793 20.3821 47.1274 20.3821C47.077 20.3821 47.0345 20.396 46.9991 20.4238C46.9645 20.4513 46.9367 20.5017 46.9167 20.5739C46.8964 20.6465 46.8866 20.7981 46.8866 21.029V21.4488Z" fill="#10298E"/>
<path d="M47.8484 20.5054L47.5222 20.4464C47.5591 20.3151 47.6223 20.2177 47.7118 20.1549C47.8013 20.0917 47.9341 20.0604 48.1105 20.0604C48.2708 20.0604 48.3904 20.0792 48.4686 20.1172C48.5473 20.1552 48.6026 20.2038 48.6345 20.2617C48.6665 20.3204 48.6823 20.4276 48.6823 20.5829L48.6785 21.0027C48.6785 21.1223 48.6842 21.21 48.6958 21.2664C48.7075 21.3232 48.7286 21.3838 48.7602 21.4488H48.4047C48.3949 21.4248 48.3836 21.3894 48.3701 21.3428L48.3573 21.3006C48.296 21.3601 48.2302 21.4052 48.1602 21.4349C48.0902 21.4643 48.0158 21.4793 47.9364 21.4793C47.7965 21.4793 47.6862 21.4417 47.6057 21.3657C47.5252 21.2901 47.4846 21.1942 47.4846 21.0779C47.4846 21.0012 47.5031 20.9331 47.5399 20.8726C47.5764 20.8128 47.6276 20.7665 47.6941 20.7345C47.76 20.7025 47.8551 20.6747 47.98 20.651C48.1478 20.619 48.264 20.5901 48.3287 20.5626V20.5269C48.3287 20.458 48.3118 20.4088 48.2776 20.379C48.2437 20.3501 48.1794 20.335 48.0846 20.335C48.0206 20.335 47.9706 20.3474 47.9349 20.3726C47.8995 20.3979 47.8706 20.4422 47.8484 20.5054ZM48.3291 20.797C48.2832 20.8124 48.2102 20.8308 48.1105 20.8522C48.0109 20.8737 47.9458 20.8944 47.9149 20.9147C47.8683 20.9478 47.8446 20.9903 47.8446 21.0415C47.8446 21.0919 47.8634 21.1355 47.9007 21.1716C47.9383 21.2085 47.986 21.2269 48.044 21.2269C48.1087 21.2269 48.1707 21.2058 48.2298 21.163C48.273 21.1306 48.3016 21.0911 48.3156 21.0441C48.325 21.0132 48.3291 20.9549 48.3291 20.8692V20.797Z" fill="#10298E"/>
<path d="M49.9487 21.4488V21.2457C49.8994 21.3179 49.8344 21.3751 49.7539 21.4165C49.6734 21.4582 49.5883 21.4797 49.4984 21.4797C49.4074 21.4797 49.3254 21.4593 49.2532 21.4195C49.1806 21.3792 49.1283 21.3232 49.096 21.2509C49.0632 21.1783 49.0471 21.0783 49.0471 20.95V20.0909H49.4063V20.7153C49.4063 20.906 49.4127 21.023 49.4262 21.0663C49.4398 21.1095 49.4635 21.1434 49.4984 21.1686C49.5334 21.1934 49.5778 21.2062 49.6312 21.2062C49.6929 21.2062 49.7478 21.1893 49.7964 21.1558C49.8445 21.1219 49.8784 21.0802 49.896 21.0305C49.9137 20.9805 49.9228 20.8586 49.9228 20.6638V20.0909H50.282V21.4488H49.9487Z" fill="#10298E"/>
<path d="M50.6458 20.0907H50.9768V20.2761C51.0957 20.1321 51.2364 20.0598 51.4004 20.0598C51.4873 20.0598 51.5629 20.0779 51.6265 20.1136C51.6908 20.1497 51.7431 20.2039 51.7841 20.2761C51.8435 20.2039 51.9082 20.1497 51.9774 20.1136C52.0462 20.0779 52.12 20.0598 52.1982 20.0598C52.2979 20.0598 52.3821 20.0805 52.4514 20.1208C52.5206 20.161 52.5721 20.2208 52.6063 20.2995C52.6312 20.3574 52.6432 20.451 52.6432 20.5808V21.449H52.284V20.673C52.284 20.5379 52.2716 20.4514 52.2471 20.4119C52.214 20.3608 52.1629 20.3352 52.0936 20.3352C52.0432 20.3352 51.9958 20.3506 51.9518 20.3815C51.9078 20.4119 51.8755 20.4567 51.8559 20.5161C51.8363 20.5756 51.8266 20.6688 51.8266 20.7967V21.449H51.4673V20.705C51.4673 20.5725 51.4613 20.4875 51.4482 20.4492C51.4354 20.4108 51.4154 20.3822 51.3887 20.3634C51.3616 20.345 51.3251 20.3352 51.2793 20.3352C51.224 20.3352 51.1739 20.3499 51.1299 20.38C51.0855 20.4097 51.0539 20.4529 51.0348 20.509C51.0156 20.565 51.0058 20.6583 51.0058 20.7888V21.4486H50.6466V20.0907H50.6458Z" fill="#10298E"/>
<path d="M0.0167236 17.2503L0.556884 17.198C0.589234 17.3793 0.655061 17.5121 0.754742 17.5975C0.854048 17.6825 0.988335 17.725 1.15685 17.725C1.33553 17.725 1.47019 17.687 1.56122 17.6118C1.6515 17.5361 1.69739 17.4478 1.69739 17.3462C1.69739 17.2815 1.67821 17.2258 1.64021 17.1799C1.60185 17.1348 1.53527 17.0949 1.44048 17.0611C1.3754 17.0385 1.22719 16.9982 0.995859 16.9411C0.698319 16.867 0.489552 16.7767 0.369558 16.6691C0.200664 16.5179 0.116405 16.3332 0.116405 16.1158C0.116405 15.9759 0.156278 15.845 0.235647 15.7231C0.314639 15.6008 0.429367 15.5083 0.579077 15.4443C0.728035 15.3808 0.90859 15.3488 1.11999 15.3488C1.46493 15.3488 1.72485 15.4244 1.89901 15.576C2.07355 15.7272 2.16533 15.9292 2.1736 16.1816L1.6184 16.2061C1.59432 16.0646 1.54354 15.9631 1.46568 15.901C1.38744 15.8393 1.27008 15.8081 1.11397 15.8081C0.952977 15.8081 0.826588 15.8412 0.735558 15.9078C0.676502 15.9499 0.647162 16.0071 0.647162 16.0785C0.647162 16.1432 0.674621 16.1993 0.729916 16.2456C0.799881 16.3046 0.969904 16.3656 1.23998 16.4291C1.51006 16.4927 1.7098 16.5589 1.8392 16.627C1.9686 16.6951 2.06978 16.7884 2.14314 16.9061C2.21611 17.0246 2.2526 17.1705 2.2526 17.3443C2.2526 17.5019 2.20859 17.6494 2.12132 17.787C2.03367 17.9243 1.90992 18.0267 1.75005 18.0936C1.59019 18.1606 1.39082 18.194 1.15196 18.194C0.804395 18.194 0.537324 18.1135 0.351127 17.9529C0.164929 17.7923 0.0528346 17.558 0.0167236 17.2503Z" fill="#10298E"/>
<path d="M2.83057 15.3959H3.35756V15.8834H2.83057V15.3959ZM2.83057 16.1535H3.35756V18.1456H2.83057V16.1535Z" fill="#10298E"/>
<path d="M5.82417 18.1454H5.29718V17.129C5.29718 16.9139 5.28589 16.7747 5.26332 16.7119C5.24113 16.6487 5.20426 16.5994 5.15386 16.5644C5.10345 16.5294 5.04214 16.5121 4.97105 16.5121C4.88002 16.5121 4.79802 16.5369 4.72542 16.587C4.65282 16.637 4.60317 16.7032 4.57646 16.7856C4.54938 16.8683 4.53621 17.0207 4.53621 17.2434V18.1454H4.00922V16.1533H4.49897V16.4459C4.67276 16.221 4.89168 16.1085 5.15536 16.1085C5.2716 16.1085 5.37767 16.1296 5.47397 16.1713C5.57027 16.2135 5.64324 16.2669 5.69252 16.3316C5.74179 16.3966 5.77602 16.4707 5.79558 16.5527C5.81514 16.6355 5.82455 16.7536 5.82455 16.9075V18.1454H5.82417Z" fill="#10298E"/>
<path d="M6.42536 18.2767L7.02721 18.35C7.03699 18.42 7.06032 18.4678 7.0968 18.4941C7.14683 18.5317 7.22545 18.5501 7.33303 18.5501C7.47033 18.5501 7.57339 18.5294 7.64223 18.4884C7.6885 18.4606 7.72348 18.4166 7.74718 18.3553C7.76335 18.3113 7.77163 18.2308 7.77163 18.1134V17.8226C7.61439 18.0378 7.41541 18.1454 7.17542 18.1454C6.90797 18.1454 6.69582 18.0322 6.53971 17.8057C6.41709 17.627 6.35577 17.4044 6.35577 17.138C6.35577 16.8044 6.43627 16.549 6.59689 16.3729C6.75751 16.1965 6.95725 16.1085 7.19611 16.1085C7.44249 16.1085 7.64561 16.2165 7.80548 16.4331V16.1536H8.299V17.9411C8.299 18.1762 8.27944 18.3519 8.24069 18.4681C8.20195 18.5847 8.14741 18.6758 8.07744 18.7424C8.0071 18.8086 7.91381 18.8601 7.79683 18.8981C7.67984 18.9353 7.53201 18.9541 7.35334 18.9541C7.01555 18.9541 6.77594 18.8962 6.63488 18.7807C6.49382 18.6649 6.42311 18.5182 6.42311 18.341L6.42536 18.2767ZM6.89631 17.1083C6.89631 17.3194 6.93694 17.4743 7.01931 17.5725C7.10094 17.6703 7.20175 17.7196 7.32212 17.7196C7.45077 17.7196 7.55947 17.6692 7.64825 17.5687C7.73702 17.4679 7.78141 17.319 7.78141 17.1211C7.78141 16.915 7.7389 16.7619 7.65389 16.6618C7.5685 16.5618 7.46092 16.5117 7.33115 16.5117C7.20476 16.5117 7.10056 16.5606 7.01894 16.6588C6.93694 16.7574 6.89631 16.9071 6.89631 17.1083Z" fill="#10298E"/>
<path d="M8.93573 15.3959H9.46273V18.1453H8.93573V15.3959Z" fill="#10298E"/>
<path d="M11.2715 17.5116L11.7966 17.5996C11.7293 17.7922 11.6221 17.9389 11.4765 18.0393C11.3309 18.1401 11.1485 18.1905 10.93 18.1905C10.5835 18.1905 10.3274 18.0773 10.1607 17.8509C10.0294 17.6696 9.96399 17.4409 9.96399 17.1644C9.96399 16.8345 10.0501 16.5757 10.2228 16.3887C10.3954 16.2022 10.6132 16.1085 10.8773 16.1085C11.1737 16.1085 11.4077 16.2063 11.5788 16.4023C11.75 16.5983 11.832 16.8977 11.8245 17.3017H10.5041C10.5079 17.4578 10.5504 17.5797 10.6317 17.6665C10.7129 17.7531 10.8141 17.7967 10.9356 17.7967C11.0184 17.7967 11.0876 17.7741 11.144 17.7294C11.2004 17.6846 11.2429 17.6116 11.2715 17.5116ZM11.3016 16.9789C11.2978 16.8266 11.2583 16.7104 11.1835 16.6314C11.1086 16.552 11.0169 16.5121 10.9093 16.5121C10.7945 16.5121 10.6994 16.5542 10.6241 16.6378C10.5489 16.7213 10.5124 16.8356 10.5136 16.9789H11.3016Z" fill="#10298E"/>
<path d="M13.556 18.1453V15.3959H15.5944V15.8609H14.1109V16.4706H15.4914V16.9337H14.1109V17.6818H15.6471V18.1449H13.556V18.1453Z" fill="#10298E"/>
<path d="M17.5405 18.1456V17.8477C17.4679 17.9538 17.3727 18.0377 17.2543 18.099C17.1361 18.1603 17.0113 18.1908 16.88 18.1908C16.7461 18.1908 16.6261 18.1618 16.52 18.1027C16.4139 18.0437 16.3368 17.9617 16.2894 17.8548C16.2416 17.7488 16.2183 17.6017 16.2183 17.4144V16.1539H16.7453V17.0694C16.7453 17.3493 16.7551 17.5208 16.7743 17.5844C16.7935 17.6476 16.8288 17.6976 16.88 17.7345C16.9315 17.771 16.9966 17.7898 17.0748 17.7898C17.1651 17.7898 17.2456 17.7649 17.3171 17.7157C17.3882 17.6664 17.4371 17.6047 17.4634 17.5317C17.4894 17.4584 17.5029 17.2797 17.5029 16.9946V16.1542H18.0299V18.1464H17.5405V18.1456Z" fill="#10298E"/>
<path d="M19.1951 18.1454H18.6682V16.1533H19.1579V16.4365C19.2414 16.3026 19.317 16.2146 19.3836 16.1721C19.4506 16.1296 19.5265 16.1085 19.6116 16.1085C19.7319 16.1085 19.8474 16.1416 19.9587 16.2078L19.7955 16.6671C19.7063 16.6099 19.6243 16.581 19.5476 16.581C19.4739 16.581 19.4111 16.6013 19.3603 16.6419C19.3087 16.6821 19.2685 16.7559 19.2392 16.8623C19.2098 16.9684 19.1951 17.1911 19.1951 17.5296V18.1454Z" fill="#10298E"/>
<path d="M20.1786 17.1217C20.1786 16.9468 20.2218 16.7775 20.308 16.6135C20.3945 16.4495 20.5164 16.3243 20.6747 16.2385C20.8327 16.152 21.0095 16.1091 21.2044 16.1091C21.506 16.1091 21.7528 16.2069 21.9454 16.4029C22.1376 16.5985 22.2343 16.8456 22.2343 17.1447C22.2343 17.446 22.1369 17.6957 21.9424 17.8936C21.7483 18.0918 21.5034 18.1911 21.2081 18.1911C21.0257 18.1911 20.8515 18.1501 20.686 18.0674C20.5201 17.9846 20.3945 17.8639 20.308 17.7044C20.2215 17.5445 20.1786 17.3504 20.1786 17.1217ZM20.7188 17.1499C20.7188 17.3478 20.7654 17.4986 20.8591 17.6039C20.9531 17.7089 21.0686 17.7616 21.2062 17.7616C21.3435 17.7616 21.459 17.7089 21.5523 17.6039C21.6452 17.4986 21.6922 17.3463 21.6922 17.1462C21.6922 16.9513 21.6452 16.8012 21.5523 16.6959C21.459 16.591 21.3435 16.5387 21.2062 16.5387C21.0686 16.5387 20.9531 16.591 20.8591 16.6959C20.7654 16.8009 20.7188 16.9521 20.7188 17.1499Z" fill="#10298E"/>
<path d="M23.9485 18.1453V15.3959H24.8392C25.177 15.3959 25.3971 15.4095 25.4994 15.4369C25.657 15.4783 25.789 15.5682 25.8951 15.7063C26.0012 15.8443 26.0546 16.023 26.0546 16.2419C26.0546 16.4104 26.0241 16.5522 25.9628 16.6673C25.9015 16.7824 25.8236 16.8727 25.7296 16.9386C25.6352 17.004 25.5393 17.0476 25.4415 17.0687C25.309 17.0947 25.1168 17.1082 24.8659 17.1082H24.5037V18.1453H23.9485ZM24.5033 15.8609V16.6414H24.8073C25.0262 16.6414 25.1725 16.6271 25.2462 16.5981C25.32 16.5692 25.3779 16.524 25.4196 16.4631C25.4618 16.4018 25.4828 16.3307 25.4828 16.2494C25.4828 16.1494 25.4535 16.067 25.3948 16.0015C25.3358 15.9365 25.2616 15.8958 25.1714 15.8797C25.1052 15.8673 24.972 15.8609 24.7719 15.8609H24.5033Z" fill="#10298E"/>
<path d="M27.0149 16.7615L26.5368 16.675C26.5902 16.4824 26.6831 16.3398 26.8144 16.2473C26.9457 16.1548 27.1405 16.1085 27.3997 16.1085C27.6344 16.1085 27.8093 16.1363 27.9244 16.192C28.0395 16.2477 28.1204 16.318 28.1674 16.4038C28.2145 16.4896 28.2378 16.6468 28.2378 16.8755L28.2321 17.4905C28.2321 17.6658 28.2408 17.7948 28.2573 17.8779C28.2743 17.9607 28.3055 18.0502 28.3521 18.145H27.8308C27.8169 18.11 27.7999 18.0581 27.7796 17.9893C27.771 17.9581 27.7649 17.9374 27.7612 17.9272C27.6709 18.0145 27.575 18.0803 27.4723 18.1243C27.37 18.1683 27.2605 18.1898 27.1439 18.1898C26.9385 18.1898 26.7772 18.1341 26.659 18.0228C26.5409 17.9114 26.4819 17.7711 26.4819 17.6007C26.4819 17.4882 26.5086 17.3878 26.5624 17.2998C26.6158 17.2118 26.691 17.1441 26.7884 17.097C26.8851 17.0504 27.0247 17.0094 27.2075 16.9744C27.4539 16.9281 27.6243 16.8849 27.7194 16.845V16.7927C27.7194 16.6912 27.6946 16.6193 27.6446 16.5761C27.5945 16.5328 27.5005 16.5114 27.3617 16.5114C27.2677 16.5114 27.1947 16.5298 27.142 16.567C27.0897 16.6043 27.0472 16.669 27.0149 16.7615ZM27.7198 17.1888C27.6525 17.2114 27.5456 17.2381 27.3993 17.2697C27.253 17.3009 27.1571 17.3314 27.1123 17.3615C27.0435 17.41 27.0092 17.4721 27.0092 17.5473C27.0092 17.621 27.0367 17.6846 27.092 17.7384C27.1469 17.7922 27.2169 17.8189 27.3019 17.8189C27.3967 17.8189 27.4873 17.7877 27.5735 17.7252C27.637 17.6775 27.6792 17.6195 27.6995 17.5507C27.713 17.5055 27.7198 17.4198 27.7198 17.2938V17.1888Z" fill="#10298E"/>
<path d="M28.6238 16.1539H29.1846L29.6612 17.5682L30.1261 16.1539H30.672L29.9685 18.0708L29.8429 18.4176C29.7966 18.5342 29.7526 18.623 29.7109 18.6843C29.6687 18.7452 29.6206 18.7952 29.5664 18.8332C29.5119 18.8712 29.4453 18.9009 29.3656 18.9224C29.2862 18.9434 29.1967 18.9544 29.0962 18.9544C28.995 18.9544 28.8957 18.9438 28.7983 18.9224L28.7509 18.5097C28.8337 18.5259 28.9078 18.5342 28.9744 18.5342C29.0966 18.5342 29.1876 18.4981 29.2459 18.4262C29.305 18.3544 29.3498 18.263 29.3814 18.1516L28.6238 16.1539Z" fill="#10298E"/>
<path d="M31.0849 16.1536H31.5709V16.4256C31.7447 16.2142 31.9516 16.1085 32.1916 16.1085C32.3191 16.1085 32.4297 16.1345 32.5237 16.1871C32.6174 16.2398 32.6945 16.3195 32.7543 16.4256C32.8416 16.3195 32.9363 16.2398 33.0375 16.1871C33.1387 16.1348 33.247 16.1085 33.3622 16.1085C33.5085 16.1085 33.6322 16.1378 33.733 16.1973C33.8346 16.2567 33.9102 16.344 33.9602 16.4591C33.9963 16.5445 34.0148 16.6818 34.0148 16.8721V18.1458H33.4874V17.0071C33.4874 16.8093 33.4697 16.6821 33.4332 16.6246C33.3843 16.5497 33.3091 16.5121 33.2083 16.5121C33.1342 16.5121 33.065 16.5343 32.9999 16.5795C32.9348 16.6242 32.8882 16.6904 32.8596 16.7773C32.8306 16.8642 32.8163 17.0015 32.8163 17.1892V18.1458H32.289V17.0542C32.289 16.8601 32.2796 16.7352 32.2608 16.6791C32.2423 16.6231 32.213 16.581 32.1739 16.5535C32.1344 16.526 32.081 16.5125 32.0136 16.5125C31.932 16.5125 31.859 16.5339 31.794 16.5779C31.7293 16.622 31.6822 16.6848 31.6544 16.7675C31.6258 16.8503 31.6119 16.9872 31.6119 17.1783V18.1461H31.0849V16.1536Z" fill="#10298E"/>
<path d="M35.8088 17.5116L36.3339 17.5996C36.2666 17.7922 36.1594 17.9389 36.0138 18.0393C35.8682 18.1397 35.6858 18.1905 35.4673 18.1905C35.1204 18.1905 34.8647 18.0773 34.698 17.8509C34.5667 17.6696 34.5009 17.4409 34.5009 17.1644C34.5009 16.8345 34.5874 16.5757 34.7601 16.3887C34.9327 16.2022 35.1505 16.1085 35.4146 16.1085C35.711 16.1085 35.945 16.2063 36.1161 16.4023C36.2869 16.5979 36.3693 16.8977 36.3618 17.3017H35.0415C35.0452 17.4578 35.0877 17.5797 35.169 17.6665C35.2506 17.7531 35.3514 17.7967 35.4729 17.7967C35.5557 17.7967 35.6249 17.7741 35.6813 17.7294C35.7373 17.6842 35.7798 17.6116 35.8088 17.5116ZM35.8389 16.9789C35.8351 16.8266 35.7956 16.7104 35.7208 16.6314C35.6459 16.552 35.5542 16.5121 35.4466 16.5121C35.3318 16.5121 35.2367 16.5542 35.1614 16.6378C35.0866 16.7213 35.0494 16.8356 35.0509 16.9789H35.8389Z" fill="#10298E"/>
<path d="M38.718 18.1454H38.191V17.129C38.191 16.9139 38.1797 16.7747 38.1571 16.7119C38.1345 16.6487 38.0981 16.5994 38.0477 16.5644C37.9969 16.5294 37.9359 16.5121 37.8648 16.5121C37.7738 16.5121 37.6918 16.5369 37.6192 16.587C37.5466 16.637 37.497 16.7032 37.4703 16.7856C37.4435 16.8683 37.43 17.0207 37.43 17.2434V18.1454H36.903V16.1533H37.3928V16.4459C37.5666 16.221 37.7855 16.1085 38.0492 16.1085C38.1654 16.1085 38.2715 16.1296 38.3678 16.1713C38.4641 16.2135 38.5367 16.2669 38.5863 16.3316C38.6356 16.3966 38.6702 16.4707 38.6894 16.5527C38.7089 16.6355 38.7183 16.7536 38.7183 16.9075V18.1454H38.718Z" fill="#10298E"/>
<path d="M40.2816 16.1534V16.5736H39.9216V17.3763C39.9216 17.5388 39.925 17.6336 39.9318 17.6603L39.9788 17.7273C40.0033 17.7446 40.0326 17.7532 40.068 17.7532C40.1165 17.7532 40.1872 17.7363 40.2797 17.7028L40.3245 18.1117C40.2022 18.164 40.0634 18.1903 39.9081 18.1903C39.8133 18.1903 39.7275 18.1741 39.6516 18.1425C39.5752 18.1102 39.5191 18.0692 39.4838 18.0184C39.4481 17.9676 39.4232 17.8992 39.4093 17.813C39.398 17.7517 39.3924 17.628 39.3924 17.4418V16.5732H39.1505V16.1531H39.3924V15.7573L39.9213 15.4496V16.1531H40.2816V16.1534Z" fill="#10298E"/>
<path d="M40.5762 17.5772L41.1051 17.4967C41.1273 17.5991 41.1728 17.6769 41.2417 17.73C41.3105 17.783 41.4068 17.8097 41.5305 17.8097C41.6671 17.8097 41.7694 17.7849 41.8382 17.7348C41.8845 17.6999 41.9078 17.6528 41.9078 17.5942C41.9078 17.5539 41.895 17.5212 41.8702 17.4949C41.8443 17.47 41.7848 17.4467 41.6942 17.4256C41.2687 17.3316 40.9994 17.2462 40.8854 17.1687C40.7278 17.0612 40.6492 16.9118 40.6492 16.7204C40.6492 16.5481 40.7173 16.4029 40.8538 16.2851C40.99 16.1678 41.2014 16.1091 41.488 16.1091C41.7604 16.1091 41.9627 16.1531 42.0955 16.2419C42.2279 16.331 42.3193 16.4623 42.3694 16.6357L41.8721 16.7275C41.851 16.65 41.8108 16.591 41.751 16.5492C41.6915 16.5082 41.6069 16.4875 41.4967 16.4875C41.3579 16.4875 41.259 16.5067 41.1988 16.5454C41.1585 16.5729 41.139 16.6086 41.139 16.6523C41.139 16.6899 41.1563 16.7219 41.1916 16.7478C41.239 16.7828 41.403 16.8324 41.6836 16.896C41.9643 16.9596 42.1602 17.0378 42.2719 17.1304C42.3814 17.2244 42.4367 17.3549 42.4367 17.5223C42.4367 17.7048 42.3607 17.862 42.208 17.9929C42.0553 18.1242 41.8296 18.19 41.5305 18.19C41.2593 18.19 41.0445 18.1347 40.8866 18.0249C40.7282 17.915 40.6248 17.7657 40.5762 17.5772Z" fill="#10298E"/>
<path d="M46.5365 18.1453H45.9324L45.6924 17.5208H44.5933L44.3661 18.1453H43.7774L44.8479 15.3959H45.4351L46.5365 18.1453ZM45.5145 17.0574L45.1357 16.0373L44.7644 17.0574H45.5145Z" fill="#10298E"/>
<path d="M47.4476 18.1454H46.9207V16.1533H47.4104V16.4365C47.4939 16.3026 47.5695 16.2146 47.6361 16.1721C47.7031 16.1296 47.779 16.1085 47.8641 16.1085C47.9844 16.1085 48.0999 16.1416 48.2112 16.2078L48.048 16.6671C47.9588 16.6099 47.8768 16.581 47.8001 16.581C47.7264 16.581 47.6636 16.6013 47.6128 16.6419C47.5612 16.6821 47.521 16.7559 47.4917 16.8623C47.4627 16.9684 47.4476 17.1911 47.4476 17.5296V18.1454Z" fill="#10298E"/>
<path d="M49.7056 17.5116L50.2307 17.5996C50.1634 17.7922 50.0566 17.9389 49.911 18.0393C49.765 18.1401 49.5826 18.1905 49.364 18.1905C49.0176 18.1905 48.7614 18.0773 48.5948 17.8509C48.4635 17.6696 48.3977 17.4409 48.3977 17.1644C48.3977 16.8345 48.4842 16.5757 48.6569 16.3887C48.8292 16.2022 49.0477 16.1085 49.3114 16.1085C49.6078 16.1085 49.8418 16.2063 50.0129 16.4023C50.1841 16.5983 50.2661 16.8977 50.2585 17.3017H48.9382C48.942 17.4578 48.9845 17.5797 49.0658 17.6665C49.147 17.7531 49.2482 17.7967 49.3697 17.7967C49.4524 17.7967 49.5217 17.7741 49.5781 17.7294C49.6345 17.6842 49.677 17.6116 49.7056 17.5116ZM49.7361 16.9789C49.7323 16.8266 49.6928 16.7104 49.618 16.6314C49.5431 16.552 49.4513 16.5121 49.3437 16.5121C49.229 16.5121 49.1338 16.5542 49.0586 16.6378C48.9838 16.7213 48.9469 16.8356 48.948 16.9789H49.7361Z" fill="#10298E"/>
<path d="M51.1977 16.7615L50.7196 16.675C50.773 16.4824 50.8659 16.3398 50.9972 16.2473C51.1285 16.1548 51.3233 16.1085 51.5825 16.1085C51.8172 16.1085 51.9921 16.1363 52.1076 16.192C52.2223 16.2477 52.3032 16.318 52.3502 16.4038C52.3973 16.4896 52.4206 16.6468 52.4206 16.8755L52.4149 17.4905C52.4149 17.6658 52.4236 17.7948 52.4401 17.8779C52.4571 17.9607 52.4883 18.0502 52.5349 18.145H52.0136C51.9997 18.11 51.9827 18.0581 51.9628 17.9893C51.9538 17.9581 51.9478 17.9374 51.944 17.9272C51.8537 18.0145 51.7578 18.0803 51.6551 18.1243C51.5528 18.1683 51.4433 18.1898 51.3267 18.1898C51.1213 18.1898 50.96 18.1341 50.8419 18.0228C50.7237 17.9114 50.6643 17.7711 50.6643 17.6007C50.6643 17.4882 50.6914 17.3878 50.7452 17.2998C50.799 17.2118 50.8738 17.1441 50.9712 17.097C51.0679 17.0504 51.2075 17.0094 51.3903 16.9744C51.6367 16.9281 51.8071 16.8849 51.9022 16.845V16.7927C51.9022 16.6912 51.8774 16.6193 51.8274 16.5761C51.7774 16.5328 51.6833 16.5114 51.5445 16.5114C51.4508 16.5114 51.3775 16.5298 51.3248 16.567C51.2726 16.6043 51.2304 16.669 51.1977 16.7615ZM51.9026 17.1888C51.8353 17.2114 51.7285 17.2381 51.5821 17.2697C51.4358 17.3009 51.3399 17.3314 51.2951 17.3615C51.2263 17.41 51.1921 17.4721 51.1921 17.5473C51.1921 17.621 51.2195 17.6846 51.2744 17.7384C51.3293 17.7922 51.3993 17.8189 51.4843 17.8189C51.5791 17.8189 51.6701 17.7877 51.7559 17.7252C51.8199 17.6775 51.8616 17.6195 51.8819 17.5507C51.8955 17.5055 51.9022 17.4198 51.9022 17.2938V17.1888H51.9026Z" fill="#10298E"/>
<path d="M11.7 4.59079H8.09677C8.09677 3.99948 8.02718 3.60263 7.88875 3.40064C7.67434 3.10197 7.08265 2.95226 6.11405 2.95226C5.17328 2.95226 4.54961 3.0384 4.2453 3.21068C3.94099 3.38371 3.78865 3.75949 3.78865 4.33839C3.78865 4.86238 3.92369 5.20769 4.19414 5.37282C4.38786 5.49018 4.64365 5.55902 4.96225 5.57971L5.68899 5.63124C7.24665 5.73431 8.21902 5.80728 8.60683 5.84866C9.83837 5.97279 10.7314 6.30005 11.2854 6.8308C11.7214 7.24495 11.9813 7.78624 12.0641 8.4543C12.1126 8.85415 12.1367 9.30667 12.1367 9.80921C12.1367 10.9678 12.0261 11.8164 11.8049 12.3539C11.4036 13.3406 10.5023 13.9639 9.09997 14.2257C8.51242 14.3363 7.61378 14.3915 6.40481 14.3915C4.38674 14.3915 2.98066 14.2716 2.1866 14.0301C1.21235 13.7344 0.569501 13.1352 0.258796 12.2332C0.0857637 11.7302 0 10.8937 0 9.72269H3.6032C3.6032 9.85322 3.60358 9.95328 3.60358 10.0221C3.60358 10.6469 3.783 11.0486 4.14186 11.2277C4.39012 11.3511 4.68992 11.4158 5.04275 11.4237H6.36757C7.04353 11.4237 7.47498 11.3891 7.6608 11.3195C7.99219 11.1893 8.20961 10.9794 8.31343 10.6894C8.36873 10.5107 8.39619 10.2798 8.39619 9.99654C8.39619 9.36309 8.16485 8.97753 7.70293 8.8391C7.5299 8.78456 6.7268 8.7082 5.29252 8.6119C4.14073 8.52953 3.34064 8.45053 2.89302 8.3738C1.71339 8.15299 0.927225 7.69935 0.534894 7.01023C0.189959 6.42493 0.0176793 5.53946 0.0176793 4.35419C0.0176793 3.45217 0.110966 2.72844 0.297164 2.18452C0.483361 1.64022 0.78391 1.22683 1.19843 0.944335C1.80593 0.510251 2.58344 0.255593 3.5291 0.17961C4.31639 0.110773 5.18983 0.0757904 6.15053 0.0757904C7.66268 0.0757904 8.74075 0.162683 9.38322 0.334962C10.9514 0.756257 11.7353 1.93626 11.7353 3.87534C11.7349 4.03521 11.7233 4.27294 11.7 4.59079Z" fill="#10298E"/>
<path d="M27.5453 14.391V0H33.1907H34.0766H34.7615C35.7512 0 36.5065 0.0804974 37.0256 0.242245C38.2124 0.613887 39.0087 1.3756 39.4168 2.52627C39.6271 3.13037 39.7328 4.03954 39.7328 5.25378C39.7328 6.71364 39.6158 7.76236 39.3849 8.40145C38.9218 9.66421 37.9694 10.3921 36.531 10.5805C36.3617 10.6091 35.6417 10.6339 34.3711 10.6546L33.7282 10.6757H31.419V14.3914H27.5453V14.391ZM31.4183 7.33693H33.8328C34.5987 7.30947 35.064 7.25041 35.2317 7.15826C35.4604 7.03262 35.6143 6.78022 35.6906 6.40256C35.7395 6.15091 35.764 5.77701 35.764 5.28011C35.764 4.67111 35.7155 4.2201 35.6177 3.92557C35.4785 3.51255 35.1448 3.26165 34.6167 3.17025C34.5118 3.1567 34.2616 3.14918 33.8655 3.14918H31.4186V7.33693H31.4183Z" fill="#10298E"/>
<path d="M47.9997 11.9038H42.8211L42.1252 14.391H38.118L42.4423 0H48.2848L52.6618 14.391H48.7388L47.9997 11.9038ZM47.2308 9.10035L45.4159 2.86217L43.6547 9.10035H47.2308Z" fill="#10298E"/>
<path d="M22.2 2.02489C23.7971 2.02489 25.2231 2.76065 26.1601 3.9132L26.9952 2.12307C25.6896 0.889275 23.9122 0.128311 21.9521 0.128311C18.8999 0.128311 16.2894 1.97148 15.2181 4.58087H13.5901L12.6287 6.64183H14.7231C14.7073 6.83292 14.6971 7.02401 14.6971 7.21961C14.6971 7.45583 14.7096 7.68943 14.7329 7.92001H13.6804L12.7193 9.98135H15.2682C16.3699 12.5245 18.9481 14.3098 21.9521 14.3098C23.4661 14.3098 24.8707 13.8561 26.0341 13.0813V10.555C25.0975 11.6214 23.7272 12.2955 22.2 12.2955C20.4147 12.2955 18.8443 11.375 17.9298 9.98135H23.2671L24.2286 7.92001H17.1444C17.1079 7.67212 17.0884 7.4186 17.0884 7.16018C17.0884 6.98526 17.0974 6.81261 17.1143 6.64221H24.824L25.7851 4.58125H17.7805C18.666 3.0533 20.3132 2.02489 22.2 2.02489Z" fill="#FFBE00"/>
<path d="M22.1993 2.0862C23.7216 2.0862 25.1477 2.76666 26.1117 3.95193L26.1742 4.02867L26.2163 3.93914L27.051 2.14902L27.0694 2.10839L27.0375 2.07755C25.6649 0.780559 23.8586 0.0662384 21.9518 0.0662384C20.4626 0.0662384 19.0298 0.501451 17.8077 1.32448C16.6145 2.12833 15.699 3.24626 15.1611 4.55679L15.2179 4.51842H13.5899H13.55L13.5335 4.55416L12.5724 6.61512L12.5314 6.70314H12.6284H14.7229L14.6612 6.63581C14.6439 6.84984 14.6352 7.04018 14.6352 7.21847C14.6352 7.44981 14.6473 7.68792 14.6709 7.9249L14.7326 7.85719H13.6802H13.641L13.6245 7.89292L12.6627 9.95388L12.622 10.0419H12.7191H15.2679L15.2111 10.0047C16.3603 12.6569 19.0062 14.3707 21.9518 14.3707C23.4286 14.3707 24.8512 13.9426 26.0681 13.132L26.0952 13.114V13.0805V10.5542V10.3902L25.9872 10.5136C25.0277 11.6063 23.6472 12.2326 22.1997 12.2326C20.4969 12.2326 18.92 11.378 17.9807 9.94674L17.9292 10.0427H23.2665H23.3064L23.3229 10.0073L24.2844 7.94558L24.3254 7.85794H24.228H17.1438L17.2051 7.9106C17.1686 7.66083 17.1494 7.40881 17.1494 7.15942C17.1494 6.98977 17.1581 6.81787 17.175 6.64747L17.1133 6.70314H24.823H24.8629L24.8795 6.6674L25.8405 4.60644L25.8819 4.51842H25.7841H17.7799L17.8333 4.61133C18.7357 3.05367 20.4092 2.0862 22.1993 2.0862ZM17.7799 4.6418H25.7841L25.7281 4.55378L24.7674 6.61474L24.823 6.57901H17.1137H17.058L17.052 6.63468C17.0347 6.80884 17.0264 6.98526 17.0264 7.15866C17.0264 7.4137 17.0456 7.67249 17.0829 7.9279L17.0911 7.98057H17.1442H24.228L24.1723 7.89255L23.2112 9.95351L23.2669 9.91777H17.9288H17.8141L17.8773 10.0129C18.8391 11.4799 20.4551 12.3545 22.1993 12.3545C23.6821 12.3545 25.0969 11.7132 26.0801 10.5937L25.9714 10.5531V13.0794L25.9989 13.0282C24.8027 13.8249 23.4038 14.2458 21.9515 14.2458C19.0547 14.2458 16.4536 12.561 15.3243 9.95426L15.3078 9.91739H15.2675H12.7187L12.7751 10.0058L13.7358 7.94408L13.6798 7.98019H14.7323H14.8003L14.794 7.91211C14.7706 7.67927 14.7582 7.4453 14.7582 7.2181C14.7582 7.04319 14.7669 6.85586 14.7842 6.64559L14.7898 6.57863H14.7225H12.628L12.6837 6.66665L13.6452 4.60569L13.5895 4.64143H15.2175H15.2589L15.2743 4.60306C15.8036 3.3151 16.7033 2.21672 17.8766 1.42642C19.0776 0.617683 20.4871 0.189618 21.9515 0.189618C23.827 0.189618 25.6024 0.891525 26.9517 2.16707L26.9382 2.09598L26.1038 3.88648L26.2077 3.87332C25.2191 2.65871 23.7585 1.96207 22.199 1.96207C20.3644 1.96207 18.6511 2.95324 17.7257 4.54889L17.6719 4.6418H17.7799Z" fill="#10298E"/>
</svg>
