<svg width="97" height="33" viewBox="0 0 97 33" fill="none" xmlns="http://www.w3.org/2000/svg">
<path d="M36.7006 17.6187V18.8509C36.328 18.6456 35.9531 18.4927 35.5758 18.3924C35.2033 18.2874 34.8259 18.2348 34.4438 18.2348C33.5889 18.2348 32.925 18.5071 32.4522 19.0515C31.9794 19.5912 31.743 20.3506 31.743 21.3297C31.743 22.3088 31.9794 23.0706 32.4522 23.6151C32.925 24.1548 33.5889 24.4247 34.4438 24.4247C34.8259 24.4247 35.2033 24.3745 35.5758 24.2742C35.9531 24.1691 36.328 24.0139 36.7006 23.8085V25.0264C36.3328 25.1984 35.9507 25.3273 35.5543 25.4133C35.1627 25.4993 34.7448 25.5423 34.3006 25.5423C33.0922 25.5423 32.1323 25.1626 31.4206 24.4032C30.709 23.6437 30.3531 22.6193 30.3531 21.3297C30.3531 20.0211 30.7114 18.9918 31.4278 18.242C32.149 17.4921 33.1352 17.1172 34.3865 17.1172C34.7925 17.1172 35.1889 17.1602 35.5758 17.2461C35.9627 17.3273 36.3376 17.4515 36.7006 17.6187" fill="white"/>
<path d="M42.0887 18.2348C41.3818 18.2348 40.8231 18.5118 40.4123 19.0658C40.0016 19.6151 39.7962 20.3697 39.7962 21.3297C39.7962 22.2897 39.9992 23.0467 40.4052 23.6008C40.8159 24.15 41.3771 24.4246 42.0887 24.4246C42.7908 24.4246 43.3472 24.1476 43.7579 23.5936C44.1687 23.0396 44.3741 22.285 44.3741 21.3297C44.3741 20.3793 44.1687 19.6271 43.7579 19.073C43.3472 18.5142 42.7908 18.2348 42.0887 18.2348ZM42.0887 17.1172C43.235 17.1172 44.1353 17.4897 44.7896 18.2348C45.444 18.9799 45.7711 20.0115 45.7711 21.3297C45.7711 22.6431 45.4439 23.6748 44.7896 24.4246C44.1353 25.1697 43.235 25.5423 42.0887 25.5423C40.9377 25.5423 40.035 25.1697 39.3807 24.4246C38.7311 23.6748 38.4064 22.6432 38.4064 21.3297C38.4064 20.0115 38.7311 18.9799 39.3807 18.2348C40.035 17.4897 40.9377 17.1172 42.0887 17.1172Z" fill="white"/>
<path d="M54.1956 18.8509C54.5251 18.2587 54.9192 17.8217 55.3777 17.5399C55.8362 17.2581 56.3758 17.1172 56.9968 17.1172C57.8326 17.1172 58.4773 17.4109 58.9311 17.9984C59.3848 18.5811 59.6116 19.4121 59.6117 20.4915V25.3344H58.2864V20.5344C58.2863 19.7655 58.1502 19.1948 57.878 18.8222C57.6058 18.4497 57.1902 18.2634 56.6314 18.2634C55.9485 18.2634 55.4088 18.4903 55.0124 18.944C54.6159 19.3978 54.4177 20.0163 54.4177 20.7996V25.3344H53.0924V20.5345C53.0924 19.7607 52.9563 19.19 52.684 18.8223C52.4118 18.4497 51.9915 18.2635 51.4232 18.2635C50.7497 18.2635 50.2148 18.4927 49.8184 18.9512C49.422 19.405 49.2238 20.0211 49.2238 20.7996V25.3345H47.8984V17.3107H49.2238V18.5572C49.5247 18.0653 49.8853 17.7023 50.3056 17.4683C50.7259 17.2342 51.225 17.1172 51.8029 17.1172C52.3856 17.1172 52.8799 17.2653 53.2859 17.5614C53.6966 17.8575 53.9999 18.2874 54.1957 18.8509" fill="white"/>
<path d="M63.4945 24.1306V28.3861H62.1692V17.3106H63.4945V18.5285C63.7715 18.0509 64.1202 17.6975 64.5405 17.4682C64.9656 17.2342 65.4718 17.1172 66.0593 17.1172C67.0336 17.1172 67.8241 17.5041 68.4307 18.2778C69.042 19.0515 69.3476 20.0688 69.3476 21.3297C69.3476 22.5906 69.042 23.6079 68.4307 24.3817C67.8241 25.1554 67.0336 25.5423 66.0593 25.5423C65.4719 25.5423 64.9656 25.4276 64.5405 25.1984C64.1202 24.9644 63.7716 24.6085 63.4945 24.1309V24.1306ZM67.9793 21.3297C67.9793 20.3602 67.7787 19.6008 67.3775 19.0515C66.9811 18.4975 66.4342 18.2205 65.7369 18.2205C65.0396 18.2205 64.4903 18.4975 64.0892 19.0515C63.6927 19.6008 63.4945 20.3602 63.4945 21.3297C63.4945 22.2993 63.6927 23.061 64.0892 23.6151C64.4903 24.1644 65.0396 24.439 65.7369 24.439C66.4342 24.439 66.9811 24.1644 67.3775 23.6151C67.7787 23.0611 67.9793 22.2993 67.9793 21.3297Z" fill="white"/>
<path d="M75.1795 21.3011C74.1144 21.3011 73.3765 21.4228 72.9658 21.6664C72.555 21.91 72.3497 22.3255 72.3497 22.913C72.3497 23.381 72.5025 23.7536 72.8082 24.0306C73.1186 24.3028 73.5389 24.4389 74.069 24.4389C74.7998 24.4389 75.3848 24.181 75.8242 23.6652C76.2684 23.1446 76.4905 22.4545 76.4905 21.5948V21.3011H75.1795L75.1795 21.3011ZM77.8088 20.7566V25.3344H76.4906V24.1165C76.1897 24.6037 75.8147 24.9643 75.3658 25.1983C74.9168 25.4276 74.3676 25.5422 73.7181 25.5422C72.8966 25.5422 72.2422 25.313 71.7551 24.8544C71.2727 24.3912 71.0315 23.7726 71.0315 22.9989C71.0315 22.0962 71.3324 21.4156 71.9342 20.9571C72.5407 20.4986 73.4434 20.2694 74.6422 20.2694H76.4906V20.1404C76.4906 19.5339 76.29 19.0658 75.8888 18.7363C75.4924 18.402 74.9336 18.2348 74.2124 18.2348C73.7539 18.2348 73.3074 18.2897 72.8727 18.3996C72.4381 18.5094 72.0202 18.6742 71.619 18.8939V17.676C72.1014 17.4897 72.5694 17.3512 73.0232 17.2605C73.4769 17.165 73.9187 17.1172 74.3485 17.1172C75.5091 17.1172 76.3759 17.4181 76.949 18.0199C77.5222 18.6216 77.8087 19.5339 77.8087 20.7566" fill="white"/>
<path d="M87.2288 20.4915V25.3344H85.9106V20.5345C85.9106 19.7751 85.7625 19.2067 85.4664 18.8294C85.1703 18.4521 84.7261 18.2635 84.1339 18.2634C83.4223 18.2635 82.8611 18.4903 82.4504 18.9441C82.0396 19.3978 81.8343 20.0163 81.8343 20.7996V25.3345H80.5089V17.3106H81.8343V18.5572C82.1495 18.0748 82.5196 17.7142 82.9447 17.4754C83.3746 17.2366 83.8689 17.1172 84.4277 17.1172C85.3495 17.1172 86.0468 17.4038 86.5196 17.9769C86.9924 18.5452 87.2289 19.3835 87.2289 20.4915" fill="white"/>
<path d="M93.2119 26.0797C92.8393 27.0349 92.4763 27.6582 92.1229 27.9495C91.7695 28.2409 91.2966 28.3865 90.7044 28.3865H89.6513V27.2833H90.425C90.788 27.2833 91.0698 27.1973 91.2704 27.0253C91.471 26.8534 91.6931 26.4474 91.9367 25.8075L92.1731 25.2057L88.9277 17.3109H90.3247L92.8321 23.5867L95.3396 17.3109H96.7365L93.2118 26.0801" fill="white"/>
<path d="M34.026 9.41083C34.026 8.81166 33.9017 8.34729 33.6531 8.01777C33.4074 7.68822 33.0614 7.52345 32.615 7.52345C32.1716 7.52345 31.8256 7.68823 31.577 8.01777C31.3313 8.34731 31.2085 8.81168 31.2085 9.41083C31.2085 10.007 31.3313 10.4699 31.577 10.7994C31.8256 11.129 32.1717 11.2937 32.615 11.2937C33.0614 11.2937 33.4074 11.129 33.6531 10.7994C33.9017 10.4699 34.026 10.007 34.026 9.41083ZM34.8529 11.3612C34.8529 12.218 34.6627 12.8546 34.2822 13.271C33.9017 13.6904 33.319 13.9001 32.5341 13.9001C32.2435 13.9001 31.9694 13.8777 31.7117 13.8327C31.4541 13.7908 31.2039 13.7249 30.9613 13.635V12.8306C31.2039 12.9624 31.4436 13.0598 31.6803 13.1227C31.917 13.1856 32.1581 13.2171 32.4038 13.2171C32.946 13.2171 33.352 13.0748 33.6216 12.7902C33.8913 12.5086 34.0261 12.0816 34.0261 11.5094V11.1005C33.8553 11.3971 33.6366 11.6188 33.37 11.7656C33.1034 11.9124 32.7843 11.9857 32.4128 11.9857C31.7957 11.9857 31.2984 11.7506 30.9208 11.2802C30.5434 10.8099 30.3546 10.1867 30.3546 9.41077C30.3546 8.63184 30.5434 8.0072 30.9208 7.53683C31.2983 7.06648 31.7956 6.8313 32.4128 6.8313C32.7843 6.8313 33.1034 6.9047 33.37 7.05149C33.6366 7.1983 33.8553 7.41999 34.0261 7.71658V6.95263H34.8529V11.3611" fill="white"/>
<path d="M40.8613 9.26243V9.66688H37.0595C37.0955 10.2361 37.2663 10.6705 37.5718 10.9701C37.8804 11.2667 38.3088 11.415 38.8571 11.415C39.1747 11.415 39.4817 11.376 39.7784 11.2981C40.0779 11.2202 40.3745 11.1034 40.6681 10.9476V11.7295C40.3716 11.8554 40.0675 11.9512 39.7559 12.0172C39.4443 12.0831 39.1282 12.116 38.8077 12.116C38.0048 12.116 37.3681 11.8823 36.8978 11.415C36.4305 10.9476 36.1968 10.3155 36.1968 9.5186C36.1968 8.69474 36.4185 8.0416 36.8619 7.5593C37.3083 7.07397 37.9089 6.8313 38.6639 6.8313C39.341 6.8313 39.8757 7.05 40.2682 7.48739C40.6636 7.9218 40.8614 8.5135 40.8614 9.26241L40.8613 9.26243ZM40.0345 9.01975C40.0285 8.56738 39.9012 8.20637 39.6525 7.93673C39.4069 7.6671 39.0803 7.53229 38.6728 7.53229C38.2115 7.53229 37.8415 7.66261 37.5629 7.92325C37.2873 8.18389 37.1285 8.55089 37.0865 9.02422L40.0345 9.01972" fill="white"/>
<path d="M46.3837 8.94784V11.9857H45.5568V8.97486C45.5568 8.49852 45.4639 8.14201 45.2782 7.9053C45.0925 7.66864 44.8138 7.5503 44.4424 7.55029C43.996 7.5503 43.6439 7.6926 43.3863 7.97721C43.1286 8.26182 42.9998 8.64978 42.9998 9.1411V11.9857H42.1685V6.95262H42.9998V7.73455C43.1975 7.43197 43.4297 7.20578 43.6963 7.05599C43.966 6.9062 44.2761 6.83131 44.6266 6.8313C45.2048 6.8313 45.6422 7.01105 45.9388 7.37055C46.2354 7.72707 46.3837 8.25285 46.3837 8.94791" fill="white"/>
<path d="M52.3471 9.26243V9.66688H48.5454C48.5813 10.2361 48.7521 10.6705 49.0577 10.9701C49.3663 11.2667 49.7947 11.415 50.3429 11.415C50.6605 11.415 50.9676 11.376 51.2642 11.2981C51.5638 11.2202 51.8604 11.1034 52.154 10.9476V11.7295C51.8574 11.8554 51.5533 11.9512 51.2417 12.0172C50.9301 12.0831 50.6141 12.116 50.2935 12.116C49.4906 12.116 48.8539 11.8823 48.3837 11.415C47.9163 10.9476 47.6826 10.3155 47.6826 9.5186C47.6826 8.69474 47.9043 8.0416 48.3477 7.5593C48.7941 7.07397 49.3947 6.8313 50.1497 6.8313C50.8268 6.8313 51.3616 7.05 51.754 7.48739C52.1495 7.9218 52.3472 8.5135 52.3472 9.26241L52.3471 9.26243ZM51.5204 9.01975C51.5144 8.56738 51.387 8.20637 51.1384 7.93673C50.8927 7.6671 50.5662 7.53229 50.1588 7.53229C49.6974 7.53229 49.3274 7.66261 49.0488 7.92325C48.7732 8.18389 48.6144 8.55089 48.5725 9.02422L51.5205 9.01972" fill="white"/>
<path d="M56.6037 7.72549C56.5108 7.67157 56.409 7.63262 56.2981 7.60865C56.1903 7.5817 56.0704 7.56821 55.9386 7.56821C55.4713 7.56821 55.1118 7.72101 54.8601 8.02658C54.6114 8.32917 54.4871 8.76507 54.4871 9.33428V11.9857H53.6558V6.95263H54.4871V7.73455C54.6609 7.42897 54.8871 7.20279 55.1657 7.05599C55.4443 6.9062 55.7828 6.83131 56.1813 6.8313C56.2382 6.8313 56.3011 6.8358 56.37 6.84478C56.4389 6.85078 56.5153 6.86126 56.5992 6.87624L56.6037 7.72557" fill="white"/>
<path d="M57.4789 6.95369H58.3058V11.9867H57.4789V6.95369ZM57.4789 4.99438H58.3058V6.04141H57.4789V4.99438Z" fill="white"/>
<path d="M63.6539 7.14589V7.91882C63.4202 7.79 63.185 7.69414 62.9484 7.63121C62.7147 7.56531 62.478 7.53236 62.2383 7.53235C61.7021 7.53235 61.2857 7.70312 60.9891 8.04465C60.6925 8.38319 60.5442 8.85953 60.5442 9.47371C60.5442 10.0879 60.6925 10.5657 60.9891 10.9073C61.2857 11.2458 61.7021 11.4151 62.2383 11.4151C62.478 11.4151 62.7147 11.3836 62.9484 11.3207C63.185 11.2548 63.4202 11.1574 63.6539 11.0286V11.7925C63.4232 11.9004 63.1835 11.9813 62.9349 12.0352C62.6892 12.0891 62.4271 12.1161 62.1485 12.1161C61.3905 12.1161 60.7883 11.8779 60.3419 11.4016C59.8956 10.9252 59.6724 10.2827 59.6724 9.47369C59.6724 8.65283 59.8971 8.0072 60.3464 7.53683C60.7988 7.06648 61.4174 6.8313 62.2024 6.8313C62.4571 6.8313 62.7057 6.85827 62.9484 6.91219C63.1911 6.96312 63.4262 7.04102 63.6539 7.14587" fill="white"/>
<path d="M68.0127 4.99438H68.8396V11.9867H68.0127V4.99438Z" fill="white"/>
<path d="M72.5159 7.53226C72.0725 7.53226 71.722 7.70603 71.4644 8.05354C71.2067 8.39807 71.0779 8.87142 71.0779 9.47363C71.0779 10.0758 71.2052 10.5506 71.4599 10.8982C71.7175 11.2427 72.0695 11.415 72.516 11.415C72.9564 11.415 73.3054 11.2412 73.563 10.8937C73.8206 10.5462 73.9495 10.0728 73.9495 9.47362C73.9495 8.87744 73.8206 8.40559 73.563 8.05811C73.3053 7.7076 72.9563 7.53234 72.516 7.53234L72.5159 7.53226ZM72.516 6.8313C73.235 6.8313 73.7997 7.06498 74.2101 7.53234C74.6205 7.9997 74.8258 8.64678 74.8258 9.47369C74.8258 10.2976 74.6205 10.9447 74.2101 11.415C73.7997 11.8824 73.235 12.1161 72.516 12.1161C71.794 12.1161 71.2277 11.8824 70.8173 11.415C70.4099 10.9447 70.2062 10.2976 70.2062 9.47369C70.2062 8.64683 70.4099 7.99975 70.8173 7.53234C71.2278 7.06498 71.794 6.83131 72.516 6.8313Z" fill="white"/>
<path d="M79.504 9.41083C79.504 8.81166 79.3796 8.34729 79.131 8.01777C78.8853 7.68822 78.5393 7.52345 78.0929 7.52345C77.6495 7.52345 77.3035 7.68823 77.0549 8.01777C76.8092 8.34731 76.6864 8.81168 76.6864 9.41083C76.6864 10.007 76.8092 10.4699 77.0549 10.7994C77.3035 11.129 77.6496 11.2937 78.0929 11.2937C78.5393 11.2937 78.8853 11.129 79.131 10.7994C79.3796 10.4699 79.504 10.007 79.504 9.41083ZM80.3308 11.3612C80.3308 12.218 80.1406 12.8546 79.7601 13.271C79.3796 13.6904 78.7969 13.9001 78.012 13.9001C77.7214 13.9001 77.4473 13.8777 77.1896 13.8327C76.932 13.7908 76.6818 13.7249 76.4392 13.635V12.8306C76.6818 12.9624 76.9215 13.0598 77.1582 13.1227C77.3949 13.1856 77.636 13.2171 77.8817 13.2171C78.424 13.2171 78.8299 13.0748 79.0995 12.7902C79.3692 12.5086 79.504 12.0816 79.504 11.5094V11.1005C79.3332 11.3971 79.1145 11.6188 78.8479 11.7656C78.5813 11.9124 78.2622 11.9857 77.8907 11.9857C77.2736 11.9857 76.7763 11.7506 76.3987 11.2802C76.0213 10.8099 75.8325 10.1867 75.8325 9.41077C75.8325 8.63184 76.0213 8.0072 76.3987 7.53683C76.7762 7.06648 77.2735 6.8313 77.8907 6.8313C78.2622 6.8313 78.5813 6.9047 78.8479 7.05149C79.1145 7.1983 79.3332 7.41999 79.504 7.71658V6.95263H80.3309V11.3611" fill="white"/>
<path d="M83.9852 7.53226C83.5418 7.53226 83.1913 7.70603 82.9337 8.05354C82.676 8.39807 82.5472 8.87142 82.5472 9.47363C82.5472 10.0758 82.6745 10.5506 82.9292 10.8982C83.1868 11.2427 83.5389 11.415 83.9853 11.415C84.4257 11.415 84.7747 11.2412 85.0323 10.8937C85.29 10.5462 85.4188 10.0728 85.4188 9.47362C85.4188 8.87744 85.29 8.40559 85.0323 8.05811C84.7747 7.7076 84.4256 7.53234 83.9853 7.53234L83.9852 7.53226ZM83.9853 6.8313C84.7043 6.8313 85.269 7.06498 85.6794 7.53234C86.0899 7.9997 86.2951 8.64678 86.2951 9.47369C86.2951 10.2976 86.0899 10.9447 85.6794 11.415C85.269 11.8824 84.7042 12.1161 83.9853 12.1161C83.2633 12.1161 82.6971 11.8824 82.2866 11.415C81.8791 10.9447 81.6754 10.2976 81.6754 9.47369C81.6754 8.64683 81.8791 7.99975 82.2866 7.53234C82.697 7.06498 83.2632 6.83131 83.9853 6.8313Z" fill="white"/>
<path fill-rule="evenodd" clip-rule="evenodd" d="M24.2119 24.2119C28.6693 19.7545 28.6693 12.5279 24.2119 8.07059C19.7546 3.61323 12.528 3.61323 8.07065 8.07059C3.6133 12.5279 3.6133 19.7545 8.07065 24.2119C12.528 28.6692 19.7546 28.6692 24.2119 24.2119ZM22.311 22.3124C25.0249 19.5985 25.0249 15.1984 22.311 12.4845C19.597 9.77054 15.197 9.77054 12.483 12.4845C9.76906 15.1984 9.76906 19.5985 12.483 22.3124C15.197 25.0264 19.597 25.0264 22.311 22.3124Z" fill="white"/>
</svg>
