<svg width="66" height="12" viewBox="0 0 66 12" fill="none" xmlns="http://www.w3.org/2000/svg">
<path d="M42.5519 6.04614L40.87 6.09186L40.869 5.89822L42.5519 5.90616V6.04614Z" fill="#2B5C9E"/>
<path d="M46.0515 2.50674C46.4556 2.50674 46.8396 2.50674 47.2512 2.50674C47.1662 2.90662 47.083 3.29716 47.0017 3.67885C47.1126 3.55473 47.223 3.41382 47.3509 3.29017C47.9651 2.69711 48.701 2.44468 49.5549 2.51747C50.1879 2.57113 50.733 2.79883 51.1517 3.28643C51.4506 3.63499 51.6254 4.04606 51.6945 4.49167C51.8844 5.72071 51.6578 6.86715 50.9309 7.89228C50.4064 8.63138 49.709 9.14091 48.8096 9.34155C48.2202 9.47313 47.6385 9.44514 47.0825 9.18477C46.7009 9.0056 46.4143 8.7289 46.2301 8.34955L46.1981 8.2777C46.1981 8.2777 45.7286 10.7558 45.4951 11.9891C45.0764 11.9891 44.6656 11.9891 44.2432 11.9891C44.8461 8.82735 45.4486 5.66985 46.0515 2.50674ZM47.9721 8.2735C48.436 8.27863 48.8105 8.14471 49.1554 7.92308C50.2574 7.21571 50.6339 5.74823 50.3777 4.69791C50.2288 4.08666 49.803 3.70591 49.2428 3.63452C48.6756 3.5622 48.1624 3.70731 47.7334 4.06939C46.802 4.85516 46.4298 5.87329 46.6065 7.06406C46.7193 7.82509 47.2616 8.28609 47.9721 8.2735Z" fill="#1CA0CB"/>
<path d="M17.4739 6.15609C17.4772 6.51958 17.551 6.79487 17.6887 7.0837C18.0383 7.8172 18.6403 8.19935 19.4383 8.29314C20.2649 8.39019 20.9773 8.11116 21.6221 7.61983C21.6432 7.6035 21.7227 7.55124 21.7227 7.55124C21.7227 7.55124 22.0718 8.16716 22.2481 8.47838C21.9792 8.71728 21.6869 8.90019 21.3702 9.04157C20.2607 9.53664 19.1408 9.57583 18.0313 9.06024C17.1732 8.66176 16.6017 7.99125 16.3264 7.09303C16.0068 6.04924 16.0895 5.02878 16.6328 4.07271C17.1121 3.22909 17.8612 2.74102 18.817 2.56884C19.4063 2.46246 19.9923 2.48112 20.5582 2.68969C21.4318 3.01165 21.9487 3.65883 22.2067 4.52764C22.2847 4.78988 22.3237 5.06144 22.3378 5.3344C22.3519 5.60877 22.3425 5.88173 22.3232 6.15563C22.3232 6.15563 20.4971 6.15563 19.6432 6.15563C18.9641 6.15609 17.5247 6.15609 17.4739 6.15609ZM21.0412 5.18649C21.0337 5.10763 21.0295 5.03671 21.0201 4.96625C20.975 4.6233 20.8707 4.30274 20.6371 4.03864C20.2583 3.6103 19.7701 3.48152 19.2151 3.54031C18.6178 3.6033 18.1497 3.87673 17.8222 4.37693C17.6614 4.6219 17.5646 4.893 17.5195 5.18649C18.6981 5.18649 19.8664 5.18649 21.0412 5.18649Z" fill="#2B5C9E"/>
<path d="M11.1325 9.40572C10.7335 9.40572 10.3463 9.40572 9.94822 9.40572C9.94822 8.99184 9.94822 8.57563 9.94822 8.17902C9.81475 8.35166 9.68646 8.54763 9.52903 8.71655C9.14086 9.13229 8.65212 9.35299 8.0835 9.40619C7.49279 9.46171 6.93638 9.35626 6.43824 9.03384C5.78127 8.60876 5.50824 7.98864 5.5698 7.22061C5.64029 6.3392 6.18871 5.8362 6.9627 5.52311C7.40491 5.3444 7.86874 5.24081 8.34338 5.20488C8.81331 5.16896 8.80908 5.17735 9.28043 5.15449L9.83261 5.12836C9.89229 4.37713 9.58683 3.70289 8.69019 3.60816C7.92466 3.52744 7.25359 3.77148 6.62528 4.17602C6.60319 4.19049 6.54727 4.22921 6.54727 4.22921L6.00449 3.27548C6.00449 3.27548 6.46503 3.00671 6.70376 2.89613C7.40162 2.57277 8.13989 2.46219 8.90401 2.52658C9.33213 2.56251 9.74191 2.67449 10.1085 2.90686C10.6555 3.25355 10.952 3.76634 11.0629 4.38739C11.108 4.63889 11.1282 4.89739 11.1292 5.15309C11.1358 6.52351 11.1325 9.35299 11.1325 9.40572ZM9.84812 6.11476C9.48486 6.08257 8.63427 6.11709 8.271 6.18289C7.94158 6.24261 7.61826 6.32287 7.3316 6.50624C6.67979 6.92199 6.70094 7.84166 7.37765 8.21775C7.76676 8.43378 8.18501 8.44825 8.6009 8.30127C9.44773 8.00217 9.93506 6.94998 9.84812 6.11476Z" fill="#2B5C9E"/>
<path d="M56.7824 5.1001C56.8364 4.84907 56.8543 4.5705 56.7974 4.29381C56.7194 3.91213 56.4205 3.66716 56.0004 3.6107C55.3171 3.51878 54.6907 3.70262 54.0849 3.99052C53.9482 4.05537 53.8166 4.1305 53.6747 4.20515C53.5656 3.88413 53.4401 3.51365 53.3386 3.19449L53.4242 3.14596C53.857 2.90333 54.318 2.73115 54.802 2.62243C55.4172 2.48432 56.0361 2.44746 56.6555 2.59257C57.2297 2.72695 57.6969 3.01111 57.9553 3.56357C58.1358 3.94945 58.1786 4.36333 58.1128 4.77208C57.9816 5.5863 57.8167 6.39539 57.6616 7.20588C57.5296 7.89786 57.2377 9.35973 57.226 9.40546C56.8345 9.40546 56.444 9.40546 56.0389 9.40546C56.1235 8.98691 56.2057 8.57863 56.2917 8.15356C56.2659 8.18482 56.2476 8.20675 56.2297 8.22961C55.8082 8.77694 55.2865 9.18895 54.5995 9.3434C53.8936 9.50204 53.2197 9.41619 52.6328 8.96078C52.2047 8.62856 52.036 8.17409 52.0581 7.64309C52.0971 6.70895 52.6196 6.1089 53.4228 5.70948C53.9543 5.44539 54.5234 5.29374 55.1108 5.22935C55.6601 5.16962 56.2114 5.14303 56.7824 5.1001ZM56.6202 6.08463C56.4045 6.08463 56.2072 6.08183 56.0093 6.0851C55.4482 6.09443 54.8937 6.15136 54.3608 6.33847C54.0097 6.46165 53.6873 6.63523 53.5003 6.97211C53.2259 7.46625 53.3104 8.17829 54.1159 8.33133C54.4928 8.40319 54.8547 8.33973 55.185 8.15216C55.9915 7.69488 56.4139 6.96978 56.6202 6.08463Z" fill="#1CA0CB"/>
<path d="M30.4273 7.75109C30.8931 6.35735 32.3132 2.50273 32.3132 2.50273C32.3132 2.50273 33.27 2.50273 33.7235 2.50273C33.7616 2.41641 31.0444 9.28435 30.4194 10.728C30.0876 11.3855 29.5617 11.8199 28.8211 11.9585C28.2055 12.0737 27.6373 11.9379 27.1049 11.5917L27.5466 10.6361C27.7261 10.7117 27.8901 10.805 28.0673 10.8512C28.5029 10.9641 28.877 10.8274 29.1642 10.4957C29.3033 10.3347 29.8479 9.21063 29.8479 9.21063L27.0038 2.5032H28.4508C28.4508 2.5032 30.4194 7.72916 30.4273 7.75109Z" fill="#2B5C9E"/>
<path d="M59.0134 2.50066C59.0134 2.50066 59.8997 2.50066 60.3489 2.50066C60.7037 4.28916 61.0585 6.08232 61.4105 7.85588C61.395 7.87314 61.4044 7.86568 61.4096 7.85635C61.8057 7.12564 64.3556 2.50066 64.3556 2.50066H65.7913C65.7913 2.50066 62.6023 7.86941 61.0294 10.4987C60.7174 11.0204 60.3212 11.4669 59.7657 11.745C58.9452 12.1556 58.1585 12.0497 57.3822 11.5728L57.9809 10.6611C58.1933 10.8132 58.4212 10.8883 58.6708 10.8944C59.1083 10.9047 59.4621 10.718 59.7436 10.4035C59.9095 10.2183 60.0411 10.0032 60.1859 9.79975C60.2296 9.73816 60.5862 9.15864 60.5862 9.15864C60.5862 9.15864 60.4937 8.84461 60.4561 8.68317C59.9791 6.64037 59.0134 2.50066 59.0134 2.50066Z" fill="#1CA0CB"/>
<path d="M0 8.47059L0.621259 7.56678C0.621259 7.56678 1.0583 7.86914 1.28575 7.99465C1.69507 8.22096 2.1401 8.33154 2.60957 8.31288C2.9155 8.30075 3.20263 8.21676 3.42773 7.99232C3.71017 7.71096 3.705 7.30875 3.41505 7.03625C3.17491 6.81088 2.87086 6.69609 2.5762 6.56451C2.10956 6.35594 1.63257 6.1651 1.18284 5.9248C0.726995 5.6817 0.387699 5.31495 0.270685 4.79142C0.0878785 3.97999 0.442682 3.22876 1.18331 2.83961C1.57288 2.63477 1.99066 2.53679 2.42864 2.51626C3.13872 2.48359 3.81355 2.60351 4.42823 2.97773C4.51564 3.03092 4.81452 3.22643 4.81452 3.22643L4.27033 4.18623C4.27033 4.18623 3.92775 3.9576 3.74494 3.87221C3.24117 3.63657 2.7139 3.53439 2.16313 3.68137C2.04846 3.71216 1.9338 3.76676 1.83652 3.83441C1.44318 4.10878 1.42485 4.64584 1.81913 4.91833C2.06585 5.08864 2.34828 5.21136 2.6232 5.33828C3.0358 5.52865 3.46392 5.68823 3.86995 5.89074C4.2708 6.09044 4.61104 6.37414 4.79713 6.79548C5.13314 7.55511 4.91415 8.52378 4.05651 9.03798C3.53065 9.35294 2.95263 9.44532 2.34734 9.41639C1.72092 9.38653 1.13396 9.22089 0.598702 8.8966C0.392399 8.77108 0 8.47059 0 8.47059Z" fill="#2B5C9E"/>
<path d="M26.9453 8.26988V9.40466C26.199 9.45552 25.4184 9.38927 24.7887 8.92966C24.3564 8.61377 24.1167 8.17423 24.0208 7.6591C23.9767 7.42253 23.9536 7.17943 23.9518 6.93913C23.9447 5.85614 23.9485 3.59918 23.9485 3.53852C23.7365 3.53852 23.0819 3.53852 23.0819 3.53852C23.0819 3.53852 23.0819 2.77282 23.0819 2.50032C23.3907 2.50032 23.6858 2.50032 23.9926 2.50032C23.9926 1.66044 23.9926 0.00585938 23.9926 0.00585938C23.9926 0.00585938 24.8099 0.00585938 25.2244 0.00585938C25.2244 0.832682 25.2244 1.6595 25.2244 2.50032C25.7634 2.50032 26.2906 2.50032 26.824 2.50032C26.824 2.85261 26.824 3.1909 26.824 3.53852C26.293 3.53852 25.2291 3.53852 25.2291 3.53852V6.80381C25.2314 7.02638 25.2742 7.25782 25.3437 7.46919C25.5106 7.97452 25.9039 8.21202 26.4166 8.26708C26.5862 8.28528 26.9453 8.26988 26.9453 8.26988Z" fill="#2B5C9E"/>
<path d="M15.9935 1.12191C14.9813 1.00433 14.2703 1.42474 14.2787 2.50259C14.54 2.50259 15.579 2.50259 15.8427 2.50259C15.8427 2.85208 15.8427 3.18757 15.8427 3.54032C15.579 3.54032 14.54 3.54032 14.2731 3.54032C14.2731 5.49959 14.2731 9.4046 14.2731 9.4046H13.0089C13.0089 9.4046 13.0089 5.50379 13.0089 3.54032C12.7293 3.54032 12.4648 3.54032 12.1903 3.54032C12.1903 3.1899 12.1903 2.85255 12.1903 2.50259C12.4572 2.50259 12.7223 2.50259 12.9963 2.50259C13.0099 2.31922 13.0165 2.14937 13.0367 1.97813C13.1574 0.960467 13.7463 0.288558 14.7754 0.0701868C15.1467 -0.00866925 15.6162 -0.0184679 15.9935 0.0277259V1.12191Z" fill="#2B5C9E"/>
<path d="M38.3973 5.99712C37.3324 6.82301 36.2802 7.63863 35.2148 8.46452C35.2148 6.81694 35.2148 5.18289 35.2148 3.53065C36.275 4.3528 37.3291 5.16936 38.3973 5.99712Z" fill="#1CA0CB"/>
<path d="M38.3973 5.99712H35.2148V3.53065L38.3973 5.99712Z" fill="#2B5C9E"/>
<path d="M36.5411 0.028038V1.69848C38.9134 1.69848 40.8406 3.64282 40.8712 5.99124C41.5389 5.99124 41.9609 5.99124 42.5535 5.99124C42.523 2.72034 39.8425 0.028038 36.5411 0.028038Z" fill="#2B5C9E"/>
<path d="M40.8712 5.9915C40.8716 6.01017 40.8712 5.97284 40.8712 5.9915C40.8712 8.36558 38.9327 10.2969 36.5411 10.2969V11.9673C39.8617 11.9673 42.5535 9.28853 42.5535 5.9915C42.5535 5.97284 42.5535 6.01017 42.5535 5.9915C41.9609 5.9915 41.5394 5.9915 40.8712 5.9915Z" fill="#1CA0CB"/>
</svg>
