<svg width="23" height="28" viewBox="0 0 23 28" fill="none" xmlns="http://www.w3.org/2000/svg">
<g clip-path="url(#clip0_650_14691)">
<path fill-rule="evenodd" clip-rule="evenodd" d="M4.73164 0.873352H18.8383C19.8295 0.873352 20.6408 1.73667 20.6408 2.792V3.70953C20.6408 5.00579 18.895 5.00141 18.895 3.71811V3.21691C18.895 2.89823 18.6357 2.63796 18.319 2.63796H4.18316C3.86649 2.63796 3.60731 2.89823 3.60731 3.21691V3.70807C3.60731 4.99721 1.94375 4.98863 1.94375 3.73581V2.792C1.94375 1.73667 2.75503 0.873352 3.74606 0.873352H4.73164ZM11.1994 22.2753H20.3482C22.4374 22.2753 22.4579 20.0402 22.2454 18.9372C22.1293 18.1956 20.8773 18.202 20.7392 18.9372V19.7976C20.7392 20.1913 20.4197 20.5127 20.0286 20.5127H2.4886C2.09738 20.5127 1.77798 20.1913 1.77798 19.7976V18.9372C1.63977 18.202 0.387937 18.1956 0.271677 18.9372C0.0591083 20.0402 0.0797847 22.2753 2.16829 22.2753H11.1994Z" fill="#0466B4"/>
<path fill-rule="evenodd" clip-rule="evenodd" d="M16.8553 10.6995H18.3141V10.6831C18.9786 10.5803 19.4908 9.99937 19.4908 9.30342C19.4908 8.53556 18.8667 7.90751 18.1035 7.90751H15.1662V15.2061H18.8914C19.68 15.2061 20.3241 14.5574 20.3241 13.7646C20.3241 12.9717 19.68 12.3229 18.8914 12.3229H18.3141V12.3201H16.8553C16.4124 12.3201 16.0504 11.9551 16.0504 11.5094C16.0504 11.0638 16.4124 10.6995 16.8553 10.6995ZM20.2844 11.4154C20.7909 10.8855 21.1027 10.1677 21.1027 9.37899C21.1027 7.75985 19.7848 6.4353 18.1744 6.4353H14.3478C13.9256 6.4353 13.5806 6.78246 13.5806 7.20663V16.0026C13.5806 16.4075 13.9319 16.7391 14.3622 16.7391H18.956C20.5947 16.7391 21.9357 15.475 21.9357 13.9292C21.9357 12.8326 21.2614 11.8781 20.2844 11.4154Z" fill="#2C2C2B"/>
<path fill-rule="evenodd" clip-rule="evenodd" d="M5.31461 24.9753C5.31461 24.8384 5.42434 24.7271 5.56037 24.7271C5.6964 24.7271 5.80704 24.8384 5.80704 24.9753V26.3163H5.80632C5.80632 26.6229 5.68153 26.9009 5.48111 27.1028C5.28124 27.3039 5.00501 27.4286 4.70103 27.4286V27.4301H4.69958V27.4286C4.3956 27.4286 4.11864 27.3039 3.91822 27.1021C3.71835 26.9009 3.59429 26.6229 3.59429 26.3163H3.59357V24.9753C3.59357 24.8384 3.70348 24.7271 3.83951 24.7271C3.97554 24.7271 4.08599 24.8384 4.08599 24.9753V26.3163H4.08527C4.08527 26.4861 4.15473 26.6408 4.26664 26.7535C4.378 26.8653 4.53163 26.9345 4.69958 26.9345V26.9338H4.70103V26.9345C4.86898 26.9345 5.0226 26.8646 5.13469 26.752C5.24587 26.6401 5.31534 26.4861 5.31534 26.3163H5.31461V24.9753Z" fill="#2C2C2B"/>
<path fill-rule="evenodd" clip-rule="evenodd" d="M7.64285 26.9338C7.77888 26.9338 7.88861 27.0451 7.88861 27.182C7.88861 27.3189 7.77888 27.4301 7.64285 27.4301H6.9627V27.4286C6.70751 27.4286 6.4759 27.3238 6.30795 27.1548C6.14072 26.9873 6.03734 26.7549 6.03734 26.4981H6.03589V24.9753C6.03589 24.8384 6.14653 24.7271 6.28256 24.7271C6.41859 24.7271 6.52904 24.8384 6.52904 24.9753V26.4981H6.52759C6.52759 26.618 6.57729 26.727 6.65655 26.8069C6.73526 26.886 6.84354 26.9345 6.9627 26.9345V26.9338H7.64285Z" fill="#2C2C2B"/>
<path fill-rule="evenodd" clip-rule="evenodd" d="M12.8502 15.8606C12.9041 16.3696 12.5377 16.8266 12.0312 16.8808C11.5246 16.9351 11.0712 16.5656 11.0173 16.0566L10.2613 9.06169L7.58608 15.9013L7.58336 15.9077V15.9084L7.57628 15.9268L7.56976 15.9412L7.56849 15.944L7.56196 15.9582L7.55851 15.9668L7.55144 15.9803L7.54853 15.9869L7.54146 16.0004L7.53856 16.0053C7.48977 16.0995 7.42593 16.1814 7.35156 16.2506L7.34957 16.2535L7.33524 16.2656C7.28718 16.3083 7.23403 16.3468 7.17581 16.3796L7.17237 16.3818L7.15459 16.391L7.15387 16.3917L7.13773 16.3995L7.13047 16.4039L7.11995 16.4081L7.10925 16.4138L7.09946 16.4182L7.08803 16.4231L7.07805 16.4275L7.06826 16.4309L7.05974 16.4346L7.05538 16.4366L7.04758 16.4395L7.03489 16.4444L7.02781 16.4466C6.9393 16.478 6.84789 16.4945 6.75793 16.4979L6.7465 16.4987H6.70189L6.69064 16.4979C6.58998 16.4945 6.48805 16.4738 6.38884 16.4346L6.37596 16.4295L6.37324 16.4287L6.36109 16.4231L6.34912 16.4182L6.33914 16.4138L6.31792 16.4032L6.31157 16.4003L6.29452 16.3917L6.29307 16.3904L6.27892 16.3826L6.2704 16.3782C6.22016 16.3497 6.17337 16.3169 6.1302 16.2798L6.12657 16.2769C6.11605 16.2685 6.10535 16.2592 6.0961 16.2499L6.09538 16.2491C6.08758 16.242 6.07996 16.2342 6.07216 16.2263C6.06509 16.2192 6.05729 16.2114 6.05003 16.2035L6.04949 16.2028C6.04024 16.1927 6.03099 16.1829 6.02246 16.1721L6.01974 16.1687C5.98274 16.125 5.95028 16.0781 5.9218 16.0267L5.9169 16.0188L5.90911 16.0046L5.90838 16.0026L5.89986 15.9861L5.89641 15.9797L5.89133 15.9683L5.88643 15.9575L5.88226 15.9484L5.87646 15.9361L5.87156 15.9241L5.87011 15.9204L5.86521 15.9084L3.18706 9.06169L2.4311 16.0566C2.37796 16.5656 1.9238 16.9351 1.41723 16.8808C0.911377 16.8266 0.544459 16.3696 0.598327 15.8606L1.48887 7.61376V7.61157L1.48959 7.60792H1.48887C1.49957 7.51173 1.52006 7.41627 1.54908 7.32282C1.57665 7.23156 1.61492 7.14176 1.66099 7.05397C1.88843 6.62413 2.30722 6.32243 2.806 6.2527H2.80799C2.82504 6.25051 2.84136 6.24832 2.85841 6.24686C2.9364 6.23902 3.01421 6.23701 3.09075 6.23975L3.09438 6.24048V6.23975C3.19414 6.24486 3.287 6.25763 3.37351 6.27753C3.84962 6.38959 4.25408 6.72324 4.4447 7.21021L6.72456 13.0372L9.00387 7.21021C9.19431 6.72324 9.59895 6.38959 10.0758 6.27753C10.1614 6.25763 10.2543 6.24486 10.3542 6.23975V6.24048L10.3576 6.23975C10.4342 6.23701 10.5129 6.23902 10.5909 6.24686C10.6078 6.24832 10.6241 6.25051 10.6404 6.2527H10.6426C11.1421 6.32243 11.56 6.62413 11.7874 7.05397C11.8342 7.14176 11.8717 7.23156 11.8993 7.32282C11.9285 7.41627 11.949 7.51173 11.9597 7.60792H11.959L11.9597 7.61157V7.61376L12.8502 15.8606Z" fill="#2C2C2B"/>
<path fill-rule="evenodd" clip-rule="evenodd" d="M3.50241 27.1526C3.51801 27.2888 3.42152 27.4115 3.28622 27.4279C3.15164 27.4436 3.02903 27.3467 3.01271 27.2112L2.80159 25.4258L2.04925 27.182C1.99539 27.3082 1.85083 27.3658 1.72623 27.3116C1.66601 27.2861 1.62139 27.2382 1.59727 27.182L0.84403 25.4258L0.632912 27.2112C0.617314 27.3467 0.494888 27.4436 0.359402 27.4279C0.224823 27.4115 0.128514 27.2888 0.144112 27.1526L0.389329 25.0801C0.405471 24.9447 0.487089 24.8334 0.604618 24.772C0.620216 24.7642 0.63654 24.7571 0.652863 24.7507C0.659211 24.7487 0.664834 24.7465 0.671182 24.7443C0.692403 24.7379 0.716525 24.7322 0.744275 24.7286H0.745545L0.748447 24.7279C0.876677 24.7114 1.00346 24.7536 1.09215 24.8377C1.11047 24.8549 1.12679 24.8741 1.14239 24.8954C1.15291 24.9104 1.16288 24.9261 1.17141 24.9425C1.17631 24.9511 1.18138 24.9604 1.18483 24.9695L1.82326 26.4591L2.46079 24.9695C2.51393 24.8471 2.62239 24.7629 2.74917 24.735C2.77402 24.7293 2.79814 24.7257 2.82154 24.7251C2.83986 24.7244 2.85836 24.7244 2.87541 24.7251H2.87668C2.88321 24.7257 2.88883 24.7264 2.89518 24.7271H2.89735V24.7279H2.89808C3.02975 24.745 3.14166 24.8191 3.20478 24.9261C3.21748 24.9482 3.2289 24.9724 3.23743 24.9967C3.24305 25.0124 3.24722 25.0288 3.25085 25.0451C3.25302 25.0559 3.25502 25.0666 3.25647 25.0779V25.0801L3.50241 27.1526Z" fill="#2C2C2B"/>
<path fill-rule="evenodd" clip-rule="evenodd" d="M8.71885 27.182C8.71885 27.3189 8.6084 27.4301 8.47237 27.4301C8.33634 27.4301 8.22643 27.3189 8.22643 27.182V25.2234H7.52506C7.38903 25.2234 7.2793 25.1122 7.2793 24.9753C7.2793 24.8384 7.38903 24.7271 7.52506 24.7271H9.41968C9.55571 24.7271 9.66616 24.8384 9.66616 24.9753C9.66616 25.1122 9.55571 25.2234 9.41968 25.2234H8.71885V27.182Z" fill="#2C2C2B"/>
<path fill-rule="evenodd" clip-rule="evenodd" d="M10.2557 27.182C10.2557 27.3189 10.1452 27.4301 10.0092 27.4301C9.87315 27.4301 9.76251 27.3189 9.76251 27.182V24.9753C9.76251 24.8384 9.87315 24.7271 10.0092 24.7271C10.1452 24.7271 10.2557 24.8384 10.2557 24.9753V27.182Z" fill="#2C2C2B"/>
<path fill-rule="evenodd" clip-rule="evenodd" d="M15.3092 27.1519C15.3255 27.2875 15.2299 27.4114 15.0946 27.4279C14.9599 27.4443 14.8367 27.3481 14.8204 27.2119L14.7339 26.5118H13.8801C13.7441 26.5118 13.6337 26.4005 13.6337 26.2636C13.6337 26.1267 13.7441 26.0163 13.8801 26.0163H14.6724L14.6497 25.8345V25.8323C14.649 25.8266 14.6483 25.8208 14.6483 25.8144C14.6419 25.7731 14.6327 25.731 14.6198 25.6883C14.6049 25.6397 14.588 25.5963 14.5688 25.557C14.4711 25.361 14.2946 25.2234 14.0708 25.2234H14.0686V25.2219C14.0254 25.2219 13.9844 25.2276 13.9447 25.2369C13.9079 25.2462 13.8703 25.2604 13.8341 25.2791C13.6456 25.3752 13.5188 25.587 13.492 25.8308L13.3375 27.209C13.3226 27.3444 13.2007 27.4428 13.0661 27.4279C12.9308 27.4129 12.8338 27.2902 12.8487 27.1548L13.0025 25.7766C13.0484 25.3703 13.2724 25.0102 13.611 24.837C13.6775 24.8027 13.7505 24.7757 13.8292 24.7563C13.9043 24.7386 13.985 24.7286 14.0686 24.7278V24.7271H14.0708C14.4981 24.7271 14.8296 24.9781 15.0074 25.3367C15.0422 25.4052 15.0705 25.4758 15.091 25.547C15.1102 25.6098 15.1244 25.6775 15.1342 25.7481C15.1363 25.756 15.1378 25.7638 15.1385 25.7724V25.7739L15.3092 27.1519Z" fill="#2C2C2B"/>
<path fill-rule="evenodd" clip-rule="evenodd" d="M16.063 27.182C16.063 27.3189 15.9533 27.4301 15.8173 27.4301C15.6813 27.4301 15.5708 27.3189 15.5708 27.182V25.1314C15.5708 25.1172 15.5715 25.1029 15.5742 25.0894C15.5779 25.0615 15.5842 25.0345 15.5935 25.0087L15.5942 25.008H15.5935C15.5991 24.9945 15.6054 24.9795 15.614 24.9638L15.6147 24.9631L15.614 24.9624C15.655 24.8875 15.7224 24.8291 15.8066 24.7999C15.8173 24.7963 15.8287 24.7928 15.84 24.7906C15.8492 24.7884 15.8577 24.787 15.8663 24.7857H15.8683V24.785C15.8846 24.7821 15.9045 24.7813 15.927 24.7813H15.9335C16.0348 24.7857 16.1291 24.8326 16.1942 24.916L17.505 26.5987V24.9753C17.505 24.8384 17.6154 24.7271 17.7514 24.7271C17.8875 24.7271 17.9979 24.8384 17.9979 24.9753V27.0157C17.9979 27.1241 17.9499 27.2211 17.8692 27.2875C17.8543 27.3003 17.8372 27.3116 17.8187 27.3216C17.8095 27.3273 17.799 27.3324 17.7883 27.3366L17.7855 27.3381C17.7785 27.3417 17.7719 27.3445 17.7649 27.3466L17.7641 27.3474V27.3466H17.7636L17.7621 27.3474C17.6729 27.378 17.5793 27.3716 17.4986 27.3324C17.4872 27.3273 17.4765 27.3216 17.4667 27.316C17.4496 27.3052 17.4333 27.2932 17.4177 27.2789C17.4079 27.2703 17.3972 27.2588 17.3858 27.2453L17.378 27.236L17.3775 27.2353L17.3746 27.2318L16.063 25.5492V27.182Z" fill="#2C2C2B"/>
<path fill-rule="evenodd" clip-rule="evenodd" d="M19.911 26.9338C20.047 26.9338 20.1576 27.0451 20.1576 27.182C20.1576 27.3189 20.047 27.4301 19.911 27.4301H19.1848V27.4286C18.9178 27.4286 18.6747 27.3189 18.4983 27.142C18.3232 26.9652 18.2142 26.7213 18.2142 26.4519H18.2135V25.7054H18.2142C18.2142 25.4358 18.324 25.1913 18.4997 25.0146C18.6755 24.8384 18.9178 24.7286 19.1848 24.7278V24.7271H19.911C20.047 24.7271 20.1576 24.8384 20.1576 24.9753C20.1576 25.1122 20.047 25.2234 19.911 25.2234H19.1848V25.2219C19.0538 25.2219 18.9341 25.2769 18.8461 25.3652C18.7591 25.4523 18.7052 25.5727 18.7052 25.7054H18.7059V26.4519H18.7052C18.7052 26.5844 18.7598 26.7049 18.8469 26.7934C18.9341 26.8803 19.0538 26.9345 19.1848 26.9345V26.9338H19.911Z" fill="#2C2C2B"/>
<path fill-rule="evenodd" clip-rule="evenodd" d="M21.3365 24.7271H21.3372V24.7278C21.651 24.7286 21.9372 24.8527 22.1442 25.0529C22.3538 25.2562 22.4842 25.5371 22.4842 25.8472H22.4857V26.3099H22.4842C22.4842 26.62 22.3538 26.9009 22.1442 27.1043C21.9365 27.3045 21.651 27.4286 21.3372 27.4286V27.4301H21.3365V27.4286C21.0218 27.4286 20.7363 27.3045 20.5288 27.1035C20.319 26.9009 20.1888 26.62 20.1888 26.3099H20.188V25.8472H20.1888C20.1888 25.5371 20.319 25.2562 20.5288 25.0529C20.7363 24.8527 21.0218 24.7286 21.3358 24.7278V24.7271H21.3365ZM21.3372 25.2219V25.2234H21.3358V25.2219C21.1544 25.2219 20.9894 25.294 20.8695 25.4096C20.7527 25.5229 20.6798 25.6782 20.6798 25.8472H20.6805V26.3099H20.6798C20.6798 26.4797 20.7527 26.6344 20.8695 26.7478C20.9894 26.8631 21.1544 26.9345 21.3365 26.9345V26.9338H21.3372V26.9345C21.5186 26.9345 21.6837 26.8631 21.8034 26.7478C21.9202 26.6344 21.9933 26.4789 21.9933 26.3099H21.9925V25.8472H21.9933C21.9933 25.6775 21.9209 25.5229 21.8034 25.4096C21.6844 25.294 21.5186 25.2219 21.3372 25.2219Z" fill="#2C2C2B"/>
<path fill-rule="evenodd" clip-rule="evenodd" d="M10.4626 26.0633V24.9859C10.4626 24.9511 10.4697 24.9175 10.4824 24.8875C10.4958 24.8549 10.5151 24.8262 10.5397 24.8019L10.5426 24.7992C10.5843 24.7592 10.6397 24.7322 10.7042 24.7278C10.7091 24.7278 10.714 24.7278 10.7191 24.7278V24.7271H11.6691V24.7278C11.8859 24.7286 12.0828 24.8176 12.2245 24.9611C12.3671 25.1037 12.4548 25.3011 12.4548 25.5185H12.4556V25.5192H12.4548C12.4548 25.674 12.4102 25.818 12.3337 25.94C12.3847 25.9721 12.4314 26.0099 12.4733 26.0518C12.479 26.0575 12.4839 26.0633 12.4888 26.069C12.6242 26.213 12.7077 26.4076 12.7077 26.6215H12.7091V26.6229H12.7077C12.7077 26.8454 12.6177 27.0471 12.4726 27.1926C12.3281 27.3381 12.1275 27.4286 11.9071 27.4286V27.4301H10.7084C10.5724 27.4301 10.4626 27.3189 10.4626 27.182V26.0633ZM10.9549 25.2234V26.9338H11.9071V26.9345C11.9914 26.9345 12.0694 26.8996 12.126 26.8425C12.1821 26.7863 12.2167 26.7078 12.2167 26.6229H12.2162V26.6215H12.2167C12.2167 26.5417 12.1857 26.4674 12.1345 26.412L12.1255 26.4026C12.068 26.3457 11.9907 26.3099 11.9071 26.3099V26.3107H11.5792C11.4431 26.3107 11.3325 26.1995 11.3325 26.0633C11.3325 25.9265 11.4431 25.8151 11.5792 25.8151H11.6911C11.7627 25.8095 11.8278 25.7773 11.8766 25.7282H11.8774C11.9305 25.6748 11.9639 25.6005 11.9639 25.5192H11.9631V25.5185H11.9639C11.9639 25.438 11.9305 25.3639 11.8766 25.3097C11.8229 25.2555 11.7498 25.2219 11.6691 25.2219V25.2234H10.9549Z" fill="#2C2C2B"/>
</g>
<defs>
<clipPath id="clip0_650_14691">
<rect width="22.4902" height="26.8305" fill="white" transform="translate(0 0.758789)"/>
</clipPath>
</defs>
</svg>
