<svg version="1.2" baseProfile="tiny" xmlns="http://www.w3.org/2000/svg" viewBox="0 0 21 20.6" overflow="visible" xml:space="preserve"><path fill-rule="evenodd" fill="#00579E" d="M17.2.4c.1.1.1.2.2.4l.6 2.5v.1c0 .1-.1.1-.2.1h-13c-.1 0-.2-.1-.2-.2s.1-.2.2-.2L16 0c.3-.1.6 0 .8.1.2.1.3.2.4.3zm0 15.6c-1.8 0-3.3-1.5-3.2-3.3 0-1.8 1.5-3.2 3.2-3.2h2c.1 0 .2-.1.2-.2V7c0-1.2-1-2.2-2.2-2.2H2.3C1.1 4.8.1 5.8.1 7v11.4c0 1.2 1 2.2 2.2 2.2h14.9c1.2 0 2.2-1 2.2-2.2v-2.2c0-.1-.1-.2-.2-.2h-2zm2.6-5.3h-2.6c-1.1 0-2 .8-2 1.9s.8 2 1.9 2h2.7c.6-.1 1.1-.7 1.1-1.3V12c0-.6-.5-1.2-1.1-1.3z"/></svg>