<svg width="16" height="13" viewBox="0 0 16 13" fill="none" xmlns="http://www.w3.org/2000/svg">
<path fill-rule="evenodd" clip-rule="evenodd" d="M5.9915 12.7097C6.4321 13.031 7.05337 12.9853 7.44153 12.581L7.53828 12.4656C7.85964 12.025 7.81392 11.4037 7.40959 11.0156L3.85945 7.60709L14.3929 7.6071L14.5317 7.59847C15.0776 7.53015 15.5 7.06438 15.5 6.49995C15.5 5.88849 15.0043 5.39281 14.3929 5.39281L3.8603 5.39281L7.40959 1.98435L7.51096 1.87302C7.85003 1.44589 7.8297 0.823283 7.44153 0.418943C7.01808 -0.0221555 6.31722 -0.0364579 5.87612 0.386995L0.342134 5.69962C0.304615 5.7355 0.269614 5.77398 0.237424 5.81479L0.236396 5.81592C0.16259 5.9096 0.106066 6.01248 0.0668246 6.12026C0.0264937 6.23073 0.00325928 6.34943 0.000320045 6.47315C-0.000118647 6.49137 -0.000109112 6.5096 0.000346743 6.52782C0.00333555 6.64879 0.0257278 6.76495 0.0645309 6.8733C0.120319 7.0295 0.212278 7.17563 0.340409 7.29864L5.87612 12.6129L5.9915 12.7097Z" fill="#00579E"/>
</svg>
