<svg width="45" height="19" viewBox="0 0 45 19" fill="none" xmlns="http://www.w3.org/2000/svg">
<path d="M0 3.98725C0 2.20522 1.53687 0.758789 3.42802 0.758789H40.777C42.6681 0.758789 44.205 2.20522 44.205 3.98725V15.5303C44.205 17.3123 42.6731 18.7588 40.777 18.7588H3.42802C1.53687 18.7635 0 17.3171 0 15.535V3.98725Z" fill="#000268"/>
<path d="M1.40814 4.10072V15.4263C1.40814 16.5419 2.36619 17.4447 3.54878 17.4447H23.1139V2.08234H3.54878C2.36619 2.08234 1.40814 2.98517 1.40814 4.10072ZM28.1736 9.7068C28.1736 10.43 27.7994 10.9216 27.1757 10.9216C26.6268 10.9216 26.1677 10.4253 26.1677 9.76352C26.1677 9.08758 26.5719 8.5818 27.1757 8.5818C27.8144 8.58653 28.1736 9.10649 28.1736 9.7068ZM24.5111 13.8428H26.1627V11.3848H26.1827C26.497 11.9237 27.1208 12.1222 27.6946 12.1222C29.1167 12.1222 29.8752 11.0114 29.8752 9.67371C29.8752 8.57708 29.1516 7.39063 27.8293 7.39063C27.0759 7.39063 26.3823 7.67897 26.048 8.31237H26.028V7.49462H24.5061V13.8428H24.5111ZM32.1306 10.5813C32.1306 10.1464 32.5697 9.98096 33.1285 9.98096C33.378 9.98096 33.6126 9.99514 33.8271 10.0046C33.8271 10.534 33.4329 11.0729 32.8092 11.0729C32.425 11.0776 32.1306 10.898 32.1306 10.5813ZM35.4638 12.0182C35.3889 11.6637 35.374 11.3045 35.374 10.95V9.26247C35.374 7.88222 34.3211 7.3859 33.0986 7.3859C32.395 7.3859 31.7763 7.48044 31.1925 7.70733L31.2224 8.76615C31.6815 8.52035 32.2104 8.42582 32.7443 8.42582C33.3381 8.42582 33.8271 8.59126 33.8371 9.21048C33.6275 9.17739 33.3331 9.14903 33.0687 9.14903C32.1904 9.14903 30.6037 9.31447 30.6037 10.6947C30.6037 11.6779 31.447 12.1175 32.39 12.1175C33.0687 12.1175 33.5277 11.867 33.902 11.2998H33.9219C33.9219 11.5361 33.9469 11.7677 33.9569 12.0135H35.4638V12.0182ZM36.2023 13.8428C36.5416 13.9137 36.8809 13.9468 37.2302 13.9468C38.7421 13.9468 39.1014 12.8407 39.5704 11.7063L41.3218 7.49462H39.6702L38.6872 10.4489H38.6722L37.6443 7.49462H35.868L37.804 12.127C37.6843 12.5288 37.3749 12.7509 36.9707 12.7509C36.7412 12.7509 36.5416 12.7226 36.317 12.6564L36.2023 13.8428Z" fill="white"/>
<path d="M5.43737 9.71603C5.43737 9.09681 5.75672 8.5863 6.37546 8.5863C7.11895 8.5863 7.42832 9.1488 7.42832 9.65458C7.42832 10.3494 6.95927 10.8174 6.37546 10.8174C5.87648 10.8174 5.43737 10.4203 5.43737 9.71603ZM9.02507 7.48966H7.52812V8.30742H7.51315C7.16386 7.74964 6.59502 7.38567 5.89145 7.38567C4.40448 7.38567 3.73584 8.3925 3.73584 9.73966C3.73584 11.0774 4.55417 12.018 5.86151 12.018C6.52516 12.018 7.07404 11.7722 7.46824 11.2428H7.4882V11.4886C7.4882 12.3725 6.97424 12.798 6.02118 12.798C5.33259 12.798 4.90845 12.6609 4.40448 12.4245L4.31965 13.6582C4.70387 13.7906 5.35754 13.9466 6.14593 13.9466C8.07201 13.9466 9.02507 13.3463 9.02507 11.4886V7.48966ZM11.8144 5.60364H10.1627V6.75227H11.8144V5.60364ZM10.1627 12.018H11.8144V7.48966H10.1627V12.018ZM16.41 7.43767C16.2454 7.41403 16.0408 7.38567 15.8512 7.38567C15.1376 7.38567 14.7235 7.74964 14.439 8.32632H14.4191V7.49439H12.9171V12.0227H14.5688V10.1131C14.5688 9.22443 15.0029 8.69502 15.7713 8.69502C15.9659 8.69502 16.1456 8.69502 16.3302 8.74702L16.41 7.43767ZM19.2542 11.0254C18.4908 11.0254 18.1814 10.4251 18.1814 9.75857C18.1814 9.08262 18.4908 8.48231 19.2542 8.48231C20.0177 8.48231 20.327 9.08262 20.327 9.75857C20.327 10.4251 20.0127 11.0254 19.2542 11.0254ZM19.2542 12.122C20.831 12.122 22.0336 11.2523 22.0336 9.75857C22.0336 8.25542 20.831 7.38567 19.2542 7.38567C17.6774 7.38567 16.4749 8.25542 16.4749 9.75857C16.4749 11.2523 17.6725 12.122 19.2542 12.122Z" fill="#FF0007"/>
</svg>
