<svg width="39" height="24" viewBox="0 0 39 24" fill="none" xmlns="http://www.w3.org/2000/svg">
<mask id="mask0_650_14225" style="mask-type:alpha" maskUnits="userSpaceOnUse" x="0" y="0" width="39" height="24">
<path d="M0 0H38.6757V24H0V0Z" fill="white"/>
</mask>
<g mask="url(#mask0_650_14225)">
<path d="M35.2125 -0.000411987H3.46356C3.33137 -0.000411987 3.19888 -0.000411987 3.06699 0.000457705C2.95544 0.0010375 2.84418 0.00219709 2.73293 0.00538596C2.49008 0.0114738 2.24514 0.0253889 2.00558 0.0671341C1.76184 0.109749 1.53514 0.179035 1.31413 0.288326C1.0967 0.395298 0.897817 0.535608 0.725252 0.702879C0.552687 0.86986 0.408235 1.06264 0.297578 1.2734C0.185126 1.48792 0.113349 1.70766 0.0699831 1.94393C0.0266175 2.17643 0.012262 2.41356 0.00568239 2.64867C0.00299073 2.75651 0.00149536 2.86464 0.000598146 2.97249C0 3.10062 0 3.22876 0 3.35718V20.6426C0 20.771 0 20.8989 0.000598146 21.0276C0.00149536 21.1354 0.00299073 21.2433 0.00568239 21.3511C0.012262 21.5859 0.0266175 21.8234 0.0699831 22.0559C0.113349 22.2921 0.185126 22.5119 0.297578 22.7264C0.408235 22.9371 0.552687 23.1299 0.725252 23.2969C0.897817 23.4645 1.0967 23.6045 1.31413 23.7115C1.53514 23.8208 1.76184 23.89 2.00558 23.9329C2.24514 23.9741 2.49008 23.9883 2.73293 23.9947C2.84418 23.997 2.95544 23.9987 3.06699 23.999C3.19888 23.9999 3.33137 23.9999 3.46356 23.9999H35.2125C35.3444 23.9999 35.4769 23.9999 35.6091 23.999C35.7204 23.9987 35.8316 23.997 35.9435 23.9947C36.1857 23.9883 36.4307 23.9741 36.6708 23.9329C36.914 23.89 37.1407 23.8208 37.362 23.7115C37.5794 23.6045 37.778 23.4645 37.9509 23.2969C38.1231 23.1299 38.2676 22.9371 38.3785 22.7264C38.4913 22.5119 38.5628 22.2921 38.6064 22.0559C38.6495 21.8234 38.6635 21.5859 38.6704 21.3511C38.6731 21.2433 38.6746 21.1354 38.6752 21.0276C38.6761 20.8989 38.6761 20.771 38.6761 20.6426V3.35718C38.6761 3.22876 38.6761 3.10062 38.6752 2.97249C38.6746 2.86464 38.6731 2.75651 38.6704 2.64867C38.6635 2.41356 38.6495 2.17643 38.6064 1.94393C38.5628 1.70766 38.4913 1.48792 38.3785 1.2734C38.2676 1.06264 38.1231 0.86986 37.9509 0.702879C37.778 0.535608 37.5794 0.395298 37.362 0.288326C37.1407 0.179035 36.914 0.109749 36.6708 0.0671341C36.4307 0.0253889 36.1857 0.0114738 35.9435 0.00538596C35.8316 0.00219709 35.7204 0.0010375 35.6091 0.000457705C35.4769 -0.000411987 35.3444 -0.000411987 35.2125 -0.000411987Z" fill="#231F20"/>
</g>
<path d="M35.2124 0.800034L35.6033 0.800613C35.7085 0.801483 35.8147 0.802643 35.9209 0.805252C36.106 0.81018 36.3225 0.820036 36.5247 0.855114C36.7 0.885553 36.8468 0.932227 36.988 1.0018C37.1273 1.07051 37.255 1.16038 37.3666 1.26851C37.4784 1.37693 37.5718 1.50101 37.6432 1.63755C37.7147 1.77351 37.7623 1.91527 37.794 2.0866C37.8299 2.27996 37.84 2.49043 37.8451 2.67103C37.8481 2.77279 37.8493 2.87483 37.8496 2.97919C37.8508 3.1053 37.8508 3.2314 37.8508 3.35751V20.6432C37.8508 20.7696 37.8508 20.8954 37.8496 21.0242C37.8493 21.1262 37.8481 21.228 37.8451 21.33C37.84 21.51 37.8299 21.7205 37.7934 21.9162C37.7623 22.0852 37.7147 22.2272 37.6426 22.3635C37.5715 22.4997 37.4784 22.6238 37.3669 22.7316C37.2547 22.8404 37.1276 22.9299 36.9868 22.9992C36.8465 23.0688 36.7 23.1152 36.5262 23.1453C36.3198 23.181 36.0943 23.1908 35.9245 23.1952C35.8177 23.1978 35.7115 23.1993 35.6027 23.1995C35.4726 23.2004 35.3425 23.2004 35.2124 23.2004H3.46338H3.45829C3.32999 23.2004 3.20139 23.2004 3.0707 23.1995C2.96393 23.1993 2.85776 23.1978 2.75488 23.1955C2.58111 23.1908 2.35561 23.181 2.15135 23.1456C1.97609 23.1152 1.82924 23.0688 1.68718 22.9984C1.54752 22.9299 1.42041 22.8401 1.30826 22.7311C1.197 22.6235 1.10429 22.5 1.03281 22.3635C0.961335 22.2272 0.913483 22.0849 0.881781 21.9138C0.845593 21.7187 0.835425 21.5092 0.830341 21.3303C0.827649 21.2277 0.826453 21.1253 0.825854 21.0233L0.825256 20.7227V20.6432V3.35751V3.27837L0.825854 2.97803C0.826453 2.8757 0.827649 2.77308 0.830341 2.67074C0.835425 2.49159 0.845593 2.28199 0.88208 2.08515C0.913483 1.91556 0.961335 1.77322 1.03311 1.6361C1.10429 1.50072 1.197 1.37722 1.30886 1.2688C1.42011 1.16067 1.54782 1.0708 1.68838 1.00151C1.82895 0.932227 1.97609 0.885553 2.15105 0.855114C2.35292 0.820036 2.56975 0.81018 2.75517 0.805252C2.86105 0.802643 2.96662 0.801483 3.07159 0.800903L3.46338 0.800034H35.2124Z" fill="#FEFEFE"/>
<path d="M10.1662 8.10142C10.494 7.70397 10.7165 7.17027 10.6579 6.62468C10.1779 6.64787 9.59228 6.93168 9.25313 7.32942C8.94867 7.67005 8.67921 8.22636 8.74949 8.74876C9.28812 8.79427 9.82645 8.48785 10.1662 8.10142Z" fill="#231F20"/>
<path d="M10.6514 8.85113C9.86904 8.80591 9.20361 9.28163 8.83006 9.28163C8.45622 9.28163 7.8841 8.87374 7.26531 8.88476C6.45961 8.89635 5.71223 9.33787 5.30339 10.04C4.4627 11.4446 5.08178 13.528 5.89915 14.672C6.29632 15.2379 6.77483 15.8611 7.40528 15.8385C8.00103 15.8159 8.23431 15.4649 8.95866 15.4649C9.68212 15.4649 9.89237 15.8385 10.5231 15.8272C11.1769 15.8159 11.5857 15.2611 11.9829 14.6946C12.4381 14.0496 12.6247 13.4266 12.6364 13.3924C12.6247 13.3811 11.3755 12.9164 11.3638 11.5234C11.3521 10.3571 12.3448 9.80257 12.3914 9.76808C11.831 8.96448 10.955 8.87374 10.6514 8.85113Z" fill="#231F20"/>
<path d="M16.5286 11.759H18.0895C19.2741 11.759 19.9482 11.1409 19.9482 10.0695C19.9482 8.99801 19.2741 8.38545 18.0958 8.38545H16.5286V11.759ZM18.4541 7.27283C20.1546 7.27283 21.3389 8.40923 21.3389 10.0634C21.3389 11.7236 20.1304 12.8658 18.4116 12.8658H16.5286V15.7683H15.1682V7.27283H18.4541Z" fill="#231F20"/>
<path d="M25.8056 13.4605V12.9837L24.2935 13.0779C23.4432 13.1306 22.9997 13.4371 22.9997 13.9728C22.9997 14.4908 23.4612 14.8265 24.184 14.8265C25.1073 14.8265 25.8056 14.2551 25.8056 13.4605ZM21.6757 14.0082C21.6757 12.9187 22.5323 12.2949 24.1111 12.2006L25.8056 12.1006V11.6295C25.8056 10.9407 25.3385 10.5639 24.5058 10.5639C23.8195 10.5639 23.3215 10.9054 23.2186 11.4292H21.9912C22.028 10.3285 23.0969 9.52779 24.5423 9.52779C26.0975 9.52779 27.1117 10.3166 27.1117 11.5411V15.7684H25.8544V14.75H25.8242C25.4656 15.415 24.676 15.8331 23.8195 15.8331C22.5565 15.8331 21.6757 15.1031 21.6757 14.0082Z" fill="#231F20"/>
<path d="M28.268 18.0406V17.0221C28.3526 17.0337 28.5593 17.0456 28.6687 17.0456C29.2699 17.0456 29.6099 16.7983 29.8166 16.1626L29.9383 15.7857L27.636 9.60396H29.0572L30.6609 14.6201H30.6914L32.2947 9.60396H33.6797L31.2922 16.0977C30.7458 17.5872 30.1198 18.0759 28.7964 18.0759C28.693 18.0759 28.3589 18.064 28.268 18.0406Z" fill="#231F20"/>
</svg>
