<svg width="46" height="46" viewBox="0 0 46 46" fill="none" xmlns="http://www.w3.org/2000/svg">
<circle cx="23" cy="23" r="23" fill="#F8EAEA"/>
<g clip-path="url(#clip0_1750_40860)">
<path fill-rule="evenodd" clip-rule="evenodd" d="M16.3464 27.9807C15.8845 28.4427 15.8845 29.1916 16.3464 29.6535C16.8084 30.1155 17.5573 30.1155 18.0193 29.6535L23 24.6728L27.9807 29.6535C28.4427 30.1155 29.1916 30.1155 29.6535 29.6535C30.1155 29.1916 30.1155 28.4427 29.6535 27.9807L24.6728 23L29.6535 18.0193C30.1155 17.5573 30.1155 16.8084 29.6535 16.3464C29.1916 15.8845 28.4427 15.8845 27.9807 16.3464L23 21.3272L18.0193 16.3465C17.5573 15.8845 16.8084 15.8845 16.3465 16.3465C15.8845 16.8084 15.8845 17.5573 16.3465 18.0193L21.3272 23L16.3464 27.9807Z" fill="#C03230"/>
</g>
<defs>
<clipPath id="clip0_1750_40860">
<rect width="14" height="14" fill="white" transform="translate(16 16)"/>
</clipPath>
</defs>
</svg>
