<svg width="30" height="24" viewBox="0 0 30 24" fill="none" xmlns="http://www.w3.org/2000/svg">
<path d="M29.7151 15.317V14.9498H29.6251L29.5201 15.1946L29.4151 14.9498H29.3251V15.317H29.3851V15.0416L29.4901 15.2864H29.5651L29.6701 15.0416V15.317H29.7151ZM29.1151 15.317V15.011H29.2351V14.9498H28.9351V15.011H29.0551V15.317H29.1151Z" fill="#00A2E5"/>
<path d="M19.0501 16.8932H10.9351V2.0199H19.0501V16.8932Z" fill="#7375CF"/>
<path d="M11.46 9.45648C11.46 6.44204 12.84 3.74893 15 2.01983C13.425 0.749786 11.43 0 9.27 0C4.155 0 0 4.23858 0 9.45648C0 14.6744 4.155 18.913 9.27 18.913C11.43 18.913 13.425 18.1632 15 16.8931C12.84 15.164 11.46 12.4709 11.46 9.45648Z" fill="#EB001B"/>
<path d="M30 9.45651C30 14.6744 25.845 18.913 20.73 18.913C18.57 18.913 16.575 18.1632 15 16.8932C17.16 15.1641 18.54 12.471 18.54 9.45651C18.54 6.44207 17.16 3.74896 15 2.01986C16.575 0.749816 18.57 3.05176e-05 20.73 3.05176e-05C25.845 3.05176e-05 30 4.23862 30 9.45651Z" fill="#00A2E5"/>
<path fill-rule="evenodd" clip-rule="evenodd" d="M22.1551 21.1623C22.0501 21.1164 21.8851 21.1011 21.7801 21.1011C21.4801 21.1011 21.2701 21.2388 21.1201 21.4683V21.1623H20.5951V23.6718H21.1351V22.264C21.1351 21.8509 21.3151 21.6213 21.6601 21.6213C21.7651 21.6213 21.8701 21.6366 21.9901 21.6825L22.1551 21.1623ZM18.9301 21.6519H19.8001V21.147H18.9301V20.3819H18.3901V21.147H17.8951V21.6519H18.3901V22.7996C18.3901 23.381 18.6151 23.733 19.2451 23.733C19.4851 23.733 19.7551 23.6565 19.9201 23.5341L19.7701 23.0597C19.6051 23.1515 19.4251 23.1974 19.2901 23.1974C19.0201 23.1974 18.9301 23.0291 18.9301 22.7843V21.6519ZM13.6051 21.5754C13.2151 21.5754 13.0051 21.8203 12.9451 22.1875H14.2351C14.1751 21.7897 13.9501 21.5754 13.6051 21.5754ZM13.6201 21.1011C14.3101 21.1011 14.7901 21.6366 14.7901 22.417C14.7901 22.4824 14.7792 22.5366 14.7667 22.5987C14.7645 22.6093 14.7623 22.6201 14.7601 22.6313H12.9301C13.0051 23.075 13.3201 23.2433 13.6651 23.2433C13.9201 23.2433 14.1751 23.1515 14.3851 22.9832L14.6551 23.381C14.3551 23.6412 14.0251 23.733 13.6501 23.733C12.9151 23.733 12.3901 23.2127 12.3901 22.417C12.3901 21.6366 12.9001 21.1011 13.6201 21.1011ZM16.3801 21.5907C16.6951 21.5907 16.9951 21.7131 17.1451 21.805L17.3701 21.3612C17.1151 21.1929 16.7551 21.1011 16.3651 21.1011C15.7501 21.1011 15.3451 21.4071 15.3451 21.9121C15.3451 22.3099 15.6451 22.57 16.2001 22.6466L16.4551 22.6772C16.7551 22.7231 16.8901 22.7996 16.8901 22.9373C16.8901 23.1362 16.6951 23.2433 16.3351 23.2433C15.9601 23.2433 15.6901 23.1209 15.5101 22.9832L15.2551 23.4116C15.5401 23.6259 15.9151 23.733 16.3201 23.733C17.0401 23.733 17.4451 23.381 17.4451 22.9067C17.4451 22.4629 17.1301 22.2334 16.5901 22.1569L16.3351 22.1263C16.0951 22.0957 15.9151 22.0498 15.9151 21.8815C15.9151 21.6978 16.0801 21.5907 16.3801 21.5907ZM23.4451 21.6672C23.5351 21.6213 23.6401 21.606 23.7451 21.606C23.8501 21.606 23.9551 21.6366 24.0451 21.6672C24.1351 21.7132 24.2101 21.7591 24.2851 21.8356C24.3601 21.9121 24.4051 22.0039 24.4501 22.0957C24.4951 22.1875 24.5101 22.2946 24.5101 22.417C24.5101 22.5241 24.4951 22.6466 24.4501 22.7384C24.4051 22.8455 24.3601 22.922 24.2851 22.9985C24.2251 23.075 24.1351 23.1209 24.0451 23.1668C23.9551 23.2127 23.8501 23.228 23.7451 23.228C23.6401 23.228 23.5351 23.2127 23.4451 23.1668C23.3551 23.1209 23.2801 23.075 23.2051 22.9985C23.1301 22.922 23.0851 22.8302 23.0401 22.7384C22.9951 22.6466 22.9801 22.5394 22.9801 22.417C22.9801 22.3099 22.9951 22.1875 23.0401 22.0957C23.0851 21.9886 23.1451 21.9121 23.2051 21.8356C23.2651 21.7591 23.3551 21.7132 23.4451 21.6672ZM24.2701 21.2082C24.1201 21.1317 23.9401 21.1011 23.7451 21.1011C23.5501 21.1011 23.3701 21.1317 23.2201 21.2082C23.0551 21.2694 22.9201 21.3612 22.8001 21.4836C22.6801 21.5907 22.5751 21.7285 22.5151 21.8968C22.4401 22.0498 22.4101 22.2334 22.4101 22.417C22.4101 22.6007 22.4551 22.769 22.5151 22.9373C22.5901 23.0903 22.6801 23.228 22.8001 23.3504C22.9201 23.4729 23.0551 23.5647 23.2201 23.6259C23.3701 23.7024 23.5501 23.733 23.7451 23.733C23.9251 23.733 24.1051 23.6871 24.2701 23.6259C24.4351 23.5647 24.5701 23.4729 24.6901 23.3504C24.8101 23.2433 24.9151 23.1056 24.9751 22.9373C25.0501 22.7843 25.0801 22.6007 25.0801 22.417C25.0801 22.2334 25.0351 22.0651 24.9751 21.8968C24.9001 21.7438 24.8101 21.606 24.6901 21.4836C24.5701 21.3612 24.4351 21.2694 24.2701 21.2082ZM10.5751 21.606C10.1101 21.606 9.82514 21.9733 9.82514 22.417C9.82514 22.8608 10.1101 23.2127 10.5751 23.2127C11.0101 23.2127 11.3101 22.8761 11.3101 22.417C11.3101 21.958 11.0251 21.606 10.5751 21.606ZM11.8201 21.1623V22.417V23.6718H11.2801V23.3657C11.1001 23.5953 10.8451 23.733 10.5001 23.733C9.81014 23.733 9.27014 23.1821 9.27014 22.417C9.27014 21.6519 9.81014 21.1011 10.5001 21.1011C10.8601 21.1011 11.1151 21.2388 11.2801 21.4683V21.1623H11.8201ZM8.80514 22.0957V23.6412H8.25014V22.2487C8.25014 21.8203 8.07014 21.5907 7.71014 21.5907C7.36514 21.5907 7.11014 21.8356 7.11014 22.264V23.6565H6.57014V22.264C6.57014 21.8356 6.39014 21.606 6.03014 21.606C5.67014 21.606 5.43014 21.8509 5.43014 22.2793V23.6718H4.89014V21.1623H5.43014V21.4683C5.62514 21.1776 5.89514 21.1011 6.15014 21.1011C6.52514 21.1011 6.79514 21.2694 6.96014 21.5448C7.18514 21.1929 7.51514 21.1011 7.83014 21.1011C8.43014 21.1011 8.80514 21.4989 8.80514 22.0957ZM25.6502 23.534V23.4728V23.4575H25.7102C25.7252 23.4575 25.7402 23.4728 25.7402 23.4728C25.7552 23.4728 25.7552 23.4728 25.7552 23.4881C25.7552 23.5034 25.7552 23.5187 25.7402 23.5187C25.7402 23.534 25.7252 23.534 25.7102 23.534H25.6502ZM25.7702 23.4575C25.7552 23.4422 25.7402 23.4422 25.7102 23.4422H25.6052V23.6717H25.6502V23.5799H25.6652L25.7402 23.6717H25.8002L25.7252 23.5799C25.7552 23.5799 25.7702 23.5799 25.7852 23.5646C25.8002 23.5493 25.8002 23.534 25.8002 23.5187C25.8002 23.4881 25.7852 23.4728 25.7702 23.4575ZM25.7702 23.733C25.7402 23.7483 25.7252 23.7483 25.6952 23.7483C25.6652 23.7483 25.6502 23.7483 25.6202 23.733C25.6127 23.7253 25.6014 23.7177 25.5902 23.71C25.5789 23.7024 25.5677 23.6947 25.5602 23.687C25.5452 23.6717 25.5302 23.6564 25.5152 23.6258C25.5002 23.5952 25.5002 23.5799 25.5002 23.5493C25.5002 23.5187 25.5002 23.5034 25.5152 23.4728C25.5227 23.4652 25.5302 23.4537 25.5377 23.4422C25.5452 23.4307 25.5527 23.4193 25.5602 23.4116C25.5752 23.3963 25.5902 23.381 25.6202 23.3657C25.6502 23.3504 25.6652 23.3504 25.6952 23.3504C25.7252 23.3504 25.7552 23.3504 25.7702 23.3657C25.8002 23.381 25.8152 23.3963 25.8302 23.4116C25.8452 23.4269 25.8602 23.4422 25.8752 23.4728C25.8902 23.5034 25.8902 23.5187 25.8902 23.5493C25.8902 23.5799 25.8902 23.5952 25.8752 23.6258C25.8602 23.6564 25.8452 23.6717 25.8302 23.687C25.8152 23.7023 25.8002 23.7177 25.7702 23.733ZM25.7852 23.3198C25.7552 23.3045 25.7252 23.3045 25.6952 23.3045C25.6652 23.3045 25.6202 23.3045 25.5902 23.3198C25.5602 23.3198 25.5302 23.3504 25.5152 23.3657C25.4852 23.381 25.4702 23.4116 25.4552 23.4422C25.4402 23.4728 25.4402 23.5034 25.4402 23.534C25.4402 23.5646 25.4402 23.5952 25.4552 23.6258C25.4702 23.6564 25.5002 23.687 25.5152 23.7023C25.5302 23.733 25.5602 23.7483 25.5902 23.7636C25.6202 23.7789 25.6652 23.7789 25.6952 23.7789C25.7252 23.7789 25.7552 23.7789 25.7852 23.7636C25.8002 23.7559 25.8114 23.7444 25.8227 23.733C25.8339 23.7215 25.8452 23.71 25.8602 23.7023C25.8902 23.687 25.9052 23.6564 25.9202 23.6258C25.9352 23.5952 25.9352 23.5646 25.9352 23.534C25.9352 23.5034 25.9352 23.4728 25.9202 23.4422C25.9052 23.4116 25.8752 23.381 25.8602 23.3657L25.8602 23.3657C25.8452 23.3504 25.8152 23.3351 25.7852 23.3198Z" fill="white"/>
</svg>
