<svg width="22" height="17" viewBox="0 0 22 17" fill="none" xmlns="http://www.w3.org/2000/svg">
<path fill-rule="evenodd" clip-rule="evenodd" d="M0.000444478 6.09683H21.9996C21.9942 3.37393 21.9254 1.9446 21.0335 1.02978C20.0669 0.0384521 18.5113 0.0384521 15.4 0.0384521H6.6C3.48873 0.0384521 1.9331 0.0384521 0.966548 1.02978C0.0746046 1.9446 0.00575848 3.37393 0.000444478 6.09683ZM22 7.51836H0V10.1923C0 13.3833 0 14.9789 0.966548 15.9702C1.9331 16.9615 3.48873 16.9615 6.6 16.9615H15.4C18.5113 16.9615 20.0669 16.9615 21.0335 15.9702C22 14.9789 22 13.3833 22 10.1923V7.51836ZM5.5 11.7378C5.10745 11.7378 4.78923 12.0561 4.78923 12.4486C4.78923 12.8412 5.10745 13.1594 5.5 13.1594H5.511C5.90355 13.1594 6.22177 12.8412 6.22177 12.4486C6.22177 12.0561 5.90355 11.7378 5.511 11.7378H5.5Z" fill="#00579E"/>
</svg>
