<svg width="50" height="19" viewBox="0 0 50 19" fill="none" xmlns="http://www.w3.org/2000/svg">
<path d="M24.4946 9.84565C24.3943 9.62378 24.1863 9.45917 23.8709 9.45917C23.5553 9.45917 23.3474 9.62378 23.247 9.84565C23.1897 9.98157 23.1682 10.0818 23.161 10.2464H24.5807C24.5735 10.0818 24.552 9.98157 24.4946 9.84565ZM23.161 10.8834C23.161 11.3628 23.455 11.7135 23.9784 11.7135C24.3871 11.7135 24.5879 11.599 24.8245 11.3628L25.3909 11.914C25.0109 12.2932 24.6452 12.5008 23.9712 12.5008C23.0893 12.5008 22.2432 12.1 22.2432 10.5899C22.2432 9.37328 22.9029 8.68627 23.8709 8.68627C24.9105 8.68627 25.4985 9.44485 25.4985 10.4682V10.8834H23.161Z" fill="#808285"/>
<mask id="mask0_650_14516" style="mask-type:alpha" maskUnits="userSpaceOnUse" x="0" y="0" width="50" height="19">
<path d="M0 18.9373H49.4506V0.937256H0V18.9373Z" fill="white"/>
</mask>
<g mask="url(#mask0_650_14516)">
<path d="M26.2921 10.848H28.5005V9.98198H26.2921V10.848Z" fill="#808285"/>
</g>
<mask id="mask1_650_14516" style="mask-type:alpha" maskUnits="userSpaceOnUse" x="0" y="0" width="50" height="19">
<path d="M0 18.9373H49.4506V0.937256H0V18.9373Z" fill="white"/>
</mask>
<g mask="url(#mask1_650_14516)">
<path d="M33.8455 12.4581H33.0138L32.0744 9.36638L31.1352 12.4581H30.3034L28.9411 7.36248H29.9808L30.7695 10.5759L31.7016 7.36248H32.4474L33.3794 10.5759L34.1753 7.36248H35.215L33.8455 12.4581Z" fill="#808285"/>
</g>
<mask id="mask2_650_14516" style="mask-type:alpha" maskUnits="userSpaceOnUse" x="0" y="0" width="50" height="19">
<path d="M0 18.9373H49.4506V0.937256H0V18.9373Z" fill="white"/>
</mask>
<g mask="url(#mask2_650_14516)">
<path d="M37.3798 10.8837H36.6413C36.3043 10.8837 36.1179 11.0411 36.1179 11.3059C36.1179 11.5635 36.29 11.7353 36.6556 11.7353C36.9137 11.7353 37.0787 11.7138 37.2436 11.5564C37.3439 11.4633 37.3798 11.313 37.3798 11.084V10.8837ZM37.4013 12.4581V12.1361C37.1504 12.3865 36.9137 12.4939 36.4836 12.4939C36.0605 12.4939 35.7522 12.3865 35.5299 12.1647C35.3292 11.9571 35.2216 11.6565 35.2216 11.3273C35.2216 10.7333 35.6303 10.2467 36.4978 10.2467H37.3798V10.0606C37.3798 9.65265 37.179 9.47372 36.6843 9.47372C36.3258 9.47372 36.1609 9.55966 35.9672 9.78153L35.3721 9.20181C35.7378 8.80102 36.0964 8.68651 36.7201 8.68651C37.767 8.68651 38.312 9.13024 38.312 10.0033V12.4581H37.4013Z" fill="#808285"/>
</g>
<mask id="mask3_650_14516" style="mask-type:alpha" maskUnits="userSpaceOnUse" x="0" y="0" width="50" height="19">
<path d="M0 18.9373H49.4506V0.937256H0V18.9373Z" fill="white"/>
</mask>
<g mask="url(#mask3_650_14516)">
<path d="M40.3918 12.4581C39.6246 12.4581 39.302 11.9213 39.302 11.3918V7.36248H40.234V11.3345C40.234 11.5564 40.3273 11.6709 40.5639 11.6709H40.9224V12.4581H40.3918Z" fill="#808285"/>
</g>
<mask id="mask4_650_14516" style="mask-type:alpha" maskUnits="userSpaceOnUse" x="0" y="0" width="50" height="19">
<path d="M0 18.9373H49.4506V0.937256H0V18.9373Z" fill="white"/>
</mask>
<g mask="url(#mask4_650_14516)">
<path d="M42.7086 12.4581C41.9414 12.4581 41.6188 11.9213 41.6188 11.3918V7.36248H42.5508V11.3345C42.5508 11.5564 42.6441 11.6709 42.8807 11.6709H43.2392V12.4581H42.7086Z" fill="#808285"/>
</g>
<mask id="mask5_650_14516" style="mask-type:alpha" maskUnits="userSpaceOnUse" x="0" y="0" width="50" height="19">
<path d="M0 18.9373H49.4506V0.937256H0V18.9373Z" fill="white"/>
</mask>
<g mask="url(#mask5_650_14516)">
<path d="M45.9076 9.84588C45.8072 9.62402 45.5993 9.45941 45.2838 9.45941C44.9683 9.45941 44.7604 9.62402 44.66 9.84588C44.6026 9.98181 44.5811 10.0821 44.574 10.2467H45.9936C45.9864 10.0821 45.965 9.98181 45.9076 9.84588ZM44.574 10.8836C44.574 11.3631 44.8679 11.7137 45.3913 11.7137C45.8001 11.7137 46.0008 11.5992 46.2375 11.3631L46.8039 11.9142C46.4239 12.2935 46.0582 12.501 45.3842 12.501C44.5022 12.501 43.6561 12.1002 43.6561 10.5902C43.6561 9.37352 44.3158 8.68651 45.2838 8.68651C46.3235 8.68651 46.9114 9.44509 46.9114 10.4685V10.8836H44.574Z" fill="#808285"/>
</g>
<mask id="mask6_650_14516" style="mask-type:alpha" maskUnits="userSpaceOnUse" x="0" y="0" width="50" height="19">
<path d="M0 18.9373H49.4506V0.937256H0V18.9373Z" fill="white"/>
</mask>
<g mask="url(#mask6_650_14516)">
<path d="M48.9408 12.4579C48.1808 12.4579 47.8581 11.9212 47.8581 11.3916V9.54515H47.4637V8.8366H47.8581V7.73448H48.7902V8.8366H49.45V9.54515H48.7902V11.3343C48.7902 11.549 48.8906 11.6707 49.113 11.6707H49.45V12.4579H48.9408Z" fill="#808285"/>
</g>
<mask id="mask7_650_14516" style="mask-type:alpha" maskUnits="userSpaceOnUse" x="0" y="0" width="50" height="19">
<path d="M0 18.9373H49.4506V0.937256H0V18.9373Z" fill="white"/>
</mask>
<g mask="url(#mask7_650_14516)">
<path d="M16.6081 18.9373H1.43361C0.641571 18.9373 -0.000488281 18.2964 -0.000488281 17.5059V2.36866C-0.000488281 1.57811 0.641571 0.937256 1.43361 0.937256H16.6081C17.4002 0.937256 18.0422 1.57811 18.0422 2.36866V17.5059C18.0422 18.2964 17.4002 18.9373 16.6081 18.9373Z" fill="#E1272B"/>
</g>
<mask id="mask8_650_14516" style="mask-type:alpha" maskUnits="userSpaceOnUse" x="0" y="0" width="50" height="19">
<path d="M0 18.9373H49.4506V0.937256H0V18.9373Z" fill="white"/>
</mask>
<g mask="url(#mask8_650_14516)">
<path d="M12.1748 8.5598C11.243 8.56396 10.3952 7.80227 10.3893 6.70278C10.3839 5.69763 11.0936 4.82764 12.1748 4.83381C13.1887 4.83969 13.961 5.67062 13.9603 6.70278C13.9596 7.75325 13.1999 8.55525 12.1748 8.5598ZM12.1748 3.64339C10.3516 3.64101 8.99717 5.0575 9.01731 6.70278C9.03966 8.52668 10.431 9.76502 12.1748 9.76216C13.9568 9.75924 15.3311 8.42225 15.3324 6.70278C15.3335 5.01313 14.0315 3.64584 12.1748 3.64339Z" fill="white"/>
</g>
<mask id="mask9_650_14516" style="mask-type:alpha" maskUnits="userSpaceOnUse" x="0" y="0" width="50" height="19">
<path d="M0 18.9373H49.4506V0.937256H0V18.9373Z" fill="white"/>
</mask>
<g mask="url(#mask9_650_14516)">
<path d="M6.72755 16.0568L4.99784 13.8018C4.93229 13.7165 4.81188 13.6846 4.71723 13.7831L4.26902 14.223C4.16576 14.3244 4.11856 14.487 4.11915 14.6316L4.12453 16.0223C4.12495 16.1379 4.0312 16.2384 3.91539 16.2384H2.91672C2.80122 16.2384 2.70758 16.1503 2.70758 16.0351V10.3285C2.70758 10.2132 2.80122 10.1198 2.91672 10.1198H3.91019C4.0257 10.1198 4.11933 10.2132 4.11933 10.3285V12.5718C4.11724 12.6769 4.16708 12.7389 4.25169 12.6654L6.56908 10.2924C6.68153 10.1772 6.81365 10.1198 6.99106 10.1236H8.27201C8.33595 10.1236 8.37598 10.1881 8.31623 10.2502L5.97805 12.5641C5.89224 12.6492 5.8776 12.7848 5.95188 12.8799L8.41955 16.0466C8.52662 16.1659 8.46687 16.238 8.36116 16.2378H7.10531C6.95652 16.2378 6.81801 16.1747 6.72755 16.0568Z" fill="white"/>
</g>
<mask id="mask10_650_14516" style="mask-type:alpha" maskUnits="userSpaceOnUse" x="0" y="0" width="50" height="19">
<path d="M0 18.9373H49.4506V0.937256H0V18.9373Z" fill="white"/>
</mask>
<g mask="url(#mask10_650_14516)">
<path d="M12.188 16.2396C10.1448 16.244 8.96709 14.5756 9.02231 13.0979V10.3261C9.02231 10.2109 9.11588 10.1174 9.23145 10.1174H10.1895C10.3053 10.1174 10.3992 10.2114 10.3986 10.327L10.3876 13.0432C10.3514 14.0811 11.1083 15.0055 12.188 15.0024C13.2545 14.9993 13.964 14.096 13.9647 13.1208L13.9758 10.3253C13.9763 10.2103 14.0698 10.1174 14.1849 10.1174H15.1268C15.2423 10.1174 15.3359 10.2109 15.3359 10.3261V12.919C15.3957 14.7968 14.0139 16.2356 12.188 16.2396Z" fill="white"/>
</g>
<mask id="mask11_650_14516" style="mask-type:alpha" maskUnits="userSpaceOnUse" x="0" y="0" width="50" height="19">
<path d="M0 18.9373H49.4506V0.937256H0V18.9373Z" fill="white"/>
</mask>
<g mask="url(#mask11_650_14516)">
<path d="M8.65855 6.68187C8.6635 8.69585 7.04518 9.80417 5.55909 9.75312H2.90678C2.79462 9.75312 2.70374 9.65942 2.70374 9.54748V8.61885C2.70374 8.50661 2.79516 8.41565 2.90756 8.41613L5.54965 8.42693C6.48749 8.45728 7.44428 7.79621 7.45455 6.68783C7.46346 5.72366 6.69161 4.97814 5.625 4.95983L2.90594 4.94904C2.79414 4.94862 2.70374 4.85802 2.70374 4.74637V3.83356C2.70374 3.72161 2.79462 3.63865 2.90678 3.63865H5.42871C7.23191 3.57907 8.65412 4.91224 8.65855 6.68187Z" fill="white"/>
</g>
</svg>
