<svg width="21" height="20" viewBox="0 0 21 20" fill="none" xmlns="http://www.w3.org/2000/svg">
<g clip-path="url(#clip0_4095_108457)">
<path d="M7.01367 11.5C7.01367 12.2956 7.32974 13.0587 7.89235 13.6213C8.45496 14.1839 9.21802 14.5 10.0137 14.5C10.8093 14.5 11.5724 14.1839 12.135 13.6213C12.6976 13.0587 13.0137 12.2956 13.0137 11.5C13.0137 10.7044 12.6976 9.94129 12.135 9.37868C11.5724 8.81607 10.8093 8.5 10.0137 8.5C9.21802 8.5 8.45496 8.81607 7.89235 9.37868C7.32974 9.94129 7.01367 10.7044 7.01367 11.5Z" stroke="black" stroke-width="1.8" stroke-linecap="round" stroke-linejoin="round"/>
<path d="M19.0142 7.5C19.0142 6.96957 18.8034 6.46086 18.4284 6.08579C18.0533 5.71071 17.5446 5.5 17.0142 5.5H13.5142V3.5C13.5142 3.23478 13.4088 2.98043 13.2213 2.79289C13.0337 2.60536 12.7794 2.5 12.5142 2.5H7.51416C7.24894 2.5 6.99459 2.60536 6.80705 2.79289C6.61952 2.98043 6.51416 3.23478 6.51416 3.5V5.5H3.01416C2.48373 5.5 1.97502 5.71071 1.59995 6.08579C1.22487 6.46086 1.01416 6.96957 1.01416 7.5V15.5C1.01416 16.0304 1.22487 16.5391 1.59995 16.9142C1.97502 17.2893 2.48373 17.5 3.01416 17.5H17.0142C17.5446 17.5 18.0533 17.2893 18.4284 16.9142C18.8034 16.5391 19.0142 16.0304 19.0142 15.5V7.5Z" stroke="black" stroke-width="1.8" stroke-linecap="round" stroke-linejoin="round"/>
</g>
<defs>
<clipPath id="clip0_4095_108457">
<rect width="20" height="20" fill="white" transform="translate(0.0136719)"/>
</clipPath>
</defs>
</svg>
