<svg width="21" height="21" viewBox="0 0 21 21" fill="none" xmlns="http://www.w3.org/2000/svg">
<path fill-rule="evenodd" clip-rule="evenodd" d="M0 10.5C0 4.70101 4.70101 0 10.5 0C16.299 0 21 4.70101 21 10.5C21 16.299 16.299 21 10.5 21C4.70101 21 0 16.299 0 10.5ZM18.9 10.5C18.9 5.86081 15.1392 2.1 10.5 2.1C5.86081 2.1 2.1 5.86081 2.1 10.5C2.1 15.1392 5.86081 18.9 10.5 18.9C15.1392 18.9 18.9 15.1392 18.9 10.5ZM8.925 15.225C8.925 16.0948 9.63015 16.8 10.5 16.8C11.3698 16.8 12.075 16.0948 12.075 15.225C12.075 14.3552 11.3698 13.65 10.5 13.65C9.63015 13.65 8.925 14.3552 8.925 15.225ZM12.0287 4.53302C10.4571 3.81415 8.59692 4.28743 7.56 5.67C7.21206 6.13392 7.30608 6.79206 7.77 7.14C8.23392 7.48794 8.89206 7.39392 9.24 6.93C9.6844 6.33747 10.4816 6.13464 11.1551 6.44272C11.8287 6.75081 12.1966 7.48657 12.0389 8.21025C11.8812 8.93394 11.2407 9.45 10.5 9.45L10.3926 9.45542C9.86318 9.50919 9.45 9.95635 9.45 10.5C9.45 11.0799 9.9201 11.55 10.5 11.55C12.2282 11.55 13.7229 10.3459 14.0908 8.65726C14.4586 6.96866 13.6003 5.25189 12.0287 4.53302Z" fill="#666666"/>
</svg>
