<svg width="21" height="22" viewBox="0 0 21 22" fill="none" xmlns="http://www.w3.org/2000/svg">
<path fill-rule="evenodd" clip-rule="evenodd" d="M0 11C0 5.20101 4.70101 0.5 10.5 0.5C16.299 0.5 21 5.20101 21 11C21 16.799 16.299 21.5 10.5 21.5C4.70101 21.5 0 16.799 0 11ZM18.9 11C18.9 6.3608 15.1392 2.6 10.5 2.6C5.86081 2.6 2.1 6.3608 2.1 11C2.1 15.6392 5.86081 19.4 10.5 19.4C15.1392 19.4 18.9 15.6392 18.9 11ZM8.925 15.725C8.925 16.5948 9.63015 17.3 10.5 17.3C11.3698 17.3 12.075 16.5948 12.075 15.725C12.075 14.8551 11.3698 14.15 10.5 14.15C9.63015 14.15 8.925 14.8551 8.925 15.725ZM12.0287 5.03302C10.4571 4.31415 8.59692 4.78743 7.56 6.16999C7.21206 6.63391 7.30608 7.29206 7.77 7.64C8.23392 7.98793 8.89206 7.89391 9.24 7.42999C9.6844 6.83747 10.4816 6.63463 11.1551 6.94272C11.8287 7.25081 12.1966 7.98656 12.0389 8.71025C11.8812 9.43393 11.2407 9.95 10.5 9.95L10.3926 9.95542C9.86317 10.0092 9.45 10.4563 9.45 11C9.45 11.5799 9.9201 12.05 10.5 12.05C12.2282 12.05 13.7229 10.8459 14.0908 9.15725C14.4586 7.46865 13.6003 5.75189 12.0287 5.03302Z" fill="#BCBDBE"/>
</svg>
