<svg width="50" height="17" viewBox="0 0 50 17" fill="none" xmlns="http://www.w3.org/2000/svg">
<path d="M14.7365 0.464355L10.5321 11.4339L8.82998 2.10791C8.63454 1.06777 7.84539 0.464355 6.96803 0.464355H0.0931329L0 0.930564C1.40969 1.25083 3.01341 1.75816 3.98531 2.30007C4.57903 2.63672 4.74942 2.92751 4.94133 3.71908L8.16641 16.5797H12.4389L18.9857 0.464355H14.7365Z" fill="black"/>
<path d="M20.7167 0.464355L17.377 16.5797H21.418L24.7524 0.464355H20.7167Z" fill="black"/>
<path d="M30.0562 4.93134C30.0685 4.35413 30.6033 3.74016 31.771 3.57711C32.352 3.50105 33.9448 3.44355 35.7563 4.29881L36.4651 0.884681C35.4946 0.520012 34.239 0.166626 32.6858 0.166626C28.6895 0.166626 25.8825 2.36119 25.8553 5.49981C25.8338 7.81666 27.8644 9.11156 29.3926 9.88494C30.9674 10.6714 31.4983 11.1766 31.4877 11.8888C31.4803 12.9701 30.2319 13.4435 29.0733 13.4617C27.0392 13.4952 25.8606 12.8976 24.919 12.4478L24.1909 15.9784C25.1311 16.4246 26.8759 16.8147 28.6856 16.8333C32.9246 16.8333 35.7027 14.6686 35.7172 11.3192C35.7352 7.06294 30.017 6.83002 30.0562 4.93134Z" fill="black"/>
<path fill-rule="evenodd" clip-rule="evenodd" d="M41.5679 1.6468C41.8582 0.928744 42.5133 0.464355 43.2901 0.464355H46.7406L49.9999 16.5797H46.2527L45.767 14.1725H40.5956L39.7528 16.5797H35.5068L41.5679 1.6468ZM43.9033 4.82039L41.7563 10.8731H45.1123L43.9033 4.82039Z" fill="black"/>
</svg>
